<?xml version="1.0" encoding="utf-8"?>
<!-- Generator: Adobe Illustrator 24.1.0, SVG Export Plug-In . SVG Version: 6.00 Build 0)  -->
<svg version="1.1" id="Layer_1" xmlns="http://www.w3.org/2000/svg" xmlns:xlink="http://www.w3.org/1999/xlink" x="0px" y="0px"
	 viewBox="0 0 100 125" style="enable-background:new 0 0 100 125;" xml:space="preserve">
<style type="text/css">
	.st0{fill:url(#SVGID_1_);}
	.st1{fill:url(#SVGID_2_);}
	.st2{fill:url(#SVGID_3_);}
	.st3{fill:url(#SVGID_4_);}
</style>
<linearGradient id="SVGID_1_" gradientUnits="userSpaceOnUse" x1="61.1364" y1="62.0406" x2="15.5829" y2="-17.9474">
	<stop  offset="0" style="stop-color:#D30000"/>
	<stop  offset="1" style="stop-color:#930000"/>
</linearGradient>
<path class="st0" d="M10,81h52.2l0.2,0.4c0.2,0.5,0.4,1.1,0.7,1.8l0.5,1.4h-2.2c-0.6,0-1,0.4-1,1V95c0,0.6,0.4,1,1,1h24.8
	c0.6,0,1-0.4,1-1v-9.3c0-0.6-0.4-1-1-1h-1.4c0.7-1.2,1.3-2.4,1.9-3.7h3.3c3.3,0,6-2.7,6-6V10c0-3.3-2.7-5.9-6-5.9H10
	c-3.3,0-6,2.6-6,5.9v65.1C4,78.3,6.7,81,10,81z M85.3,86.7V94H62.5v-7.3H85.3L85.3,86.7z M82.6,84.7H65.8L65,82.5
	c-0.3-0.7-0.5-1.3-0.7-1.8c-1-2.2-1.6-4.5-1.8-6.9v-0.1v-0.2c-0.9-3.9-3.1-13.1-4.3-15.5c-0.2-0.6,0.1-1.2,0.6-1.5
	c0.8-0.4,2.3-0.1,3.7,2.4c0.8,1.5,1.4,3.2,1.8,4.8c0.1,0.6,0.6,0.9,1.1,0.9c0.6-0.1,0.9-0.6,0.9-1.1V38.7c0-1.1,0.9-2,2-2s2,0.9,2,2
	v18.3c0,0.6,0.4,1,1,1s1-0.4,1-1c0-1.1,0.8-2,1.9-2.1c0,0,0,0,0.1,0c0.5,0,1,0.2,1.4,0.6c0.4,0.4,0.6,0.9,0.6,1.5v3c0,0.6,0.4,1,1,1
	s1-0.4,1-1c0-0.7,0.2-1.3,0.6-1.8c0.3-0.4,0.8-0.7,1.4-0.7c1.2,0.1,2.1,1.2,2,2.5v2c0,0.6,0.4,1,1,1s1-0.4,1-1c0-1.1,0.8-2,1.9-2.1
	c0,0,0,0,0.1,0c0.5,0,1,0.2,1.4,0.6c0.4,0.4,0.6,1,0.5,1.5v3.4c0,0.5,0,0.9,0,1.4C87.9,73.8,85.9,78.8,82.6,84.7L82.6,84.7z M42,61
	h15c0.3,1,0.7,2.4,1.1,3.9H42C42.3,63.6,42.3,62.3,42,61z M68.1,34.7c-2.2,0-4,1.8-4,4v7.2c-4-2.2-5.4-7.2-3.2-11.2
	c2.2-4,7.2-5.4,11.2-3.2s5.4,7.2,3.2,11.2c-0.7,1.3-1.8,2.4-3.2,3.2v-7.2C72.1,36.5,70.3,34.7,68.1,34.7
	C68.1,34.7,68.1,34.7,68.1,34.7z M6,10c0-2.2,1.8-4,4-4h80.1c2.2,0.1,3.9,1.8,3.9,4v11.4H6V10z M6,23.4h88v51.7c0,2.2-1.8,4-4,4
	h-2.4c1.6-3.9,2.5-8,2.5-12.2c0-0.5,0-1,0-1.4V62c0-1.1-0.4-2.1-1.2-2.9c-1.3-1.3-3.4-1.5-5-0.5c-0.5-1.8-2-3-3.8-3.1
	c-0.7,0-1.5,0.2-2.1,0.7c-0.1-0.8-0.5-1.5-1.1-2.1c-1.3-1.3-3.3-1.6-4.9-0.6v-5.4c5.2-2.3,7.5-8.3,5.3-13.4s-8.3-7.5-13.4-5.3
	c-2.4,1-4.3,3-5.3,5.4H27.4c-2.2-0.3-4.2,1.2-4.5,3.4c-0.3,2.2,1.2,4.2,3.4,4.5c0.4,0,0.7,0,1.1,0h31.3c1,2.4,3,4.4,5.4,5.4v9.7
	c-2.1-3.7-4.7-4-6.3-3.1c-1.5,0.7-2.2,2.5-1.5,4.1c0,0.1,0.1,0.1,0.1,0.2h-15c-2.2-5.2-8.2-7.6-13.4-5.5c-5.2,2.2-7.6,8.2-5.5,13.4
	s8.2,7.6,13.4,5.5c2.5-1,4.4-3,5.5-5.5h17.4c0.5,2,1.1,4.4,1.7,7v0.1c0.2,1.7,0.5,3.4,1.1,5H10c-2.2,0-4-1.8-3.9-4L6,23.4z M58,40.6
	H27.4c-1.1,0.2-2.1-0.5-2.3-1.6s0.5-2.1,1.6-2.3c0.2,0,0.5,0,0.7,0H58c-0.1,0.7-0.2,1.3-0.2,2C57.8,39.4,57.9,40,58,40.6z M40.2,63
	c0,4.5-3.7,8.2-8.2,8.2c-4.5,0-8.2-3.7-8.2-8.2c0-4.5,3.7-8.2,8.2-8.2c0,0,0,0,0,0C36.5,54.8,40.1,58.5,40.2,63z"/>
<linearGradient id="SVGID_2_" gradientUnits="userSpaceOnUse" x1="10.7" y1="14" x2="20.7" y2="14">
	<stop  offset="0" style="stop-color:#D30000"/>
	<stop  offset="1" style="stop-color:#930000"/>
</linearGradient>
<path class="st1" d="M15.7,9c-2.8,0-5,2.2-5,5s2.2,5,5,5s5-2.2,5-5S18.5,9,15.7,9L15.7,9z M15.7,16.9c-1.7,0-3-1.3-3-3s1.3-3,3-3
	s3,1.3,3,3C18.7,15.5,17.4,16.9,15.7,16.9C15.8,16.9,15.7,16.9,15.7,16.9L15.7,16.9z"/>
<linearGradient id="SVGID_3_" gradientUnits="userSpaceOnUse" x1="26.18" y1="14" x2="36.18" y2="14">
	<stop  offset="0" style="stop-color:#D30000"/>
	<stop  offset="1" style="stop-color:#930000"/>
</linearGradient>
<path class="st2" d="M31.2,9c-2.8,0-5,2.2-5,5s2.2,5,5,5s5-2.2,5-5S33.9,9,31.2,9z M31.2,16.9c-1.7,0-3-1.3-3-3s1.3-3,3-3
	c1.7,0,3,1.3,3,3C34.2,15.6,32.8,16.9,31.2,16.9L31.2,16.9z"/>
<linearGradient id="SVGID_4_" gradientUnits="userSpaceOnUse" x1="41.66" y1="14" x2="51.66" y2="14">
	<stop  offset="0" style="stop-color:#D30000"/>
	<stop  offset="1" style="stop-color:#930000"/>
</linearGradient>
<path class="st3" d="M46.7,9c-2.8,0-5,2.2-5,5s2.2,5,5,5s5-2.2,5-5S49.4,9,46.7,9z M46.7,16.9c-1.7,0-3-1.3-3-3s1.3-3,3-3s3,1.3,3,3
	C49.6,15.6,48.3,16.9,46.7,16.9L46.7,16.9z"/>
</svg>
