<?xml version="1.0" encoding="utf-8"?>
<!-- Generator: Adobe Illustrator 24.1.0, SVG Export Plug-In . SVG Version: 6.00 Build 0)  -->
<svg version="1.1" id="Layer_1" xmlns="http://www.w3.org/2000/svg" xmlns:xlink="http://www.w3.org/1999/xlink" x="0px" y="0px"
	 viewBox="0 0 100 125" style="enable-background:new 0 0 100 125;" xml:space="preserve">
<style type="text/css">
	.st0{fill:url(#SVGID_1_);}
	.st1{fill:url(#SVGID_2_);}
	.st2{fill:url(#SVGID_3_);}
	.st3{fill:url(#SVGID_4_);}
	.st4{fill:url(#SVGID_5_);}
	.st5{fill:url(#SVGID_6_);}
	.st6{fill:url(#SVGID_7_);}
	.st7{fill:url(#SVGID_8_);}
	.st8{fill:url(#SVGID_9_);}
	.st9{fill:url(#SVGID_10_);}
	.st10{fill:url(#SVGID_11_);}
	.st11{fill:url(#SVGID_12_);}
	.st12{fill:url(#SVGID_13_);}
	.st13{fill:url(#SVGID_14_);}
	.st14{fill:url(#SVGID_15_);}
	.st15{fill:url(#SVGID_16_);}
	.st16{fill:url(#SVGID_17_);}
	.st17{fill:url(#SVGID_18_);}
	.st18{fill:url(#SVGID_19_);}
	.st19{fill:url(#SVGID_20_);}
	.st20{fill:url(#SVGID_21_);}
	.st21{fill:url(#SVGID_22_);}
	.st22{fill:url(#SVGID_23_);}
	.st23{fill:url(#SVGID_24_);}
	.st24{fill:url(#SVGID_25_);}
	.st25{fill:url(#SVGID_26_);}
	.st26{fill:url(#SVGID_27_);}
	.st27{fill:url(#SVGID_28_);}
	.st28{fill:url(#SVGID_29_);}
	.st29{fill:url(#SVGID_30_);}
	.st30{fill:url(#SVGID_31_);}
</style>
<g>
	<g>
		<g>
			<linearGradient id="SVGID_1_" gradientUnits="userSpaceOnUse" x1="42.0372" y1="52.2635" x2="96.05" y2="52.2635">
				<stop  offset="0" style="stop-color:#D30000"/>
				<stop  offset="1" style="stop-color:#930000"/>
			</linearGradient>
			<path class="st0" d="M66.2,76.4H49.1c-3.9,0-7-3.2-7-7V29.4c0-0.7,0.6-1.3,1.3-1.3h51.4c0.7,0,1.3,0.6,1.3,1.3
				c0,0.7-0.6,1.3-1.3,1.3h-50v38.6c0,2.4,2,4.4,4.4,4.4h17.1c0.7,0,1.3,0.6,1.3,1.3C67.5,75.8,66.9,76.4,66.2,76.4z"/>
		</g>
		<g>
			<linearGradient id="SVGID_2_" gradientUnits="userSpaceOnUse" x1="40.1353" y1="24.6866" x2="67.5221" y2="24.6866">
				<stop  offset="0" style="stop-color:#D30000"/>
				<stop  offset="1" style="stop-color:#930000"/>
			</linearGradient>
			<path class="st1" d="M66.2,30.8h-20c-3.4,0-6.1-2.7-6.1-6.1s2.7-6.1,6.1-6.1H50c0.7,0,1.3,0.6,1.3,1.3c0,0.7-0.6,1.3-1.3,1.3
				h-3.8c-1.9,0-3.4,1.5-3.4,3.4s1.5,3.4,3.4,3.4h20c0.7,0,1.3,0.6,1.3,1.3C67.5,30.2,66.9,30.8,66.2,30.8z"/>
		</g>
		<g>
			<linearGradient id="SVGID_3_" gradientUnits="userSpaceOnUse" x1="4" y1="33.2449" x2="55.16" y2="33.2449">
				<stop  offset="0" style="stop-color:#D30000"/>
				<stop  offset="1" style="stop-color:#930000"/>
			</linearGradient>
			<path class="st2" d="M41.5,57.4H5.3c-0.7,0-1.3-0.6-1.3-1.3V10.4c0-0.7,0.6-1.3,1.3-1.3h43.7c3.4,0,6.1,2.7,6.1,6.1
				s-2.7,6.1-6.1,6.1c-0.7,0-1.3-0.6-1.3-1.3c0-0.7,0.6-1.3,1.3-1.3c1.9,0,3.4-1.5,3.4-3.4c0-1.9-1.5-3.4-3.4-3.4H6.7v43h34.8
				c0.7,0,1.3,0.6,1.3,1.3C42.8,56.8,42.2,57.4,41.5,57.4z"/>
		</g>
		<linearGradient id="SVGID_4_" gradientUnits="userSpaceOnUse" x1="9.135" y1="16.1282" x2="12.9387" y2="16.1282">
			<stop  offset="0" style="stop-color:#D30000"/>
			<stop  offset="1" style="stop-color:#930000"/>
		</linearGradient>
		<rect x="9.1" y="14.2" class="st3" width="3.8" height="3.8"/>
		<linearGradient id="SVGID_5_" gradientUnits="userSpaceOnUse" x1="14.8406" y1="16.1282" x2="18.6443" y2="16.1282">
			<stop  offset="0" style="stop-color:#D30000"/>
			<stop  offset="1" style="stop-color:#930000"/>
		</linearGradient>
		<rect x="14.8" y="14.2" class="st4" width="3.8" height="3.8"/>
		<linearGradient id="SVGID_6_" gradientUnits="userSpaceOnUse" x1="20.5462" y1="16.1282" x2="24.3499" y2="16.1282">
			<stop  offset="0" style="stop-color:#D30000"/>
			<stop  offset="1" style="stop-color:#930000"/>
		</linearGradient>
		<rect x="20.5" y="14.2" class="st5" width="3.8" height="3.8"/>
		<linearGradient id="SVGID_7_" gradientUnits="userSpaceOnUse" x1="26.2518" y1="16.1282" x2="30.0555" y2="16.1282">
			<stop  offset="0" style="stop-color:#D30000"/>
			<stop  offset="1" style="stop-color:#930000"/>
		</linearGradient>
		<rect x="26.3" y="14.2" class="st6" width="3.8" height="3.8"/>
		<linearGradient id="SVGID_8_" gradientUnits="userSpaceOnUse" x1="31.9573" y1="16.1282" x2="35.7611" y2="16.1282">
			<stop  offset="0" style="stop-color:#D30000"/>
			<stop  offset="1" style="stop-color:#930000"/>
		</linearGradient>
		<rect x="32" y="14.2" class="st7" width="3.8" height="3.8"/>
		<linearGradient id="SVGID_9_" gradientUnits="userSpaceOnUse" x1="37.6629" y1="16.1282" x2="41.4666" y2="16.1282">
			<stop  offset="0" style="stop-color:#D30000"/>
			<stop  offset="1" style="stop-color:#930000"/>
		</linearGradient>
		<rect x="37.7" y="14.2" class="st8" width="3.8" height="3.8"/>
		<linearGradient id="SVGID_10_" gradientUnits="userSpaceOnUse" x1="9.135" y1="50.3617" x2="12.9387" y2="50.3617">
			<stop  offset="0" style="stop-color:#D30000"/>
			<stop  offset="1" style="stop-color:#930000"/>
		</linearGradient>
		<rect x="9.1" y="48.5" class="st9" width="3.8" height="3.8"/>
		<linearGradient id="SVGID_11_" gradientUnits="userSpaceOnUse" x1="14.8406" y1="50.3617" x2="18.6443" y2="50.3617">
			<stop  offset="0" style="stop-color:#D30000"/>
			<stop  offset="1" style="stop-color:#930000"/>
		</linearGradient>
		<rect x="14.8" y="48.5" class="st10" width="3.8" height="3.8"/>
		<linearGradient id="SVGID_12_" gradientUnits="userSpaceOnUse" x1="20.5462" y1="50.3617" x2="24.3499" y2="50.3617">
			<stop  offset="0" style="stop-color:#D30000"/>
			<stop  offset="1" style="stop-color:#930000"/>
		</linearGradient>
		<rect x="20.5" y="48.5" class="st11" width="3.8" height="3.8"/>
		<linearGradient id="SVGID_13_" gradientUnits="userSpaceOnUse" x1="26.2518" y1="50.3617" x2="30.0555" y2="50.3617">
			<stop  offset="0" style="stop-color:#D30000"/>
			<stop  offset="1" style="stop-color:#930000"/>
		</linearGradient>
		<rect x="26.3" y="48.5" class="st12" width="3.8" height="3.8"/>
		<linearGradient id="SVGID_14_" gradientUnits="userSpaceOnUse" x1="31.9573" y1="50.3617" x2="35.7611" y2="50.3617">
			<stop  offset="0" style="stop-color:#D30000"/>
			<stop  offset="1" style="stop-color:#930000"/>
		</linearGradient>
		<rect x="32" y="48.5" class="st13" width="3.8" height="3.8"/>
		<linearGradient id="SVGID_15_" gradientUnits="userSpaceOnUse" x1="47.1722" y1="35.1468" x2="50.9759" y2="35.1468">
			<stop  offset="0" style="stop-color:#D30000"/>
			<stop  offset="1" style="stop-color:#930000"/>
		</linearGradient>
		<rect x="47.2" y="33.2" class="st14" width="3.8" height="3.8"/>
		<linearGradient id="SVGID_16_" gradientUnits="userSpaceOnUse" x1="52.8778" y1="35.1468" x2="56.6815" y2="35.1468">
			<stop  offset="0" style="stop-color:#D30000"/>
			<stop  offset="1" style="stop-color:#930000"/>
		</linearGradient>
		<rect x="52.9" y="33.2" class="st15" width="3.8" height="3.8"/>
		<linearGradient id="SVGID_17_" gradientUnits="userSpaceOnUse" x1="58.5834" y1="35.1468" x2="62.3871" y2="35.1468">
			<stop  offset="0" style="stop-color:#D30000"/>
			<stop  offset="1" style="stop-color:#930000"/>
		</linearGradient>
		<rect x="58.6" y="33.2" class="st16" width="3.8" height="3.8"/>
		<linearGradient id="SVGID_18_" gradientUnits="userSpaceOnUse" x1="64.2889" y1="35.1468" x2="68.0927" y2="35.1468">
			<stop  offset="0" style="stop-color:#D30000"/>
			<stop  offset="1" style="stop-color:#930000"/>
		</linearGradient>
		<rect x="64.3" y="33.2" class="st17" width="3.8" height="3.8"/>
		<linearGradient id="SVGID_19_" gradientUnits="userSpaceOnUse" x1="69.9945" y1="35.1468" x2="73.7982" y2="35.1468">
			<stop  offset="0" style="stop-color:#D30000"/>
			<stop  offset="1" style="stop-color:#930000"/>
		</linearGradient>
		<rect x="70" y="33.2" class="st18" width="3.8" height="3.8"/>
		<linearGradient id="SVGID_20_" gradientUnits="userSpaceOnUse" x1="75.7001" y1="35.1468" x2="79.5038" y2="35.1468">
			<stop  offset="0" style="stop-color:#D30000"/>
			<stop  offset="1" style="stop-color:#930000"/>
		</linearGradient>
		<rect x="75.7" y="33.2" class="st19" width="3.8" height="3.8"/>
		<linearGradient id="SVGID_21_" gradientUnits="userSpaceOnUse" x1="81.4057" y1="35.1468" x2="85.2094" y2="35.1468">
			<stop  offset="0" style="stop-color:#D30000"/>
			<stop  offset="1" style="stop-color:#930000"/>
		</linearGradient>
		<rect x="81.4" y="33.2" class="st20" width="3.8" height="3.8"/>
		<linearGradient id="SVGID_22_" gradientUnits="userSpaceOnUse" x1="87.1113" y1="35.1468" x2="90.915" y2="35.1468">
			<stop  offset="0" style="stop-color:#D30000"/>
			<stop  offset="1" style="stop-color:#930000"/>
		</linearGradient>
		<rect x="87.1" y="33.2" class="st21" width="3.8" height="3.8"/>
		<linearGradient id="SVGID_23_" gradientUnits="userSpaceOnUse" x1="47.1722" y1="69.3803" x2="50.9759" y2="69.3803">
			<stop  offset="0" style="stop-color:#D30000"/>
			<stop  offset="1" style="stop-color:#930000"/>
		</linearGradient>
		<rect x="47.2" y="67.5" class="st22" width="3.8" height="3.8"/>
		<linearGradient id="SVGID_24_" gradientUnits="userSpaceOnUse" x1="52.8778" y1="69.3803" x2="56.6815" y2="69.3803">
			<stop  offset="0" style="stop-color:#D30000"/>
			<stop  offset="1" style="stop-color:#930000"/>
		</linearGradient>
		<rect x="52.9" y="67.5" class="st23" width="3.8" height="3.8"/>
		<g>
			<linearGradient id="SVGID_25_" gradientUnits="userSpaceOnUse" x1="49.6446" y1="52.2635" x2="59.9147" y2="52.2635">
				<stop  offset="0" style="stop-color:#D30000"/>
				<stop  offset="1" style="stop-color:#930000"/>
			</linearGradient>
			<path class="st24" d="M58.6,59.3H51c-0.7,0-1.3-0.6-1.3-1.3V46.6c0-0.7,0.6-1.3,1.3-1.3h7.6c0.7,0,1.3,0.6,1.3,1.3V58
				C59.9,58.7,59.3,59.3,58.6,59.3z M52.3,56.6h4.9v-8.7h-4.9V56.6z"/>
		</g>
		<g>
			<linearGradient id="SVGID_26_" gradientUnits="userSpaceOnUse" x1="26.8223" y1="33.2449" x2="37.0924" y2="33.2449">
				<stop  offset="0" style="stop-color:#D30000"/>
				<stop  offset="1" style="stop-color:#930000"/>
			</linearGradient>
			<path class="st25" d="M35.8,40.3h-7.6c-0.7,0-1.3-0.6-1.3-1.3V27.5c0-0.7,0.6-1.3,1.3-1.3h7.6c0.7,0,1.3,0.6,1.3,1.3V39
				C37.1,39.7,36.5,40.3,35.8,40.3z M29.5,37.6h4.9v-8.7h-4.9V37.6z"/>
		</g>
		<g>
			<linearGradient id="SVGID_27_" gradientUnits="userSpaceOnUse" x1="11.6074" y1="33.2449" x2="21.8775" y2="33.2449">
				<stop  offset="0" style="stop-color:#D30000"/>
				<stop  offset="1" style="stop-color:#930000"/>
			</linearGradient>
			<path class="st26" d="M20.5,40.3h-7.6c-0.7,0-1.3-0.6-1.3-1.3V27.5c0-0.7,0.6-1.3,1.3-1.3h7.6c0.7,0,1.3,0.6,1.3,1.3V39
				C21.9,39.7,21.3,40.3,20.5,40.3z M14.3,37.6h4.9v-8.7h-4.9V37.6z"/>
		</g>
		<g>
			<linearGradient id="SVGID_28_" gradientUnits="userSpaceOnUse" x1="62.9576" y1="67.4784" x2="96.05" y2="67.4784">
				<stop  offset="0" style="stop-color:#D30000"/>
				<stop  offset="1" style="stop-color:#930000"/>
			</linearGradient>
			<path class="st27" d="M79.5,84C70.4,84,63,76.6,63,67.5s7.4-16.5,16.5-16.5s16.5,7.4,16.5,16.5S88.6,84,79.5,84z M79.5,53.6
				c-7.7,0-13.9,6.2-13.9,13.9s6.2,13.9,13.9,13.9s13.9-6.2,13.9-13.9S87.2,53.6,79.5,53.6z"/>
		</g>
		<g>
			<linearGradient id="SVGID_29_" gradientUnits="userSpaceOnUse" x1="72.4668" y1="65.5765" x2="86.5409" y2="65.5765">
				<stop  offset="0" style="stop-color:#D30000"/>
				<stop  offset="1" style="stop-color:#930000"/>
			</linearGradient>
			<path class="st28" d="M79.5,68.8c-0.3,0-0.5-0.1-0.7-0.2l-5.7-3.8c-0.6-0.4-0.8-1.2-0.4-1.8c0.4-0.6,1.2-0.8,1.8-0.4l5.2,3.4
				l5.1-1.7c0.7-0.2,1.5,0.1,1.7,0.8c0.2,0.7-0.1,1.5-0.8,1.7l-5.7,1.9C79.8,68.8,79.6,68.8,79.5,68.8z"/>
		</g>
		<g>
			<linearGradient id="SVGID_30_" gradientUnits="userSpaceOnUse" x1="59.1539" y1="12.3245" x2="77.0314" y2="12.3245">
				<stop  offset="0" style="stop-color:#D30000"/>
				<stop  offset="1" style="stop-color:#930000"/>
			</linearGradient>
			<path class="st29" d="M68.1,21.3c-4.9,0-8.9-4-8.9-8.9s4-8.9,8.9-8.9s8.9,4,8.9,8.9S73,21.3,68.1,21.3z M68.1,6
				c-3.5,0-6.3,2.8-6.3,6.3s2.8,6.3,6.3,6.3s6.3-2.8,6.3-6.3S71.6,6,68.1,6z"/>
		</g>
		<g>
			<linearGradient id="SVGID_31_" gradientUnits="userSpaceOnUse" x1="74.3688" y1="12.3245" x2="92.2463" y2="12.3245">
				<stop  offset="0" style="stop-color:#D30000"/>
				<stop  offset="1" style="stop-color:#930000"/>
			</linearGradient>
			<path class="st30" d="M83.3,21.3c-4.9,0-8.9-4-8.9-8.9s4-8.9,8.9-8.9c4.9,0,8.9,4,8.9,8.9S88.2,21.3,83.3,21.3z M83.3,6
				C79.8,6,77,8.9,77,12.3s2.8,6.3,6.3,6.3c3.5,0,6.3-2.8,6.3-6.3S86.8,6,83.3,6z"/>
		</g>
	</g>
</g>
</svg>
