<?xml version="1.0" encoding="utf-8"?>
<!-- Generator: Adobe Illustrator 24.1.0, SVG Export Plug-In . SVG Version: 6.00 Build 0)  -->
<svg version="1.1" id="Layer_1" xmlns="http://www.w3.org/2000/svg" xmlns:xlink="http://www.w3.org/1999/xlink" x="0px" y="0px"
	 viewBox="0 0 100 125" style="enable-background:new 0 0 100 125;" xml:space="preserve">
<style type="text/css">
	.st0{fill:url(#SVGID_1_);}
	.st1{fill:url(#SVGID_2_);}
	.st2{fill:url(#SVGID_3_);}
	.st3{fill:url(#SVGID_4_);}
	.st4{fill:url(#SVGID_5_);}
	.st5{fill:url(#SVGID_6_);}
	.st6{fill:url(#SVGID_7_);}
	.st7{fill:url(#SVGID_8_);}
	.st8{fill:url(#SVGID_9_);}
	.st9{fill:url(#SVGID_10_);}
	.st10{fill:url(#SVGID_11_);}
	.st11{fill:url(#SVGID_12_);}
	.st12{fill:url(#SVGID_13_);}
	.st13{fill:url(#SVGID_14_);}
	.st14{fill:url(#SVGID_15_);}
	.st15{fill:url(#SVGID_16_);}
	.st16{fill:url(#SVGID_17_);}
	.st17{fill:url(#SVGID_18_);}
	.st18{fill:url(#SVGID_19_);}
	.st19{fill:url(#SVGID_20_);}
	.st20{fill:url(#SVGID_21_);}
	.st21{fill:url(#SVGID_22_);}
	.st22{fill:url(#SVGID_23_);}
	.st23{fill:url(#SVGID_24_);}
	.st24{fill:url(#SVGID_25_);}
	.st25{fill:url(#SVGID_26_);}
	.st26{fill:url(#SVGID_27_);}
	.st27{fill:url(#SVGID_28_);}
	.st28{fill:url(#SVGID_29_);}
	.st29{fill:url(#SVGID_30_);}
	.st30{fill:url(#SVGID_31_);}
	.st31{fill:url(#SVGID_32_);}
	.st32{fill:url(#SVGID_33_);}
</style>
<g>
	<linearGradient id="SVGID_1_" gradientUnits="userSpaceOnUse" x1="13.3892" y1="54.4213" x2="85.3547" y2="54.4213">
		<stop  offset="0" style="stop-color:#D30000"/>
		<stop  offset="1" style="stop-color:#930000"/>
	</linearGradient>
	<path class="st0" d="M85.4,31.9c0-6.8-5.5-12.3-12.3-12.3H25.7c-6.8,0-12.3,5.5-12.3,12.3v57.3l1.5-3.1c0-0.1,5-9.9,10.8-9.9H73
		c6.8,0,12.3-5.5,12.3-12.3C85.4,63.9,85.4,31.9,85.4,31.9z M83.7,63.9c0,5.9-4.8,10.7-10.7,10.7H25.7c-4.7,0-8.6,5-10.7,8.2V31.9
		c0-5.9,4.8-10.7,10.7-10.7H73c5.9,0,10.7,4.8,10.7,10.7V63.9z"/>
	<linearGradient id="SVGID_2_" gradientUnits="userSpaceOnUse" x1="67.5073" y1="47.919" x2="73.2472" y2="47.919">
		<stop  offset="0" style="stop-color:#D30000"/>
		<stop  offset="1" style="stop-color:#930000"/>
	</linearGradient>
	<path class="st1" d="M67.5,67.3h5.7V28.5h-5.7V67.3z M69.1,30.1h2.5v35.6h-2.5V30.1z"/>
	<linearGradient id="SVGID_3_" gradientUnits="userSpaceOnUse" x1="57.0057" y1="52.2846" x2="62.7446" y2="52.2846">
		<stop  offset="0" style="stop-color:#D30000"/>
		<stop  offset="1" style="stop-color:#930000"/>
	</linearGradient>
	<path class="st2" d="M57,67.3h5.7V37.2H57V67.3z M58.6,38.9h2.5v26.8h-2.5V38.9z"/>
	<linearGradient id="SVGID_4_" gradientUnits="userSpaceOnUse" x1="46.502" y1="55.3639" x2="52.2419" y2="55.3639">
		<stop  offset="0" style="stop-color:#D30000"/>
		<stop  offset="1" style="stop-color:#930000"/>
	</linearGradient>
	<path class="st3" d="M46.5,67.3h5.7V43.4h-5.7V67.3z M48.1,45h2.5v20.7h-2.5V45z"/>
	<linearGradient id="SVGID_5_" gradientUnits="userSpaceOnUse" x1="36.0005" y1="59.4005" x2="41.7393" y2="59.4005">
		<stop  offset="0" style="stop-color:#D30000"/>
		<stop  offset="1" style="stop-color:#930000"/>
	</linearGradient>
	<path class="st4" d="M36,67.3h5.7V51.5H36V67.3z M37.6,53.1h2.5v12.6h-2.5V53.1z"/>
	<linearGradient id="SVGID_6_" gradientUnits="userSpaceOnUse" x1="25.4967" y1="62.4928" x2="31.2367" y2="62.4928">
		<stop  offset="0" style="stop-color:#D30000"/>
		<stop  offset="1" style="stop-color:#930000"/>
	</linearGradient>
	<path class="st5" d="M25.5,67.3h5.7v-9.7h-5.7V67.3z M27.1,59.3h2.5v6.4h-2.5V59.3z"/>
	<linearGradient id="SVGID_7_" gradientUnits="userSpaceOnUse" x1="25.2414" y1="96.8848" x2="30.3644" y2="96.8848">
		<stop  offset="0" style="stop-color:#D30000"/>
		<stop  offset="1" style="stop-color:#930000"/>
	</linearGradient>
	<path class="st6" d="M30.4,96.9c0-1.4-1.1-2.6-2.6-2.6c-1.4,0-2.6,1.1-2.6,2.6s1.1,2.6,2.6,2.6C29.2,99.4,30.4,98.3,30.4,96.9z
		 M26.1,96.9c0-1,0.8-1.7,1.7-1.7c1,0,1.7,0.8,1.7,1.7c0,1-0.8,1.7-1.7,1.7C26.8,98.6,26.1,97.9,26.1,96.9z"/>
	<linearGradient id="SVGID_8_" gradientUnits="userSpaceOnUse" x1="2.7037" y1="34.4896" x2="10.2271" y2="34.4896">
		<stop  offset="0" style="stop-color:#D30000"/>
		<stop  offset="1" style="stop-color:#930000"/>
	</linearGradient>
	<path class="st7" d="M4.1,38.1l2.3-1.2l2.3,1.2l-0.4-2.6l1.9-1.8l-2.6-0.4l-1.2-2.4l-1.2,2.4l-2.6,0.4l1.9,1.8L4.1,38.1z M4.4,34.2
		L5.8,34l0.6-1.3L7.1,34l1.4,0.2l-1,1l0.2,1.4l-1.2-0.7l-1.2,0.7l0.2-1.4L4.4,34.2z"/>
	<linearGradient id="SVGID_9_" gradientUnits="userSpaceOnUse" x1="25.184" y1="10.7486" x2="30.5581" y2="10.7486">
		<stop  offset="0" style="stop-color:#D30000"/>
		<stop  offset="1" style="stop-color:#930000"/>
	</linearGradient>
	<path class="st8" d="M26.5,11.5l-0.3,1.8l1.7-0.9l1.7,0.9l-0.3-1.8l1.3-1.3l-1.9-0.3l-0.8-1.7L27,9.9l-1.9,0.3L26.5,11.5z
		 M27.6,10.6l0.3-0.6l0.3,0.6l0.7,0.1l-0.5,0.5l0.1,0.6l-0.6-0.3l-0.6,0.3l0.1-0.6l-0.5-0.5L27.6,10.6z"/>
	<linearGradient id="SVGID_10_" gradientUnits="userSpaceOnUse" x1="88.8112" y1="75.2897" x2="94.1832" y2="75.2897">
		<stop  offset="0" style="stop-color:#D30000"/>
		<stop  offset="1" style="stop-color:#930000"/>
	</linearGradient>
	<path class="st9" d="M88.8,74.7l1.3,1.3l-0.3,1.8l1.7-0.9l1.7,0.9L92.8,76l1.3-1.3l-1.9-0.3l-0.8-1.7l-0.8,1.7L88.8,74.7z
		 M91.5,74.6l0.3,0.6l0.7,0.1L92,75.7l0.1,0.6l-0.6-0.3l-0.6,0.3l0.1-0.6l-0.5-0.5l0.7-0.1L91.5,74.6z"/>
	<linearGradient id="SVGID_11_" gradientUnits="userSpaceOnUse" x1="86.9455" y1="20.3075" x2="96.05" y2="20.3075">
		<stop  offset="0" style="stop-color:#D30000"/>
		<stop  offset="1" style="stop-color:#930000"/>
	</linearGradient>
	<path class="st10" d="M91.5,16l-1.1,3.3h-3.5l2.8,2l-1.1,3.3l2.8-2l2.8,2l-1.1-3.3l2.8-2h-3.5L91.5,16z M92.3,21l0.5,1.5l-1.3-0.9
		l-1.3,0.9l0.5-1.5l-1.3-0.9H91l0.5-1.5l0.5,1.5h1.6L92.3,21z"/>
	<linearGradient id="SVGID_12_" gradientUnits="userSpaceOnUse" x1="80.3269" y1="9.2459" x2="85.45" y2="9.2459">
		<stop  offset="0" style="stop-color:#D30000"/>
		<stop  offset="1" style="stop-color:#930000"/>
	</linearGradient>
	<path class="st11" d="M82.9,6.7c-1.4,0-2.6,1.1-2.6,2.6s1.1,2.6,2.6,2.6s2.6-1.1,2.6-2.6S84.3,6.7,82.9,6.7z M82.9,11
		c-1,0-1.7-0.8-1.7-1.7s0.8-1.7,1.7-1.7s1.7,0.8,1.7,1.7S83.9,11,82.9,11z"/>
	<linearGradient id="SVGID_13_" gradientUnits="userSpaceOnUse" x1="91.0925" y1="54.1319" x2="95.2286" y2="54.1319">
		<stop  offset="0" style="stop-color:#D30000"/>
		<stop  offset="1" style="stop-color:#930000"/>
	</linearGradient>
	<path class="st12" d="M91.1,54.1c0,1.1,0.9,2.1,2.1,2.1c1.1,0,2.1-0.9,2.1-2.1c0-1.1-0.9-2.1-2.1-2.1C92,52.1,91.1,53,91.1,54.1z
		 M93.2,52.9c0.7,0,1.3,0.6,1.3,1.3c0,0.7-0.6,1.3-1.3,1.3c-0.7,0-1.3-0.6-1.3-1.3C91.9,53.4,92.5,52.9,93.2,52.9z"/>
	<linearGradient id="SVGID_14_" gradientUnits="userSpaceOnUse" x1="10.7509" y1="19.6842" x2="16.1315" y2="19.6842">
		<stop  offset="0" style="stop-color:#D30000"/>
		<stop  offset="1" style="stop-color:#930000"/>
	</linearGradient>
	<path class="st13" d="M10.8,19.7c0,1.5,1.2,2.7,2.7,2.7s2.7-1.2,2.7-2.7S14.9,17,13.4,17S10.8,18.2,10.8,19.7z M13.4,17.8
		c1,0,1.9,0.8,1.9,1.9c0,1-0.8,1.9-1.9,1.9s-1.9-0.8-1.9-1.9S12.4,17.8,13.4,17.8z"/>
	<linearGradient id="SVGID_15_" gradientUnits="userSpaceOnUse" x1="21.01" y1="96.7679" x2="22.2459" y2="96.7679">
		<stop  offset="0" style="stop-color:#D30000"/>
		<stop  offset="1" style="stop-color:#930000"/>
	</linearGradient>
	<path class="st14" d="M22.2,96.5c-0.3-0.1-0.7-0.1-1-0.2L21,97c0.4,0.1,0.7,0.2,1.1,0.2L22.2,96.5z"/>
	<linearGradient id="SVGID_16_" gradientUnits="userSpaceOnUse" x1="4.3108" y1="75.6144" x2="5.1484" y2="75.6144">
		<stop  offset="0" style="stop-color:#D30000"/>
		<stop  offset="1" style="stop-color:#930000"/>
	</linearGradient>
	<path class="st15" d="M4.3,75.6c0,0.4,0,0.7,0,1.1l0.8,0c0-0.3,0-0.7,0-1c0-0.4,0-0.7,0-1.1l-0.8,0C4.3,74.9,4.3,75.3,4.3,75.6z"/>
	<linearGradient id="SVGID_17_" gradientUnits="userSpaceOnUse" x1="16.9356" y1="95.6284" x2="19.2114" y2="95.6284">
		<stop  offset="0" style="stop-color:#D30000"/>
		<stop  offset="1" style="stop-color:#930000"/>
	</linearGradient>
	<path class="st16" d="M17.3,94.8l-0.3,0.7c0.7,0.3,1.3,0.6,2,0.8l0.3-0.8C18.6,95.4,17.9,95.1,17.3,94.8z"/>
	<linearGradient id="SVGID_18_" gradientUnits="userSpaceOnUse" x1="10.0236" y1="90.9311" x2="12.0993" y2="90.9311">
		<stop  offset="0" style="stop-color:#D30000"/>
		<stop  offset="1" style="stop-color:#930000"/>
	</linearGradient>
	<path class="st17" d="M10,90.4c0.5,0.5,1,1.1,1.5,1.5l0.5-0.6c-0.5-0.5-1-1-1.5-1.5L10,90.4z"/>
	<linearGradient id="SVGID_19_" gradientUnits="userSpaceOnUse" x1="13.2247" y1="93.6258" x2="15.4432" y2="93.6258">
		<stop  offset="0" style="stop-color:#D30000"/>
		<stop  offset="1" style="stop-color:#930000"/>
	</linearGradient>
	<path class="st18" d="M13.2,93.3c0.6,0.4,1.2,0.8,1.8,1.2l0.4-0.7c-0.6-0.4-1.2-0.7-1.7-1.2L13.2,93.3z"/>
	<linearGradient id="SVGID_20_" gradientUnits="userSpaceOnUse" x1="7.4502" y1="87.6499" x2="9.305" y2="87.6499">
		<stop  offset="0" style="stop-color:#D30000"/>
		<stop  offset="1" style="stop-color:#930000"/>
	</linearGradient>
	<path class="st19" d="M9.3,88.3c-0.4-0.6-0.8-1.1-1.2-1.7L7.5,87c0.4,0.6,0.8,1.2,1.2,1.8L9.3,88.3z"/>
	<linearGradient id="SVGID_21_" gradientUnits="userSpaceOnUse" x1="4.5478" y1="79.8539" x2="5.7587" y2="79.8539">
		<stop  offset="0" style="stop-color:#D30000"/>
		<stop  offset="1" style="stop-color:#930000"/>
	</linearGradient>
	<path class="st20" d="M4.5,78.9C4.7,79.6,4.8,80.3,5,81l0.8-0.2c-0.2-0.7-0.3-1.4-0.4-2L4.5,78.9z"/>
	<linearGradient id="SVGID_22_" gradientUnits="userSpaceOnUse" x1="5.6007" y1="83.9088" x2="7.1634" y2="83.9088">
		<stop  offset="0" style="stop-color:#D30000"/>
		<stop  offset="1" style="stop-color:#930000"/>
	</linearGradient>
	<path class="st21" d="M7.2,84.7c-0.3-0.6-0.6-1.3-0.8-1.9L5.6,83c0.2,0.7,0.5,1.3,0.8,2L7.2,84.7z"/>
	<linearGradient id="SVGID_23_" gradientUnits="userSpaceOnUse" x1="4.5532" y1="71.8776" x2="5.538" y2="71.8776">
		<stop  offset="0" style="stop-color:#D30000"/>
		<stop  offset="1" style="stop-color:#930000"/>
	</linearGradient>
	<path class="st22" d="M4.6,72.4l0.8,0.1c0.1-0.3,0.1-0.7,0.2-1l-0.8-0.2C4.7,71.6,4.6,72,4.6,72.4z"/>
	<linearGradient id="SVGID_24_" gradientUnits="userSpaceOnUse" x1="93.6313" y1="83.9272" x2="94.5014" y2="83.9272">
		<stop  offset="0" style="stop-color:#D30000"/>
		<stop  offset="1" style="stop-color:#930000"/>
	</linearGradient>
	<path class="st23" d="M94.5,83.4l-0.8,0c0,0.4,0,0.7-0.1,1.1l0.8,0.1C94.5,84.1,94.5,83.8,94.5,83.4z"/>
	<linearGradient id="SVGID_25_" gradientUnits="userSpaceOnUse" x1="90.0233" y1="92.0772" x2="92.0957" y2="92.0772">
		<stop  offset="0" style="stop-color:#D30000"/>
		<stop  offset="1" style="stop-color:#930000"/>
	</linearGradient>
	<path class="st24" d="M90,92.7l0.6,0.5c0.5-0.6,1-1.3,1.5-1.9l-0.7-0.4C91,91.5,90.5,92.2,90,92.7z"/>
	<linearGradient id="SVGID_26_" gradientUnits="userSpaceOnUse" x1="86.4759" y1="95.3243" x2="88.8794" y2="95.3243">
		<stop  offset="0" style="stop-color:#D30000"/>
		<stop  offset="1" style="stop-color:#930000"/>
	</linearGradient>
	<path class="st25" d="M88.9,94.9l-0.5-0.6c-0.6,0.5-1.2,0.9-1.9,1.3l0.4,0.7C87.6,95.9,88.3,95.5,88.9,94.9z"/>
	<linearGradient id="SVGID_27_" gradientUnits="userSpaceOnUse" x1="82.2034" y1="97.355" x2="84.7" y2="97.355">
		<stop  offset="0" style="stop-color:#D30000"/>
		<stop  offset="1" style="stop-color:#930000"/>
	</linearGradient>
	<path class="st26" d="M82.4,98.1c0.8-0.2,1.6-0.4,2.3-0.7l-0.3-0.8c-0.7,0.3-1.5,0.5-2.2,0.7L82.4,98.1z"/>
	<linearGradient id="SVGID_28_" gradientUnits="userSpaceOnUse" x1="92.4939" y1="87.9351" x2="94.0263" y2="87.9351">
		<stop  offset="0" style="stop-color:#D30000"/>
		<stop  offset="1" style="stop-color:#930000"/>
	</linearGradient>
	<path class="st27" d="M92.5,88.9l0.7,0.3c0.3-0.7,0.6-1.5,0.8-2.3l-0.8-0.2C93,87.4,92.8,88.2,92.5,88.9z"/>
	<linearGradient id="SVGID_29_" gradientUnits="userSpaceOnUse" x1="78.8454" y1="98.0016" x2="79.9568" y2="98.0016">
		<stop  offset="0" style="stop-color:#D30000"/>
		<stop  offset="1" style="stop-color:#930000"/>
	</linearGradient>
	<path class="st28" d="M78.9,97.6l0,0.8c0.1,0,0.2,0,0.3,0c0.3,0,0.5,0,0.8,0l0-0.8C79.6,97.6,79.2,97.6,78.9,97.6z"/>
	<linearGradient id="SVGID_30_" gradientUnits="userSpaceOnUse" x1="92.7547" y1="41.5687" x2="93.5664" y2="41.5687">
		<stop  offset="0" style="stop-color:#D30000"/>
		<stop  offset="1" style="stop-color:#930000"/>
	</linearGradient>
	<rect x="92.8" y="40.5" class="st29" width="0.8" height="2.2"/>
	<linearGradient id="SVGID_31_" gradientUnits="userSpaceOnUse" x1="92.7547" y1="45.8975" x2="93.5664" y2="45.8975">
		<stop  offset="0" style="stop-color:#D30000"/>
		<stop  offset="1" style="stop-color:#930000"/>
	</linearGradient>
	<rect x="92.8" y="44.8" class="st30" width="0.8" height="2.2"/>
	<linearGradient id="SVGID_32_" gradientUnits="userSpaceOnUse" x1="92.7547" y1="32.9112" x2="93.5664" y2="32.9112">
		<stop  offset="0" style="stop-color:#D30000"/>
		<stop  offset="1" style="stop-color:#930000"/>
	</linearGradient>
	<rect x="92.8" y="31.8" class="st31" width="0.8" height="2.2"/>
	<linearGradient id="SVGID_33_" gradientUnits="userSpaceOnUse" x1="92.7547" y1="37.24" x2="93.5664" y2="37.24">
		<stop  offset="0" style="stop-color:#D30000"/>
		<stop  offset="1" style="stop-color:#930000"/>
	</linearGradient>
	<rect x="92.8" y="36.2" class="st32" width="0.8" height="2.2"/>
</g>
</svg>
