<?xml version="1.0" encoding="utf-8"?>
<!-- Generator: Adobe Illustrator 24.1.0, SVG Export Plug-In . SVG Version: 6.00 Build 0)  -->
<svg version="1.1" id="Layer_1" xmlns="http://www.w3.org/2000/svg" xmlns:xlink="http://www.w3.org/1999/xlink" x="0px" y="0px"
	 viewBox="0 0 100 125" style="enable-background:new 0 0 100 125;" xml:space="preserve">
<style type="text/css">
	.st0{fill:#5E5E5E;}
	.st1{fill:url(#SVGID_1_);}
	.st2{fill:url(#SVGID_2_);}
	.st3{fill:url(#SVGID_3_);}
</style>
<g>
	<path class="st0" d="M93.4,34c-0.7,0.3-1.1,1.2-0.7,1.9c0,0,0,0,0,0c0.1,0.2,0.1,0.3,0.2,0.5c0.3,0.8,1.1,1.2,1.8,0.9
		c0.8-0.3,1.2-1.1,0.9-1.8c-0.1-0.3-0.2-0.6-0.3-0.8C95,34,94.1,33.7,93.4,34z"/>
	<path class="st0" d="M96.1,55.5c0-0.8-0.6-1.4-1.4-1.4c-0.8,0-1.4,0.6-1.4,1.4v0.7c0,0.8,0.6,1.4,1.4,1.4c0.8,0,1.4-0.6,1.4-1.4
		V55.5z"/>
	<path class="st0" d="M96.1,50.5c0-0.8-0.6-1.4-1.4-1.4c-0.8,0-1.4,0.6-1.4,1.4v0.7c0,0.8,0.6,1.4,1.4,1.4c0.8,0,1.4-0.6,1.4-1.4
		V50.5z"/>
	<path class="st0" d="M96.1,60.6c0-0.8-0.6-1.4-1.4-1.4c-0.8,0-1.4,0.6-1.4,1.4v0.7c0,0.8,0.6,1.4,1.4,1.4c0.8,0,1.4-0.6,1.4-1.4
		V60.6z"/>
	<path class="st0" d="M96.1,45.4c0-0.8-0.6-1.4-1.4-1.4c-0.8,0-1.4,0.6-1.4,1.4v0.7c0,0.8,0.6,1.4,1.4,1.4c0.8,0,1.4-0.6,1.4-1.4
		V45.4z"/>
	<path class="st0" d="M96.1,40.3c0-0.8-0.6-1.4-1.4-1.4c-0.8,0-1.4,0.6-1.4,1.4v0.7c0,0.8,0.6,1.4,1.4,1.4c0.8,0,1.4-0.6,1.4-1.4
		V40.3z"/>
	<path class="st0" d="M91.3,70.9h0.2c0.2,0,0.5,0,0.7-0.1c0.8-0.1,1.3-0.9,1.2-1.7c-0.1-0.8-0.9-1.3-1.7-1.2h-0.3h-0.2
		c-0.8,0-1.4,0.6-1.4,1.4S90.5,70.9,91.3,70.9L91.3,70.9z"/>
	<path class="st0" d="M86.1,30.4c-0.7,0.7-1.4,1.3-2.2,1.8c0.2,0.6,0.7,1,1.4,1.1H86c0.8,0,1.5-0.6,1.5-1.4
		C87.5,31.1,86.9,30.4,86.1,30.4z"/>
	<path class="st0" d="M89.9,33.5c0.2,0.1,0.3,0.1,0.5,0.2c0.7,0.3,1.6,0,1.9-0.7c0.3-0.7,0-1.6-0.7-1.9c-0.3-0.1-0.5-0.2-0.8-0.3
		c-0.8-0.2-1.6,0.2-1.8,0.9C88.7,32.4,89.1,33.3,89.9,33.5L89.9,33.5z"/>
	<path class="st0" d="M94.6,67.9c0.8,0,1.4-0.6,1.4-1.4v-0.7c0-0.8-0.6-1.4-1.4-1.4c-0.8,0-1.4,0.6-1.4,1.4v0.7
		C93.2,67.2,93.8,67.9,94.6,67.9z"/>
	<path class="st0" d="M66.1,23.7c-0.7,0.4-1,1.2-0.6,2c0.1,0.2,0.3,0.5,0.4,0.7c0.4,0.7,1.4,0.8,2,0.4c0.6-0.4,0.8-1.2,0.5-1.9
		c-0.1-0.2-0.2-0.3-0.3-0.5C67.7,23.6,66.8,23.3,66.1,23.7C66.1,23.7,66.1,23.7,66.1,23.7z"/>
	<path class="st0" d="M67.5,14.2c-0.7-0.4-1.6-0.1-2,0.6c-0.1,0.2-0.2,0.5-0.3,0.7c-0.4,0.7-0.2,1.6,0.5,2s1.6,0.2,2-0.5
		c0.1-0.1,0.1-0.2,0.2-0.3c0.1-0.2,0.2-0.4,0.3-0.5C68.4,15.5,68.2,14.6,67.5,14.2z"/>
	<path class="st0" d="M70.4,13.4c0.2-0.1,0.3-0.2,0.5-0.4c0.6-0.5,0.7-1.4,0.2-2c-0.4-0.5-1.2-0.7-1.8-0.3c-0.2,0.1-0.4,0.3-0.6,0.5
		c-0.6,0.5-0.7,1.4-0.3,2C68.8,13.8,69.7,13.9,70.4,13.4C70.4,13.4,70.4,13.4,70.4,13.4L70.4,13.4z"/>
	<path class="st0" d="M64.2,20.2c0,0.3,0,0.5,0,0.8c0,0.8,0.7,1.4,1.4,1.4h0.1c0.8-0.1,1.4-0.7,1.3-1.5c0,0,0,0,0,0
		c0-0.2,0-0.4,0-0.6v0c0-0.8-0.6-1.4-1.4-1.4C64.8,18.8,64.2,19.4,64.2,20.2C64.2,20.2,64.2,20.2,64.2,20.2z"/>
	<path class="st0" d="M74.4,8.7c-0.3,0-0.5,0.1-0.8,0.1c-0.8,0.1-1.4,0.8-1.3,1.6c0.1,0.8,0.8,1.4,1.6,1.3c0.1,0,0.2,0,0.3,0
		l0.6-0.1c0.8-0.1,1.4-0.8,1.3-1.6C75.9,9.3,75.2,8.7,74.4,8.7L74.4,8.7z"/>
	<path class="st0" d="M79.9,9.4c-0.2-0.1-0.5-0.2-0.7-0.3c-0.8-0.2-1.6,0.3-1.8,1c-0.2,0.7,0.2,1.5,0.9,1.7l0.6,0.2
		c0.7,0.3,1.6-0.1,1.9-0.8S80.7,9.7,79.9,9.4L79.9,9.4z"/>
	<path class="st0" d="M74.7,28.9c-0.8-0.1-1.5,0.5-1.6,1.3c-0.1,0.8,0.5,1.5,1.3,1.6c0.3,0,0.5,0.1,0.8,0.1h0.1
		c0.8,0,1.5-0.6,1.5-1.4c0-0.8-0.6-1.5-1.4-1.5l0,0L74.7,28.9z"/>
	<path class="st0" d="M86.8,16.7c-0.3-0.8-1.1-1.1-1.9-0.9c-0.7,0.3-1.1,1-0.9,1.8c0.1,0.2,0.1,0.4,0.2,0.6c0.2,0.6,0.7,1.1,1.4,1.1
		c0.1,0,0.2,0,0.3,0c0.8-0.2,1.3-1,1.1-1.7c0,0,0,0,0,0C87,17.2,86.9,17,86.8,16.7z"/>
	<path class="st0" d="M82.7,25.6c-0.1,0.2-0.2,0.3-0.4,0.5c-0.5,0.6-0.5,1.5,0.1,2c0.6,0.5,1.5,0.5,2-0.1c0.2-0.2,0.3-0.4,0.5-0.6
		c0.5-0.6,0.4-1.5-0.2-2C84.1,24.8,83.2,24.9,82.7,25.6C82.7,25.5,82.7,25.5,82.7,25.6L82.7,25.6z"/>
	<path class="st0" d="M83.9,12c-0.6-0.5-1.5-0.5-2,0.1c-0.5,0.6-0.5,1.4,0,1.9c0.1,0.1,0.3,0.3,0.4,0.4c0.5,0.6,1.4,0.7,2,0.1
		c0.6-0.5,0.7-1.4,0.1-2C84.3,12.4,84.1,12.2,83.9,12z"/>
	<path class="st0" d="M79.4,28.1c-0.2,0.1-0.4,0.2-0.6,0.2c-0.8,0.3-1.1,1.1-0.8,1.9c0.3,0.8,1.1,1.1,1.9,0.8l0,0
		c0.3-0.1,0.5-0.2,0.7-0.3c0.7-0.3,1.1-1.2,0.7-1.9C81,28.1,80.1,27.8,79.4,28.1z"/>
	<path class="st0" d="M71.8,29.7c0.4-0.7,0.2-1.6-0.5-2c-0.2-0.1-0.3-0.2-0.5-0.3c-0.7-0.4-1.6-0.2-2,0.4c-0.4,0.6-0.3,1.5,0.4,1.9
		c0.2,0.1,0.4,0.3,0.7,0.4C70.5,30.6,71.4,30.4,71.8,29.7L71.8,29.7z"/>
	<path class="st0" d="M85.6,24.1c0.7,0,1.2-0.5,1.4-1.1c0.1-0.3,0.1-0.5,0.2-0.8c0.1-0.8-0.4-1.5-1.2-1.7c-0.8-0.1-1.5,0.4-1.7,1.2
		c0,0.2-0.1,0.4-0.1,0.6c-0.2,0.8,0.3,1.6,1.1,1.8C85.4,24.1,85.5,24.1,85.6,24.1z"/>
	<path class="st0" d="M77.2,78.9c0-0.8-0.6-1.4-1.4-1.4s-1.4,0.6-1.4,1.4v0.7c0,0.8,0.6,1.4,1.4,1.4s1.4-0.6,1.4-1.4V78.9z"/>
	<path class="st0" d="M77.2,84c0-0.8-0.6-1.4-1.4-1.4s-1.4,0.6-1.4,1.4v0.7c0,0.8,0.6,1.4,1.4,1.4s1.4-0.6,1.4-1.4V84z"/>
	<path class="st0" d="M77.2,89.1c0-0.8-0.6-1.4-1.4-1.4s-1.4,0.6-1.4,1.4v0.7c0,0.8,0.6,1.4,1.4,1.4s1.4-0.6,1.4-1.4V89.1z"/>
	<path class="st0" d="M77.2,73.8c0-0.8-0.6-1.4-1.4-1.4s-1.4,0.6-1.4,1.4v0.7c0,0.8,0.6,1.4,1.4,1.4s1.4-0.6,1.4-1.4V73.8z"/>
	<path class="st0" d="M77.2,94.8v-0.7c0-0.8-0.6-1.4-1.4-1.4s-1.4,0.6-1.4,1.4v0.7c0,0.8,0.6,1.4,1.4,1.4S77.2,95.6,77.2,94.8z"/>
	<path class="st0" d="M4.8,68.4c0.8,0,1.5-0.6,1.5-1.4c0-0.1,0-0.2,0-0.3c0-0.1,0-0.2,0-0.3v-0.2c0-0.8-0.6-1.4-1.4-1.4
		s-1.4,0.6-1.4,1.4v0.2c0,0.3,0,0.5,0.1,0.8C3.6,67.9,4.1,68.4,4.8,68.4z"/>
	<path class="st0" d="M4.8,63.3c0.8,0,1.4-0.6,1.4-1.4v-0.7c0-0.8-0.6-1.4-1.4-1.4s-1.4,0.6-1.4,1.4v0.7C3.3,62.7,4,63.3,4.8,63.3z"
		/>
	<path class="st0" d="M4.8,58.3c0.8,0,1.4-0.6,1.4-1.4v-0.7c0-0.8-0.6-1.4-1.4-1.4s-1.4,0.6-1.4,1.4v0.7C3.3,57.6,4,58.3,4.8,58.3z"
		/>
	<path class="st0" d="M5.7,34.5c-0.8-0.3-1.6,0.1-1.9,0.9c-0.1,0.3-0.2,0.6-0.3,0.9C3.4,37,3.8,37.8,4.6,38c0.8,0.2,1.6-0.3,1.7-1.1
		l0,0c0-0.2,0.1-0.4,0.2-0.5C6.8,35.6,6.4,34.8,5.7,34.5z"/>
	<path class="st0" d="M4.8,48.1c0.8,0,1.4-0.6,1.4-1.4V46c0-0.8-0.6-1.4-1.4-1.4S3.3,45.2,3.3,46v0.7C3.3,47.5,4,48.1,4.8,48.1z"/>
	<path class="st0" d="M7.9,34.1c0.3,0,0.5-0.1,0.7-0.2c0.2-0.1,0.3-0.2,0.5-0.2c0.7-0.3,1.1-1.2,0.7-1.9C9.5,31,8.7,30.7,8,31
		c-0.3,0.1-0.5,0.2-0.8,0.4c-0.7,0.4-0.9,1.3-0.5,2C6.9,33.8,7.4,34.1,7.9,34.1L7.9,34.1z"/>
	<path class="st0" d="M4.8,53.2c0.8,0,1.4-0.6,1.4-1.4V51c0-0.8-0.6-1.4-1.4-1.4S3.3,50.2,3.3,51v0.7C3.3,52.6,4,53.2,4.8,53.2z"/>
	<path class="st0" d="M4.8,43.1c0.8,0,1.4-0.6,1.4-1.4v-0.7c0-0.8-0.6-1.4-1.4-1.4s-1.4,0.6-1.4,1.4v0.7C3.3,42.4,4,43.1,4.8,43.1z"
		/>
	<path class="st0" d="M7.9,70.9h0.7c0.8,0,1.4-0.6,1.4-1.4s-0.6-1.4-1.4-1.4H7.9c-0.8,0-1.4,0.6-1.4,1.4S7.1,70.9,7.9,70.9z"/>
	<path class="st0" d="M12.8,33.3h0.7c0.8,0,1.4-0.6,1.4-1.4c-0.6-0.4-1.2-0.9-1.7-1.4h-0.4c-0.8,0-1.4,0.6-1.4,1.4
		S12.1,33.3,12.8,33.3L12.8,33.3z"/>
	<path class="st0" d="M12,20.2c0,0.3,0,0.5,0,0.8c0,0.8,0.7,1.4,1.4,1.4h0.1c0.8-0.1,1.4-0.7,1.3-1.5c0,0,0,0,0,0c0-0.2,0-0.4,0-0.6
		v0c0-0.8-0.6-1.4-1.4-1.4C12.7,18.8,12,19.4,12,20.2C12,20.2,12,20.2,12,20.2z"/>
	<path class="st0" d="M17.3,13.7c0.3,0,0.6-0.1,0.9-0.3c0.2-0.1,0.3-0.2,0.5-0.4c0.6-0.5,0.6-1.5,0.1-2c-0.4-0.5-1.1-0.6-1.7-0.3
		c-0.2,0.1-0.4,0.3-0.6,0.5c-0.6,0.5-0.7,1.4-0.2,2C16.5,13.5,16.9,13.7,17.3,13.7z"/>
	<path class="st0" d="M22.2,31.7c0.3,0,0.5,0.1,0.8,0.1h0.1c0.8,0,1.5-0.6,1.5-1.4c0-0.8-0.6-1.5-1.4-1.5l-0.6-0.1
		c-0.8-0.1-1.5,0.5-1.6,1.3C20.8,30.9,21.4,31.7,22.2,31.7L22.2,31.7z"/>
	<path class="st0" d="M17,29.8c0.2,0.1,0.4,0.3,0.7,0.4c0.6,0.5,1.6,0.3,2-0.3c0.5-0.6,0.3-1.6-0.3-2c-0.1-0.1-0.2-0.1-0.3-0.1
		c-0.2-0.1-0.3-0.2-0.5-0.3c-0.7-0.4-1.6-0.2-2,0.4C16.2,28.5,16.4,29.3,17,29.8L17,29.8z"/>
	<path class="st0" d="M13.8,26.3c0.4,0.7,1.4,0.8,2,0.4c0.6-0.4,0.8-1.2,0.5-1.9c-0.1-0.2-0.2-0.3-0.3-0.5c-0.4-0.7-1.3-1-2-0.6
		c-0.7,0.4-0.9,1.2-0.6,1.9C13.5,25.9,13.6,26.1,13.8,26.3z"/>
	<path class="st0" d="M22,11.7l0.6-0.1c0.8-0.1,1.4-0.8,1.3-1.6c-0.1-0.8-0.8-1.4-1.6-1.3c-0.3,0-0.5,0.1-0.8,0.1
		c-0.8,0.1-1.4,0.8-1.3,1.6c0.1,0.8,0.8,1.4,1.6,1.3C21.8,11.8,21.9,11.7,22,11.7z"/>
	<path class="st0" d="M25.2,10.1c-0.2,0.8,0.2,1.6,1,1.8c0,0,0,0,0,0l0.6,0.2c0.7,0.3,1.6-0.1,1.9-0.8c0.3-0.7-0.1-1.6-0.8-1.9
		c-0.2-0.1-0.5-0.2-0.7-0.3C26.3,8.9,25.5,9.3,25.2,10.1C25.2,10.1,25.2,10.1,25.2,10.1z"/>
	<path class="st0" d="M30.1,14.5c0.5,0.6,1.4,0.7,2,0.1c0.6-0.5,0.7-1.4,0.1-2c-0.2-0.2-0.4-0.4-0.5-0.6c-0.6-0.5-1.5-0.5-2,0.1
		c-0.5,0.6-0.5,1.4,0,1.9C29.9,14.2,30,14.3,30.1,14.5z"/>
	<path class="st0" d="M15.3,14.2c-0.7-0.4-1.6-0.1-2,0.6c-0.1,0.2-0.2,0.5-0.3,0.7c-0.4,0.7-0.2,1.6,0.5,2c0.7,0.4,1.6,0.2,2-0.5
		c0.1-0.1,0.1-0.2,0.2-0.3c0.1-0.2,0.2-0.4,0.3-0.5C16.3,15.5,16,14.6,15.3,14.2z"/>
	<path class="st0" d="M30.5,25.6c-0.1,0.2-0.2,0.3-0.4,0.5c-0.5,0.6-0.5,1.5,0.1,2c0.6,0.5,1.5,0.5,2-0.1l0,0
		c0.2-0.2,0.3-0.4,0.5-0.6c0.5-0.6,0.4-1.5-0.2-2C32,24.8,31.1,24.9,30.5,25.6C30.5,25.5,30.5,25.5,30.5,25.6L30.5,25.6z"/>
	<path class="st0" d="M33.5,24.1c0.7,0,1.2-0.5,1.4-1.1c0.1-0.3,0.1-0.5,0.2-0.8c0.1-0.8-0.4-1.5-1.2-1.7c-0.8-0.1-1.5,0.4-1.7,1.2
		c0,0.2-0.1,0.4-0.1,0.6c-0.2,0.8,0.3,1.6,1.1,1.8C33.2,24.1,33.3,24.1,33.5,24.1z"/>
	<path class="st0" d="M29.2,28.9c-0.3-0.7-1.2-1.1-1.9-0.7c0,0,0,0,0,0c-0.2,0.1-0.4,0.2-0.6,0.2c-0.8,0.3-1.1,1.1-0.9,1.9
		s1.1,1.1,1.9,0.9c0.3-0.1,0.5-0.2,0.7-0.3C29.2,30.5,29.5,29.6,29.2,28.9C29.2,28.9,29.2,28.9,29.2,28.9z"/>
	<path class="st0" d="M33.5,19.3c0.1,0,0.2,0,0.3,0c0.8-0.2,1.3-1,1.1-1.7c0,0,0,0,0,0c-0.1-0.3-0.1-0.5-0.2-0.8
		c-0.3-0.8-1.1-1.1-1.9-0.9c-0.7,0.3-1.1,1-0.9,1.8c0.1,0.2,0.1,0.4,0.2,0.6C32.2,18.8,32.8,19.3,33.5,19.3z"/>
	<path class="st0" d="M25.1,89.1c0-0.8-0.6-1.4-1.4-1.4c-0.8,0-1.4,0.6-1.4,1.4v0.7c0,0.8,0.6,1.4,1.4,1.4c0.8,0,1.4-0.6,1.4-1.4
		V89.1z"/>
	<path class="st0" d="M25.1,73.8c0-0.8-0.6-1.4-1.4-1.4c-0.8,0-1.4,0.6-1.4,1.4v0.7c0,0.8,0.6,1.4,1.4,1.4c0.8,0,1.4-0.6,1.4-1.4
		V73.8z"/>
	<path class="st0" d="M25.1,94.8v-0.7c0-0.8-0.6-1.4-1.4-1.4c-0.8,0-1.4,0.6-1.4,1.4v0.7c0,0.8,0.6,1.4,1.4,1.4
		C24.4,96.3,25.1,95.6,25.1,94.8z"/>
	<path class="st0" d="M25.1,78.9c0-0.8-0.6-1.4-1.4-1.4c-0.8,0-1.4,0.6-1.4,1.4v0.7c0,0.8,0.6,1.4,1.4,1.4c0.8,0,1.4-0.6,1.4-1.4
		V78.9z"/>
	<path class="st0" d="M25.1,84c0-0.8-0.6-1.4-1.4-1.4c-0.8,0-1.4,0.6-1.4,1.4v0.7c0,0.8,0.6,1.4,1.4,1.4c0.8,0,1.4-0.6,1.4-1.4V84z"
		/>
	<path class="st0" d="M83.8,101.3c0.1,0,0.3,0,0.4-0.1c0.4-0.1,0.7-0.3,1-0.4c0.7-0.4,0.9-1.3,0.4-2c-0.4-0.6-1.3-0.8-1.9-0.5
		c-0.1,0.1-0.2,0.1-0.3,0.1c-0.8,0.2-1.2,1-1,1.8C82.6,100.8,83.1,101.3,83.8,101.3L83.8,101.3z"/>
	<path class="st0" d="M68.6,101.4h0.7c0.8,0,1.4-0.6,1.4-1.4s-0.6-1.4-1.4-1.4h-0.7c-0.8,0-1.4,0.6-1.4,1.4S67.8,101.4,68.6,101.4z"
		/>
	<path class="st0" d="M73.7,101.4h0.7c0.8,0,1.4-0.6,1.4-1.4s-0.6-1.4-1.4-1.4h-0.7c-0.8,0-1.4,0.6-1.4,1.4S72.9,101.4,73.7,101.4z"
		/>
	<path class="st0" d="M78.7,98.5c-0.8,0-1.4,0.6-1.4,1.4s0.6,1.4,1.4,1.4h0.7c0.8,0,1.4-0.6,1.4-1.4s-0.6-1.4-1.4-1.4H78.7z"/>
	<path class="st0" d="M67.1,97.1c0-0.1,0-0.2,0-0.2v-0.3c0-0.8-0.6-1.4-1.4-1.4s-1.4,0.6-1.4,1.4v0.3c0,0.2,0,0.4,0,0.6
		c0.1,0.7,0.7,1.3,1.4,1.3h0.2C66.6,98.6,67.2,97.9,67.1,97.1C67.1,97.1,67.1,97.1,67.1,97.1z"/>
	<path class="st0" d="M65.6,78.4c0.8,0,1.4-0.6,1.4-1.4v-0.7c0-0.8-0.6-1.4-1.4-1.4s-1.4,0.6-1.4,1.4V77
		C64.2,77.8,64.8,78.4,65.6,78.4z"/>
	<path class="st0" d="M64.2,92.2c0,0.8,0.6,1.4,1.4,1.4s1.4-0.6,1.4-1.4v-0.7c0-0.8-0.6-1.4-1.4-1.4s-1.4,0.6-1.4,1.4V92.2z"/>
	<path class="st0" d="M64.2,87.1c0,0.8,0.6,1.4,1.4,1.4s1.4-0.6,1.4-1.4v-0.7c0-0.8-0.6-1.4-1.4-1.4s-1.4,0.6-1.4,1.4V87.1z"/>
	<path class="st0" d="M64.2,82.1c0,0.8,0.6,1.4,1.4,1.4s1.4-0.6,1.4-1.4v-0.7c0-0.8-0.6-1.4-1.4-1.4s-1.4,0.6-1.4,1.4V82.1z"/>
	<path class="st0" d="M87.4,74.7c0-0.8-0.6-1.4-1.4-1.4s-1.4,0.6-1.4,1.4v0.7c0,0.8,0.6,1.4,1.4,1.4s1.4-0.6,1.4-1.4V74.7z"/>
	<path class="st0" d="M87.4,64.5c0-0.8-0.6-1.4-1.4-1.4s-1.4,0.6-1.4,1.4v0.7c0,0.8,0.6,1.4,1.4,1.4s1.4-0.6,1.4-1.4V64.5z"/>
	<path class="st0" d="M87.4,69.6c0-0.8-0.6-1.4-1.4-1.4s-1.4,0.6-1.4,1.4v0.7c0,0.8,0.6,1.4,1.4,1.4s1.4-0.6,1.4-1.4V69.6z"/>
	<path class="st0" d="M87.4,59.5c0-0.8-0.6-1.4-1.4-1.4s-1.4,0.6-1.4,1.4v0.7c0,0.8,0.6,1.4,1.4,1.4s1.4-0.6,1.4-1.4V59.5z"/>
	<path class="st0" d="M87.4,79.7c0-0.8-0.6-1.4-1.4-1.4s-1.4,0.6-1.4,1.4v0.7c0,0.8,0.6,1.4,1.4,1.4s1.4-0.6,1.4-1.4V79.7z"/>
	<path class="st0" d="M87.4,89.9c0-0.8-0.6-1.4-1.4-1.4s-1.4,0.6-1.4,1.4v0.7c0,0.8,0.6,1.4,1.4,1.4s1.4-0.6,1.4-1.4V89.9z"/>
	<path class="st0" d="M87.4,84.8c0-0.8-0.6-1.4-1.4-1.4s-1.4,0.6-1.4,1.4v0.7c0,0.8,0.6,1.4,1.4,1.4s1.4-0.6,1.4-1.4V84.8z"/>
	<path class="st0" d="M87.4,95.7V95c0-0.8-0.6-1.4-1.4-1.4s-1.4,0.6-1.4,1.4v0.7c0,0.8,0.6,1.4,1.4,1.4S87.4,96.5,87.4,95.7z"/>
	<path class="st0" d="M14.9,61c0-0.8-0.6-1.4-1.4-1.4S12,60.2,12,61v0.7c0,0.8,0.6,1.4,1.4,1.4s1.4-0.6,1.4-1.4V61z"/>
	<path class="st0" d="M14.9,66.1c0-0.8-0.6-1.4-1.4-1.4S12,65.3,12,66.1v0.7c0,0.8,0.6,1.4,1.4,1.4s1.4-0.6,1.4-1.4V66.1z"/>
	<path class="st0" d="M14.9,71.2c0-0.8-0.6-1.4-1.4-1.4S12,70.4,12,71.2v0.7c0,0.8,0.6,1.4,1.4,1.4s1.4-0.6,1.4-1.4V71.2z"/>
	<path class="st0" d="M35.2,89.9c0-0.8-0.6-1.4-1.4-1.4c-0.8,0-1.4,0.6-1.4,1.4v0.7c0,0.8,0.6,1.4,1.4,1.4c0.8,0,1.4-0.6,1.4-1.4
		V89.9z"/>
	<path class="st0" d="M14.9,76.3c0-0.8-0.6-1.4-1.4-1.4S12,75.5,12,76.3V77c0,0.8,0.6,1.4,1.4,1.4s1.4-0.6,1.4-1.4V76.3z"/>
	<path class="st0" d="M35.2,74.7c0-0.3-0.1-0.6-0.3-0.8h-1c-0.4,0-0.8,0-1.3-0.1c-0.2,0.3-0.4,0.6-0.4,0.9v0.7
		c0,0.8,0.6,1.4,1.4,1.4s1.4-0.6,1.4-1.4L35.2,74.7z"/>
	<path class="st0" d="M35.2,84.8c0-0.8-0.6-1.4-1.4-1.4c-0.8,0-1.4,0.6-1.4,1.4v0.7c0,0.8,0.6,1.4,1.4,1.4c0.8,0,1.4-0.6,1.4-1.4
		V84.8z"/>
	<path class="st0" d="M35.2,79.7c0-0.8-0.6-1.4-1.4-1.4c-0.8,0-1.4,0.6-1.4,1.4v0.7c0,0.8,0.6,1.4,1.4,1.4c0.8,0,1.4-0.6,1.4-1.4
		V79.7z"/>
	<path class="st0" d="M35.2,95c0-0.8-0.6-1.4-1.4-1.4c-0.8,0-1.4,0.6-1.4,1.4v0.7c0,0.8,0.6,1.4,1.4,1.4c0.8,0,1.4-0.6,1.4-1.4V95z"
		/>
	<path class="st0" d="M16.4,98.5c-0.8,0-1.4,0.6-1.4,1.4s0.6,1.4,1.4,1.4h0.7c0.8,0,1.4-0.6,1.4-1.4s-0.6-1.4-1.4-1.4H16.4z"/>
	<path class="st0" d="M21.5,101.4h0.7c0.8,0,1.4-0.6,1.4-1.4s-0.6-1.4-1.4-1.4h-0.7c-0.8,0-1.4,0.6-1.4,1.4S20.7,101.4,21.5,101.4z"
		/>
	<path class="st0" d="M26.6,101.4h0.7c0.8,0,1.4-0.6,1.4-1.4s-0.6-1.4-1.4-1.4h-0.7c-0.8,0-1.4,0.6-1.4,1.4S25.8,101.4,26.6,101.4z"
		/>
	<path class="st0" d="M33.5,98.8c-0.4-0.7-1.3-0.9-2-0.5c0,0,0,0,0,0c-0.1,0.1-0.2,0.1-0.3,0.1c-0.8,0.2-1.2,1-1,1.8
		c0.2,0.8,1,1.2,1.8,1c0.4-0.1,0.7-0.3,1-0.4C33.7,100.3,34,99.5,33.5,98.8C33.5,98.8,33.5,98.8,33.5,98.8z"/>
	<path class="st0" d="M14.9,86.4c0-0.8-0.6-1.4-1.4-1.4S12,85.6,12,86.4v0.7c0,0.8,0.6,1.4,1.4,1.4s1.4-0.6,1.4-1.4V86.4z"/>
	<path class="st0" d="M14.9,97.1c0-0.1,0-0.2,0-0.2v-0.3c0-0.8-0.6-1.4-1.4-1.4S12,95.7,12,96.5v0.3c0,0.2,0,0.4,0,0.6
		c0.1,0.7,0.7,1.3,1.4,1.3h0.2C14.5,98.6,15,97.9,14.9,97.1C14.9,97.1,14.9,97.1,14.9,97.1z"/>
	<path class="st0" d="M14.9,81.3c0-0.8-0.6-1.4-1.4-1.4S12,80.5,12,81.3v0.7c0,0.8,0.6,1.4,1.4,1.4s1.4-0.6,1.4-1.4V81.3z"/>
	<path class="st0" d="M13.5,90c-0.8,0-1.4,0.6-1.4,1.4v0.7c0,0.8,0.6,1.4,1.4,1.4s1.4-0.6,1.4-1.4v-0.7C14.9,90.7,14.3,90,13.5,90z"
		/>
	<linearGradient id="SVGID_1_" gradientUnits="userSpaceOnUse" x1="29.4149" y1="65.8777" x2="69.9754" y2="65.8777">
		<stop  offset="0" style="stop-color:#D30000"/>
		<stop  offset="1" style="stop-color:#930000"/>
	</linearGradient>
	<path class="st1" d="M70,66.4V37.9c0-4.2-3.4-7.6-7.6-7.6H60c-1.2,1.2-2.5,2.2-4.1,2.9h6.4c2.6,0,4.7,2.1,4.7,4.7v28.5
		c0,0.9-0.7,1.6-1.6,1.6c0,0,0,0,0,0h-4.2v-8.7c0-0.8-0.6-1.4-1.4-1.4s-1.4,0.6-1.4,1.4v37.5c0,0.8-0.6,1.6-1.4,1.6h-5.8V73.8
		c0-0.8-0.6-1.4-1.4-1.4s-1.4,0.6-1.4,1.4v24.6h-5.8c-0.8-0.1-1.5-0.8-1.4-1.6V59.4c0-0.8-0.6-1.4-1.4-1.4s-1.4,0.6-1.4,1.4v8.7
		h-4.2c-0.9,0-1.6-0.7-1.6-1.6c0,0,0,0,0,0V37.9c0-2.6,2.1-4.7,4.7-4.7h6.4c-1.5-0.7-2.9-1.7-4.1-2.9H37c-4.2,0-7.6,3.4-7.6,7.6
		v28.5c0,2.5,2,4.5,4.5,4.5h4.2v25.9c0,2.4,1.9,4.5,4.3,4.5c0,0,0,0,0,0h14.5c2.4,0,4.4-2.1,4.3-4.5c0,0,0,0,0,0V70.9h4.2
		C67.9,71,70,68.9,70,66.4z"/>
	<linearGradient id="SVGID_2_" gradientUnits="userSpaceOnUse" x1="38.1064" y1="20.2472" x2="61.2839" y2="20.2472">
		<stop  offset="0" style="stop-color:#D30000"/>
		<stop  offset="1" style="stop-color:#930000"/>
	</linearGradient>
	<path class="st2" d="M61.3,20.2c0-6.4-5.2-11.6-11.6-11.6s-11.6,5.2-11.6,11.6s5.2,11.6,11.6,11.6S61.3,26.6,61.3,20.2z M49.7,28.9
		c-4.8,0-8.7-3.9-8.7-8.7s3.9-8.7,8.7-8.7s8.7,3.9,8.7,8.7S54.5,28.9,49.7,28.9z"/>
	<path class="st0" d="M20.7,53.6c0.8,0,1.4-0.7,1.4-1.5c0-0.4-0.2-0.7-0.4-1l-2.6-2.6l2.6-2.6c0.6-0.6,0.6-1.5,0-2
		c-0.6-0.6-1.5-0.6-2,0l-2.6,2.6l-2.6-2.6c-0.6-0.6-1.5-0.6-2,0c-0.6,0.6-0.6,1.5,0,2l0,0l2.6,2.6l-2.6,2.6c-0.6,0.6-0.6,1.5,0,2
		s1.5,0.6,2,0l0,0l2.6-2.6l2.6,2.6C20,53.4,20.3,53.6,20.7,53.6z"/>
	<path class="st0" d="M84.2,53.1c0.6,0.6,1.5,0.6,2,0c0.6-0.6,0.6-1.5,0-2l-2.6-2.6l2.6-2.6c0.6-0.6,0.6-1.5,0-2
		c-0.6-0.6-1.5-0.6-2,0l-2.6,2.6L79,43.8c-0.6-0.6-1.5-0.6-2,0s-0.6,1.5,0,2l2.6,2.6l-2.6,2.6c-0.6,0.6-0.6,1.5,0,2
		c0.6,0.6,1.5,0.6,2,0l2.6-2.6L84.2,53.1z"/>
	<linearGradient id="SVGID_3_" gradientUnits="userSpaceOnUse" x1="43.8049" y1="48.5045" x2="55.5061" y2="48.5045">
		<stop  offset="0" style="stop-color:#D30000"/>
		<stop  offset="1" style="stop-color:#930000"/>
	</linearGradient>
	<path class="st3" d="M53.3,45.4l-5.3,3l-1.6-1.9c-0.5-0.7-1.4-0.8-2-0.4c-0.7,0.5-0.8,1.4-0.4,2c0.1,0.1,0.1,0.2,0.2,0.2l2.4,2.8
		c0.5,0.5,1.2,0.7,1.8,0.3l6.3-3.6c0.7-0.4,0.9-1.3,0.5-2C54.9,45.3,54,45,53.3,45.4L53.3,45.4z"/>
</g>
</svg>
