<?xml version="1.0" encoding="utf-8"?>
<!-- Generator: Adobe Illustrator 24.1.0, SVG Export Plug-In . SVG Version: 6.00 Build 0)  -->
<svg version="1.1" id="Layer_1" xmlns="http://www.w3.org/2000/svg" xmlns:xlink="http://www.w3.org/1999/xlink" x="0px" y="0px"
	 viewBox="0 0 100 125" style="enable-background:new 0 0 100 125;" xml:space="preserve">
<style type="text/css">
	.st0{fill:url(#SVGID_1_);}
	.st1{fill:url(#SVGID_2_);}
	.st2{fill:url(#SVGID_3_);}
	.st3{fill:url(#SVGID_4_);}
	.st4{fill:url(#SVGID_5_);}
</style>
<g>
	<linearGradient id="SVGID_1_" gradientUnits="userSpaceOnUse" x1="3.4986" y1="56.4704" x2="96.05" y2="56.4704">
		<stop  offset="0" style="stop-color:#D30000"/>
		<stop  offset="1" style="stop-color:#930000"/>
	</linearGradient>
	<path class="st0" d="M4.8,76.9h13.5v13.2H9.6v2.4h8.7v14.5h2.4V92.5h7.1v14.5h2.4V92.5h39.2v14.5h2.4V92.5h7.1v14.5h2.4V92.5h8.7
		v-2.4h-8.7V76.9h13.5c0.6,0,1.3-0.5,1.3-1.3V19.2c0-0.6-0.5-1.3-1.3-1.3h-9.3V8.4h4.8V6H78.4v2.4h4.8v9.5H62.5V8.4h4.8V6H55.4v2.4
		h4.8v9.5H39.5V8.4h4.8V6H32.4v2.4h4.8v9.5H16.5V8.4h4.8V6H9.3v2.4h4.8v9.5H4.8c-0.6,0-1.3,0.5-1.3,1.3v56.6
		C3.5,76.4,4.1,76.9,4.8,76.9z M20.7,90.1V76.9h7.1v13.2H20.7z M30.2,90.1V76.9h39.2v13.2H30.2z M78.9,90.1h-7.1V76.9h7.1V90.1z
		 M5.9,20.3h87.7v54.1c-66.8,0-19.6,0-87.7,0C5.9,74.5,5.9,20.3,5.9,20.3z"/>
	<linearGradient id="SVGID_2_" gradientUnits="userSpaceOnUse" x1="10.7292" y1="47.4724" x2="88.6587" y2="47.4724">
		<stop  offset="0" style="stop-color:#D30000"/>
		<stop  offset="1" style="stop-color:#930000"/>
	</linearGradient>
	<path class="st1" d="M88.7,68.4V26.6c0-0.6-0.5-1.3-1.3-1.3H12c-0.6,0-1.3,0.5-1.3,1.3v41.8c0,0.6,0.5,1.3,1.3,1.3h75.5
		C88.2,69.5,88.7,69,88.7,68.4z M86.2,67.1H13.3V27.7h72.9V67.1z"/>
	<linearGradient id="SVGID_3_" gradientUnits="userSpaceOnUse" x1="24.2263" y1="37.1086" x2="75.3223" y2="37.1086">
		<stop  offset="0" style="stop-color:#D30000"/>
		<stop  offset="1" style="stop-color:#930000"/>
	</linearGradient>
	<rect x="24.2" y="35.9" class="st2" width="51.1" height="2.4"/>
	<linearGradient id="SVGID_4_" gradientUnits="userSpaceOnUse" x1="24.2263" y1="47.7134" x2="75.3223" y2="47.7134">
		<stop  offset="0" style="stop-color:#D30000"/>
		<stop  offset="1" style="stop-color:#930000"/>
	</linearGradient>
	<rect x="24.2" y="46.5" class="st3" width="51.1" height="2.4"/>
	<linearGradient id="SVGID_5_" gradientUnits="userSpaceOnUse" x1="24.2263" y1="58.3183" x2="75.3223" y2="58.3183">
		<stop  offset="0" style="stop-color:#D30000"/>
		<stop  offset="1" style="stop-color:#930000"/>
	</linearGradient>
	<rect x="24.2" y="57.1" class="st4" width="51.1" height="2.4"/>
</g>
</svg>
