<?xml version="1.0" encoding="utf-8"?>
<!-- Generator: Adobe Illustrator 24.1.0, SVG Export Plug-In . SVG Version: 6.00 Build 0)  -->
<svg version="1.1" id="Layer_1" xmlns="http://www.w3.org/2000/svg" xmlns:xlink="http://www.w3.org/1999/xlink" x="0px" y="0px"
	 viewBox="0 0 100 125" style="enable-background:new 0 0 100 125;" xml:space="preserve">
<style type="text/css">
	.st0{fill:url(#SVGID_1_);}
	.st1{fill:url(#SVGID_2_);}
	.st2{fill:url(#SVGID_3_);}
	.st3{fill:url(#SVGID_4_);}
</style>
<linearGradient id="SVGID_1_" gradientUnits="userSpaceOnUse" x1="60.7698" y1="21.0664" x2="72.1152" y2="21.0664">
	<stop  offset="0" style="stop-color:#D30000"/>
	<stop  offset="1" style="stop-color:#930000"/>
</linearGradient>
<path class="st0" d="M66.4,15.4c-3.1,0-5.7,2.6-5.7,5.7s2.5,5.7,5.7,5.7c3.1,0,5.7-2.5,5.7-5.7C72.1,17.9,69.6,15.4,66.4,15.4z
	 M66.4,24.5c-1.9,0-3.4-1.5-3.4-3.4c0-1.9,1.5-3.4,3.4-3.4s3.4,1.5,3.4,3.4C69.8,22.9,68.3,24.5,66.4,24.5z"/>
<linearGradient id="SVGID_2_" gradientUnits="userSpaceOnUse" x1="73.5599" y1="50.8978" x2="80.2366" y2="50.8978">
	<stop  offset="0" style="stop-color:#D30000"/>
	<stop  offset="1" style="stop-color:#930000"/>
</linearGradient>
<path class="st1" d="M76.9,54.2c1.8,0,3.3-1.5,3.3-3.3c0-1.8-1.5-3.3-3.3-3.3c-1.8,0-3.3,1.5-3.3,3.3C73.5,52.7,75.1,54.2,76.9,54.2
	z M76.9,49.8c0.6,0,1.1,0.5,1.1,1.1c0,0.6-0.5,1.1-1.1,1.1c-0.6,0-1-0.5-1-1.1C75.8,50.3,76.3,49.8,76.9,49.8z"/>
<linearGradient id="SVGID_3_" gradientUnits="userSpaceOnUse" x1="28.5431" y1="71.2619" x2="42.4436" y2="71.2619">
	<stop  offset="0" style="stop-color:#D30000"/>
	<stop  offset="1" style="stop-color:#930000"/>
</linearGradient>
<path class="st2" d="M35.5,64.3c-3.8,0-7,3.1-7,7s3.1,7,7,7s7-3.1,7-7S39.3,64.3,35.5,64.3z M35.5,75.9c-2.6,0-4.7-2.1-4.7-4.7
	c0-2.6,2.1-4.7,4.7-4.7s4.7,2.1,4.7,4.7C40.2,73.8,38.1,75.9,35.5,75.9z"/>
<linearGradient id="SVGID_4_" gradientUnits="userSpaceOnUse" x1="3.4986" y1="52.4347" x2="94.8519" y2="52.4347">
	<stop  offset="0" style="stop-color:#D30000"/>
	<stop  offset="1" style="stop-color:#930000"/>
</linearGradient>
<path class="st3" d="M90.9,22.2c-4.7-1.1-8.5-4.8-9.5-9.5c-0.5-2.3-2.5-3.9-4.8-3.9h-9.8c-5.2-6.5-18.9-6-31.7,1.4
	c-6.4,3.7-11.7,8.6-14.9,13.8c-3.3,5.4-3.9,10.4-1.7,14.2c2.1,3.7,6.7,5.7,12.5,5.7c2.2,0,4.6-0.3,7.1-0.9v11.3
	c-0.8-0.1-1.7-0.1-2.6-0.1c-17.4,0-31.1,15.6-31.7,16.3c-0.4,0.4-0.4,1.1,0,1.5c0.6,0.7,14.4,16.3,31.7,16.3c0.9,0,1.7,0,2.6-0.1
	v7.6c0,2.7,2.2,4.9,4.9,4.9h46.9c2.7,0,4.9-2.2,4.9-4.9V27C94.9,24.6,93.2,22.7,90.9,22.2z M20.5,37c-1.8-3.1-1.2-7.3,1.6-11.9
	c3-4.8,7.9-9.5,14.1-13C42.7,8.3,49.5,6.4,55,6.4c3.5,0,6.4,0.7,8.5,2.3h-7.2c-2.3,0-4.3,1.6-4.8,3.9c-1.1,4.7-4.8,8.5-9.5,9.5
	C39.7,22.7,38,24.7,38,27v13.7C29.7,42.6,22.9,41.2,20.5,37z M20.7,71.2c0-8.2,6.6-14.8,14.8-14.8s14.8,6.6,14.8,14.8
	c0,8.2-6.6,14.8-14.8,14.8S20.7,79.4,20.7,71.2z M52.6,71.2c0-4.8-2-9.1-5.2-12.2c8.7,3.6,15.3,10,17.4,12.2
	c-2.1,2.2-8.7,8.6-17.4,12.2C50.6,80.4,52.6,76,52.6,71.2z M47.7,85.9C58.9,81.5,66.8,72.5,67.2,72c0.4-0.4,0.4-1.1,0-1.5
	c-0.4-0.5-8.3-9.4-19.5-13.9V47c0-1.7,1.4-3.2,3.2-3.2h31.2c1.7,0,3.2,1.4,3.2,3.2v40.9c0,1.7-1.4,3.2-3.2,3.2H50.8
	c-1.7,0-3.2-1.4-3.2-3.2L47.7,85.9L47.7,85.9z M6.2,71.3c2.1-2.2,8.7-8.6,17.4-12.2c-3.2,3.1-5.2,7.4-5.2,12.2c0,4.8,2,9.1,5.2,12.2
	C14.9,79.9,8.3,73.4,6.2,71.3z M92.6,95.8c0,1.5-1.2,2.7-2.7,2.7H43c-1.5,0-2.6-1.2-2.6-2.7v-7.8c1.7-0.3,3.4-0.7,5-1.2v1.2
	c0,3,2.4,5.4,5.4,5.4h31.2c3,0,5.4-2.4,5.4-5.4V47c0-3-2.4-5.4-5.4-5.4H50.8c-3,0-5.4,2.4-5.4,5.4v8.8c-1.6-0.5-3.3-1-5-1.2v-13V27
	c0-1.2,0.9-2.3,2.1-2.6c5.6-1.3,10-5.7,11.3-11.3c0.3-1.3,1.4-2.1,2.6-2.1h9.9h10.3c1.2,0,2.3,0.9,2.6,2.1c1.3,5.6,5.7,10,11.3,11.3
	c1.3,0.3,2.1,1.4,2.1,2.6V95.8z"/>
</svg>
