<svg id="Layer_5" enable-background="new 0 0 64 64" height="512" viewBox="0 0 64 64" width="512" xmlns="http://www.w3.org/2000/svg" xmlns:xlink="http://www.w3.org/1999/xlink"><linearGradient id="SVGID_1_" gradientUnits="userSpaceOnUse" x1="32" x2="32" y1="63" y2="1"><stop offset="0" stop-color="#ff2525"/><stop offset="1" stop-color="#a00000"/></linearGradient><path d="m32 22c4.411 0 8-3.589 8-8s-3.589-8-8-8-8 3.589-8 8 3.589 8 8 8zm0-14c3.309 0 6 2.691 6 6s-2.691 6-6 6-6-2.691-6-6 2.691-6 6-6zm0 10c2.206 0 4-1.794 4-4s-1.794-4-4-4-4 1.794-4 4 1.794 4 4 4zm0-6c1.103 0 2 .897 2 2s-.897 2-2 2-2-.897-2-2 .897-2 2-2zm13-.036v-1.672l-1.826-.644c-.062-.157-.127-.314-.196-.471l.836-1.749-5.242-5.242-1.749.836c-.156-.069-.313-.135-.471-.196l-.644-1.826h-7.416l-.644 1.826c-.157.062-.314.127-.471.196l-1.749-.836-5.242 5.242.836 1.749c-.069.156-.135.313-.196.471l-1.826.644v1.688c-3.81 3.528-6 8.464-6 13.64 0 4.348 1.532 8.581 4.315 11.921l3.355 4.025c1.329 1.597 2.127 3.57 2.294 5.629-1.143.424-1.964 1.516-1.964 2.805 0 1.383.945 2.539 2.22 2.884-.139.346-.22.721-.22 1.116 0 1.322.865 2.434 2.054 2.833.414 3.467 3.369 6.167 6.946 6.167s6.532-2.7 6.946-6.167c1.189-.399 2.054-1.511 2.054-2.833 0-.395-.081-.77-.22-1.116 1.275-.346 2.22-1.501 2.22-2.884 0-1.289-.821-2.381-1.965-2.805.166-2.059.964-4.032 2.294-5.628l3.104-3.725c2.569-3.083 4.117-6.669 4.476-10.37.573-5.89-1.581-11.513-5.909-15.508zm-24-.256 1.393-.491.156-.459c.13-.382.291-.767.477-1.145l.214-.436-.639-1.335 3.242-3.242 1.335.639.436-.214c.378-.186.763-.347 1.145-.477l.459-.156.49-1.392h4.584l.491 1.393.459.156c.382.13.767.291 1.145.477l.436.214 1.335-.639 3.242 3.242-.639 1.335.214.436c.186.378.347.763.477 1.145l.156.459 1.392.49v4.584l-1.393.491-.156.459c-.13.382-.291.767-.477 1.145l-.214.436.639 1.335-3.242 3.242-1.335-.639-.436.214c-.378.186-.763.347-1.145.477l-.459.156-.49 1.392h-4.584l-.491-1.393-.459-.156c-.382-.13-.767-.291-1.145-.477l-.436-.214-1.335.639-3.242-3.242.639-1.335-.214-.436c-.186-.378-.347-.763-.477-1.145l-.156-.459-1.392-.49zm8.877 15.292h3.068l-1.334 4h4.765l-6.025 11.975 2.993-9.975h-5.866zm2.123 34c-2.414 0-4.434-1.721-4.899-4h9.798c-.465 2.279-2.485 4-4.899 4zm6-6h-12c-.552 0-1-.448-1-1s.448-1 1-1h12c.552 0 1 .448 1 1s-.448 1-1 1zm2-4h-2-12-2c-.552 0-1-.448-1-1s.448-1 1-1h16c.552 0 1 .448 1 1s-.448 1-1 1zm8.919-23.721c-.32 3.3-1.711 6.51-4.022 9.282l-3.104 3.726c-1.586 1.904-2.542 4.257-2.748 6.713h-14.089c-.206-2.456-1.162-4.809-2.748-6.714l-3.355-4.026c-2.485-2.981-3.853-6.759-3.853-10.64 0-3.963 1.447-7.763 4-10.755v2.843l1.826.644c.062.157.127.314.196.471l-.836 1.749 5.242 5.242 1.749-.836c.156.069.313.135.471.196l.377 1.07-3.503 8.756h6.134l-2.221 7.4c-.186.617-.07 1.269.314 1.785.386.518.977.815 1.621.815.771 0 1.464-.429 1.806-1.116l7.442-14.884h-5.23l.666-2h.654l.644-1.826c.157-.062.314-.127.471-.196l1.749.836 5.242-5.242-.836-1.749c.069-.156.135-.313.196-.471l1.826-.644v-2.873c2.948 3.423 4.366 7.841 3.919 12.444zm4.081-3.279h10v2h-10zm-1.981-7.96 9.239-3.827.766 1.848-9.239 3.827zm-47.277-3.827 9.239 3.827-.766 1.848-9.239-3.827zm7.258 13.787h-10v-2h10zm1.216 6.112.766 1.848-9.239 3.827-.766-1.848zm39.568 0 9.239 3.827-.766 1.848-9.239-3.827z" fill="url(#SVGID_1_)"/></svg>