<?xml version="1.0" encoding="utf-8"?>
<!-- Generator: Adobe Illustrator 24.1.0, SVG Export Plug-In . SVG Version: 6.00 Build 0)  -->
<svg version="1.1" id="Layer_1" xmlns="http://www.w3.org/2000/svg" xmlns:xlink="http://www.w3.org/1999/xlink" x="0px" y="0px"
	 viewBox="0 0 100 125" style="enable-background:new 0 0 100 125;" xml:space="preserve">
<style type="text/css">
	.st0{fill:url(#SVGID_1_);}
	.st1{fill:url(#SVGID_2_);}
	.st2{fill:url(#SVGID_3_);}
	.st3{fill:url(#SVGID_4_);}
	.st4{fill:url(#SVGID_5_);}
	.st5{fill:url(#SVGID_6_);}
	.st6{fill:url(#SVGID_7_);}
</style>
<linearGradient id="SVGID_1_" gradientUnits="userSpaceOnUse" x1="6.2455" y1="47.7072" x2="93.7545" y2="47.7072">
	<stop  offset="0" style="stop-color:#D30000"/>
	<stop  offset="1" style="stop-color:#930000"/>
</linearGradient>
<path class="st0" d="M93.8,8.3L64.8,4.4l0,0L64,4.3l-0.7,0.1v0L35.9,10l-29.7-4v84.9l29.7-4.3l28.1,4.6l0.6-0.1l29.1-4.6V8.3z
	 M7.8,7.7l27.4,3.7v73.7l-27.4,4V7.7z M36.7,11.4L63.3,6v83.5l-26.6-4.3V11.4z M92.2,85.1l-27.4,4.4V5.9l27.4,3.7V85.1z"/>
<g>
	<linearGradient id="SVGID_2_" gradientUnits="userSpaceOnUse" x1="69.9115" y1="32.1822" x2="88.1315" y2="32.1822">
		<stop  offset="0" style="stop-color:#D30000"/>
		<stop  offset="1" style="stop-color:#930000"/>
	</linearGradient>
	<polygon class="st1" points="88.1,47.7 69.9,47.7 69.9,16.7 88.1,18.7 	"/>
</g>
<g>
	<linearGradient id="SVGID_3_" gradientUnits="userSpaceOnUse" x1="40.7765" y1="19.5207" x2="58.8085" y2="19.5207">
		<stop  offset="0" style="stop-color:#D30000"/>
		<stop  offset="1" style="stop-color:#930000"/>
	</linearGradient>
	<polygon class="st2" points="40.8,21.7 40.8,19.9 58.8,17.4 58.8,19.6 	"/>
</g>
<g>
	<linearGradient id="SVGID_4_" gradientUnits="userSpaceOnUse" x1="40.7765" y1="48.8037" x2="58.8085" y2="48.8037">
		<stop  offset="0" style="stop-color:#D30000"/>
		<stop  offset="1" style="stop-color:#930000"/>
	</linearGradient>
	<polygon class="st3" points="40.8,49.9 40.8,47.6 58.8,47.7 58.8,50 	"/>
</g>
<g>
	<linearGradient id="SVGID_5_" gradientUnits="userSpaceOnUse" x1="40.7765" y1="54.0712" x2="58.8085" y2="54.0712">
		<stop  offset="0" style="stop-color:#D30000"/>
		<stop  offset="1" style="stop-color:#930000"/>
	</linearGradient>
	<polygon class="st4" points="40.8,54.9 40.8,52.9 58.8,53.2 58.8,55.3 	"/>
</g>
<g>
	<linearGradient id="SVGID_6_" gradientUnits="userSpaceOnUse" x1="40.7765" y1="69.6462" x2="58.8085" y2="69.6462">
		<stop  offset="0" style="stop-color:#D30000"/>
		<stop  offset="1" style="stop-color:#930000"/>
	</linearGradient>
	<polygon class="st5" points="40.8,69.9 40.8,67.9 58.8,69.3 58.8,71.4 	"/>
</g>
<g>
	<linearGradient id="SVGID_7_" gradientUnits="userSpaceOnUse" x1="40.7765" y1="75.6512" x2="58.8085" y2="75.6512">
		<stop  offset="0" style="stop-color:#D30000"/>
		<stop  offset="1" style="stop-color:#930000"/>
	</linearGradient>
	<polygon class="st6" points="40.8,75.7 40.8,73.7 58.8,75.6 58.8,77.6 	"/>
</g>
</svg>
