<?xml version="1.0" encoding="utf-8"?>
<!-- Generator: Adobe Illustrator 24.1.0, SVG Export Plug-In . SVG Version: 6.00 Build 0)  -->
<svg version="1.1" id="Layer_1" xmlns="http://www.w3.org/2000/svg" xmlns:xlink="http://www.w3.org/1999/xlink" x="0px" y="0px"
	 viewBox="0 0 100 125" style="enable-background:new 0 0 100 125;" xml:space="preserve">
<style type="text/css">
	.st0{fill:url(#SVGID_1_);}
	.st1{fill:url(#SVGID_2_);}
	.st2{fill:url(#SVGID_3_);}
	.st3{fill:url(#SVGID_4_);}
	.st4{fill:url(#SVGID_5_);}
	.st5{fill:url(#SVGID_6_);}
	.st6{fill:url(#SVGID_7_);}
	.st7{fill:url(#SVGID_8_);}
	.st8{fill:url(#SVGID_9_);}
</style>
<linearGradient id="SVGID_1_" gradientUnits="userSpaceOnUse" x1="5.5128" y1="38.9932" x2="93.7545" y2="38.9932">
	<stop  offset="0" style="stop-color:#D30000"/>
	<stop  offset="1" style="stop-color:#930000"/>
</linearGradient>
<path class="st0" d="M90.7,17.7h-2.2v-1.9c0-1.7-1.4-3-3-3h-2.5v-2.6c0-1.7-1.4-3-3-3H8.6c-1.7,0-3,1.4-3,3v47c0,1.7,1.4,3,3,3h2.5
	v2.6c0,1.7,1.4,3,3,3h2.2v1.9c0,1.7,1.4,3,3,3h71.3c1.7,0,3-1.4,3-3v-47C93.8,19.1,92.4,17.7,90.7,17.7z M8.6,58.4
	c-0.7,0-1.2-0.5-1.2-1.2v-47C7.3,9.6,7.9,9,8.6,9h71.3c0.7,0,1.2,0.6,1.2,1.2v2.6h-67c-1.7,0-3,1.4-3,3v42.6L8.6,58.4L8.6,58.4z
	 M14.1,64c-0.7,0-1.2-0.5-1.2-1.2v-47c0-0.7,0.6-1.2,1.2-1.2h71.3c0.7,0,1.2,0.6,1.2,1.2v1.9H19.4c-1.7,0-3,1.4-3,3V64L14.1,64
	L14.1,64z M91.9,67.7c0,0.7-0.6,1.2-1.2,1.2H19.4c-0.7,0-1.2-0.5-1.2-1.2v-47c0-0.7,0.6-1.2,1.2-1.2h71.3c0.7,0,1.2,0.6,1.2,1.2
	L91.9,67.7L91.9,67.7z"/>
<linearGradient id="SVGID_2_" gradientUnits="userSpaceOnUse" x1="70.5502" y1="33.7236" x2="88.549" y2="33.7236">
	<stop  offset="0" style="stop-color:#D30000"/>
	<stop  offset="1" style="stop-color:#930000"/>
</linearGradient>
<path class="st1" d="M87.6,24.7H71.5c-0.5,0-0.9,0.4-0.9,0.9v16.2c0,0.5,0.4,0.9,0.9,0.9h16.2c0.5,0,0.9-0.4,0.9-0.9V25.6
	C88.5,25.1,88.1,24.7,87.6,24.7z M86.7,40.9H72.4V26.5h14.4C86.7,26.5,86.7,40.9,86.7,40.9z"/>
<linearGradient id="SVGID_3_" gradientUnits="userSpaceOnUse" x1="22.1734" y1="25.6312" x2="43.7309" y2="25.6312">
	<stop  offset="0" style="stop-color:#D30000"/>
	<stop  offset="1" style="stop-color:#930000"/>
</linearGradient>
<path class="st2" d="M23.1,26.5h19.7c0.5,0,0.9-0.4,0.9-0.9c0-0.5-0.4-0.9-0.9-0.9H23.1c-0.5,0-0.9,0.4-0.9,0.9
	C22.2,26.1,22.6,26.5,23.1,26.5z"/>
<linearGradient id="SVGID_4_" gradientUnits="userSpaceOnUse" x1="22.1734" y1="34.1685" x2="58.4932" y2="34.1685">
	<stop  offset="0" style="stop-color:#D30000"/>
	<stop  offset="1" style="stop-color:#930000"/>
</linearGradient>
<path class="st3" d="M23.1,35.1h34.5c0.5,0,0.9-0.4,0.9-0.9s-0.4-0.9-0.9-0.9H23.1c-0.5,0-0.9,0.4-0.9,0.9S22.6,35.1,23.1,35.1z"/>
<linearGradient id="SVGID_5_" gradientUnits="userSpaceOnUse" x1="22.1734" y1="42.7049" x2="52.0903" y2="42.7049">
	<stop  offset="0" style="stop-color:#D30000"/>
	<stop  offset="1" style="stop-color:#930000"/>
</linearGradient>
<path class="st4" d="M23.1,43.6h28.1c0.5,0,0.9-0.4,0.9-0.9c0-0.5-0.4-0.9-0.9-0.9H23.1c-0.5,0-0.9,0.4-0.9,0.9
	C22.2,43.2,22.6,43.6,23.1,43.6z"/>
<linearGradient id="SVGID_6_" gradientUnits="userSpaceOnUse" x1="22.1734" y1="51.2421" x2="68.4522" y2="51.2421">
	<stop  offset="0" style="stop-color:#D30000"/>
	<stop  offset="1" style="stop-color:#930000"/>
</linearGradient>
<path class="st5" d="M68.5,51.2c0-0.5-0.4-0.9-0.9-0.9H23.1c-0.5,0-0.9,0.4-0.9,0.9c0,0.5,0.4,0.9,0.9,0.9h44.5
	C68,52.1,68.5,51.7,68.5,51.2z"/>
<linearGradient id="SVGID_7_" gradientUnits="userSpaceOnUse" x1="21.5497" y1="61.8239" x2="42.2184" y2="61.8239">
	<stop  offset="0" style="stop-color:#D30000"/>
	<stop  offset="1" style="stop-color:#930000"/>
</linearGradient>
<path class="st6" d="M41.3,59.8H22.5c-0.5,0-0.9,0.4-0.9,0.9v2.1c0,0.5,0.4,0.9,0.9,0.9h18.9c0.5,0,0.9-0.4,0.9-0.9v-2.1
	C42.2,60.3,41.8,59.8,41.3,59.8z M40.4,62h-17v-0.3h17V62z"/>
<linearGradient id="SVGID_8_" gradientUnits="userSpaceOnUse" x1="44.6714" y1="61.8239" x2="65.3401" y2="61.8239">
	<stop  offset="0" style="stop-color:#D30000"/>
	<stop  offset="1" style="stop-color:#930000"/>
</linearGradient>
<path class="st7" d="M64.4,59.8H45.6c-0.5,0-0.9,0.4-0.9,0.9v2.1c0,0.5,0.4,0.9,0.9,0.9h18.9c0.5,0,0.9-0.4,0.9-0.9v-2.1
	C65.3,60.3,64.9,59.8,64.4,59.8z M63.5,62h-17v-0.3h17V62z"/>
<linearGradient id="SVGID_9_" gradientUnits="userSpaceOnUse" x1="67.7922" y1="61.8239" x2="88.4627" y2="61.8239">
	<stop  offset="0" style="stop-color:#D30000"/>
	<stop  offset="1" style="stop-color:#930000"/>
</linearGradient>
<path class="st8" d="M87.6,59.8H68.7c-0.5,0-0.9,0.4-0.9,0.9v2.1c0,0.5,0.4,0.9,0.9,0.9h18.9c0.5,0,0.9-0.4,0.9-0.9v-2.1
	C88.5,60.3,88.1,59.8,87.6,59.8z M86.6,62h-17v-0.3h17L86.6,62L86.6,62z"/>
</svg>
