<?xml version="1.0" encoding="utf-8"?>
<!-- Generator: Adobe Illustrator 24.1.0, SVG Export Plug-In . SVG Version: 6.00 Build 0)  -->
<svg version="1.1" id="Layer_1" xmlns="http://www.w3.org/2000/svg" xmlns:xlink="http://www.w3.org/1999/xlink" x="0px" y="0px"
	 viewBox="0 0 100 125" style="enable-background:new 0 0 100 125;" xml:space="preserve">
<style type="text/css">
	.st0{fill:url(#SVGID_1_);}
	.st1{fill:url(#SVGID_2_);}
	.st2{fill:url(#SVGID_3_);}
	.st3{fill:url(#SVGID_4_);}
	.st4{fill:url(#SVGID_5_);}
	.st5{fill:url(#SVGID_6_);}
	.st6{fill:url(#SVGID_7_);}
	.st7{fill:url(#SVGID_8_);}
	.st8{fill:url(#SVGID_9_);}
</style>
<linearGradient id="SVGID_1_" gradientUnits="userSpaceOnUse" x1="6.2233" y1="55.2065" x2="77.2253" y2="55.2065">
	<stop  offset="0" style="stop-color:#D30000"/>
	<stop  offset="1" style="stop-color:#930000"/>
</linearGradient>
<path class="st0" d="M76.2,103.2h-69c-0.6,0-1-0.4-1-1v-94c0-0.6,0.4-1,1-1h44.3c0,0,0.1,0,0.1,0l0.5,0.1c0.2,0,0.4,0.1,0.6,0.3
	l24.2,24.2c0.2,0.2,0.3,0.4,0.3,0.7v14.2c0,0.6-0.4,1-1,1s-1-0.4-1-1V32.8L51.6,9.2l-0.1,0H8.2v92h67v-12c0-0.6,0.4-1,1-1s1,0.4,1,1
	v13C77.2,102.8,76.8,103.2,76.2,103.2C76.2,103.2,76.2,103.2,76.2,103.2z"/>
<linearGradient id="SVGID_2_" gradientUnits="userSpaceOnUse" x1="50.9573" y1="20.3402" x2="77.2233" y2="20.3402">
	<stop  offset="0" style="stop-color:#D30000"/>
	<stop  offset="1" style="stop-color:#930000"/>
</linearGradient>
<path class="st1" d="M76.2,33.5H52c-0.6,0-1-0.4-1-1V8.2c0-0.6,0.4-1,1-1s1,0.4,1,1v23.3h23.3c0.6,0,1,0.4,1,1
	C77.2,33,76.8,33.5,76.2,33.5z"/>
<linearGradient id="SVGID_3_" gradientUnits="userSpaceOnUse" x1="55.0797" y1="67.0775" x2="97.9572" y2="67.0775">
	<stop  offset="0" style="stop-color:#D30000"/>
	<stop  offset="1" style="stop-color:#930000"/>
</linearGradient>
<path class="st2" d="M56.1,86.5c-0.6,0-1-0.4-1-1c0-0.1,0-0.1,0-0.2l2.4-11.1c0-0.2,0.2-0.4,0.3-0.5l29.4-25.7
	c0.4-0.4,1-0.3,1.4,0.1l9.2,10.5c0.4,0.4,0.3,1-0.1,1.4L68.3,85.6c-0.2,0.1-0.4,0.2-0.6,0.2L56.1,86.5L56.1,86.5z M67.6,84.8
	L67.6,84.8z M59.3,74.9l-2,9.5l9.9-0.6L95.5,59l-7.9-9L59.3,74.9z"/>
<linearGradient id="SVGID_4_" gradientUnits="userSpaceOnUse" x1="18.5843" y1="42.5562" x2="41.6703" y2="42.5562">
	<stop  offset="0" style="stop-color:#D30000"/>
	<stop  offset="1" style="stop-color:#930000"/>
</linearGradient>
<path class="st3" d="M40.7,43.6H19.6c-0.6,0-1-0.4-1-1s0.4-1,1-1h21.1c0.6,0,1,0.4,1,1S41.2,43.6,40.7,43.6z"/>
<linearGradient id="SVGID_5_" gradientUnits="userSpaceOnUse" x1="18.5843" y1="57.3152" x2="62.7563" y2="57.3152">
	<stop  offset="0" style="stop-color:#D30000"/>
	<stop  offset="1" style="stop-color:#930000"/>
</linearGradient>
<path class="st4" d="M61.8,58.3H19.6c-0.6,0-1-0.4-1-1s0.4-1,1-1h42.2c0.6,0,1,0.4,1,1S62.3,58.3,61.8,58.3z"/>
<linearGradient id="SVGID_6_" gradientUnits="userSpaceOnUse" x1="18.5843" y1="72.0762" x2="50.1053" y2="72.0762">
	<stop  offset="0" style="stop-color:#D30000"/>
	<stop  offset="1" style="stop-color:#930000"/>
</linearGradient>
<path class="st5" d="M49.1,73.1H19.6c-0.6,0-1-0.4-1-1s0.4-1,1-1h29.5c0.6,0,1,0.4,1,1S49.7,73.1,49.1,73.1z"/>
<linearGradient id="SVGID_7_" gradientUnits="userSpaceOnUse" x1="18.5843" y1="86.8362" x2="50.1053" y2="86.8362">
	<stop  offset="0" style="stop-color:#D30000"/>
	<stop  offset="1" style="stop-color:#930000"/>
</linearGradient>
<path class="st6" d="M49.1,87.8H19.6c-0.6,0-1-0.4-1-1s0.4-1,1-1h29.5c0.6,0,1,0.4,1,1S49.7,87.8,49.1,87.8z"/>
<linearGradient id="SVGID_8_" gradientUnits="userSpaceOnUse" x1="18.5843" y1="28.7762" x2="20.5843" y2="28.7762">
	<stop  offset="0" style="stop-color:#D30000"/>
	<stop  offset="1" style="stop-color:#930000"/>
</linearGradient>
<path class="st7" d="M19.6,35.4c-0.6,0-1-0.4-1-1V23.2c0-0.6,0.4-1,1-1s1,0.4,1,1v11.3C20.6,35,20.1,35.4,19.6,35.4z"/>
<linearGradient id="SVGID_9_" gradientUnits="userSpaceOnUse" x1="18.5813" y1="15.7779" x2="20.5814" y2="15.7779">
	<stop  offset="0" style="stop-color:#D30000"/>
	<stop  offset="1" style="stop-color:#930000"/>
</linearGradient>
<path class="st8" d="M19.6,16.8c-0.5,0-1-0.4-1-1c0-0.1,0-0.3,0.1-0.4c0-0.1,0.1-0.2,0.2-0.3c0.1-0.1,0.2-0.2,0.3-0.2
	c0.2-0.1,0.5-0.1,0.8,0c0.1,0,0.1,0.1,0.2,0.1l0.1,0.1c0.1,0.1,0.2,0.2,0.2,0.3c0,0.1,0.1,0.2,0.1,0.4c0,0.3-0.1,0.5-0.3,0.7
	c-0.1,0.1-0.2,0.2-0.3,0.2C19.8,16.7,19.7,16.8,19.6,16.8z"/>
</svg>
