<?xml version="1.0" encoding="utf-8"?>
<!-- Generator: Adobe Illustrator 24.1.0, SVG Export Plug-In . SVG Version: 6.00 Build 0)  -->
<svg version="1.1" id="Layer_1" xmlns="http://www.w3.org/2000/svg" xmlns:xlink="http://www.w3.org/1999/xlink" x="0px" y="0px"
	 viewBox="0 0 100 125" style="enable-background:new 0 0 100 125;" xml:space="preserve">
<style type="text/css">
	.st0{fill:url(#SVGID_1_);}
	.st1{fill:url(#SVGID_2_);}
	.st2{fill:url(#SVGID_3_);}
	.st3{fill:url(#SVGID_4_);}
	.st4{fill:url(#SVGID_5_);}
	.st5{fill:url(#SVGID_6_);}
	.st6{fill:url(#SVGID_7_);}
	.st7{fill:url(#SVGID_8_);}
	.st8{fill:url(#SVGID_9_);}
	.st9{fill:url(#SVGID_10_);}
	.st10{fill:url(#SVGID_11_);}
	.st11{fill:url(#SVGID_12_);}
	.st12{fill:url(#SVGID_13_);}
</style>
<g>
	<linearGradient id="SVGID_1_" gradientUnits="userSpaceOnUse" x1="3.3903" y1="64.11" x2="97.9572" y2="64.11">
		<stop  offset="0" style="stop-color:#D30000"/>
		<stop  offset="1" style="stop-color:#930000"/>
	</linearGradient>
	<path class="st0" d="M93,84.3v-44c0-3.9-3-7.2-7-7.6h-5v1.5h4.8c3.1,0.2,5.5,2.9,5.5,6.1v44h-2.3v-44c0-2-1.4-3.5-3.3-3.8h-0.1h-5
		V38h4.9c1.1,0.2,2,1.1,2,2.3v44H13.8v-44c0-1.1,0.8-2.1,2-2.3h4.9v-1.5h-5h-0.1c-1.9,0.2-3.3,1.8-3.3,3.8v44H10v-44
		c0-3.1,2.4-5.7,5.5-6.1h4.9v-1.5h-5c-3.9,0.3-7,3.6-7,7.6v44H4.1c-0.5,0-0.8,0.3-0.8,0.8c0,5.7,4.7,10.4,10.4,10.4h73.8
		c5.7,0,10.4-4.7,10.4-10.4C98.1,83.8,96.2,84.6,93,84.3z M87.7,94H13.8c-4.6,0-8.5-3.6-8.9-8.1c97.1,0-31.8,0,91.5,0
		C96.1,90.4,92.4,94,87.7,94z"/>
	<linearGradient id="SVGID_2_" gradientUnits="userSpaceOnUse" x1="14.6617" y1="89.9434" x2="19.957" y2="89.9434">
		<stop  offset="0" style="stop-color:#D30000"/>
		<stop  offset="1" style="stop-color:#930000"/>
	</linearGradient>
	<path class="st1" d="M17.3,87.3c-1.4,0-2.6,1.2-2.6,2.6c0,1.4,1.2,2.6,2.6,2.6c1.4,0,2.6-1.2,2.6-2.6C20,88.5,18.7,87.3,17.3,87.3z
		 M17.3,91c-0.6,0-1.1-0.5-1.1-1.1c0-0.6,0.5-1.1,1.1-1.1s1.1,0.5,1.1,1.1C18.4,90.5,17.9,91,17.3,91z"/>
	<linearGradient id="SVGID_3_" gradientUnits="userSpaceOnUse" x1="22.2264" y1="89.9434" x2="27.5216" y2="89.9434">
		<stop  offset="0" style="stop-color:#D30000"/>
		<stop  offset="1" style="stop-color:#930000"/>
	</linearGradient>
	<path class="st2" d="M24.9,87.3c-1.4,0-2.6,1.2-2.6,2.6c0,1.4,1.2,2.6,2.6,2.6c1.4,0,2.6-1.2,2.6-2.6
		C27.5,88.5,26.3,87.3,24.9,87.3z M24.9,91c-0.6,0-1.1-0.5-1.1-1.1c0-0.6,0.5-1.1,1.1-1.1s1.1,0.5,1.1,1.1C26,90.5,25.5,91,24.9,91z
		"/>
	<linearGradient id="SVGID_4_" gradientUnits="userSpaceOnUse" x1="29.7154" y1="89.9434" x2="35.0107" y2="89.9434">
		<stop  offset="0" style="stop-color:#D30000"/>
		<stop  offset="1" style="stop-color:#930000"/>
	</linearGradient>
	<path class="st3" d="M32.4,87.3c-1.4,0-2.6,1.2-2.6,2.6c0,1.4,1.2,2.6,2.6,2.6c1.4,0,2.6-1.2,2.6-2.6C35,88.5,33.8,87.3,32.4,87.3z
		 M32.4,91c-0.6,0-1.1-0.5-1.1-1.1c0-0.6,0.5-1.1,1.1-1.1c0.6,0,1.1,0.5,1.1,1.1C33.5,90.5,33,91,32.4,91z"/>
	<linearGradient id="SVGID_5_" gradientUnits="userSpaceOnUse" x1="22.7559" y1="35.0239" x2="78.7345" y2="35.0239">
		<stop  offset="0" style="stop-color:#D30000"/>
		<stop  offset="1" style="stop-color:#930000"/>
	</linearGradient>
	<path class="st4" d="M27.1,39.6c1.9,9.6,9.4,17.2,19.1,19.1c0.2,2.4,2.2,4.3,4.6,4.3s4.5-1.9,4.6-4.3c9.6-1.9,17.2-9.4,19.1-19.1
		c2.4-0.2,4.3-2.2,4.3-4.6c0-2.4-1.9-4.5-4.3-4.6c-1.9-9.6-9.4-17.2-19.1-19.1C55.2,8.9,53.2,7,50.7,7s-4.5,1.9-4.6,4.3
		c-9.6,1.9-17.2,9.4-19.1,19.1c-2.4,0.2-4.3,2.2-4.3,4.6C22.8,37.5,24.6,39.5,27.1,39.6z M50.7,61.6c-1.7,0-3.1-1.4-3.1-3.1
		c0-1.7,1.4-3.1,3.1-3.1c1.7,0,3.1,1.4,3.1,3.1C53.8,60.1,52.5,61.6,50.7,61.6z M77.2,35.1c0,1.7-1.4,3.1-3.1,3.1
		c-1.7,0-3.1-1.4-3.1-3.1s1.4-3.1,3.1-3.1C75.8,31.9,77.2,33.4,77.2,35.1z M50.7,8.6c1.7,0,3.1,1.4,3.1,3.1s-1.4,3.1-3.1,3.1
		s-3.1-1.4-3.1-3.1S49,8.6,50.7,8.6z M46.3,12.9c0.5,2,2.3,3.4,4.5,3.4s3.9-1.4,4.5-3.4c8.9,1.8,15.9,8.8,17.7,17.7
		c-2,0.5-3.4,2.3-3.4,4.5c0,2.1,1.4,3.9,3.4,4.5c-1.8,8.9-8.8,15.9-17.7,17.7c-0.5-2-2.3-3.4-4.5-3.4s-3.9,1.4-4.5,3.4
		c-8.9-1.8-15.9-8.8-17.7-17.7c2-0.5,3.4-2.3,3.4-4.5c0-2.1-1.4-3.9-3.4-4.5C30.4,21.7,37.4,14.7,46.3,12.9z M27.4,31.9
		c1.7,0,3.1,1.4,3.1,3.1s-1.4,3.1-3.1,3.1s-3.1-1.4-3.1-3.1C24.3,33.4,25.6,31.9,27.4,31.9z"/>
	<linearGradient id="SVGID_6_" gradientUnits="userSpaceOnUse" x1="18.444" y1="71.2586" x2="29.1859" y2="71.2586">
		<stop  offset="0" style="stop-color:#D30000"/>
		<stop  offset="1" style="stop-color:#930000"/>
	</linearGradient>
	<rect x="18.4" y="70.5" class="st5" width="10.7" height="1.5"/>
	<linearGradient id="SVGID_7_" gradientUnits="userSpaceOnUse" x1="18.444" y1="75.8731" x2="29.1859" y2="75.8731">
		<stop  offset="0" style="stop-color:#D30000"/>
		<stop  offset="1" style="stop-color:#930000"/>
	</linearGradient>
	<rect x="18.4" y="75.1" class="st6" width="10.7" height="1.5"/>
	<linearGradient id="SVGID_8_" gradientUnits="userSpaceOnUse" x1="18.444" y1="80.5632" x2="29.1859" y2="80.5632">
		<stop  offset="0" style="stop-color:#D30000"/>
		<stop  offset="1" style="stop-color:#930000"/>
	</linearGradient>
	<rect x="18.4" y="79.8" class="st7" width="10.7" height="1.5"/>
	<linearGradient id="SVGID_9_" gradientUnits="userSpaceOnUse" x1="72.3801" y1="71.2586" x2="83.122" y2="71.2586">
		<stop  offset="0" style="stop-color:#D30000"/>
		<stop  offset="1" style="stop-color:#930000"/>
	</linearGradient>
	<rect x="72.4" y="70.5" class="st8" width="10.7" height="1.5"/>
	<linearGradient id="SVGID_10_" gradientUnits="userSpaceOnUse" x1="72.3801" y1="75.8731" x2="83.122" y2="75.8731">
		<stop  offset="0" style="stop-color:#D30000"/>
		<stop  offset="1" style="stop-color:#930000"/>
	</linearGradient>
	<rect x="72.4" y="75.1" class="st9" width="10.7" height="1.5"/>
	<linearGradient id="SVGID_11_" gradientUnits="userSpaceOnUse" x1="72.3801" y1="80.5632" x2="83.122" y2="80.5632">
		<stop  offset="0" style="stop-color:#D30000"/>
		<stop  offset="1" style="stop-color:#930000"/>
	</linearGradient>
	<rect x="72.4" y="79.8" class="st10" width="10.7" height="1.5"/>
	<linearGradient id="SVGID_12_" gradientUnits="userSpaceOnUse" x1="35.7671" y1="34.7591" x2="66.4797" y2="34.7591">
		<stop  offset="0" style="stop-color:#D30000"/>
		<stop  offset="1" style="stop-color:#930000"/>
	</linearGradient>
	<path class="st11" d="M36.4,37.4l3.3,0.7c0.2,0.8,0.5,1.6,1,2.3l-1.9,2.8c-0.2,0.3-0.2,0.7,0.1,1l2.8,2.8c0.2,0.2,0.7,0.3,1,0.1
		l2.8-1.9c0.8,0.4,1.5,0.8,2.3,1l0.7,3.3c0.1,0.4,0.4,0.6,0.8,0.6H53c0.4,0,0.7-0.2,0.8-0.6l0.7-3.3c0.8-0.2,1.6-0.5,2.3-1l2.8,1.9
		c0.3,0.2,0.7,0.2,1-0.1l2.8-2.8c0.2-0.2,0.3-0.7,0.1-1l-1.9-2.8c0.4-0.8,0.8-1.5,1-2.3l3.3-0.7c0.4-0.1,0.6-0.4,0.6-0.8v-3.9
		c0-0.4-0.2-0.7-0.6-0.8l-3.3-0.7c-0.2-0.8-0.5-1.6-1-2.3l1.9-2.8c0.2-0.3,0.2-0.7-0.1-1l-2.8-2.7c-0.2-0.2-0.7-0.3-1-0.1l-2.8,1.8
		c-0.8-0.4-1.5-0.8-2.3-1L53.8,20c-0.1-0.4-0.4-0.6-0.8-0.6h-3.9c-0.4,0-0.7,0.2-0.8,0.6l-0.6,3.3c-0.8,0.2-1.6,0.5-2.3,1l-2.8-1.9
		c-0.3-0.2-0.7-0.2-1,0.1l-2.8,2.8c-0.2,0.2-0.3,0.7-0.1,1l1.9,2.8c-0.4,0.8-0.8,1.5-1,2.3L36.4,32c-0.4,0.1-0.6,0.4-0.6,0.8v3.9
		C35.8,37.1,36,37.4,36.4,37.4z M37.3,33.4l3.2-0.6c0.3-0.1,0.5-0.3,0.6-0.5c0.2-1,0.6-2,1.1-2.8c0.2-0.2,0.2-0.5,0-0.8l-1.7-2.6
		l1.9-1.9l2.6,1.8c0.2,0.2,0.5,0.2,0.8,0c0.8-0.5,1.8-0.9,2.8-1.1c0.3-0.1,0.5-0.3,0.5-0.6l0.6-3.2h2.6l0.6,3.2
		c0.1,0.3,0.3,0.5,0.5,0.6c1,0.2,2,0.6,2.8,1.1c0.2,0.2,0.6,0.2,0.8,0l2.6-1.8l1.9,1.9L60,28.6c-0.2,0.2-0.2,0.5,0,0.8
		c0.5,0.8,0.9,1.8,1.1,2.8c0.1,0.3,0.3,0.5,0.6,0.5l3.2,0.6V36l-3.2,0.6c-0.3,0.1-0.5,0.3-0.6,0.5c-0.2,1-0.6,2-1.1,2.8
		c-0.2,0.2-0.2,0.6,0,0.8l1.8,2.6L60,45.3l-2.6-1.8c-0.2-0.2-0.5-0.2-0.8,0c-0.8,0.5-1.8,0.9-2.8,1.1c-0.3,0.1-0.5,0.3-0.5,0.6
		l-0.6,3.2h-2.6l-0.6-3.2c-0.1-0.3-0.3-0.5-0.5-0.6c-1-0.2-2-0.7-2.8-1.1c-0.2-0.2-0.6-0.2-0.8,0l-2.6,1.8l-1.9-1.9l1.7-2.6
		c0.2-0.2,0.2-0.5,0-0.8c-0.5-0.9-0.9-1.8-1.1-2.8c-0.1-0.3-0.3-0.5-0.6-0.5L37.4,36v-2.6H37.3z"/>
	<linearGradient id="SVGID_13_" gradientUnits="userSpaceOnUse" x1="44.2396" y1="34.7213" x2="57.856" y2="34.7213">
		<stop  offset="0" style="stop-color:#D30000"/>
		<stop  offset="1" style="stop-color:#930000"/>
	</linearGradient>
	<path class="st12" d="M51,41.5c3.8,0,6.8-3,6.8-6.8s-3-6.8-6.8-6.8s-6.8,3-6.8,6.8S47.3,41.5,51,41.5z M51,29.4
		c3,0,5.3,2.3,5.3,5.3c0,3-2.3,5.3-5.3,5.3s-5.3-2.3-5.3-5.3C45.8,31.8,48.2,29.4,51,29.4z"/>
</g>
</svg>
