<?xml version="1.0" encoding="utf-8"?>
<!-- Generator: Adobe Illustrator 24.1.0, SVG Export Plug-In . SVG Version: 6.00 Build 0)  -->
<svg version="1.1" id="Layer_1" xmlns="http://www.w3.org/2000/svg" xmlns:xlink="http://www.w3.org/1999/xlink" x="0px" y="0px"
	 viewBox="0 0 100 125" style="enable-background:new 0 0 100 125;" xml:space="preserve">
<style type="text/css">
	.st0{fill:url(#SVGID_1_);}
</style>
<g>
	<linearGradient id="SVGID_1_" gradientUnits="userSpaceOnUse" x1="4.9789" y1="43.239" x2="96.5115" y2="43.239">
		<stop  offset="0" style="stop-color:#D30000"/>
		<stop  offset="1" style="stop-color:#930000"/>
	</linearGradient>
	<path class="st0" d="M10.3,8.1C7.4,8.1,5,10.5,5,13.4V73c0,2.9,2.4,5.3,5.3,5.3h80.9c2.9,0,5.3-2.4,5.3-5.3V13.4
		c0-2.9-2.4-5.3-5.3-5.3H10.3z M10.3,10.2h80.9c1.8,0,3.2,1.4,3.2,3.2V23H16.5c0,0-0.1,0-0.1,0c-0.6,0-1,0.5-1,1.1
		c0,0.6,0.5,1,1.1,1h77.9V73c0,1.8-1.4,3.2-3.2,3.2H10.3c-1.8,0-3.2-1.4-3.2-3.2V13.4C7.1,11.7,8.5,10.2,10.3,10.2z M69.8,13.4
		c-1.8,0-3.2,1.4-3.2,3.2s1.4,3.2,3.2,3.2c1.8,0,3.2-1.4,3.2-3.2S71.5,13.4,69.8,13.4z M78.4,13.4c-1.8,0-3.2,1.4-3.2,3.2
		s1.4,3.2,3.2,3.2s3.2-1.4,3.2-3.2S80.1,13.4,78.4,13.4z M86.9,13.4c-1.8,0-3.2,1.4-3.2,3.2s1.4,3.2,3.2,3.2s3.2-1.4,3.2-3.2
		S88.7,13.4,86.9,13.4z M69.8,15.6c0.6,0,1.1,0.5,1.1,1.1s-0.5,1.1-1.1,1.1c-0.6,0-1.1-0.5-1.1-1.1S69.2,15.6,69.8,15.6z M78.4,15.6
		c0.6,0,1.1,0.5,1.1,1.1s-0.5,1.1-1.1,1.1c-0.6,0-1.1-0.5-1.1-1.1S77.8,15.6,78.4,15.6z M86.9,15.6c0.6,0,1.1,0.5,1.1,1.1
		s-0.5,1.1-1.1,1.1s-1.1-0.5-1.1-1.1S86.3,15.6,86.9,15.6z M46.3,31.5c-0.5,0.1-0.9,0.5-0.9,1.1v3.1c-0.5,0.2-1,0.4-1.5,0.6
		l-2.2-2.2c-0.4-0.4-1.1-0.4-1.5,0c0,0,0,0,0,0l-6,6c-0.4,0.4-0.4,1.1,0,1.5l2.2,2.2c-0.2,0.5-0.5,1-0.6,1.5h-3.1
		c-0.6,0-1.1,0.5-1.1,1.1v8.5c0,0.6,0.5,1.1,1.1,1.1h3.1c0.2,0.5,0.4,1,0.6,1.5l-2.2,2.2c-0.4,0.4-0.4,1.1,0,1.5l6,6
		c0.4,0.4,1.1,0.4,1.5,0c0,0,0,0,0,0l2.2-2.2c0.5,0.2,1,0.5,1.5,0.6v3.1c0,0.6,0.5,1.1,1.1,1.1H55c0.6,0,1.1-0.5,1.1-1.1v-3.1
		c0.5-0.2,1-0.4,1.5-0.6c0.2,0.2,0.6,0.6,0.9,0.9c0.7,0.7,1.3,1.3,1.3,1.3c0.4,0.4,1.1,0.4,1.5,0c0,0,0,0,0,0l6-6
		c0.4-0.4,0.4-1.1,0-1.5c0,0-0.7-0.7-1.4-1.3c-0.3-0.3-0.6-0.6-0.9-0.9c0.2-0.5,0.5-1,0.6-1.5h3.1c0.6,0,1.1-0.5,1.1-1.1v-8.5
		c0-0.6-0.5-1.1-1.1-1.1h-3.1c-0.2-0.5-0.4-1-0.6-1.5c0.2-0.2,0.6-0.6,0.9-0.9c0.7-0.7,1.4-1.4,1.4-1.4c0.4-0.4,0.4-1.1,0-1.5l-6-6
		c-0.4-0.4-1.1-0.4-1.5,0c0,0,0,0,0,0c0,0-0.7,0.7-1.3,1.4c-0.3,0.3-0.6,0.6-0.9,0.9c-0.5-0.2-1-0.5-1.5-0.6v-3.1
		c0-0.6-0.5-1.1-1.1-1.1h-8.5C46.4,31.5,46.4,31.5,46.3,31.5z M47.6,33.7h6.4v2.8c0,0.5,0.3,0.9,0.8,1c0.9,0.3,1.8,0.7,2.6,1.1
		c0,0,1,0,1,0s0.1-0.1,0.1-0.1c0,0,0.1,0,0.1,0c0,0,0,0,0,0c0,0,0,0,0,0c0,0,0.1-0.1,0.1-0.1c0.1-0.1,0.2-0.2,0.3-0.3
		c0.3-0.3,0.6-0.6,0.9-0.9c0.3-0.3,0.4-0.4,0.6-0.6l4.5,4.5c-0.2,0.2-0.3,0.3-0.6,0.6c-0.3,0.3-0.7,0.6-0.9,0.9
		c-0.1,0.1-0.2,0.3-0.3,0.3c0,0-0.1,0.1-0.1,0.1c0,0,0,0,0,0c0,0,0,0,0,0c0,0,0,0-0.1,0.1c0,0-0.1,0.1-0.1,0.1c0,0,0,1,0,1
		c0,0,0,0,0,0c0.4,0.8,0.8,1.7,1.1,2.6c0.1,0.5,0.6,0.8,1,0.8h2.8v6.4H65c-0.5,0-0.9,0.3-1,0.8c-0.3,0.9-0.6,1.8-1.1,2.6
		c0,0,0,1,0,1c0,0,0.1,0.1,0.1,0.1c0,0,0.1,0.1,0.1,0.1c0,0,0,0,0,0c0,0,0,0,0,0c0,0,0.1,0.1,0.1,0.1c0.1,0.1,0.2,0.2,0.3,0.3
		c0.3,0.3,0.6,0.6,0.9,0.9c0.3,0.3,0.4,0.4,0.6,0.6L60.5,65c-0.2-0.2-0.3-0.3-0.6-0.6c-0.3-0.3-0.7-0.7-0.9-0.9
		c-0.1-0.1-0.2-0.3-0.3-0.3c0,0-0.1,0-0.1-0.1c0,0,0,0,0,0c0,0,0,0,0,0c0,0,0,0-0.1-0.1c0,0-0.1-0.1-0.1-0.1c0,0-1,0-1,0
		c0,0,0,0,0,0c-0.8,0.4-1.7,0.8-2.6,1.1c-0.5,0.1-0.8,0.6-0.8,1v2.8h-6.4V65c0-0.5-0.3-0.9-0.8-1c-0.9-0.3-1.8-0.6-2.6-1.1
		c-0.4-0.2-0.9-0.2-1.3,0.2L41,65l-4.5-4.5l2-2c0.3-0.3,0.4-0.8,0.2-1.2c-0.4-0.8-0.8-1.7-1.1-2.6c-0.1-0.5-0.6-0.8-1-0.8h-2.8v-6.4
		h2.8c0.5,0,0.9-0.3,1-0.8c0.3-0.9,0.6-1.8,1.1-2.6c0.2-0.4,0.2-0.9-0.2-1.3l-2-1.9l4.5-4.5l1.9,1.9c0.3,0.3,0.8,0.4,1.3,0.2
		c0.8-0.4,1.7-0.8,2.6-1.1c0.4-0.1,0.8-0.5,0.8-1V33.7z M50.7,42.2c-4.7,0-8.5,3.8-8.5,8.5s3.8,8.5,8.5,8.5c4.7,0,8.5-3.8,8.5-8.5
		S55.4,42.2,50.7,42.2z M50.7,44.3c3.5,0,6.4,2.8,6.4,6.4s-2.8,6.4-6.4,6.4c-3.5,0-6.4-2.8-6.4-6.4S47.2,44.3,50.7,44.3z"/>
</g>
</svg>
