<?xml version="1.0" encoding="utf-8"?>
<!-- Generator: Adobe Illustrator 24.1.0, SVG Export Plug-In . SVG Version: 6.00 Build 0)  -->
<svg version="1.1" id="Layer_1" xmlns="http://www.w3.org/2000/svg" xmlns:xlink="http://www.w3.org/1999/xlink" x="0px" y="0px"
	 viewBox="0 0 100 125" style="enable-background:new 0 0 100 125;" xml:space="preserve">
<style type="text/css">
	.st0{fill-rule:evenodd;clip-rule:evenodd;fill:url(#SVGID_1_);}
	.st1{fill-rule:evenodd;clip-rule:evenodd;fill:url(#SVGID_2_);}
	.st2{fill-rule:evenodd;clip-rule:evenodd;fill:url(#SVGID_3_);}
	.st3{fill-rule:evenodd;clip-rule:evenodd;fill:url(#SVGID_4_);}
	.st4{fill-rule:evenodd;clip-rule:evenodd;fill:url(#SVGID_5_);}
	.st5{fill-rule:evenodd;clip-rule:evenodd;fill:url(#SVGID_6_);}
	.st6{fill-rule:evenodd;clip-rule:evenodd;fill:url(#SVGID_7_);}
	.st7{fill-rule:evenodd;clip-rule:evenodd;fill:url(#SVGID_8_);}
	.st8{fill-rule:evenodd;clip-rule:evenodd;fill:url(#SVGID_9_);}
	.st9{fill-rule:evenodd;clip-rule:evenodd;fill:url(#SVGID_10_);}
	.st10{fill-rule:evenodd;clip-rule:evenodd;fill:url(#SVGID_11_);}
	.st11{fill-rule:evenodd;clip-rule:evenodd;fill:url(#SVGID_12_);}
	.st12{fill-rule:evenodd;clip-rule:evenodd;fill:url(#SVGID_13_);}
	.st13{fill-rule:evenodd;clip-rule:evenodd;fill:url(#SVGID_14_);}
	.st14{fill-rule:evenodd;clip-rule:evenodd;fill:url(#SVGID_15_);}
	.st15{fill-rule:evenodd;clip-rule:evenodd;fill:url(#SVGID_16_);}
	.st16{fill-rule:evenodd;clip-rule:evenodd;fill:url(#SVGID_17_);}
	.st17{fill-rule:evenodd;clip-rule:evenodd;fill:url(#SVGID_18_);}
</style>
<g>
	<g>
		<g>
			<linearGradient id="SVGID_1_" gradientUnits="userSpaceOnUse" x1="59.3508" y1="47.9981" x2="63.7448" y2="47.9981">
				<stop  offset="0" style="stop-color:#D30000"/>
				<stop  offset="1" style="stop-color:#930000"/>
			</linearGradient>
			<rect x="59.4" y="45.8" class="st0" width="4.4" height="4.4"/>
		</g>
		<g>
			<linearGradient id="SVGID_2_" gradientUnits="userSpaceOnUse" x1="65.9412" y1="47.9981" x2="70.3352" y2="47.9981">
				<stop  offset="0" style="stop-color:#D30000"/>
				<stop  offset="1" style="stop-color:#930000"/>
			</linearGradient>
			<rect x="65.9" y="45.8" class="st1" width="4.4" height="4.4"/>
		</g>
		<g>
			<linearGradient id="SVGID_3_" gradientUnits="userSpaceOnUse" x1="72.5334" y1="47.9981" x2="76.9273" y2="47.9981">
				<stop  offset="0" style="stop-color:#D30000"/>
				<stop  offset="1" style="stop-color:#930000"/>
			</linearGradient>
			<rect x="72.5" y="45.8" class="st2" width="4.4" height="4.4"/>
		</g>
		<g>
			<linearGradient id="SVGID_4_" gradientUnits="userSpaceOnUse" x1="14.3133" y1="47.9981" x2="86.8134" y2="47.9981">
				<stop  offset="0" style="stop-color:#D30000"/>
				<stop  offset="1" style="stop-color:#930000"/>
			</linearGradient>
			<path class="st3" d="M85.7,60.1H15.4c-0.6,0-1.1-0.5-1.1-1.1V37c0-0.6,0.5-1.1,1.1-1.1l70.3,0c0.6,0,1.1,0.5,1.1,1.1v22
				C86.8,59.6,86.3,60.1,85.7,60.1z M16.5,57.9h68.1V38.1H16.5V57.9z"/>
		</g>
		<g>
			<linearGradient id="SVGID_5_" gradientUnits="userSpaceOnUse" x1="20.9045" y1="47.9975" x2="29.6938" y2="47.9975">
				<stop  offset="0" style="stop-color:#D30000"/>
				<stop  offset="1" style="stop-color:#930000"/>
			</linearGradient>
			<path class="st4" d="M28.6,53.5H22c-0.6,0-1.1-0.5-1.1-1.1v-8.8c0-0.6,0.5-1.1,1.1-1.1h6.6c0.6,0,1.1,0.5,1.1,1.1v8.8
				C29.7,53,29.2,53.5,28.6,53.5z M23.1,51.3h4.4v-6.6l-4.4,0C23.1,44.7,23.1,51.3,23.1,51.3z"/>
		</g>
		<g>
			<linearGradient id="SVGID_6_" gradientUnits="userSpaceOnUse" x1="34.0861" y1="47.9975" x2="42.8754" y2="47.9975">
				<stop  offset="0" style="stop-color:#D30000"/>
				<stop  offset="1" style="stop-color:#930000"/>
			</linearGradient>
			<path class="st5" d="M41.8,53.5h-6.6c-0.6,0-1.1-0.5-1.1-1.1v-8.8c0-0.6,0.5-1.1,1.1-1.1h6.6c0.6,0,1.1,0.5,1.1,1.1v8.8
				C42.9,53,42.4,53.5,41.8,53.5z M36.3,51.3h4.4v-6.6l-4.4,0C36.3,44.7,36.3,51.3,36.3,51.3z"/>
		</g>
		<g>
			<linearGradient id="SVGID_7_" gradientUnits="userSpaceOnUse" x1="47.2671" y1="47.9975" x2="56.0564" y2="47.9975">
				<stop  offset="0" style="stop-color:#D30000"/>
				<stop  offset="1" style="stop-color:#930000"/>
			</linearGradient>
			<path class="st6" d="M55,53.5h-6.6c-0.6,0-1.1-0.5-1.1-1.1v-8.8c0-0.6,0.5-1.1,1.1-1.1H55c0.6,0,1.1,0.5,1.1,1.1v8.8
				C56.1,53,55.6,53.5,55,53.5z M49.5,51.3h4.4v-6.6l-4.4,0C49.5,44.7,49.5,51.3,49.5,51.3z"/>
		</g>
		<g>
			<linearGradient id="SVGID_8_" gradientUnits="userSpaceOnUse" x1="18.7062" y1="65.5736" x2="36.2837" y2="65.5736">
				<stop  offset="0" style="stop-color:#D30000"/>
				<stop  offset="1" style="stop-color:#930000"/>
			</linearGradient>
			<path class="st7" d="M35.2,66.7H19.8c-0.6,0-1.1-0.5-1.1-1.1c0-0.6,0.5-1.1,1.1-1.1h15.4c0.6,0,1.1,0.5,1.1,1.1
				C36.3,66.2,35.8,66.7,35.2,66.7z"/>
		</g>
		<g>
			<linearGradient id="SVGID_9_" gradientUnits="userSpaceOnUse" x1="45.0707" y1="65.5736" x2="53.8604" y2="65.5736">
				<stop  offset="0" style="stop-color:#D30000"/>
				<stop  offset="1" style="stop-color:#930000"/>
			</linearGradient>
			<path class="st8" d="M52.8,66.7h-6.6c-0.6,0-1.1-0.5-1.1-1.1c0-0.6,0.5-1.1,1.1-1.1h6.6c0.6,0,1.1,0.5,1.1,1.1
				C53.9,66.2,53.4,66.7,52.8,66.7z"/>
		</g>
		<g>
			<linearGradient id="SVGID_10_" gradientUnits="userSpaceOnUse" x1="27.4943" y1="71.0658" x2="45.0706" y2="71.0658">
				<stop  offset="0" style="stop-color:#D30000"/>
				<stop  offset="1" style="stop-color:#930000"/>
			</linearGradient>
			<path class="st9" d="M44,72.2H28.6c-0.6,0-1.1-0.5-1.1-1.1c0-0.6,0.5-1.1,1.1-1.1H44c0.6,0,1.1,0.5,1.1,1.1
				C45.1,71.7,44.6,72.2,44,72.2z"/>
		</g>
		<g>
			<linearGradient id="SVGID_11_" gradientUnits="userSpaceOnUse" x1="53.8579" y1="71.0658" x2="62.6467" y2="71.0658">
				<stop  offset="0" style="stop-color:#D30000"/>
				<stop  offset="1" style="stop-color:#930000"/>
			</linearGradient>
			<path class="st10" d="M61.5,72.2H55c-0.6,0-1.1-0.5-1.1-1.1c0-0.6,0.5-1.1,1.1-1.1h6.6c0.6,0,1.1,0.5,1.1,1.1
				C62.6,71.7,62.2,72.2,61.5,72.2z"/>
		</g>
		<g>
			<linearGradient id="SVGID_12_" gradientUnits="userSpaceOnUse" x1="60.4487" y1="65.5736" x2="82.4197" y2="65.5736">
				<stop  offset="0" style="stop-color:#D30000"/>
				<stop  offset="1" style="stop-color:#930000"/>
			</linearGradient>
			<path class="st11" d="M81.3,66.7H61.5c-0.6,0-1.1-0.5-1.1-1.1c0-0.6,0.5-1.1,1.1-1.1h19.8c0.6,0,1.1,0.5,1.1,1.1
				C82.4,66.2,81.9,66.7,81.3,66.7z"/>
		</g>
		<g>
			<g>
				<g>
					<linearGradient id="SVGID_13_" gradientUnits="userSpaceOnUse" x1="5.5271" y1="27.1269" x2="95.6013" y2="27.1269">
						<stop  offset="0" style="stop-color:#D30000"/>
						<stop  offset="1" style="stop-color:#930000"/>
					</linearGradient>
					<path class="st12" d="M94.5,28.2H6.6c-0.6,0-1.1-0.5-1.1-1.1C5.5,26.5,6,26,6.6,26h87.9c0.6,0,1.1,0.5,1.1,1.1
						C95.6,27.7,95.1,28.2,94.5,28.2z"/>
				</g>
				<g>
					<linearGradient id="SVGID_14_" gradientUnits="userSpaceOnUse" x1="5.5272" y1="51.3475" x2="95.6013" y2="51.3475">
						<stop  offset="0" style="stop-color:#D30000"/>
						<stop  offset="1" style="stop-color:#930000"/>
					</linearGradient>
					<path class="st13" d="M88,93H13.1c-4.2,0-7.6-3.4-7.6-7.6V17.2c0-4.2,3.4-7.6,7.6-7.6H88c4.2,0,7.6,3.4,7.6,7.6v68.2
						C95.6,89.6,92.2,93,88,93z M13.1,11.9c-3,0-5.4,2.4-5.4,5.4v68.2c0,3,2.4,5.4,5.4,5.4H88c3,0,5.4-2.4,5.4-5.4V17.2
						c0-3-2.4-5.4-5.4-5.4H13.1z"/>
				</g>
				<g>
					<linearGradient id="SVGID_15_" gradientUnits="userSpaceOnUse" x1="80.2214" y1="19.437" x2="89.0093" y2="19.437">
						<stop  offset="0" style="stop-color:#D30000"/>
						<stop  offset="1" style="stop-color:#930000"/>
					</linearGradient>
					<path class="st14" d="M84.6,23.8c-2.4,0-4.4-2-4.4-4.4c0-2.4,2-4.4,4.4-4.4c2.4,0,4.4,2,4.4,4.4S87,23.8,84.6,23.8z M84.6,17.2
						c-1.2,0-2.2,1-2.2,2.2c0,1.2,1,2.2,2.2,2.2c1.2,0,2.2-1,2.2-2.2C86.8,18.2,85.8,17.2,84.6,17.2z"/>
				</g>
				<g>
					<linearGradient id="SVGID_16_" gradientUnits="userSpaceOnUse" x1="69.2384" y1="19.437" x2="78.0249" y2="19.437">
						<stop  offset="0" style="stop-color:#D30000"/>
						<stop  offset="1" style="stop-color:#930000"/>
					</linearGradient>
					<path class="st15" d="M73.6,23.8c-2.4,0-4.4-2-4.4-4.4c0-2.4,2-4.4,4.4-4.4c2.4,0,4.4,2,4.4,4.4S76.1,23.8,73.6,23.8z
						 M73.6,17.2c-1.2,0-2.2,1-2.2,2.2c0,1.2,1,2.2,2.2,2.2c1.2,0,2.2-1,2.2-2.2C75.8,18.2,74.8,17.2,73.6,17.2z"/>
				</g>
				<g>
					<linearGradient id="SVGID_17_" gradientUnits="userSpaceOnUse" x1="58.253" y1="19.437" x2="67.0412" y2="19.437">
						<stop  offset="0" style="stop-color:#D30000"/>
						<stop  offset="1" style="stop-color:#930000"/>
					</linearGradient>
					<path class="st16" d="M62.6,23.8c-2.4,0-4.4-2-4.4-4.4c0-2.4,2-4.4,4.4-4.4c2.4,0,4.4,2,4.4,4.4S65.1,23.8,62.6,23.8z
						 M62.6,17.2c-1.2,0-2.2,1-2.2,2.2c0,1.2,1,2.2,2.2,2.2c1.2,0,2.2-1,2.2-2.2C64.8,18.2,63.9,17.2,62.6,17.2z"/>
				</g>
				<g>
					<linearGradient id="SVGID_18_" gradientUnits="userSpaceOnUse" x1="24.1997" y1="18.8887" x2="26.3979" y2="18.8887">
						<stop  offset="0" style="stop-color:#D30000"/>
						<stop  offset="1" style="stop-color:#930000"/>
					</linearGradient>
					<path class="st17" d="M25.3,28.2c-0.6,0-1.1-0.5-1.1-1.1V10.7c0-0.6,0.5-1.1,1.1-1.1s1.1,0.5,1.1,1.1l0,16.5
						C26.4,27.7,25.9,28.2,25.3,28.2z"/>
				</g>
			</g>
		</g>
	</g>
</g>
</svg>
