<?xml version="1.0" encoding="utf-8"?>
<!-- Generator: Adobe Illustrator 24.1.0, SVG Export Plug-In . SVG Version: 6.00 Build 0)  -->
<svg version="1.1" id="Layer_1" xmlns="http://www.w3.org/2000/svg" xmlns:xlink="http://www.w3.org/1999/xlink" x="0px" y="0px"
	 viewBox="0 0 100 125" style="enable-background:new 0 0 100 125;" xml:space="preserve">
<style type="text/css">
	.st0{fill:url(#SVGID_1_);}
</style>
<g>
	<linearGradient id="SVGID_1_" gradientUnits="userSpaceOnUse" x1="3.0531" y1="42.0074" x2="97.2222" y2="42.0074">
		<stop  offset="0" style="stop-color:#D30000"/>
		<stop  offset="1" style="stop-color:#930000"/>
	</linearGradient>
	<path class="st0" d="M88.5,61.6v-44c0-1-0.4-1.9-1-2.5c-0.6-0.6-1.5-1-2.5-1H15.3c-1,0-1.9,0.4-2.5,1c-0.6,0.6-1,1.5-1,2.5v44H88.5
		z M63.1,25.6c4.1,0,7.8,1.7,10.4,4.3c2.7,2.7,4.3,6.4,4.3,10.4s-1.7,7.8-4.3,10.4c-2.7,2.7-6.4,4.3-10.4,4.3
		c-4.1,0-7.8-1.7-10.4-4.3c-2.7-2.7-4.3-6.4-4.3-10.4s1.7-7.8,4.3-10.4C55.3,27.2,59,25.6,63.1,25.6z M72,31.4
		c-2.3-2.3-5.4-3.7-8.9-3.7c-3.5,0-6.6,1.4-8.9,3.7c-2.3,2.3-3.7,5.4-3.7,8.9s1.4,6.6,3.7,8.9c2.1,2.1,5,3.5,8.2,3.7V40.3
		c0-0.3,0.2-0.6,0.5-0.7l11.7-4.4C74,33.8,73.1,32.5,72,31.4z M63.8,52.9c3.2-0.2,6.1-1.5,8.2-3.7c0.6-0.6,1.1-1.2,1.5-1.9l-9.7-5.8
		V52.9z M74.3,46.2c0.9-1.7,1.4-3.7,1.4-5.8c0-1.3-0.2-2.6-0.6-3.8l-10.4,3.9L74.3,46.2L74.3,46.2z M30.8,43.8
		c-0.3,0-0.5-0.2-0.5-0.5c0-0.3,0.2-0.5,0.5-0.5h6.7c0.3,0,0.5,0.2,0.5,0.5c0,0.3-0.2,0.5-0.5,0.5C37.5,43.8,30.8,43.8,30.8,43.8z
		 M30.8,40.4c-0.3,0-0.5-0.2-0.5-0.5c0-0.3,0.2-0.5,0.5-0.5h11.6c0.3,0,0.5,0.2,0.5,0.5c0,0.3-0.2,0.5-0.5,0.5H30.8z M19.9,39h5.5
		c0.3,0,0.5,0.2,0.5,0.5v4.2c0,0.3-0.2,0.5-0.5,0.5h-5.5c-0.3,0-0.5-0.2-0.5-0.5v-4.2C19.3,39.2,19.6,39,19.9,39z M24.8,40.1h-4.4
		v3.1h4.4V40.1z M30.8,35.8c-0.3,0-0.5-0.2-0.5-0.5c0-0.3,0.2-0.5,0.5-0.5h6.7c0.3,0,0.5,0.2,0.5,0.5c0,0.3-0.2,0.5-0.5,0.5
		C37.5,35.8,30.8,35.8,30.8,35.8z M30.8,32.4c-0.3,0-0.5-0.2-0.5-0.5s0.2-0.5,0.5-0.5h11.6c0.3,0,0.5,0.2,0.5,0.5s-0.2,0.5-0.5,0.5
		H30.8z M19.9,31h5.5c0.3,0,0.5,0.2,0.5,0.5v4.2c0,0.3-0.2,0.5-0.5,0.5h-5.5c-0.3,0-0.5-0.2-0.5-0.5v-4.2C19.3,31.2,19.6,31,19.9,31
		z M24.8,32.1h-4.4v3.1h4.4V32.1z M30.8,27.8c-0.3,0-0.5-0.2-0.5-0.5c0-0.3,0.2-0.5,0.5-0.5h6.7c0.3,0,0.5,0.2,0.5,0.5
		c0,0.3-0.2,0.5-0.5,0.5C37.5,27.8,30.8,27.8,30.8,27.8z M30.8,24.4c-0.3,0-0.5-0.2-0.5-0.5c0-0.3,0.2-0.5,0.5-0.5h11.6
		c0.3,0,0.5,0.2,0.5,0.5c0,0.3-0.2,0.5-0.5,0.5H30.8z M19.9,23h5.5c0.3,0,0.5,0.2,0.5,0.5v4.2c0,0.3-0.2,0.5-0.5,0.5h-5.5
		c-0.3,0-0.5-0.2-0.5-0.5v-4.2C19.3,23.2,19.6,23,19.9,23z M24.8,24.1h-4.4v3.1h4.4V24.1z M9.6,61.6v-44c0-1.6,0.6-3,1.7-4
		c1-1,2.5-1.7,4-1.7H85c1.6,0,3,0.6,4,1.7c1,1,1.7,2.5,1.7,4v44h3.5c0.8,0,1.5,0.3,2.1,0.8c0.6,0.5,0.9,1.2,0.9,2v4.2
		c0,0.2-0.1,0.4-0.2,0.6l-0.6,1c-0.4,0.8-1,1.3-1.5,1.6c-0.6,0.3-1.2,0.5-1.8,0.5H7.2c-0.6,0-1.2-0.1-1.8-0.5
		c-0.6-0.3-1.1-0.8-1.5-1.6l-0.6-1.1c-0.1-0.2-0.1-0.4-0.1-0.5h0v-4.2c0-0.8,0.4-1.5,0.9-2c0.5-0.5,1.3-0.8,2.1-0.8L9.6,61.6
		L9.6,61.6z M94.2,63.8H6.1c-0.3,0-0.5,0.1-0.7,0.2c-0.1,0.1-0.2,0.2-0.2,0.4v3.9L5.7,69c0.2,0.4,0.5,0.6,0.7,0.8
		C6.7,69.9,6.9,70,7.2,70h85.8c0.3,0,0.6-0.1,0.8-0.2c0.3-0.1,0.5-0.4,0.7-0.8l0.5-0.8v-3.9c0-0.1-0.1-0.3-0.2-0.4
		C94.7,63.9,94.5,63.8,94.2,63.8L94.2,63.8z M16.4,58h67.4V18.9H16.4V58z M84.6,59.5H15.7c-0.4,0-0.7-0.3-0.7-0.7V18.2
		c0-0.4,0.3-0.7,0.7-0.7h68.8c0.4,0,0.7,0.3,0.7,0.7v40.6C85.3,59.1,85,59.5,84.6,59.5z"/>
</g>
</svg>
