<svg id="_x33_0" enable-background="new 0 0 62 62" height="512" viewBox="0 0 62 62" width="512" xmlns="http://www.w3.org/2000/svg" xmlns:xlink="http://www.w3.org/1999/xlink"><linearGradient id="SVGID_1_" gradientUnits="userSpaceOnUse" x1="31" x2="31" y1="62" y2="0"><stop offset="0" stop-color="#ff2525"/><stop offset="1" stop-color="#a00000"/></linearGradient><path d="m61.486 4.759-4.245-4.245-1.241 1.243v-1.757h-6l.001 1.759-1.242-1.245-1.487 1.486h-42.272c-1.654 0-3 1.346-3 3v24.487c-1.275 1.883-2 4.137-2 6.513s.725 4.63 2 6.513v14.487c0 1.654 1.346 3 3 3h7.111c1.263 1.235 2.988 2 4.889 2s3.626-.765 4.889-2h35.111c1.654 0 3-1.346 3-3v-42.272l1.486-1.486-1.244-1.242h1.758v-6l-1.759.001zm-9.486 13.241v24h-18v-26h13.272l1.486 1.486 1.242-1.244v1.758zm-6.728-4h-11.272c-1.103 0-2 .897-2 2v13.487c-.563-.832-1.235-1.589-2-2.254v-11.233c0-1.103-.897-2-2-2h-18c-1.103 0-2 .897-2 2v7.343c-.025.057-.058.108-.081.166l-.693 1.734-.186.08c-1.127.483-2.146 1.134-3.04 1.91v-15.233h41v-.001h.759l-1.245 1.242zm-19.099 30.839-.068.029-2.265-1.51-.892-2.675-1.896.633.684 2.051-2.052.684.633 1.896 2.536-.845 1.918 1.279-.547 1.366c-.547 1.369-1.853 2.253-3.327 2.253-.956 0-1.855-.372-2.532-1.049l-.365-.365v-25.172l.365-.365c.677-.677 1.576-1.049 2.532-1.049 1.474 0 2.779.884 3.326 2.251l.547 1.367-1.842 1.228-1.48-.74-.895 1.789 1.105.553-.553 1.105 1.789.895.881-1.762 2.329-1.553.068.029c3.541 1.517 5.828 4.986 5.828 8.838s-2.287 7.321-5.827 8.839zm-4.173 9.161h-10v-2.122c.359.072.725.122 1.103.122 1.468 0 2.849-.563 3.897-1.586 1.049 1.024 2.43 1.586 3.897 1.586.377 0 .743-.05 1.103-.122zm6-28.161c-.337-.186-.681-.362-1.04-.516l-.186-.079-.693-1.735c-.853-2.132-2.888-3.509-5.184-3.509-1.468 0-2.849.563-3.897 1.586-1.049-1.023-2.43-1.586-3.897-1.586-1.136 0-2.206.339-3.103.938v-4.938h18zm-18-15.839h-2v-2h2zm8 0h-2v-2h2zm8 0h-2v-2h2zm-21-6h40.272l-.759.759 1.245 1.241h-1.758v4h-16v-2c0-1.103-.897-2-2-2h-2c-1.103 0-2 .897-2 2v2h-2v-2c0-1.103-.897-2-2-2h-2c-1.103 0-2 .897-2 2v2h-2v-2c0-1.103-.897-2-2-2h-2c-1.103 0-2 .897-2 2v2h-2v-5c0-.552.448-1 1-1zm2.827 23.162.069-.03 2.549 1.699 1.109-1.664-2.325-1.55.546-1.366c.548-1.367 1.854-2.251 3.328-2.251.956 0 1.855.372 2.532 1.049l.365.365v6.199l-1.291-.431-.815-1.629-1.789.895.553 1.105-1.105.553.895 1.789 1.63-.814 1.922.64v16.865l-.365.365c-.677.677-1.576 1.049-2.532 1.049-1.474 0-2.779-.884-3.326-2.251l-.547-1.367 1.918-1.279 2.536.845.633-1.896-2.052-.684.684-2.051-1.896-.633-.892 2.675-2.265 1.51-.068-.029c-3.541-1.519-5.828-4.988-5.828-8.84s2.287-7.321 5.827-8.838zm-3.827 29.838v-12.233c.894.776 1.913 1.427 3.04 1.911l.186.079.693 1.735c.431 1.077 1.165 1.959 2.081 2.57v3.938c0 1.074.251 2.089.685 3h-5.685c-.552 0-1-.448-1-1zm13 3c-2.414 0-4.434-1.721-4.899-4h9.798c-.465 2.279-2.485 4-4.899 4zm41-3c0 .552-.448 1-1 1h-33.685c.434-.911.685-1.926.685-3v-3.938c.916-.611 1.65-1.494 2.081-2.571l.693-1.734.186-.079v-.001c2.121-.909 3.868-2.399 5.092-4.237.202.891.997 1.56 1.948 1.56h18c1.103 0 2-.897 2-2v-24h2l-.001-1.759 1.242 1.245.759-.758zm2-46.985c-.711.086-1.326.546-1.605 1.22-.279.675-.17 1.434.272 1.998l-1.435 1.435c-.563-.441-1.322-.553-1.998-.272-.674.279-1.134.895-1.22 1.605h-2.029c-.086-.711-.546-1.326-1.22-1.605-.675-.28-1.435-.171-1.998.272l-1.435-1.435c.442-.563.552-1.323.272-1.998-.279-.674-.895-1.134-1.605-1.22v-2.03c.711-.086 1.326-.546 1.605-1.22.279-.675.17-1.434-.272-1.998l1.435-1.435c.564.442 1.324.552 1.997.272.675-.278 1.135-.892 1.221-1.604h2.029c.086.712.546 1.326 1.221 1.605.673.279 1.435.17 1.997-.272l1.435 1.435c-.442.563-.552 1.323-.272 1.998.279.674.895 1.134 1.605 1.22zm-7-6.015c-2.757 0-5 2.243-5 5s2.243 5 5 5 5-2.243 5-5-2.243-5-5-5zm0 8c-1.654 0-3-1.346-3-3s1.346-3 3-3 3 1.346 3 3-1.346 3-3 3zm-15 16h2v2h-2zm4 0h2v2h-2zm4 0h2v2h-2zm-14 18h22v2h-22zm0 4h20v2h-20zm0 4h8v2h-8zm10 0h2v2h-2zm4 0h2v2h-2zm4 0h2v2h-2z" fill="url(#SVGID_1_)"/></svg>