<?xml version="1.0" encoding="utf-8"?>
<!-- Generator: Adobe Illustrator 24.1.0, SVG Export Plug-In . SVG Version: 6.00 Build 0)  -->
<svg version="1.1" id="Layer_1" xmlns="http://www.w3.org/2000/svg" xmlns:xlink="http://www.w3.org/1999/xlink" x="0px" y="0px"
	 viewBox="0 0 100 125" style="enable-background:new 0 0 100 125;" xml:space="preserve">
<style type="text/css">
	.st0{fill:url(#SVGID_1_);}
</style>
<g>
	<linearGradient id="SVGID_1_" gradientUnits="userSpaceOnUse" x1="24.6316" y1="50.0086" x2="72.9619" y2="50.0086">
		<stop  offset="0" style="stop-color:#D30000"/>
		<stop  offset="1" style="stop-color:#930000"/>
	</linearGradient>
	<path class="st0" d="M71.9,14.9H25.7c-0.6,0-1.1,0.5-1.1,1.1v68.1c0,0.6,0.5,1.1,1.1,1.1h46.1c0.6,0,1.1-0.5,1.1-1.1V16
		C72.9,15.4,72.5,14.9,71.9,14.9z M26.8,83V20.1l6.7,11.8c0.2,0.3,0.6,0.5,1,0.6h0h9.9V39c0,2.4,2,4.4,4.4,4.4c2.4,0,4.4-2,4.4-4.4
		V23.6c0-2.4-2-4.4-4.4-4.4c-2.4,0-4.4,2-4.4,4.4v6.6h-9.2l-7.5-13.2H70l-7.5,13.2h-7.1c-0.6,0-1.1,0.5-1.1,1.1
		c0,0.6,0.5,1.1,1.1,1.1h7.7c0.4,0,0.8-0.2,1-0.6l6.7-11.8V83H26.8z M48.8,32.4H51v2.8c-1.4-0.8-3-0.8-4.4,0v-7.8
		c1.4,0.8,3,0.8,4.4,0v2.8h-2.2c-0.6,0-1.1,0.5-1.1,1.1C47.7,31.9,48.2,32.4,48.8,32.4z M48.8,36.8c1.2,0,2.2,1,2.2,2.2
		c0,1.2-1,2.2-2.2,2.2c-1.2,0-2.2-1-2.2-2.2C46.6,37.8,47.6,36.8,48.8,36.8z M48.8,25.8c-1.2,0-2.2-1-2.2-2.2s1-2.2,2.2-2.2
		c1.2,0,2.2,1,2.2,2.2C51,24.9,50,25.8,48.8,25.8z M47.7,39c0-0.6,0.5-1.1,1.1-1.1c0.6,0,1.1,0.5,1.1,1.1c0,0.6-0.5,1.1-1.1,1.1
		C48.2,40.1,47.7,39.6,47.7,39z M49.9,23.6c0,0.6-0.5,1.1-1.1,1.1c-0.6,0-1.1-0.5-1.1-1.1s0.5-1.1,1.1-1.1
		C49.4,22.5,49.9,23,49.9,23.6z M43.3,69.8H30.1c-0.6,0-1.1,0.5-1.1,1.1v8.8c0,0.6,0.5,1.1,1.1,1.1h13.2c0.6,0,1.1-0.5,1.1-1.1v-8.8
		C44.4,70.3,43.9,69.8,43.3,69.8z M42.2,78.6h-11V72h11V78.6z M46.6,75.3c0-0.6,0.5-1.1,1.1-1.1h6.6c0.6,0,1.1,0.5,1.1,1.1
		s-0.5,1.1-1.1,1.1h-6.6C47.1,76.4,46.6,75.9,46.6,75.3z M60.9,79.7c0,0.6-0.5,1.1-1.1,1.1H47.7c-0.6,0-1.1-0.5-1.1-1.1
		s0.5-1.1,1.1-1.1h12.1C60.4,78.6,60.9,79.1,60.9,79.7z"/>
</g>
</svg>
