<?xml version="1.0" encoding="utf-8"?>
<!-- Generator: Adobe Illustrator 24.1.0, SVG Export Plug-In . SVG Version: 6.00 Build 0)  -->
<svg version="1.1" id="Layer_1" xmlns="http://www.w3.org/2000/svg" xmlns:xlink="http://www.w3.org/1999/xlink" x="0px" y="0px"
	 viewBox="0 0 100 125" style="enable-background:new 0 0 100 125;" xml:space="preserve">
<style type="text/css">
	.st0{fill-rule:evenodd;clip-rule:evenodd;fill:url(#SVGID_1_);}
	.st1{fill-rule:evenodd;clip-rule:evenodd;fill:url(#SVGID_2_);}
	.st2{fill-rule:evenodd;clip-rule:evenodd;fill:url(#SVGID_3_);}
	.st3{fill-rule:evenodd;clip-rule:evenodd;fill:url(#SVGID_4_);}
	.st4{fill-rule:evenodd;clip-rule:evenodd;fill:url(#SVGID_5_);}
</style>
<g>
	<linearGradient id="SVGID_1_" gradientUnits="userSpaceOnUse" x1="14.8132" y1="55.1636" x2="87.174" y2="55.1636">
		<stop  offset="0" style="stop-color:#D30000"/>
		<stop  offset="1" style="stop-color:#930000"/>
	</linearGradient>
	<path class="st0" d="M87.2,32c0-0.1,0-0.2-0.1-0.2v-0.1c0,0-0.1-0.1-0.1-0.1c0-0.1-0.1-0.1-0.2-0.2l0,0L64.6,10.5
		c0,0-0.1,0-0.1-0.1c-0.1-0.1-0.1-0.1-0.2-0.1c-0.1,0-0.1,0-0.2,0c-0.1,0-0.1,0-0.2,0H18c-1.8,0-3.2,1.4-3.2,3.2v83.4
		c0,1.8,1.4,3.2,3.2,3.2c0,0,0,0,0,0H84c1.8,0,3.2-1.4,3.2-3.2c0,0,0,0,0,0V32L87.2,32z M64.9,13.5L83.6,31H66.1
		c-0.7,0-1.2-0.5-1.2-1.2V13.5z M83.9,98H18c-0.7,0-1.2-0.5-1.2-1.2V13.4c0-0.7,0.6-1.2,1.2-1.2h44.9v17.6c0,1.8,1.4,3.2,3.2,3.2
		c0,0,0,0,0,0h19v63.9C85.1,97.5,84.6,98,83.9,98L83.9,98z"/>
	<linearGradient id="SVGID_2_" gradientUnits="userSpaceOnUse" x1="26.2923" y1="58.6428" x2="76.0354" y2="58.6428">
		<stop  offset="0" style="stop-color:#D30000"/>
		<stop  offset="1" style="stop-color:#930000"/>
	</linearGradient>
	<path class="st1" d="M73.7,41.1H28.6c-1.3,0-2.3,1-2.3,2.3c0,0,0,0,0,0v30.4c0,1.3,1,2.3,2.3,2.3c0,0,0,0,0,0h45.1
		c1.3,0,2.3-1.1,2.3-2.3V43.5C76,42.2,75,41.1,73.7,41.1z M74,54.9H36.7v-5.1H74V54.9z M36.7,56.9H74v5H36.7V56.9z M74,43.5v4.4
		H36.7v-4.7h37C73.9,43.1,74,43.3,74,43.5z M28.6,43.1h6.1v4.7h-6.4v-4.4C28.3,43.3,28.4,43.1,28.6,43.1z M28.3,73.8v-24h6.4v24.3
		h-6.1C28.4,74.2,28.3,74,28.3,73.8z M73.7,74.2h-37V64H74v9.8C74,74,73.9,74.2,73.7,74.2z"/>
	<linearGradient id="SVGID_3_" gradientUnits="userSpaceOnUse" x1="26.2823" y1="25.232" x2="48.1188" y2="25.232">
		<stop  offset="0" style="stop-color:#D30000"/>
		<stop  offset="1" style="stop-color:#930000"/>
	</linearGradient>
	<path class="st2" d="M27.3,26.2h19.8c0.6,0,1-0.4,1-1c0-0.6-0.4-1-1-1H27.3c-0.6,0-1,0.4-1,1C26.3,25.8,26.7,26.2,27.3,26.2z"/>
	<linearGradient id="SVGID_4_" gradientUnits="userSpaceOnUse" x1="26.2823" y1="32.6845" x2="48.1188" y2="32.6845">
		<stop  offset="0" style="stop-color:#D30000"/>
		<stop  offset="1" style="stop-color:#930000"/>
	</linearGradient>
	<path class="st3" d="M27.3,33.7h19.8c0.6,0,1-0.4,1-1c0-0.6-0.4-1-1-1H27.3c-0.6,0-1,0.4-1,1C26.3,33.2,26.7,33.7,27.3,33.7z"/>
	<linearGradient id="SVGID_5_" gradientUnits="userSpaceOnUse" x1="26.2623" y1="88.8583" x2="66.3292" y2="88.8583">
		<stop  offset="0" style="stop-color:#D30000"/>
		<stop  offset="1" style="stop-color:#930000"/>
	</linearGradient>
	<path class="st4" d="M65.3,87.9H27.3c-0.6,0-1,0.4-1,1s0.4,1,1,1h38.1c0.6,0,1-0.4,1-1S65.9,87.9,65.3,87.9z"/>
</g>
</svg>
