<?xml version="1.0" encoding="utf-8"?>
<!-- Generator: Adobe Illustrator 24.1.0, SVG Export Plug-In . SVG Version: 6.00 Build 0)  -->
<svg version="1.1" id="Layer_1" xmlns="http://www.w3.org/2000/svg" xmlns:xlink="http://www.w3.org/1999/xlink" x="0px" y="0px"
	 viewBox="0 0 100 125" style="enable-background:new 0 0 100 125;" xml:space="preserve">
<style type="text/css">
	.st0{fill:url(#SVGID_1_);}
	.st1{fill:url(#SVGID_2_);}
	.st2{fill:url(#SVGID_3_);}
	.st3{fill:url(#SVGID_4_);}
	.st4{fill:url(#SVGID_5_);}
	.st5{fill:url(#SVGID_6_);}
	.st6{fill:url(#SVGID_7_);}
</style>
<g>
	<linearGradient id="SVGID_1_" gradientUnits="userSpaceOnUse" x1="3.7746" y1="49.8315" x2="94.6442" y2="49.8315">
		<stop  offset="0" style="stop-color:#D30000"/>
		<stop  offset="1" style="stop-color:#930000"/>
	</linearGradient>
	<path class="st0" d="M90.4,11.4H30.9c-2.4,0-4.3,1.9-4.3,4.3v24.2C17.8,45,14.8,56.2,19.7,65L5.3,79.4c-2,2-2,5.2,0,7.2
		c0,0,0,0,0,0l0.1,0.1c2,2,5.2,2,7.2,0L27,72.4c7.3,4,16.3,2.7,22.2-3.1c0.6-0.6,1.2-1.3,1.7-2h39.5c2.4,0,4.3-1.9,4.3-4.3V15.7
		C94.6,13.3,92.7,11.4,90.4,11.4z M11.2,85.4c-1.2,1.2-3.2,1.2-4.4,0c0,0,0,0,0,0l-0.1-0.1c-1.2-1.2-1.2-3.2,0-4.4c0,0,0,0,0,0
		l14.1-14.1c1.2,1.8,2.8,3.3,4.5,4.5L11.2,85.4z M47.8,67.8c-6.6,6.5-17.1,6.5-23.7-0.1s-6.5-17.1,0.1-23.7s17.1-6.5,23.7,0.1
		c3.1,3.1,4.9,7.4,4.9,11.8C52.8,60.4,51,64.7,47.8,67.8L47.8,67.8z M43.9,39.1v-4.6H51v10.4c-0.5-0.7-1.1-1.5-1.8-2.1
		C47.7,41.2,45.9,40,43.9,39.1L43.9,39.1z M92.7,63c0,1.3-1,2.3-2.3,2.3H52.2c3-5.2,3.3-11.6,0.8-17.1V33.4c0-0.5-0.4-1-1-1h-9.1
		c-0.5,0-1,0.4-1,1v4.8c-4.4-1.5-9.1-1.3-13.4,0.6v-10h64.1V63z M92.7,26.9H28.6V15.7c0-1.3,1-2.3,2.3-2.3l0,0h59.5
		c1.3,0,2.3,1,2.3,2.3V26.9z"/>
	<linearGradient id="SVGID_2_" gradientUnits="userSpaceOnUse" x1="31.5624" y1="20.1812" x2="39.3439" y2="20.1812">
		<stop  offset="0" style="stop-color:#D30000"/>
		<stop  offset="1" style="stop-color:#930000"/>
	</linearGradient>
	<path class="st1" d="M35.4,16.3c-2.1,0-3.9,1.8-3.8,3.9s1.8,3.9,3.9,3.8c2.1,0,3.8-1.8,3.8-3.9C39.3,18,37.6,16.3,35.4,16.3
		C35.4,16.3,35.4,16.3,35.4,16.3z M35.4,22.1c-1.1,0-1.9-0.9-1.9-2c0-1.1,0.9-1.9,2-1.9c1,0,1.9,0.9,1.9,1.9
		C37.4,21.2,36.5,22.1,35.4,22.1C35.4,22.1,35.4,22.1,35.4,22.1z"/>
	<linearGradient id="SVGID_3_" gradientUnits="userSpaceOnUse" x1="42.899" y1="20.1815" x2="50.6805" y2="20.1815">
		<stop  offset="0" style="stop-color:#D30000"/>
		<stop  offset="1" style="stop-color:#930000"/>
	</linearGradient>
	<path class="st2" d="M46.8,16.3c-2.1,0-3.9,1.7-3.9,3.9s1.7,3.9,3.9,3.9c2.1,0,3.9-1.7,3.9-3.9c0,0,0,0,0,0
		C50.7,18,48.9,16.3,46.8,16.3z M46.8,22.1c-1.1,0-1.9-0.9-1.9-1.9s0.9-1.9,1.9-1.9c1.1,0,1.9,0.9,1.9,1.9v0
		C48.7,21.2,47.8,22.1,46.8,22.1z"/>
	<linearGradient id="SVGID_4_" gradientUnits="userSpaceOnUse" x1="54.275" y1="20.1815" x2="62.0565" y2="20.1815">
		<stop  offset="0" style="stop-color:#D30000"/>
		<stop  offset="1" style="stop-color:#930000"/>
	</linearGradient>
	<path class="st3" d="M58.2,16.3c-2.1,0-3.9,1.8-3.9,3.9c0,2.1,1.8,3.9,3.9,3.9c2.1,0,3.9-1.7,3.9-3.9C62.1,18,60.3,16.3,58.2,16.3z
		 M58.2,22.1c-1.1,0-1.9-0.9-1.9-1.9c0-1.1,0.9-1.9,1.9-1.9c1.1,0,1.9,0.9,1.9,1.9C60.1,21.2,59.2,22.1,58.2,22.1
		C58.2,22.1,58.2,22.1,58.2,22.1z"/>
	<linearGradient id="SVGID_5_" gradientUnits="userSpaceOnUse" x1="57.119" y1="50.414" x2="68.189" y2="50.414">
		<stop  offset="0" style="stop-color:#D30000"/>
		<stop  offset="1" style="stop-color:#930000"/>
	</linearGradient>
	<path class="st4" d="M58.1,60.9h9.1c0.5,0,1-0.4,1-1v-19c0-0.5-0.4-1-1-1h-9.1c-0.5,0-1,0.4-1,1v19C57.1,60.5,57.6,60.9,58.1,60.9z
		 M59.1,41.9h7.1v17h-7.1V41.9z"/>
	<linearGradient id="SVGID_6_" gradientUnits="userSpaceOnUse" x1="72.2673" y1="54.1715" x2="83.3373" y2="54.1715">
		<stop  offset="0" style="stop-color:#D30000"/>
		<stop  offset="1" style="stop-color:#930000"/>
	</linearGradient>
	<path class="st5" d="M73.3,60.9h9.1c0.5,0,1-0.4,1-1V48.4c0-0.5-0.4-1-1-1h-9.1c-0.5,0-1,0.4-1,1v11.5
		C72.3,60.5,72.7,60.9,73.3,60.9z M74.2,49.4h7.1v9.5h-7.1V49.4z"/>
	<linearGradient id="SVGID_7_" gradientUnits="userSpaceOnUse" x1="23.5389" y1="55.9891" x2="48.503" y2="55.9891">
		<stop  offset="0" style="stop-color:#D30000"/>
		<stop  offset="1" style="stop-color:#930000"/>
	</linearGradient>
	<path class="st6" d="M44.8,47.2c-4.9-4.9-12.8-4.9-17.6,0c-4.9,4.9-4.9,12.8,0,17.7s12.8,4.9,17.7,0C49.7,59.9,49.7,52,44.8,47.2
		C44.8,47.2,44.8,47.2,44.8,47.2z M43.5,63.4c-4.1,4.1-10.8,4.1-14.9,0c-4.1-4.1-4.1-10.8,0-14.9c4.1-4.1,10.8-4.1,14.9,0
		c4.1,4,4.1,10.7,0.1,14.8C43.5,63.3,43.5,63.4,43.5,63.4z"/>
</g>
</svg>
