<?xml version="1.0" encoding="utf-8"?>
<!-- Generator: Adobe Illustrator 24.1.0, SVG Export Plug-In . SVG Version: 6.00 Build 0)  -->
<svg version="1.1" id="Layer_1" xmlns="http://www.w3.org/2000/svg" xmlns:xlink="http://www.w3.org/1999/xlink" x="0px" y="0px"
	 viewBox="0 0 100 125" style="enable-background:new 0 0 100 125;" xml:space="preserve">
<style type="text/css">
	.st0{fill:url(#SVGID_1_);}
	.st1{fill:url(#SVGID_2_);}
	.st2{fill:url(#SVGID_3_);}
	.st3{fill:url(#SVGID_4_);}
	.st4{fill:url(#SVGID_5_);}
</style>
<g>
	<g>
		<linearGradient id="SVGID_1_" gradientUnits="userSpaceOnUse" x1="14.1001" y1="85.2473" x2="31.6934" y2="85.2473">
			<stop  offset="0" style="stop-color:#D30000"/>
			<stop  offset="1" style="stop-color:#930000"/>
		</linearGradient>
		<path class="st0" d="M14.1,85.2c0,0.5,0.4,0.9,0.9,0.9h15.9c0.5,0,0.9-0.4,0.9-0.9s-0.4-0.9-0.9-0.9H15
			C14.5,84.4,14.1,84.8,14.1,85.2z"/>
		<linearGradient id="SVGID_2_" gradientUnits="userSpaceOnUse" x1="14.1001" y1="89.0783" x2="23.0564" y2="89.0783">
			<stop  offset="0" style="stop-color:#D30000"/>
			<stop  offset="1" style="stop-color:#930000"/>
		</linearGradient>
		<path class="st1" d="M22.2,88.2H15c-0.5,0-0.9,0.4-0.9,0.9s0.4,0.9,0.9,0.9h7.2c0.5,0,0.9-0.4,0.9-0.9S22.7,88.2,22.2,88.2z"/>
		<linearGradient id="SVGID_3_" gradientUnits="userSpaceOnUse" x1="13.5478" y1="36.294" x2="21.6327" y2="36.294">
			<stop  offset="0" style="stop-color:#D30000"/>
			<stop  offset="1" style="stop-color:#930000"/>
		</linearGradient>
		<path class="st2" d="M14.4,40.3h6.4c0.5,0,0.9-0.4,0.9-0.9v-6.4c0-0.5-0.4-0.9-0.9-0.9h-6.4c-0.1,0-0.2,0-0.3,0.1
			c-0.2,0.1-0.4,0.3-0.5,0.5c0,0.1-0.1,0.2-0.1,0.3v6.4C13.5,40,13.9,40.3,14.4,40.3z M15.3,35.2l3.5,3.5h-3.5V35.2z M19.9,37.4
			l-3.5-3.4h3.5V37.4z"/>
		<linearGradient id="SVGID_4_" gradientUnits="userSpaceOnUse" x1="8.854" y1="52.9913" x2="95.2458" y2="52.9913">
			<stop  offset="0" style="stop-color:#D30000"/>
			<stop  offset="1" style="stop-color:#930000"/>
		</linearGradient>
		<path class="st3" d="M95.1,16c-0.1-0.2-0.3-0.3-0.6-0.3L46.4,10c-0.5-0.1-0.9,0.3-1,0.8l-2,16.5H9.7c-0.5,0-0.9,0.4-0.9,0.9v67
			c0,0.5,0.4,0.9,0.9,0.9h48.4c0.5,0,0.9-0.4,0.9-0.9V80.5l27.5,3.4h0.1c0.4,0,0.8-0.3,0.9-0.8l7.8-66.5
			C95.3,16.4,95.2,16.1,95.1,16z M57.3,94.2H10.6V29h46.7V94.2z M85.9,82L59,78.7V28.1c0-0.5-0.4-0.9-0.9-0.9H45.2L47,11.8l46.4,5.4
			L85.9,82z"/>
		<linearGradient id="SVGID_5_" gradientUnits="userSpaceOnUse" x1="48.6946" y1="19.8947" x2="57.4639" y2="19.8947">
			<stop  offset="0" style="stop-color:#D30000"/>
			<stop  offset="1" style="stop-color:#930000"/>
		</linearGradient>
		<path class="st4" d="M49.5,23.5l6.3,0.7h0.1c0.1,0,0.2,0,0.3-0.1l0.1-0.1c0,0,0.1,0,0.1-0.1l0,0c0.1-0.1,0.1-0.1,0.2-0.2
			c0,0,0,0,0-0.1c0-0.1,0.1-0.2,0.1-0.3l0,0l0.7-6.3c0.1-0.5-0.3-0.9-0.8-1l-6.3-0.7c-0.1,0-0.2,0-0.3,0c-0.2,0.1-0.4,0.2-0.5,0.4
			c-0.1,0.1-0.1,0.2-0.1,0.3l-0.7,6.3C48.6,23.1,49,23.5,49.5,23.5C49.5,23.5,49.5,23.5,49.5,23.5z M51,18.5l3,3.8l-3.4-0.4L51,18.5
			z M55.3,21.3l-3-3.8l3.4,0.4L55.3,21.3z"/>
	</g>
</g>
</svg>
