<?xml version="1.0" encoding="utf-8"?>
<!-- Generator: Adobe Illustrator 24.1.0, SVG Export Plug-In . SVG Version: 6.00 Build 0)  -->
<svg version="1.1" id="Layer_1" xmlns="http://www.w3.org/2000/svg" xmlns:xlink="http://www.w3.org/1999/xlink" x="0px" y="0px"
	 viewBox="0 0 100 125" style="enable-background:new 0 0 100 125;" xml:space="preserve">
<style type="text/css">
	.st0{fill:url(#SVGID_1_);}
</style>
<g>
	<linearGradient id="SVGID_1_" gradientUnits="userSpaceOnUse" x1="2.732" y1="45.8171" x2="96.6296" y2="45.8171">
		<stop  offset="0" style="stop-color:#D30000"/>
		<stop  offset="1" style="stop-color:#930000"/>
	</linearGradient>
	<path class="st0" d="M17.2,49.8c-2.2-2.2-4.7-2.6-6.7-1.8c-0.8,0.3-1.5,0.7-2,1.3c-0.6,0.6-1,1.3-1.3,2c-0.8,2-0.4,4.5,1.8,6.7
		l12.2,12.2c0.2,0.2,0.4,0.4,0.6,0.5c0.2,0.2,0.4,0.3,0.6,0.5l0,0c0.5,0.4,1.1,0.7,1.7,0.9c0.6,0.2,1.2,0.3,1.8,0.3h0
		c0.6,0,1.3-0.1,1.8-0.3c0.6-0.2,1.2-0.5,1.7-0.9l0,0c0.2-0.1,0.4-0.3,0.6-0.5c0.2-0.2,0.4-0.3,0.6-0.5l12.2-12.2
		c2.2-2.2,2.6-4.7,1.8-6.7c-0.3-0.8-0.7-1.5-1.3-2c-0.6-0.6-1.3-1-2-1.3c-1.8-0.7-3.9-0.5-6,1.2l-2.2,2.2c-0.1,0.1-0.1,0.1-0.2,0.1
		L27.4,57c-0.5,0.5-0.9,0.7-1.4,0.8c-0.5,0-1-0.2-1.5-0.7L17.2,49.8L17.2,49.8z M16.8,73.8c0.2,0.2,0.5,0.2,0.7,0.1
		c0.3-0.2,0.4-0.7,0.1-1l-0.9-0.9c-0.2-0.2-0.5-0.2-0.7-0.1c-0.3,0.2-0.4,0.7-0.1,1L16.8,73.8z M3.8,59.1C3.6,58.9,3.3,58.9,3,59
		c-0.3,0.2-0.4,0.7-0.1,1L3,60c0.2,0.2,0.5,0.2,0.7,0.1C4.1,59.9,4.1,59.5,3.8,59.1L3.8,59.1L3.8,59.1z M6.4,61.8
		c-0.2-0.2-0.5-0.2-0.7-0.1c-0.3,0.2-0.4,0.7-0.1,1l0.9,0.9c0.2,0.2,0.5,0.2,0.7,0.1c0.3-0.2,0.4-0.7,0.1-1L6.4,61.8z M9.9,65.2
		C9.7,65,9.4,65,9.2,65.1c-0.3,0.2-0.4,0.7-0.1,1l0.9,0.9c0.2,0.2,0.5,0.2,0.7,0.1c0.3-0.2,0.4-0.7,0.1-1L9.9,65.2L9.9,65.2z
		 M13.3,68.7c-0.2-0.2-0.5-0.2-0.7-0.1c-0.3,0.2-0.4,0.7-0.1,1l0.9,0.9c0.2,0.2,0.5,0.2,0.7,0.1c0.3-0.2,0.4-0.7,0.1-1L13.3,68.7
		L13.3,68.7z M81.7,73c-0.2,0.2-0.2,0.5-0.1,0.7c0.2,0.3,0.7,0.4,1,0.1l0.9-0.9c0.2-0.2,0.2-0.5,0.1-0.7c-0.2-0.3-0.7-0.4-1-0.1
		L81.7,73z M96.5,60c0.2-0.2,0.2-0.5,0.1-0.7c-0.2-0.3-0.7-0.4-1-0.1l-0.1,0.1c-0.2,0.2-0.2,0.5-0.1,0.7
		C95.6,60.3,96.1,60.3,96.5,60L96.5,60z M93.8,62.6c0.2-0.2,0.2-0.5,0.1-0.7c-0.2-0.3-0.7-0.4-1-0.1l-0.9,0.9
		c-0.2,0.2-0.2,0.5-0.1,0.7c0.2,0.3,0.7,0.4,1,0.1L93.8,62.6L93.8,62.6z M90.3,66.1c0.2-0.2,0.2-0.5,0.1-0.7c-0.2-0.3-0.7-0.4-1-0.1
		l-0.9,0.9c-0.2,0.2-0.2,0.5-0.1,0.7c0.2,0.3,0.7,0.4,1,0.1L90.3,66.1z M86.9,69.5c0.2-0.2,0.2-0.5,0.1-0.7c-0.2-0.3-0.7-0.4-1-0.1
		l-0.9,0.9c-0.2,0.2-0.2,0.5-0.1,0.7c0.2,0.3,0.7,0.4,1,0.1L86.9,69.5z M46.2,28.4c-0.2-0.2-0.2-0.6,0-0.9c0.2-0.2,0.6-0.2,0.9,0
		l0.1,0.1c0.8,0.8,1.7,1.1,2.7,1.1c1,0,2-0.4,2.7-1.1c0,0,0.1-0.1,0.1-0.1c0.2-0.2,0.6-0.2,0.9,0c0.2,0.2,0.2,0.6,0,0.9
		c0,0-0.1,0.1-0.1,0.1c-1,0.9-2.3,1.4-3.6,1.4c-1.3,0-2.6-0.5-3.6-1.5C46.3,28.5,46.2,28.5,46.2,28.4L46.2,28.4z M74.2,32.8
		c2.2,0,4.3,0.9,5.8,2.4c1.5,1.5,2.4,3.5,2.4,5.8c0,2.2-0.9,4.3-2.4,5.8c-1.5,1.5-3.5,2.4-5.8,2.4c-2.2,0-4.3-0.9-5.8-2.4
		C67,45.3,66,43.2,66,41c0-2.2,0.9-4.3,2.4-5.8S71.9,32.8,74.2,32.8z M79.1,36.1c-1.3-1.3-3-2-4.9-2s-3.6,0.8-4.9,2
		c-1.3,1.3-2,3-2,4.9c0,1.9,0.8,3.6,2,4.9c1.3,1.3,3,2,4.9,2s3.6-0.8,4.9-2c1.3-1.3,2-3,2-4.9C81.1,39.1,80.3,37.3,79.1,36.1z
		 M26.3,32.8c2.2,0,4.3,0.9,5.8,2.4c1.5,1.5,2.4,3.5,2.4,5.8c0,2.2-0.9,4.3-2.4,5.8c-1.5,1.5-3.5,2.4-5.8,2.4
		c-2.2,0-4.3-0.9-5.8-2.4c-1.5-1.5-2.4-3.5-2.4-5.8c0-2.2,0.9-4.3,2.4-5.8S24.1,32.8,26.3,32.8z M31.2,36.1c-1.3-1.3-3-2-4.9-2
		c-1.9,0-3.6,0.8-4.9,2c-1.3,1.3-2,3-2,4.9c0,1.9,0.8,3.6,2,4.9c1.3,1.3,3,2,4.9,2c1.9,0,3.6-0.8,4.9-2c1.3-1.3,2-3,2-4.9
		C33.3,39.1,32.5,37.3,31.2,36.1z M50,17.6c2.2,0,4.3,0.9,5.8,2.4c1.5,1.5,2.4,3.5,2.4,5.8s-0.9,4.3-2.4,5.8
		c-1.5,1.5-3.5,2.4-5.8,2.4c-2.2,0-4.3-0.9-5.8-2.4c-1.5-1.5-2.4-3.5-2.4-5.8s0.9-4.3,2.4-5.8C45.7,18.5,47.7,17.6,50,17.6L50,17.6z
		 M54.9,20.9c-1.3-1.3-3-2-4.9-2c-1.9,0-3.6,0.8-4.9,2c-1.3,1.3-2,3-2,4.9s0.8,3.6,2,4.9c1.3,1.3,3,2,4.9,2c1.9,0,3.6-0.8,4.9-2
		c1.3-1.3,2-3,2-4.9S56.1,22.1,54.9,20.9L54.9,20.9z M56.2,59c-0.1-0.1-0.1-0.1-0.1-0.2l-5.5-5.5c-0.3-0.3-0.5-0.4-0.6-0.4
		c-0.1,0-0.3,0.1-0.5,0.3l-7.3,7.3c-0.1,0.1-0.1,0.1-0.2,0.1L31.4,71.2c-0.2,0.2-0.4,0.4-0.6,0.6c-0.2,0.2-0.5,0.4-0.7,0.5
		c-0.6,0.5-1.3,0.8-2,1.1c-0.7,0.2-1.5,0.4-2.2,0.4c-0.8,0-1.5-0.1-2.2-0.4c-0.7-0.2-1.4-0.6-2-1.1c-0.2-0.2-0.5-0.3-0.7-0.5
		c-0.2-0.2-0.4-0.4-0.6-0.6L8.1,59c-2.6-2.6-3-5.6-2.1-8c0.4-0.9,0.9-1.8,1.6-2.5c0.7-0.7,1.5-1.3,2.5-1.6c2.4-0.9,5.4-0.5,8,2.1
		l7.3,7.3c0.2,0.2,0.4,0.3,0.5,0.3c0.2,0,0.4-0.2,0.6-0.4l7.2-7.2c0.3-0.3,0.5-0.5,0.8-0.7l9.9-9.9c0.2-0.2,0.4-0.4,0.6-0.6
		c0.2-0.2,0.5-0.4,0.7-0.5c0.6-0.5,1.3-0.8,2-1.1c0.7-0.2,1.5-0.4,2.2-0.4c0.8,0,1.5,0.1,2.2,0.4c0.7,0.2,1.4,0.6,2,1.1
		c0.2,0.2,0.5,0.3,0.7,0.5c0.2,0.2,0.4,0.4,0.6,0.6l12.2,12.2c0.2,0.2,0.4,0.4,0.6,0.7l5.1,5.1c0.2,0.2,0.4,0.3,0.5,0.3
		c0.2,0,0.4-0.2,0.6-0.4l7.2-7.2c2.6-2.6,5.6-3,8-2.1c0.9,0.4,1.8,0.9,2.5,1.6c0.7,0.7,1.3,1.5,1.6,2.5c0.9,2.4,0.5,5.4-2.1,8
		L79.6,71.2c-0.2,0.2-0.4,0.4-0.6,0.6c-0.2,0.2-0.5,0.4-0.7,0.5c-0.6,0.5-1.3,0.8-2,1.1c-0.7,0.2-1.5,0.4-2.2,0.4
		c-0.8,0-1.5-0.1-2.2-0.4c-0.7-0.2-1.4-0.6-2-1.1c-0.2-0.2-0.5-0.3-0.7-0.5c-0.2-0.2-0.4-0.4-0.6-0.6L56.2,59L56.2,59z M61.9,62.9
		l7.4,7.4c0.2,0.2,0.4,0.4,0.6,0.5c0.2,0.2,0.4,0.3,0.6,0.5l0,0c0.5,0.4,1.1,0.7,1.7,0.9c0.6,0.2,1.2,0.3,1.8,0.3h0
		c0.6,0,1.3-0.1,1.8-0.3c0.6-0.2,1.2-0.5,1.7-0.9l0,0c0.2-0.1,0.4-0.3,0.6-0.5c0.2-0.2,0.4-0.3,0.6-0.5l12.2-12.2
		c2.2-2.2,2.6-4.7,1.8-6.7c-0.3-0.8-0.7-1.5-1.3-2c-0.6-0.6-1.3-1-2-1.3c-2-0.8-4.5-0.4-6.7,1.8L75.5,57c-0.5,0.5-0.9,0.7-1.4,0.8
		c-0.5,0-1-0.2-1.5-0.7l-2.4-2.4c0.3,1.3,0.2,2.7-0.3,3.8c-0.4,0.9-0.9,1.8-1.6,2.5c-0.7,0.7-1.5,1.3-2.5,1.6
		C64.6,63.1,63.3,63.2,61.9,62.9L61.9,62.9z M67.5,52l-2.2-2.2c-0.1-0.1-0.1-0.1-0.1-0.2L54.7,39.2c-0.2-0.2-0.4-0.4-0.6-0.5
		c-0.2-0.2-0.4-0.3-0.6-0.5l0,0c-0.5-0.4-1.1-0.7-1.7-0.9c-0.6-0.2-1.2-0.3-1.8-0.3h0c-0.6,0-1.3,0.1-1.8,0.3
		c-0.6,0.2-1.2,0.5-1.7,0.9l0,0c-0.2,0.1-0.4,0.3-0.6,0.5c-0.2,0.2-0.4,0.3-0.6,0.5l-7.4,7.4c1.3-0.3,2.6-0.1,3.8,0.3
		c0.9,0.4,1.8,0.9,2.5,1.6c0.7,0.7,1.3,1.5,1.6,2.5c0.5,1.2,0.6,2.6,0.2,4l2.6-2.6c0.5-0.5,1-0.7,1.5-0.7c0.5,0,0.9,0.3,1.4,0.8
		l7.2,7.2c2.2,2.2,4.7,2.6,6.7,1.8c0.8-0.3,1.5-0.7,2-1.3c0.6-0.6,1-1.3,1.3-2C69.5,56.3,69.2,54.1,67.5,52L67.5,52z"/>
</g>
</svg>
