<?xml version="1.0" encoding="utf-8"?>
<!-- Generator: Adobe Illustrator 24.1.0, SVG Export Plug-In . SVG Version: 6.00 Build 0)  -->
<svg version="1.1" id="Layer_1" xmlns="http://www.w3.org/2000/svg" xmlns:xlink="http://www.w3.org/1999/xlink" x="0px" y="0px"
	 viewBox="0 0 100 125" style="enable-background:new 0 0 100 125;" xml:space="preserve">
<style type="text/css">
	.st0{fill:url(#SVGID_1_);}
	.st1{fill:url(#SVGID_2_);}
</style>
<g>
	<linearGradient id="SVGID_1_" gradientUnits="userSpaceOnUse" x1="46.1351" y1="54.8989" x2="76.4822" y2="54.8989">
		<stop  offset="0" style="stop-color:#D30000"/>
		<stop  offset="1" style="stop-color:#930000"/>
	</linearGradient>
	<path class="st0" d="M69.4,62.6l4.7,11.8l2.4-0.9L61.2,35.4L46.1,73.5l2.4,0.9l4.7-11.8H69.4z M68.4,60.1H54.3l7-17.8L68.4,60.1z"
		/>
	<linearGradient id="SVGID_2_" gradientUnits="userSpaceOnUse" x1="13.4769" y1="49.2485" x2="87.1481" y2="49.2485">
		<stop  offset="0" style="stop-color:#D30000"/>
		<stop  offset="1" style="stop-color:#930000"/>
	</linearGradient>
	<path class="st1" d="M25.6,13H23c-0.1,3,0.1,6,0.6,8.9H13.5v63.5h12.7v-2.5H16V24.4h26.7C40.8,30,37.9,35.2,34,39.7
		c-1.7-2.1-3.2-4.5-4.3-7l-2.3,1.1c1.4,2.7,3.1,5.3,5.1,7.6c-2.4,2.5-5.2,4.7-8.1,6.6l1.4,2.2c3-1.9,5.8-4.1,8.4-6.7
		c2.9,2.9,6.2,5.2,9.9,6.9l1.1-2.3c-3.4-1.6-6.5-3.8-9.2-6.5c4.4-4.9,7.7-10.7,9.7-17.1h39.1V83H50.3v2.5h36.8V21.9H26.2
		C25.6,19,25.4,16,25.6,13z"/>
</g>
</svg>
