<?xml version="1.0" encoding="utf-8"?>
<!-- Generator: Adobe Illustrator 24.1.0, SVG Export Plug-In . SVG Version: 6.00 Build 0)  -->
<svg version="1.1" id="Layer_1" xmlns="http://www.w3.org/2000/svg" xmlns:xlink="http://www.w3.org/1999/xlink" x="0px" y="0px"
	 viewBox="0 0 100 125" style="enable-background:new 0 0 100 125;" xml:space="preserve">
<style type="text/css">
	.st0{fill:url(#SVGID_1_);}
	.st1{fill:url(#SVGID_2_);}
	.st2{fill:url(#SVGID_3_);}
	.st3{fill:url(#SVGID_4_);}
	.st4{fill:url(#SVGID_5_);}
	.st5{fill:url(#SVGID_6_);}
	.st6{fill:url(#SVGID_7_);}
</style>
<g>
	<linearGradient id="SVGID_1_" gradientUnits="userSpaceOnUse" x1="29.6039" y1="62.3637" x2="95.6039" y2="62.3637">
		<stop  offset="0" style="stop-color:#D30000"/>
		<stop  offset="1" style="stop-color:#930000"/>
	</linearGradient>
	<path class="st0" d="M95.6,49.4H79.4l-8.3-14H54.5l-8.3,14H29.6v40h66V49.4z M93.6,87.4h-62v-36h15.8l8.3-14h14.4l8.3,14h15.2V87.4
		z"/>
	<linearGradient id="SVGID_2_" gradientUnits="userSpaceOnUse" x1="50.1039" y1="66.7637" x2="76.1039" y2="66.7637">
		<stop  offset="0" style="stop-color:#D30000"/>
		<stop  offset="1" style="stop-color:#930000"/>
	</linearGradient>
	<path class="st1" d="M63.1,53.8c-7.2,0-13,5.8-13,13s5.8,13,13,13s13-5.8,13-13S70.3,53.8,63.1,53.8z M63.1,77.8
		c-6.1,0-11-4.9-11-11s4.9-11,11-11s11,4.9,11,11S69.2,77.8,63.1,77.8z"/>
	<linearGradient id="SVGID_3_" gradientUnits="userSpaceOnUse" x1="5.6039" y1="67.3637" x2="15.6039" y2="67.3637">
		<stop  offset="0" style="stop-color:#D30000"/>
		<stop  offset="1" style="stop-color:#930000"/>
	</linearGradient>
	<polygon class="st2" points="5.6,72.4 15.6,72.4 15.6,70.4 7.6,70.4 7.6,62.4 5.6,62.4 	"/>
	<linearGradient id="SVGID_4_" gradientUnits="userSpaceOnUse" x1="5.6039" y1="41.9137" x2="7.6039" y2="41.9137">
		<stop  offset="0" style="stop-color:#D30000"/>
		<stop  offset="1" style="stop-color:#930000"/>
	</linearGradient>
	<rect x="5.6" y="35.1" class="st3" width="2" height="13.7"/>
	<linearGradient id="SVGID_5_" gradientUnits="userSpaceOnUse" x1="5.6039" y1="16.3637" x2="15.6039" y2="16.3637">
		<stop  offset="0" style="stop-color:#D30000"/>
		<stop  offset="1" style="stop-color:#930000"/>
	</linearGradient>
	<polygon class="st4" points="15.6,11.4 5.6,11.4 5.6,21.4 7.6,21.4 7.6,13.4 15.6,13.4 	"/>
	<linearGradient id="SVGID_6_" gradientUnits="userSpaceOnUse" x1="29.3039" y1="12.3637" x2="43.0039" y2="12.3637">
		<stop  offset="0" style="stop-color:#D30000"/>
		<stop  offset="1" style="stop-color:#930000"/>
	</linearGradient>
	<rect x="29.3" y="11.4" class="st5" width="13.7" height="2"/>
	<linearGradient id="SVGID_7_" gradientUnits="userSpaceOnUse" x1="56.6039" y1="16.3637" x2="66.6039" y2="16.3637">
		<stop  offset="0" style="stop-color:#D30000"/>
		<stop  offset="1" style="stop-color:#930000"/>
	</linearGradient>
	<polygon class="st6" points="66.6,21.4 66.6,11.4 56.6,11.4 56.6,13.4 64.6,13.4 64.6,21.4 	"/>
</g>
</svg>
