<?xml version="1.0" encoding="UTF-8"?>
<!DOCTYPE svg PUBLIC "-//W3C//DTD SVG 1.1//EN" "http://www.w3.org/Graphics/SVG/1.1/DTD/svg11.dtd">
<!-- Creator: CorelDRAW 2021 (64-Bit) -->
<svg xmlns="http://www.w3.org/2000/svg" xml:space="preserve" width="153.333mm" height="134.425mm" version="1.1" shape-rendering="geometricPrecision" text-rendering="geometricPrecision" image-rendering="optimizeQuality" fill-rule="evenodd" clip-rule="evenodd"
viewBox="0 0 15395.47 13497"
 xmlns:xlink="http://www.w3.org/1999/xlink"
 xmlns:xodm="http://www.corel.com/coreldraw/odm/2003">
 <defs>
   <linearGradient id="id0" gradientUnits="userSpaceOnUse" x1="6992.15" y1="3027.45" x2="8532.78" y2="5228.02">
    <stop offset="0" stop-opacity="1" stop-color="#D30000"/>
    <stop offset="1" stop-opacity="1" stop-color="#930000"/>
   </linearGradient>
 </defs>
 <g id="Layer_x0020_1">
  <metadata id="CorelCorpID_0Corel-Layer"/>
  <path fill="url(#id0)" fill-rule="nonzero" d="M7401.97 4099.02l616.91 0 0 289.67 -555.88 0c24.81,57 36.88,113.99 36.88,171.65 0,112.65 -27.49,232.68 -81.8,358.08 -54.32,126.07 -143.5,254.81 -268.22,386.23 103.94,-28.83 197.81,-42.91 282.97,-42.91 108.63,0 231.33,16.77 367.45,50.29 225.3,54.98 377.51,82.48 457.31,82.48 96.56,0 222.63,-37.55 376.85,-112.66l116.68 325.9c-120.71,51.63 -214.58,85.15 -280.29,101.25 -66.39,15.42 -132.77,23.46 -197.82,23.46 -55.64,0 -111.3,-5.36 -167.63,-15.42 -35.54,-6.7 -120.7,-30.84 -254.81,-72.41 -134.78,-40.91 -221.95,-65.72 -260.84,-73.77 -61.69,-10.05 -123.38,-15.42 -185.07,-15.42 -94.55,0 -195.13,16.77 -302.42,50.97 -107.28,33.53 -204.52,79.79 -292.35,138.14l-134.78 -337.96c126.73,-69.73 234.01,-169.64 322.53,-299.06 87.84,-129.41 132.09,-287.66 132.09,-474.07 0,-80.46 -11.4,-161.6 -33.53,-244.75l-388.91 0 0 -289.67 305.76 0c-43.59,-146.86 -71.08,-253.47 -82.47,-321.2 -12.08,-67.72 -18.1,-133.44 -18.1,-197.15 0,-272.9 100.58,-485.47 302.41,-639.02 162.27,-121.37 358.74,-182.4 589.41,-182.4 237.37,0 432.5,65.04 586.72,195.14 153.56,130.76 248.11,313.81 283.65,549.18l-350.02 52.3c-19.45,-156.91 -78.46,-280.96 -175.68,-371.48 -97.91,-90.54 -214.58,-135.46 -351.37,-135.46 -145.51,0 -266.2,46.94 -362.76,140.82 -95.89,93.21 -144.16,206.52 -144.16,339.29 0,145.51 36.88,335.27 111.3,569.97zm2799.29 2403.87l7.01 0c64.18,2.02 124.32,29.13 168.42,75.12l464.01 491.12 237.6 -224.52 -464.02 -491.12c-44.09,-46.13 -67.15,-108.29 -66.2,-172.35 2.02,-64.18 29.12,-124.32 75.11,-168.42l84.14 -79.17 -1049.37 -374.85 298.69 1083.48 78.2 -74.17c46.24,-42.07 105.31,-65.13 166.41,-65.13l0 0zm629.46 1146.62c-64.18,0 -127.29,-25.08 -174.35,-75.11l-464.02 -491.12 -194.45 183.39c-61.1,58.12 -148.34,79.16 -229.52,57.17 -81.18,-23.05 -144.28,-86.18 -167.35,-167.36l-528.19 -1916.43c-24.01,-86.17 2.02,-179.34 68.1,-240.56 66.21,-61.09 160.34,-80.22 244.61,-50.15l1854.26 662.48c79.16,28.05 137.27,95.2 154.39,177.46 17,82.25 -9.03,166.4 -70.12,224.52l-194.45 183.39 464.01 491.13c91.17,96.27 87.24,248.52 -9.99,339.8l-587.39 555.3c-46.24,44.09 -106.38,66.08 -165.57,66.08l0.02 0.01zm-3195.15 -633.19c-697.58,0 -1357.11,-264.57 -1863.29,-748.66 -521.18,-498.12 -815.81,-1169.64 -831.88,-1889.34 -16.04,-720.64 249.6,-1404.27 747.72,-1924.4 498.12,-520.24 1169.65,-815.81 1890.41,-831.87 720.63,-16.04 1404.27,249.6 1924.39,747.72 520.24,498.12 815.81,1169.64 831.88,1890.4 9.03,426.92 -78.21,836.99 -260.65,1218.76 -57.16,120.29 -200.5,170.44 -320.79,113.27 -120.29,-57.16 -170.44,-200.5 -113.28,-320.79 149.4,-313.77 221.54,-650.51 213.46,-1001.36 -13.07,-592.38 -255.54,-1143.63 -683.55,-1552.6 -427.99,-408.97 -989.24,-627.43 -1581.61,-614.35 -1221.82,27.1 -2194.06,1043.43 -2166.99,2265.15 13.07,592.38 255.54,1143.63 683.55,1552.6 427.99,408.97 989.24,627.43 1581.61,614.35 631.48,-14.02 1227.8,-297.73 1637.7,-777.77 86.18,-101.27 238.54,-113.28 338.75,-27.1 101.27,86.17 113.28,238.53 27.1,338.75 -498.93,584.41 -1225.63,930.16 -1993.34,947.28l-61.22 0 0.02 -0.04zm7519.16 2118.64l-14914.17 0c-133.36,0 -240.56,-107.21 -240.56,-240.56 0,-133.36 107.21,-240.56 240.56,-240.56l14914.17 0c133.36,0 240.56,107.21 240.56,240.56 0,133.36 -107.21,240.56 -240.56,240.56zm-14513.14 -8653.78c-88.2,0 -160.34,72.15 -160.34,160.34l0 9473.79c0,88.2 72.14,160.34 160.34,160.34l14112.41 0c88.2,0 160.34,-72.15 160.34,-160.35l0 -9473.79c0,-88.19 -72.14,-160.34 -160.34,-160.34l-14112.41 0.01zm14112.41 10275.55l-14112.41 0c-353.84,0 -641.47,-287.63 -641.47,-641.47l0 -9473.79c0,-353.84 287.63,-641.47 641.47,-641.47l14112.41 0.01c353.84,0 641.47,287.62 641.47,641.47l0 9473.79c0,353.84 -287.63,641.47 -641.47,641.47l0 -0.01zm-9935.06 2259.15l5756.2 0c-107.2,-412.9 -483.15,-719.67 -929.09,-719.67l-3897.11 0c-445.94,0 -822.84,305.7 -930.04,719.67l0.03 0zm6027.92 481.11l-6298.42 0c-133.36,0 -240.56,-107.21 -240.56,-240.56 0,-794.79 646.46,-1441.36 1441.36,-1441.36l3896.81 0c794.78,0 1441.36,646.45 1441.36,1441.36 -0.12,132.29 -107.33,240.56 -240.68,240.56l0.13 0zm-2011.53 -1200.66c-107.21,0 -204.44,-72.15 -232.48,-180.43l-400.91 -1539.55c-33.04,-128.25 43.13,-259.58 172.35,-293.69 128.24,-33.04 259.58,43.14 293.69,172.35l400.91 1539.55c33.04,128.25 -43.14,259.58 -172.35,293.69 -21.03,5.12 -41.13,8.08 -61.21,8.08zm-2275.36 0c-20.08,0 -40.05,-2.97 -61.09,-7.96 -128.25,-33.04 -205.5,-164.37 -172.35,-293.69l400.91 -1539.55c33.04,-128.25 164.37,-205.5 293.69,-172.35 128.25,33.04 205.5,164.37 172.35,293.69l-400.91 1539.55c-28.16,108.16 -125.39,180.31 -232.6,180.31z"/>
 </g>
</svg>
