<?xml version="1.0" encoding="utf-8"?>
<!-- Generator: Adobe Illustrator 24.1.0, SVG Export Plug-In . SVG Version: 6.00 Build 0)  -->
<svg version="1.1" id="Layer_1" xmlns="http://www.w3.org/2000/svg" xmlns:xlink="http://www.w3.org/1999/xlink" x="0px" y="0px"
	 viewBox="0 0 100 125" style="enable-background:new 0 0 100 125;" xml:space="preserve">
<style type="text/css">
	.st0{fill:url(#SVGID_1_);}
	.st1{fill:url(#SVGID_2_);}
	.st2{fill:url(#SVGID_3_);}
	.st3{fill:url(#SVGID_4_);}
	.st4{fill:url(#SVGID_5_);}
	.st5{fill:url(#SVGID_6_);}
	.st6{fill:url(#SVGID_7_);}
	.st7{fill:url(#SVGID_8_);}
	.st8{fill:url(#SVGID_9_);}
	.st9{fill:url(#SVGID_10_);}
	.st10{fill:url(#SVGID_11_);}
</style>
<g>
	<linearGradient id="SVGID_1_" gradientUnits="userSpaceOnUse" x1="17.558" y1="54.8899" x2="83.4995" y2="54.8899">
		<stop  offset="0" style="stop-color:#D30000"/>
		<stop  offset="1" style="stop-color:#930000"/>
	</linearGradient>
	<path class="st0" d="M82.7,13.3H65.2c-0.1,0-0.2,0-0.3,0.1v-1.7c0-0.4-0.3-0.8-0.8-0.8H36.9c-0.4,0-0.8,0.3-0.8,0.8v1.5H18.3
		c-0.4,0-0.8,0.3-0.8,0.8v84.1c0,0.4,0.3,0.8,0.8,0.8h64.4c0.4,0,0.8-0.3,0.8-0.8v-84C83.5,13.7,83.2,13.3,82.7,13.3
		C82.8,13.3,82.8,13.3,82.7,13.3z M36.9,25h27.2c0.4,0,0.8-0.3,0.8-0.8v-4.5h11.5v69.3H24.7V19.6h11.5v4.5
		C36.2,24.6,36.5,24.9,36.9,25C36.9,25,36.9,25,36.9,25z M63.3,23.4H37.6v-3.8h25.7V23.4z M37.6,18.1v-1.3h25.7v1.3H37.6z
		 M37.6,12.5h25.7v2.8H37.6V12.5z M82,97.3H19.1V14.8h17.1v3.3H24c-0.4,0-0.8,0.3-0.8,0.8v70.8c0,0.4,0.3,0.8,0.8,0.8h53.1
		c0.4,0,0.8-0.3,0.8-0.8V18.9c0-0.4-0.3-0.8-0.8-0.8H64.9v-3.4c0.1,0.1,0.2,0.1,0.3,0.1H82V97.3z"/>
	<linearGradient id="SVGID_2_" gradientUnits="userSpaceOnUse" x1="29.561" y1="45.5198" x2="51.0576" y2="45.5198">
		<stop  offset="0" style="stop-color:#D30000"/>
		<stop  offset="1" style="stop-color:#930000"/>
	</linearGradient>
	<path class="st1" d="M39.5,39.8h-3.6c-3.5,0-6.3,3.4-6.3,7.6v13.6c0,0.4,0.3,0.8,0.8,0.8h20c0.4,0,0.8-0.3,0.8-0.8V46.6
		c0-3.8-2.6-6.8-5.8-6.8h-4.1c2.9-0.5,4.8-3.2,4.3-6c-0.5-2.9-3.2-4.8-6-4.3c-2.9,0.5-4.8,3.2-4.3,6C35.5,37.7,37.2,39.4,39.5,39.8z
		 M49.5,46.7v13.6h-2.7V45.9c0-0.4-0.3-0.8-0.8-0.8c-0.4,0-0.8,0.3-0.8,0.8v14.2h-9.8V45.9c0-0.4-0.3-0.8-0.8-0.8s-0.8,0.3-0.8,0.8
		v14.2h-3V47.2c0-3.3,2.2-6,4.8-6h9.3C47.6,41.3,49.5,43.6,49.5,46.7L49.5,46.7z M40.3,30.8c2.1,0,3.7,1.7,3.7,3.7
		c0,2.1-1.7,3.7-3.7,3.7c-2.1,0-3.7-1.7-3.7-3.7v0C36.6,32.5,38.2,30.8,40.3,30.8z"/>
	<linearGradient id="SVGID_3_" gradientUnits="userSpaceOnUse" x1="57.8603" y1="34.4818" x2="71.6925" y2="34.4818">
		<stop  offset="0" style="stop-color:#D30000"/>
		<stop  offset="1" style="stop-color:#930000"/>
	</linearGradient>
	<path class="st2" d="M58.6,35.2h12.3c0.4,0,0.8-0.3,0.8-0.8s-0.3-0.8-0.8-0.8H58.6c-0.4,0-0.8,0.3-0.8,0.8S58.2,35.2,58.6,35.2z"/>
	<linearGradient id="SVGID_4_" gradientUnits="userSpaceOnUse" x1="57.8603" y1="40.5286" x2="71.6925" y2="40.5286">
		<stop  offset="0" style="stop-color:#D30000"/>
		<stop  offset="1" style="stop-color:#930000"/>
	</linearGradient>
	<path class="st3" d="M58.6,41.3h12.3c0.4,0,0.8-0.3,0.8-0.8c0-0.4-0.3-0.8-0.8-0.8H58.6c-0.4,0-0.8,0.3-0.8,0.8
		C57.9,40.9,58.2,41.3,58.6,41.3z"/>
	<linearGradient id="SVGID_5_" gradientUnits="userSpaceOnUse" x1="57.8603" y1="46.5755" x2="71.6925" y2="46.5755">
		<stop  offset="0" style="stop-color:#D30000"/>
		<stop  offset="1" style="stop-color:#930000"/>
	</linearGradient>
	<path class="st4" d="M58.6,47.3h12.3c0.4,0,0.8-0.3,0.8-0.8c0-0.4-0.3-0.8-0.8-0.8H58.6c-0.4,0-0.8,0.3-0.8,0.8
		C57.9,47,58.2,47.3,58.6,47.3z"/>
	<linearGradient id="SVGID_6_" gradientUnits="userSpaceOnUse" x1="57.8603" y1="52.6223" x2="71.6925" y2="52.6223">
		<stop  offset="0" style="stop-color:#D30000"/>
		<stop  offset="1" style="stop-color:#930000"/>
	</linearGradient>
	<path class="st5" d="M58.6,53.4h12.3c0.4,0,0.8-0.3,0.8-0.8c0-0.4-0.3-0.8-0.8-0.8H58.6c-0.4,0-0.8,0.3-0.8,0.8
		C57.9,53,58.2,53.4,58.6,53.4z"/>
	<linearGradient id="SVGID_7_" gradientUnits="userSpaceOnUse" x1="57.8603" y1="58.6692" x2="71.6925" y2="58.6692">
		<stop  offset="0" style="stop-color:#D30000"/>
		<stop  offset="1" style="stop-color:#930000"/>
	</linearGradient>
	<path class="st6" d="M58.6,59.4h12.3c0.4,0,0.8-0.3,0.8-0.8c0-0.4-0.3-0.8-0.8-0.8H58.6c-0.4,0-0.8,0.3-0.8,0.8
		C57.9,59.1,58.2,59.4,58.6,59.4z"/>
	<linearGradient id="SVGID_8_" gradientUnits="userSpaceOnUse" x1="29.6442" y1="66.6737" x2="51.2012" y2="66.6737">
		<stop  offset="0" style="stop-color:#D30000"/>
		<stop  offset="1" style="stop-color:#930000"/>
	</linearGradient>
	<path class="st7" d="M50.5,66H30.3c-0.4,0-0.7,0.3-0.7,0.7s0.3,0.7,0.7,0.7h20.2c0.4,0,0.7-0.3,0.7-0.7S50.9,66,50.5,66z"/>
	<linearGradient id="SVGID_9_" gradientUnits="userSpaceOnUse" x1="29.6442" y1="72.7205" x2="51.2012" y2="72.7205">
		<stop  offset="0" style="stop-color:#D30000"/>
		<stop  offset="1" style="stop-color:#930000"/>
	</linearGradient>
	<path class="st8" d="M50.5,72H30.3c-0.4,0-0.7,0.3-0.7,0.7s0.3,0.7,0.7,0.7h20.2c0.4,0,0.7-0.3,0.7-0.7S50.9,72,50.5,72z"/>
	<linearGradient id="SVGID_10_" gradientUnits="userSpaceOnUse" x1="29.6442" y1="78.7674" x2="51.2012" y2="78.7674">
		<stop  offset="0" style="stop-color:#D30000"/>
		<stop  offset="1" style="stop-color:#930000"/>
	</linearGradient>
	<path class="st9" d="M50.5,78.1H30.3c-0.4,0-0.7,0.3-0.7,0.7s0.3,0.7,0.7,0.7h20.2c0.4,0,0.7-0.3,0.7-0.7S50.9,78.1,50.5,78.1z"/>
	<linearGradient id="SVGID_11_" gradientUnits="userSpaceOnUse" x1="57.8301" y1="71.0563" x2="71.6876" y2="71.0563">
		<stop  offset="0" style="stop-color:#D30000"/>
		<stop  offset="1" style="stop-color:#930000"/>
	</linearGradient>
	<path class="st10" d="M58.6,79.5h12.1c0.4,0,0.8-0.3,0.8-0.8V66.7c0-0.4-0.3-0.8-0.8-0.8h-0.4l1.3-2.2c0.2-0.4,0.1-0.8-0.3-1
		c-0.4-0.2-0.8-0.1-1,0.3l-1.7,3h-10c-0.4,0-0.8,0.3-0.8,0.8v12.1C57.9,79.2,58.2,79.5,58.6,79.5z M59.3,67.4h8.3L64,73.8l-2.1-2.4
		c-0.3-0.3-0.7-0.4-1.1-0.1c-0.3,0.3-0.4,0.7-0.1,1.1c0,0,0,0,0,0l2.8,3.2c0.1,0.2,0.4,0.3,0.6,0.3l0,0c0.2,0,0.5-0.2,0.6-0.4l4.7-8
		h0.5V78H59.3V67.4z"/>
</g>
</svg>
