<?xml version="1.0" encoding="utf-8"?>
<!-- Generator: Adobe Illustrator 24.1.0, SVG Export Plug-In . SVG Version: 6.00 Build 0)  -->
<svg version="1.1" id="Layer_1" xmlns="http://www.w3.org/2000/svg" xmlns:xlink="http://www.w3.org/1999/xlink" x="0px" y="0px"
	 viewBox="0 0 100 125" style="enable-background:new 0 0 100 125;" xml:space="preserve">
<style type="text/css">
	.st0{fill-rule:evenodd;clip-rule:evenodd;fill:url(#SVGID_1_);}
</style>
<g>
	<linearGradient id="SVGID_1_" gradientUnits="userSpaceOnUse" x1="19.35" y1="55.7222" x2="82.65" y2="55.7222">
		<stop  offset="0" style="stop-color:#D30000"/>
		<stop  offset="1" style="stop-color:#930000"/>
	</linearGradient>
	<path class="st0" d="M82.7,95.9c0,2.6-2.7,4.8-6.1,4.8H25.5c-3.4,0-6.1-2.1-6.1-4.8c0-2.6,2.7-4.8,6.1-4.8H29v-74h-1.4
		c-1.3,0-2.4-1.1-2.4-2.4s1.1-2.4,2.4-2.4H47c0.7-1,1.8-1.6,3.1-1.6s2.4,0.6,3.1,1.6h19.5c1.3,0,2.4,1.1,2.4,2.4s-1,2.2-2.2,2.4v74
		h3.6C80,91.1,82.7,93.2,82.7,95.9z M69.7,17.2H32.2v73.9h37.5V17.2z"/>
</g>
</svg>
