<?xml version="1.0" encoding="utf-8"?>
<!-- Generator: Adobe Illustrator 24.1.0, SVG Export Plug-In . SVG Version: 6.00 Build 0)  -->
<svg version="1.1" id="Layer_1" xmlns="http://www.w3.org/2000/svg" xmlns:xlink="http://www.w3.org/1999/xlink" x="0px" y="0px"
	 viewBox="0 0 100 125" style="enable-background:new 0 0 100 125;" xml:space="preserve">
<style type="text/css">
	.st0{fill:url(#SVGID_1_);}
</style>
<g>
	<linearGradient id="SVGID_1_" gradientUnits="userSpaceOnUse" x1="7.2755" y1="44.3992" x2="93.6667" y2="44.3992">
		<stop  offset="0" style="stop-color:#D30000"/>
		<stop  offset="1" style="stop-color:#930000"/>
	</linearGradient>
	<path class="st0" d="M17.8,14.2c0.8,0,1.5,0.3,2,0.8c0.5,0.5,0.8,1.2,0.8,2c0,0.8-0.3,1.5-0.8,2c-0.5,0.5-1.2,0.8-2,0.8
		c-0.8,0-1.5-0.3-2-0.8h0c-0.5-0.5-0.8-1.2-0.8-2c0-0.8,0.3-1.5,0.8-2h0C16.4,14.6,17.1,14.2,17.8,14.2z M38.2,58
		c-0.3,0-0.5-0.2-0.5-0.5s0.2-0.5,0.5-0.5h19.9c0.3,0,0.5,0.2,0.5,0.5S58.4,58,58.1,58H38.2z M52.4,51.3c0.3,0,0.5,0.2,0.5,0.5
		c0,0.3-0.2,0.5-0.5,0.5H38.2c-0.3,0-0.5-0.2-0.5-0.5c0-0.3,0.2-0.5,0.5-0.5H52.4z M38.2,46.6c-0.3,0-0.5-0.2-0.5-0.5
		s0.2-0.5,0.5-0.5h22.9c0.3,0,0.5,0.2,0.5,0.5s-0.2,0.5-0.5,0.5C61.1,46.6,38.2,46.6,38.2,46.6z M38.2,40.9c-0.3,0-0.5-0.2-0.5-0.5
		c0-0.3,0.2-0.5,0.5-0.5h19.1c0.3,0,0.5,0.2,0.5,0.5c0,0.3-0.2,0.5-0.5,0.5H38.2z M71.4,33.2c-0.5,0-1-0.4-1-1c0-0.5,0.4-1,1-1
		c1.3,0,2.6,0,3.7,0.4c1.3,0.5,2.2,1.3,2.2,3.1v11c0,0.3,0.1,0.5,0.2,0.6c0.1,0.2,0.4,0.3,0.6,0.4c0.3,0.1,0.5,0.3,0.7,0.6
		c0.2,0.2,0.3,0.5,0.3,0.8c0,0.3-0.1,0.6-0.3,0.8c-0.2,0.2-0.4,0.4-0.7,0.6c-0.3,0.1-0.5,0.3-0.6,0.4c-0.1,0.1-0.2,0.4-0.2,0.6v11
		c0,1.8-0.9,2.7-2.2,3.1c-1.1,0.4-2.4,0.4-3.7,0.4c-0.5,0-1-0.4-1-1s0.4-1,1-1c1.2,0,2.3,0,3.1-0.3c0.5-0.2,0.9-0.5,0.9-1.3v-11
		c0-0.7,0.2-1.4,0.6-1.8c0.2-0.2,0.4-0.4,0.7-0.6c-0.2-0.2-0.5-0.4-0.7-0.6c-0.4-0.5-0.6-1.1-0.6-1.8v-11c0-0.7-0.3-1.1-0.9-1.3
		C73.7,33.2,72.6,33.2,71.4,33.2z M29.5,31.2c0.5,0,1,0.4,1,1c0,0.5-0.4,1-1,1c-1.2,0-2.3,0-3.1,0.3c-0.5,0.2-0.9,0.5-0.9,1.3v11
		c0,0.7-0.2,1.4-0.6,1.8c-0.2,0.2-0.4,0.4-0.7,0.6c0.2,0.2,0.5,0.4,0.7,0.6c0.4,0.5,0.6,1.1,0.6,1.8v11c0,0.7,0.3,1.1,0.9,1.3
		c0.8,0.3,1.9,0.3,3.1,0.3c0.5,0,1,0.4,1,1s-0.4,1-1,1c-1.3,0-2.6,0-3.7-0.4c-1.3-0.5-2.2-1.3-2.2-3.1v-11c0-0.3-0.1-0.5-0.2-0.6
		c-0.1-0.2-0.4-0.3-0.6-0.4c-0.3-0.1-0.5-0.3-0.7-0.6c-0.2-0.2-0.3-0.5-0.3-0.8c0-0.3,0.1-0.6,0.3-0.8c0.2-0.2,0.4-0.4,0.7-0.6
		c0.3-0.1,0.5-0.3,0.6-0.4c0.1-0.1,0.2-0.4,0.2-0.6v-11c0-1.8,0.9-2.7,2.2-3.1C26.9,31.2,28.2,31.2,29.5,31.2z M38.2,35.3
		c-0.4,0-0.7-0.3-0.7-0.7c0-0.4,0.3-0.7,0.7-0.7h24.6c0.4,0,0.7,0.3,0.7,0.7c0,0.4-0.3,0.7-0.7,0.7H38.2z M13.5,9.8h73.9
		c1.7,0,3.3,0.7,4.4,1.8c1.1,1.1,1.8,2.7,1.8,4.4v56.7c0,1.7-0.7,3.3-1.8,4.4c-1.1,1.1-2.7,1.8-4.4,1.8H13.5c-1.7,0-3.3-0.7-4.4-1.8
		s-1.8-2.7-1.8-4.4V16c0-1.7,0.7-3.3,1.8-4.4C10.2,10.5,11.8,9.8,13.5,9.8z M87.4,11.8H13.5c-1.2,0-2.2,0.5-3,1.3
		c-0.8,0.8-1.3,1.8-1.3,3v7.1h82.4V16c0-1.2-0.5-2.2-1.3-3C89.7,12.2,88.6,11.8,87.4,11.8L87.4,11.8z M9.3,24.5v48.3
		c0,1.2,0.5,2.2,1.3,3c0.8,0.8,1.8,1.3,3,1.3h73.9c1.2,0,2.2-0.5,3-1.3c0.8-0.8,1.3-1.8,1.3-3V24.5H9.3L9.3,24.5z M35.7,14.2
		c0.8,0,1.5,0.3,2,0.8c0.5,0.5,0.8,1.2,0.8,2c0,0.8-0.3,1.5-0.8,2c-0.5,0.5-1.2,0.8-2,0.8c-0.8,0-1.5-0.3-2-0.8h0
		c-0.5-0.5-0.8-1.2-0.8-2c0-0.8,0.3-1.5,0.8-2h0C34.2,14.6,34.9,14.2,35.7,14.2z M37,15.8c-0.3-0.3-0.8-0.5-1.3-0.5
		c-0.5,0-1,0.2-1.3,0.5l0,0c-0.3,0.3-0.5,0.8-0.5,1.3c0,0.5,0.2,1,0.5,1.3l0,0c0.3,0.3,0.8,0.5,1.3,0.5c0.5,0,1-0.2,1.3-0.5
		c0.3-0.3,0.5-0.8,0.5-1.3C37.5,16.6,37.3,16.1,37,15.8z M26.8,14.2c0.8,0,1.5,0.3,2,0.8c0.5,0.5,0.8,1.2,0.8,2c0,0.8-0.3,1.5-0.8,2
		c-0.5,0.5-1.2,0.8-2,0.8c-0.8,0-1.5-0.3-2-0.8c-0.5-0.5-0.8-1.2-0.8-2c0-0.8,0.3-1.5,0.8-2C25.3,14.6,26,14.2,26.8,14.2z
		 M28.1,15.8c-0.3-0.3-0.8-0.5-1.3-0.5c-0.5,0-1,0.2-1.3,0.5c-0.3,0.3-0.5,0.8-0.5,1.3c0,0.5,0.2,1,0.5,1.3c0.3,0.3,0.8,0.5,1.3,0.5
		c0.5,0,1-0.2,1.3-0.5c0.3-0.3,0.5-0.8,0.5-1.3C28.6,16.6,28.4,16.1,28.1,15.8z M19.2,15.8c-0.3-0.3-0.8-0.5-1.3-0.5
		c-0.5,0-1,0.2-1.3,0.5l0,0c-0.3,0.3-0.5,0.8-0.5,1.3c0,0.5,0.2,1,0.5,1.3l0,0c0.3,0.3,0.8,0.5,1.3,0.5c0.5,0,1-0.2,1.3-0.5
		c0.3-0.3,0.5-0.8,0.5-1.3C19.7,16.6,19.5,16.1,19.2,15.8z"/>
</g>
</svg>
