<?xml version="1.0" encoding="UTF-8"?>
<!DOCTYPE svg PUBLIC "-//W3C//DTD SVG 1.1//EN" "http://www.w3.org/Graphics/SVG/1.1/DTD/svg11.dtd">
<!-- Creator: CorelDRAW 2021 (64-Bit) -->
<svg xmlns="http://www.w3.org/2000/svg" xml:space="preserve" width="149.308mm" height="149.312mm" version="1.1" shape-rendering="geometricPrecision" text-rendering="geometricPrecision" image-rendering="optimizeQuality" fill-rule="evenodd" clip-rule="evenodd"
viewBox="0 0 16480.13 16480.49"
 xmlns:xlink="http://www.w3.org/1999/xlink"
 xmlns:xodm="http://www.corel.com/coreldraw/odm/2003">
 <defs>
   <linearGradient id="id0" gradientUnits="userSpaceOnUse" x1="437.39" y1="3214.08" x2="5708.97" y2="7242.49">
    <stop offset="0" stop-opacity="1" stop-color="#D30000"/>
    <stop offset="1" stop-opacity="1" stop-color="#930000"/>
   </linearGradient>
 </defs>
 <g id="Layer_x0020_1">
  <metadata id="CorelCorpID_0Corel-Layer"/>
  <path fill="url(#id0)" fill-rule="nonzero" d="M3624.56 7249.26c1998.53,0 3624.57,-1626.07 3624.57,-3624.56 -0.12,-1998.52 -1625.95,-3624.54 -3624.57,-3624.54 -1998.52,0 -3624.54,1626.07 -3624.54,3624.54 0,1998.53 1626.07,3624.56 3624.54,3624.56zm1791.79 -1084.67l-1341.71 -2282.5 2648.61 1.09c-77.88,941.27 -576.36,1764.6 -1306.9,2281.41l0.01 0zm1307.27 -2796.14l-2841.49 -1.2 0 -2841.64c1510.22,124.35 2717.78,1332.5 2841.49,2842.85l0 0zm-3356.54 -2842.84l0 3098.92c0,45.87 12.38,90.99 35.55,130.42l1570.26 2671.44c-408.12,197.12 -865.57,307.76 -1348.4,307.76 -1714.63,0 -3109.64,-1394.97 -3109.64,-3109.63 0,-1628.02 1257.4,-2967.57 2852.2,-3098.94l0.03 0.02zm7616.5 -99.71c0,-142.19 115.26,-257.43 257.43,-257.43l4981.7 0c142.19,0 257.43,115.24 257.43,257.43 0,142.18 -115.24,257.42 -257.43,257.42l-4981.38 0c-142.3,0.13 -257.67,-115.23 -257.67,-257.42l-0.08 0zm0 1077.98c0,-142.18 115.26,-257.42 257.43,-257.42l2490.8 0c142.18,0 257.42,115.24 257.42,257.42 0,142.18 -115.24,257.43 -257.42,257.43l-2490.55 0c-142.3,0.24 -257.67,-115.12 -257.67,-257.43l-0.01 0zm-2308.33 426.19l1415.23 0c142.18,0 257.42,-115.24 257.42,-257.42l0 -1415.23c0,-142.19 -115.24,-257.43 -257.42,-257.43l-1415.23 0c-142.19,0 -257.43,115.24 -257.43,257.43l0 1415.23c0,142.18 115.24,257.42 257.43,257.42zm257.66 -1415.23l900.13 0 0 900.12 -900.13 0 0 -900.12zm2050.66 2570.6c0,-142.18 115.26,-257.42 257.43,-257.42l4981.7 0c142.19,0 257.43,115.24 257.43,257.42 0,142.19 -115.24,257.43 -257.43,257.43l-4981.39 0c-142.3,0 -257.67,-115.24 -257.67,-257.43l-0.07 0zm0 1078.1c0,-142.18 115.26,-257.42 257.43,-257.42l2490.79 0c142.18,0 257.42,115.24 257.42,257.42 0,142.19 -115.24,257.43 -257.42,257.43l-2490.55 0.01c-142.3,0 -257.67,-115.24 -257.67,-257.43l0 -0.01zm-2308.33 426.06l1415.23 0c142.18,0 257.42,-115.24 257.42,-257.42l0 -1415.23c0,-142.19 -115.24,-257.43 -257.42,-257.43l-1415.23 0c-142.19,0 -257.43,115.24 -257.43,257.43l0 1415.23c0,142.07 115.24,257.42 257.43,257.42zm257.66 -1415.23l900.13 0 0 900.13 -900.13 0 0 -900.13zm2050.66 2570.74c0,-142.19 115.26,-257.43 257.43,-257.43l4981.69 0c142.19,0 257.43,115.24 257.43,257.43 0,142.18 -115.24,257.42 -257.43,257.42l-4981.38 0c-142.3,0 -257.67,-115.24 -257.67,-257.42l-0.07 0zm-9013.09 4341.02l-1713.04 0c-142.19,0 -257.43,115.23 -257.43,257.43l0 5879.22c0,142.18 115.24,257.42 257.43,257.42l1713.04 0c142.19,0 257.43,-115.24 257.43,-257.42l0 -5879.22c0,-142.2 -115.24,-257.43 -257.43,-257.43zm-257.66 5879.22l-1197.96 0 0 -5364.31 1197.96 0 0 5364.31zm14597.9 -1765.95l-1820.78 -1766.69c-106.88,-103.84 -248.33,-159.28 -397.68,-157.46 -78.5,1.23 -153.82,18.68 -222.97,49.99l-730.78 -709.08c333.13,-542.99 525.54,-1180.96 525.54,-1863.35 0,-1061.97 -465.97,-2017.06 -1203.8,-2672.17l1271.36 0.01c142.2,0 257.43,-115.24 257.43,-257.42 0,-142.19 -115.23,-257.43 -257.43,-257.43l-2026.53 0.12c-412.83,-209.99 -871.86,-341.99 -1357.23,-376.67l0 -612.51c0,-142.19 -115.24,-257.43 -257.43,-257.43l-1415.23 -0.01c-142.18,0 -257.42,115.24 -257.42,257.43l0 1020.25c-1128.95,601.09 -1899.51,1790.23 -1899.51,3155.92 0,421.68 73.51,826.5 208.29,1202.34l-385.28 -0.01c-142.19,0 -257.43,115.23 -257.43,257.43l0 5010.27c0,142.18 115.24,257.43 257.43,257.43l1713.04 0c142.19,0 257.43,-115.26 257.43,-257.43l0.13 -3372.38c272.95,157.46 568.69,279.86 880.84,361.02l0 3011.48c0,142.18 115.23,257.43 257.42,257.43l1713.05 0c142.19,0 257.43,-115.26 257.43,-257.43l-0.12 -3153.74c289.45,-116.46 560.47,-269.55 806.84,-453.96l700.68 679.86c-29.35,70.11 -44.51,146.05 -43.3,224.43 2.19,149.45 62.35,288.97 169.23,392.8l1820.79 1766.81c108.33,105.29 248.93,157.58 389.17,157.58 146.05,0 291.64,-56.65 401.05,-169.34l657.4 -677.54c214.84,-221.15 209.38,-575.61 -11.64,-790.34l0.01 -0.21zm-2827.81 -1531.43l-223.7 230.61 -640.91 -621.96c75.7,-75.93 148,-155.28 216.67,-237.52l647.94 628.87zm-4550.34 -6833.88l900.13 0 0 355.09c-312.86,22.45 -614.69,85.29 -900.12,183.55l-0.01 -538.64zm1158.42 860.72c1686.26,0 3057.95,1371.8 3057.95,3057.93 0,1686.27 -1371.81,3057.95 -3057.95,3057.95 -1686.24,0 -3057.94,-1371.8 -3057.94,-3057.95 0,-1686.24 1371.69,-3057.93 3057.94,-3057.93zm-2294.52 9270.55l-1198.07 0 0 -4495.05 360.19 0c214.48,389.66 499.69,735.16 837.88,1019.14l0 3475.91zm3109.03 0l-1197.96 0 -0.12 -2660.14c126.05,13.59 254.03,20.63 383.48,20.63 280.11,0 552.71,-32.38 814.51,-93.64l0.09 2733.15zm5047.54 -1334.2l-657.39 677.51c-16.26,16.87 -45.25,17.23 -62.11,0.84l-1820.67 -1766.8c-10.55,-10.2 -12.86,-22.45 -12.86,-30.82 0,-8.38 1.82,-20.87 12.01,-31.18l657.39 -677.39c10.19,-10.56 22.44,-12.87 30.94,-13.1l0.73 0c8.49,0 20.25,2.2 30.44,12.02l1820.67 1766.81c16.85,16.26 17.22,45.24 0.84,62.12l0.01 -0.01zm-5861.83 -2240.05c1454.66,0 2638.19,-1183.51 2638.19,-2638.18 0,-1454.66 -1183.52,-2638.19 -2638.19,-2638.19 -1454.66,-0.12 -2638.18,1183.39 -2638.18,2638.06 0,1454.78 1183.51,2638.3 2638.18,2638.3zm0 -4761.51c1170.79,0 2123.22,952.56 2123.22,2123.21 0,1170.66 -952.56,2123.21 -2123.22,2123.21 -1170.65,0 -2123.21,-952.55 -2123.21,-2123.21 0.12,-1170.65 952.43,-2123.21 2123.21,-2123.21zm-5146 953.27l-1713.04 0c-142.19,0 -257.43,115.24 -257.43,257.43l0 7382.33c0,142.18 115.24,257.43 257.43,257.43l1713.04 0c142.19,0 257.43,-115.26 257.43,-257.43l0 -7382.33c0,-142.19 -115.12,-257.43 -257.43,-257.43zm-257.54 7382.33l-1197.95 0 -0.13 -6867.74 1197.96 0 0.12 6867.74z"/>
 </g>
</svg>
