<?xml version="1.0" encoding="UTF-8"?>
<!DOCTYPE svg PUBLIC "-//W3C//DTD SVG 1.1//EN" "http://www.w3.org/Graphics/SVG/1.1/DTD/svg11.dtd">
<!-- Creator: CorelDRAW 2021 (64-Bit) -->
<svg xmlns="http://www.w3.org/2000/svg" xml:space="preserve" width="157.568mm" height="107.097mm" version="1.1" shape-rendering="geometricPrecision" text-rendering="geometricPrecision" image-rendering="optimizeQuality" fill-rule="evenodd" clip-rule="evenodd" viewBox="0 0 15586.74 10594.16" xmlns:xlink="http://www.w3.org/1999/xlink" xmlns:xodm="http://www.corel.com/coreldraw/odm/2003"><defs><linearGradient id="id0" gradientUnits="userSpaceOnUse" x1="765.67" y1="-433.74" x2="13100.92" y2="10353.74"><stop offset="0" stop-opacity="1" stop-color="#D30000"/> <stop offset="1" stop-opacity="1" stop-color="#930000"/> </linearGradient> </defs> <g id="Layer_x0020_1"><path fill="url(#id0)" fill-rule="nonzero" d="M1632.94 4473.1c-135.02,0 -243.55,-108.55 -243.55,-243.55l0 -1551.45c0,-135.02 108.55,-243.55 243.55,-243.55 135.01,0 243.55,108.55 243.55,243.55l0 1551.58c0,133.94 -109.62,243.44 -243.55,243.44l0 -0.02zm10088.82 -3322.37l-7628.07 0c-135.02,0 -243.55,-108.55 -243.55,-243.55 0,-135.02 108.55,-243.55 243.55,-243.55l7628.07 -0.01c135.02,0 243.55,108.55 243.55,243.55 0.12,135.02 -109.51,243.55 -243.44,243.55l-0.11 0.01zm2310.41 7966.92l-12400.46 0c-135.03,0 -243.55,-108.54 -243.55,-243.55l0 -1524.16c0,-135.02 108.54,-243.55 243.55,-243.55 135.02,0 243.54,108.55 243.54,243.55l0 1280.59 11913.44 -0.01 0 -1306c0,-135.02 108.54,-243.55 243.55,-243.55 135.02,0 243.54,108.55 243.54,243.55l0 1549.55c0,135.02 -108.66,243.55 -243.54,243.55l-0.08 0.03zm0 -4649.49c-135.03,0 -243.55,-108.54 -243.55,-243.55l0 -1755.54c0,-135.03 108.54,-243.55 243.55,-243.55 135.02,0 243.55,108.54 243.55,243.55l0 1755.54c0,135.03 -108.66,243.55 -243.55,243.55zm-175.59 6126l-12048.35 0c-774.24,0 -1403.47,-630.19 -1403.47,-1403.47l0 -316.6c0,-135.02 108.54,-243.55 243.54,-243.55l14368.02 0c64.97,0 126.84,25.39 172.56,71 45.6,45.61 71,107.59 71,172.56l0 316.6c0,774.35 -629.24,1403.47 -1403.47,1403.47l0.17 0zm-12964.81 -1476.51l0 73.04c0,505.41 410.95,916.34 916.33,916.34l12048.36 -0.01c505.4,0 916.33,-410.95 916.33,-916.33l0 -73.05 -13881.02 0.01zm7779.31 738.72l-1677.33 0c-135.02,0 -243.55,-108.55 -243.55,-243.55 0,-135.02 108.55,-243.55 243.55,-243.55l1677.46 -0.01c135.02,0 243.54,108.55 243.54,243.55 -0.12,135.02 -108.66,243.55 -243.67,243.55l0 0.01zm-2397.9 -3743.5c-162.33,0 -311.53,-109.62 -354.14,-274l-342 -1318.13c-50.78,-194.82 67.03,-394.68 261.84,-445.48l2605.97 -676.9c129.83,-33.46 262.8,44.64 297.34,174.49l403.83 1554.6c16.24,62.93 7.1,128.88 -25.39,184.71 -32.5,55.84 -86.28,96.39 -149.21,112.63l-2605.97 676.9c-31.41,7.09 -61.85,11.19 -92.3,11.19l0.03 -0.01zm-194.81 -1597.2l281.1 1082.75 2252.77 -584.48 -281.1 -1082.87 -2252.77 584.6zm-727.49 1484.76c-318.65,0 -609.86,-214.07 -694.08,-536.81 -99.41,-382.55 130.92,-775.31 513.47,-873.74l633.2 -164.38c129.84,-33.46 262.8,44.64 297.35,174.49l237.42 916.34c16.24,62.93 7.09,128.87 -25.39,184.71 -32.5,55.83 -86.29,96.39 -149.22,112.63l-633.08 163.41c-59.93,15.28 -119.84,23.35 -179.65,23.35l-0.01 0zm338.97 -1043.17l-396.74 103.49c-122.74,31.41 -196.86,157.27 -164.38,280.02 31.42,122.74 157.28,196.87 280.03,164.38l396.74 -103.48 -115.65 -444.4zm5016.87 752.06c-12.15,0 -24.3,-0.96 -37.54,-3.02l-1797.2 -277.13c-96.39,-15.15 -174.49,-85.19 -198.91,-179.66l-402.87 -1553.52c-24.31,-94.34 9.14,-193.86 86.28,-253.66l1434.87 -1116.2c106.5,-82.19 258.72,-62.93 342,42.6 83.27,105.53 62.93,258.72 -42.6,342l-1308.99 1017.79 322.63 1244.01 1638.82 252.71c132.96,20.33 224.29,145.12 203.96,278.09 -19.25,120.69 -122.74,206.01 -240.43,206.01l-0.02 -0.01zm144.18 556.96c-108.55,0 -206.97,-73.05 -235.37,-182.68l-1054.38 -4062.02c-33.46,-129.84 44.63,-262.81 174.49,-297.35 129.84,-33.46 262.8,44.64 297.35,174.49l1054.38 4062.02c33.46,129.83 -44.64,262.8 -174.49,297.34 -21.3,6.26 -41.64,8.19 -61.97,8.19zm-3149.87 1681.37c-126.84,0 -251.62,-33.45 -363.29,-99.4 -165.46,-97.47 -283.15,-253.66 -331.87,-439.35l-420.1 -1616.67c-33.46,-129.84 44.64,-262.81 174.49,-297.35l930.55 -241.51c129.84,-33.46 262.8,44.63 297.35,174.49l420.09 1616.57c48.74,185.67 21.3,379.53 -76.05,545.97 -97.47,165.45 -253.66,283.14 -439.35,331.87l-8.05 2.05c-61.01,15.15 -122.87,23.34 -183.75,23.34l-0.02 -0.02zm-582.54 -2042.77l358.24 1381.07c15.16,59.93 53.79,110.58 107.59,142.12 53.79,31.41 115.64,40.55 176.53,24.3l8.06 -2.04 0.96 -0.01c59.93,-15.16 110.58,-53.79 142.11,-107.59 31.42,-53.78 40.56,-115.64 24.31,-176.52l-358.24 -1381.07 -459.57 119.73zm6652.77 1684.5c-1000.56,0 -1815.49,-813.82 -1815.49,-1815.49 0,-1001.55 813.82,-1815.49 1815.49,-1815.49 1001.67,0.12 1815.49,815.02 1815.49,1815.49 0,1000.56 -814.9,1815.49 -1815.49,1815.49zm0 -3142.77c-732.71,0 -1328.37,595.65 -1328.37,1328.36 0,732.71 595.66,1328.37 1328.37,1328.37 732.71,0 1328.36,-596.74 1328.36,-1329.45 0,-732.59 -595.65,-1327.29 -1328.36,-1327.29l0 0.01zm-332.7 2226.62c-39.59,0 -79.18,-10.11 -115.64,-29.48 -79.18,-42.61 -127.91,-124.79 -127.91,-214.07l0.12 -1310.07c0,-89.29 48.74,-171.48 127.91,-214.07 79.18,-42.6 174.49,-38.51 249.7,11.2l996.5 654.49c68.95,44.64 109.62,121.78 109.62,203.96 0,82.19 -41.64,158.36 -109.62,203.97l-996.5 655.58c-40.79,24.3 -87.49,38.51 -134.18,38.51l0 -0.02zm243.55 -1102.01l0 406.97 309.5 -203.01 -309.5 -203.96zm-1469.3 -2050.02c-38.51,0 -78.11,-9.14 -113.6,-28.4 -79.18,-41.64 -128.88,-124.78 -129.84,-214.07l-2.04 -570.27 -238.51 0c-135.02,0 -243.55,-108.54 -243.55,-243.55l0 -2221.35c0,-135.02 108.55,-243.55 243.55,-243.55l3138.79 -0.01c133.93,0 243.55,108.55 243.55,242.46l7.09 2217.3c0,64.97 -25.39,126.84 -71,172.56 -45.6,45.6 -107.58,72.07 -172.56,72.07l-1376.03 0 -1149.79 775.31c-40.56,27.31 -88.21,41.52 -135.99,41.52l-0.09 -0.02zm-239.47 -1299.84l237.42 0c133.94,0 243.55,108.55 243.55,242.47l0.96 357.15 833.08 -562.2c40.55,-27.44 87.24,-41.64 135.98,-41.64l1206.59 0 -5.05 -1730.16 -2652.63 0 0.11 1734.37zm564.16 -979.16c-133.93,0 -243.55,-108.54 -243.55,-242.46 0,-135.02 108.55,-243.55 242.47,-244.52l1527.28 -5.05 0.96 0c133.93,0 243.55,108.54 243.55,242.46 0,135.02 -108.55,243.55 -242.47,244.52l-1528.23 5.05c0.96,0 0,0 0,0l-0.01 0zm2.16 707.3c-133.93,0 -243.55,-108.55 -243.55,-242.47 0,-135.02 108.55,-243.55 242.47,-244.52l1527.28 -5.05 0.96 0c133.93,0 243.55,108.55 243.55,242.47 0,135.02 -108.55,243.54 -242.47,244.51l-1528.23 5.06c0.96,0 0.96,0 0,0l-0.01 0zm-10716.94 4867.88c-33.46,0 -67.03,-7.1 -97.47,-20.34 -286.16,-125.87 -541.88,-359.19 -719.46,-657.64 -68.95,-115.64 -113.6,-224.29 -136.95,-330.79 -32.49,-145.12 -24.3,-289.16 23.35,-415.04 55.83,-149.21 169.43,-276.05 311.53,-348 190.73,-96.39 419.11,-88.33 604.81,9.14 183.63,-101.44 412.02,-113.6 604.8,-21.3 143.08,68.95 258.72,193.86 318.65,340.89 49.7,125.87 60.89,268.95 31.41,415.04 -21.3,106.5 -63.89,216.11 -130.92,332.86 -171.48,302.4 -423.21,540.91 -706.26,671.83 -33.57,16.24 -69.07,23.35 -103.48,23.35l-0.02 0zm-328.87 -1353.75c-24.31,0 -49.7,5.05 -71,16.24 -34.53,17.21 -61.85,48.74 -76.05,84.23 -14.2,37.55 -15.15,87.25 -4.1,138.98 12.16,54.75 38.51,115.65 80.15,186.76 102.53,172.56 242.47,316.59 395.79,408.88 151.26,-95.43 289.16,-242.47 387.59,-416.12 40.55,-71 65.94,-132.97 76.05,-187.73 10.11,-52.81 8.06,-102.52 -7.1,-138.97 -14.2,-35.5 -42.6,-65.95 -77.13,-83.27 -64.98,-31.42 -155.24,-11.2 -203.97,46.69 -45.6,53.78 -112.62,85.19 -182.67,86.28 -70.04,0.96 -138.02,-29.48 -184.71,-82.18 -31.29,-38.51 -83.02,-59.81 -132.85,-59.81l0 0.02zm320.56 2141.14c-1000.56,0 -1814.39,-813.82 -1814.39,-1814.39 0,-1000.56 813.82,-1814.39 1814.39,-1814.39 1000.56,-0.12 1814.39,813.82 1814.39,1814.29 1.08,1000.56 -812.86,1814.51 -1814.39,1814.51l0 -0.03zm0 -3142.77c-731.64,0 -1327.29,595.65 -1327.29,1327.29 0,731.64 595.65,1327.29 1327.29,1327.29 731.63,0 1327.29,-595.65 1327.29,-1327.29 0,-731.64 -594.58,-1327.29 -1327.29,-1327.29zm1897.62 -1536.28l-0.96 0 -2733.75 -5.05c-344.04,-0.96 -623.1,-281.1 -621.99,-624.06l3.02 -1667.23c0.96,-342.96 280.02,-621.98 623.1,-621.98l0.95 0.01 2733.75 5.05c344.04,0.96 621.99,281.09 621.99,624.06l-3.02 1667.22c-1.08,342.96 -280.14,621.04 -623.1,621.99l0.01 -0.01zm-2731.84 -2431.35c-75.08,0 -135.98,60.9 -135.98,135.98l-3.01 1667.23c0,75.09 60.89,135.98 135.98,135.98l2733.75 5.05c75.09,0 135.98,-60.89 135.98,-135.98l3.02 -1667.22c0,-75.09 -60.9,-135.99 -135.99,-135.99l-2733.75 -5.05c1.09,0 1.09,0 0,0zm1365.92 1375.97c-145.13,0 -290.24,-50.79 -407.93,-152.23l-1373.99 -1180.13c-102.52,-87.25 -113.6,-241.52 -26.35,-342.97 87.25,-102.52 241.51,-113.59 342.96,-26.35l1373.99 1180.22c52.82,44.63 128.88,45.6 181.58,0l1379.16 -1174.21c102.53,-87.25 255.71,-75.09 342.97,27.43 87.24,102.53 75.08,255.71 -27.44,342.96l-1377.93 1175.08c-117.8,100.48 -261.84,150.18 -406.97,150.18l-0.05 0.01z"/> </g></svg>
