<?xml version="1.0" encoding="utf-8"?>
<!-- Generator: Adobe Illustrator 24.1.0, SVG Export Plug-In . SVG Version: 6.00 Build 0)  -->
<svg version="1.1" id="Layer_1" xmlns="http://www.w3.org/2000/svg" xmlns:xlink="http://www.w3.org/1999/xlink" x="0px" y="0px"
	 viewBox="0 0 100 125" style="enable-background:new 0 0 100 125;" xml:space="preserve">
<style type="text/css">
	.st0{fill:url(#SVGID_1_);}
	.st1{fill:url(#SVGID_2_);}
	.st2{fill:url(#SVGID_3_);}
	.st3{fill:url(#SVGID_4_);}
	.st4{fill:url(#SVGID_5_);}
	.st5{fill:url(#SVGID_6_);}
	.st6{fill:url(#SVGID_7_);}
</style>
<g>
	<g>
		<g>
			<linearGradient id="SVGID_1_" gradientUnits="userSpaceOnUse" x1="8.6919" y1="53.2772" x2="91.6886" y2="53.2772">
				<stop  offset="0" style="stop-color:#D30000"/>
				<stop  offset="1" style="stop-color:#930000"/>
			</linearGradient>
			<path class="st0" d="M91,94.8H9.4c-0.4,0-0.7-0.3-0.7-0.7V12.5c0-0.4,0.3-0.7,0.7-0.7H91c0.4,0,0.7,0.3,0.7,0.7v81.6
				C91.7,94.5,91.4,94.8,91,94.8z M10.1,93.4h80.2V13.2H10.1V93.4z"/>
		</g>
		<g>
			<linearGradient id="SVGID_2_" gradientUnits="userSpaceOnUse" x1="8.6919" y1="23.1288" x2="91.6886" y2="23.1288">
				<stop  offset="0" style="stop-color:#D30000"/>
				<stop  offset="1" style="stop-color:#930000"/>
			</linearGradient>
			<path class="st1" d="M91,34.5H9.4c-0.4,0-0.7-0.3-0.7-0.7V12.5c0-0.4,0.3-0.7,0.7-0.7H91c0.4,0,0.7,0.3,0.7,0.7v21.3
				C91.7,34.2,91.4,34.5,91,34.5z M10.1,33.1h80.2V13.2H10.1V33.1z"/>
		</g>
		<g>
			<linearGradient id="SVGID_3_" gradientUnits="userSpaceOnUse" x1="17.559" y1="23.1288" x2="26.0715" y2="23.1288">
				<stop  offset="0" style="stop-color:#D30000"/>
				<stop  offset="1" style="stop-color:#930000"/>
			</linearGradient>
			<path class="st2" d="M21.8,27.4c-2.3,0-4.3-1.9-4.3-4.3s1.9-4.3,4.3-4.3s4.3,1.9,4.3,4.3S24.2,27.4,21.8,27.4z M21.8,20.3
				c-1.6,0-2.8,1.3-2.8,2.8c0,1.6,1.3,2.8,2.8,2.8s2.8-1.3,2.8-2.8C24.7,21.6,23.4,20.3,21.8,20.3z"/>
		</g>
		<g>
			<linearGradient id="SVGID_4_" gradientUnits="userSpaceOnUse" x1="33.5199" y1="23.1288" x2="42.0324" y2="23.1288">
				<stop  offset="0" style="stop-color:#D30000"/>
				<stop  offset="1" style="stop-color:#930000"/>
			</linearGradient>
			<path class="st3" d="M37.8,27.4c-2.3,0-4.3-1.9-4.3-4.3s1.9-4.3,4.3-4.3c2.3,0,4.3,1.9,4.3,4.3S40.1,27.4,37.8,27.4z M37.8,20.3
				c-1.6,0-2.8,1.3-2.8,2.8c0,1.6,1.3,2.8,2.8,2.8c1.6,0,2.8-1.3,2.8-2.8C40.6,21.6,39.3,20.3,37.8,20.3z"/>
		</g>
		<g>
			<linearGradient id="SVGID_5_" gradientUnits="userSpaceOnUse" x1="49.4808" y1="23.1288" x2="57.9933" y2="23.1288">
				<stop  offset="0" style="stop-color:#D30000"/>
				<stop  offset="1" style="stop-color:#930000"/>
			</linearGradient>
			<path class="st4" d="M53.7,27.4c-2.3,0-4.3-1.9-4.3-4.3s1.9-4.3,4.3-4.3s4.3,1.9,4.3,4.3S56.1,27.4,53.7,27.4z M53.7,20.3
				c-1.6,0-2.8,1.3-2.8,2.8c0,1.6,1.3,2.8,2.8,2.8s2.8-1.3,2.8-2.8C56.6,21.6,55.3,20.3,53.7,20.3z"/>
		</g>
		<g>
			<linearGradient id="SVGID_6_" gradientUnits="userSpaceOnUse" x1="26.4262" y1="63.9178" x2="73.9542" y2="63.9178">
				<stop  offset="0" style="stop-color:#D30000"/>
				<stop  offset="1" style="stop-color:#930000"/>
			</linearGradient>
			<path class="st5" d="M54.5,87.7h-8.6c-0.4,0-0.7-0.3-0.7-0.7v-5.8c-1.3-0.4-2.5-0.9-3.6-1.5l-4.1,4.1c-0.3,0.3-0.7,0.3-1,0
				l-6.1-6.1c-0.1-0.1-0.2-0.3-0.2-0.5c0-0.2,0.1-0.4,0.2-0.5l4.1-4.1c-0.6-1.2-1.1-2.4-1.5-3.6h-5.8c-0.4,0-0.7-0.3-0.7-0.7v-8.6
				c0-0.4,0.3-0.7,0.7-0.7h5.8c0.4-1.3,0.9-2.5,1.5-3.6l-4.1-4.1c-0.1-0.1-0.2-0.3-0.2-0.5s0.1-0.4,0.2-0.5l6.1-6.1
				c0.3-0.3,0.7-0.3,1,0l4.1,4.1c1.2-0.6,2.4-1.1,3.6-1.5v-5.8c0-0.4,0.3-0.7,0.7-0.7h8.6c0.4,0,0.7,0.3,0.7,0.7v5.8
				c1.3,0.4,2.5,0.9,3.6,1.5l4.1-4.1c0.1-0.1,0.3-0.2,0.5-0.2s0.4,0.1,0.5,0.2l6.1,6.1c0.3,0.3,0.3,0.7,0,1L66,55.3
				c0.6,1.2,1.1,2.4,1.5,3.6h5.8c0.4,0,0.7,0.3,0.7,0.7v8.6c0,0.4-0.3,0.7-0.7,0.7h-5.8c-0.4,1.3-0.9,2.5-1.5,3.6l4.1,4.1
				c0.3,0.3,0.3,0.7,0,1l-6.1,6.1c-0.1,0.1-0.3,0.2-0.5,0.2c-0.2,0-0.4-0.1-0.5-0.2l-4.1-4.1c-1.2,0.6-2.4,1.1-3.6,1.5V87
				C55.2,87.4,54.9,87.7,54.5,87.7z M46.6,86.3h7.2v-5.6c0-0.3,0.2-0.6,0.5-0.7c1.5-0.4,2.9-1,4.3-1.8c0.3-0.2,0.6-0.1,0.9,0.1l4,4
				l5.1-5.1l-4-4c-0.2-0.2-0.3-0.6-0.1-0.9c0.8-1.3,1.4-2.8,1.8-4.3c0.1-0.3,0.4-0.5,0.7-0.5h5.6v-7.2h-5.6c-0.3,0-0.6-0.2-0.7-0.5
				c-0.4-1.5-1-2.9-1.8-4.3c-0.2-0.3-0.1-0.6,0.1-0.9l4-4l-5.1-5.1l-4,4c-0.2,0.2-0.6,0.3-0.9,0.1c-1.3-0.8-2.8-1.4-4.3-1.8
				c-0.3-0.1-0.5-0.4-0.5-0.7v-5.6h-7.2v5.6c0,0.3-0.2,0.6-0.5,0.7c-1.5,0.4-2.9,1-4.3,1.8c-0.3,0.2-0.6,0.1-0.9-0.1l-4-4l-5.1,5.1
				l4,4c0.2,0.2,0.3,0.6,0.1,0.9c-0.8,1.3-1.4,2.8-1.8,4.3c-0.1,0.3-0.4,0.5-0.7,0.5h-5.6v7.2h5.6c0.3,0,0.6,0.2,0.7,0.5
				c0.4,1.5,1,2.9,1.8,4.3c0.2,0.3,0.1,0.6-0.1,0.9l-4,4l5.1,5.1l4-4c0.2-0.2,0.6-0.3,0.9-0.1c1.3,0.8,2.8,1.4,4.3,1.8
				c0.3,0.1,0.5,0.4,0.5,0.7V86.3L46.6,86.3z"/>
		</g>
		<g>
			<linearGradient id="SVGID_7_" gradientUnits="userSpaceOnUse" x1="38.8402" y1="63.9178" x2="61.5402" y2="63.9178">
				<stop  offset="0" style="stop-color:#D30000"/>
				<stop  offset="1" style="stop-color:#930000"/>
			</linearGradient>
			<path class="st6" d="M50.2,75.3c-6.3,0-11.3-5.1-11.3-11.3s5.1-11.3,11.3-11.3s11.3,5.1,11.3,11.3S56.4,75.3,50.2,75.3z M50.2,54
				c-5.5,0-9.9,4.5-9.9,9.9s4.5,9.9,9.9,9.9c5.5,0,9.9-4.5,9.9-9.9S55.7,54,50.2,54z"/>
		</g>
	</g>
</g>
</svg>
