<svg id="Layer_5" enable-background="new 0 0 64 64" height="512" viewBox="0 0 64 64" width="512" xmlns="http://www.w3.org/2000/svg" xmlns:xlink="http://www.w3.org/1999/xlink"><linearGradient id="SVGID_1_" gradientUnits="userSpaceOnUse" x1="32" x2="32" y1="63" y2="1"><stop offset="0" stop-color="#ff2525"/><stop offset="1" stop-color="#a00000"/></linearGradient><path d="m54 19c1.654 0 3-1.346 3-3v-12c0-1.654-1.346-3-3-3h-14c-1.654 0-3 1.346-3 3v2c-2.206 0-4 1.794-4 4s1.794 4 4 4v5h8v-2c0-1.103.897-2 2-2s2 .897 2 2v2zm-7-6c-2.206 0-4 1.794-4 4h-4v-5h-2c-1.103 0-2-.897-2-2s.897-2 2-2h2v-4c0-.551.448-1 1-1h14c.552 0 1 .449 1 1v12c0 .551-.448 1-1 1h-3c0-2.206-1.794-4-4-4zm-20 3h2v-9h-2.681c-10.652 0-19.319 8.667-19.319 19.319 0 5.818 2.583 11.268 7.086 14.952l3.914 3.203v2.711c-1.161.414-2 1.514-2 2.816 0 1.383.945 2.539 2.22 2.884-.139.345-.22.72-.22 1.115 0 1.322.865 2.434 2.054 2.833.414 3.468 3.369 6.167 6.946 6.167s6.532-2.699 6.946-6.167c1.189-.399 2.054-1.511 2.054-2.833 0-.395-.081-.77-.22-1.116 1.275-.346 2.22-1.501 2.22-2.884 0-1.302-.839-2.402-2-2.816v-2.711l3.914-3.203c4.503-3.683 7.086-9.133 7.086-14.951v-1.319h-6c0-2.206-1.794-4-4-4s-4 1.794-4 4h-4v-5h-2c-1.103 0-2-.897-2-2s.897-2 2-2zm-11.648 23.723c-3.861-3.159-6.147-7.765-6.338-12.723h7.986v-2c0-1.103.897-2 2-2s2 .897 2 2v2h6v4c-2.206 0-4 1.794-4 4s1.794 4 4 4v8h-7v-3.474zm11.648 21.277c-2.414 0-4.434-1.721-4.899-4h9.798c-.465 2.279-2.485 4-4.899 4zm6-6h-12c-.552 0-1-.449-1-1s.448-1 1-1h12c.552 0 1 .449 1 1s-.448 1-1 1zm2-4h-2-12-2c-.552 0-1-.449-1-1s.448-1 1-1h16c.552 0 1 .449 1 1s-.448 1-1 1zm0-24v-2c0-1.103.897-2 2-2s2 .897 2 2v2h5.986c-.191 4.958-2.478 9.564-6.338 12.723l-4.648 3.803v3.474h-5v-10h-2c-1.103 0-2-.897-2-2s.897-2 2-2h2v-6zm-8-5v3h-4c0-2.206-1.794-4-4-4s-4 1.794-4 4h-5.95c.676-8.936 8.163-16 17.27-16h.68v5c-2.206 0-4 1.794-4 4s1.794 4 4 4z" fill="url(#SVGID_1_)"/></svg>