<?xml version="1.0" encoding="utf-8"?>
<!-- Generator: Adobe Illustrator 24.1.0, SVG Export Plug-In . SVG Version: 6.00 Build 0)  -->
<svg version="1.1" id="Layer_1" xmlns="http://www.w3.org/2000/svg" xmlns:xlink="http://www.w3.org/1999/xlink" x="0px" y="0px"
	 viewBox="0 0 100 125" style="enable-background:new 0 0 100 125;" xml:space="preserve">
<style type="text/css">
	.st0{fill:url(#SVGID_1_);}
	.st1{fill:url(#SVGID_2_);}
	.st2{fill:url(#SVGID_3_);}
	.st3{fill:url(#SVGID_4_);}
	.st4{fill:url(#SVGID_5_);}
	.st5{fill:url(#SVGID_6_);}
	.st6{fill:url(#SVGID_7_);}
	.st7{fill:url(#SVGID_8_);}
	.st8{fill:url(#SVGID_9_);}
	.st9{fill:url(#SVGID_10_);}
	.st10{fill:url(#SVGID_11_);}
</style>
<g>
	<linearGradient id="SVGID_1_" gradientUnits="userSpaceOnUse" x1="8.6919" y1="49.7028" x2="92.9788" y2="49.7028">
		<stop  offset="0" style="stop-color:#D30000"/>
		<stop  offset="1" style="stop-color:#930000"/>
	</linearGradient>
	<path class="st0" d="M65,53.2V46h12V31H65V10.6H8.7v78.1H65v-7.9h28V53.2H65z M91.1,79.1H37V55h54.1V79.1z M63.2,86.9H10.5V12.5
		h52.6V31h-12V46h12v7.2h-28v27.7h28L63.2,86.9L63.2,86.9z M75.2,44.1H53V32.9h22.1V44.1z"/>
	<linearGradient id="SVGID_2_" gradientUnits="userSpaceOnUse" x1="40.1529" y1="67.032" x2="51.4767" y2="67.032">
		<stop  offset="0" style="stop-color:#D30000"/>
		<stop  offset="1" style="stop-color:#930000"/>
	</linearGradient>
	<path class="st1" d="M45.8,61.4c-3.1,0-5.7,2.5-5.7,5.7c0,3.1,2.5,5.7,5.7,5.7c3.1,0,5.7-2.5,5.7-5.7
		C51.5,63.9,48.9,61.4,45.8,61.4z M45.8,70.9c-2.1,0-3.8-1.7-3.8-3.8s1.7-3.8,3.8-3.8c2.1,0,3.8,1.7,3.8,3.8S47.9,70.9,45.8,70.9z"
		/>
	<linearGradient id="SVGID_3_" gradientUnits="userSpaceOnUse" x1="13.1444" y1="21.1414" x2="24.4682" y2="21.1414">
		<stop  offset="0" style="stop-color:#D30000"/>
		<stop  offset="1" style="stop-color:#930000"/>
	</linearGradient>
	<path class="st2" d="M18.8,15.5c-3.1,0-5.7,2.5-5.7,5.7s2.5,5.7,5.7,5.7s5.7-2.5,5.7-5.7S21.9,15.5,18.8,15.5z M15,21.1
		c0-2.1,1.7-3.8,3.8-3.8s3.8,1.7,3.8,3.8c0,2.1-1.7,3.8-3.8,3.8S15,23.2,15,21.1z"/>
	<linearGradient id="SVGID_4_" gradientUnits="userSpaceOnUse" x1="55.1138" y1="38.5027" x2="62.0767" y2="38.5027">
		<stop  offset="0" style="stop-color:#D30000"/>
		<stop  offset="1" style="stop-color:#930000"/>
	</linearGradient>
	<path class="st3" d="M58.6,35c-1.9,0-3.5,1.6-3.5,3.5s1.6,3.5,3.5,3.5s3.5-1.6,3.5-3.5S60.5,35,58.6,35z M58.6,40.2
		c-0.9,0-1.6-0.7-1.6-1.6s0.7-1.6,1.6-1.6s1.6,0.7,1.6,1.6S59.5,40.2,58.6,40.2z"/>
	<linearGradient id="SVGID_5_" gradientUnits="userSpaceOnUse" x1="71.3024" y1="70.1652" x2="86.3091" y2="70.1652">
		<stop  offset="0" style="stop-color:#D30000"/>
		<stop  offset="1" style="stop-color:#930000"/>
	</linearGradient>
	<path class="st4" d="M72.2,71.1h13.2c0.5,0,0.9-0.4,0.9-0.9c0-0.5-0.4-0.9-0.9-0.9H72.2c-0.5,0-0.9,0.4-0.9,0.9
		C71.3,70.7,71.7,71.1,72.2,71.1z"/>
	<linearGradient id="SVGID_6_" gradientUnits="userSpaceOnUse" x1="71.3024" y1="67.032" x2="86.3091" y2="67.032">
		<stop  offset="0" style="stop-color:#D30000"/>
		<stop  offset="1" style="stop-color:#930000"/>
	</linearGradient>
	<path class="st5" d="M72.2,67.9h13.2c0.5,0,0.9-0.4,0.9-0.9s-0.4-0.9-0.9-0.9H72.2c-0.5,0-0.9,0.4-0.9,0.9S71.7,67.9,72.2,67.9z"/>
	<linearGradient id="SVGID_7_" gradientUnits="userSpaceOnUse" x1="71.3024" y1="63.8987" x2="86.3091" y2="63.8987">
		<stop  offset="0" style="stop-color:#D30000"/>
		<stop  offset="1" style="stop-color:#930000"/>
	</linearGradient>
	<path class="st6" d="M72.2,64.8h13.2c0.5,0,0.9-0.4,0.9-0.9c0-0.5-0.4-0.9-0.9-0.9H72.2c-0.5,0-0.9,0.4-0.9,0.9
		C71.3,64.4,71.7,64.8,72.2,64.8z"/>
	<linearGradient id="SVGID_8_" gradientUnits="userSpaceOnUse" x1="64.6053" y1="40.0693" x2="72.8416" y2="40.0693">
		<stop  offset="0" style="stop-color:#D30000"/>
		<stop  offset="1" style="stop-color:#930000"/>
	</linearGradient>
	<path class="st7" d="M71.9,39.2h-6.4c-0.2,0-0.4,0.1-0.5,0.2c-0.2,0.2-0.4,0.4-0.4,0.7c0,0.3,0.2,0.6,0.4,0.7
		c0.1,0.1,0.3,0.2,0.5,0.2h6.4c0.5,0,0.9-0.4,0.9-0.9C72.8,39.6,72.4,39.2,71.9,39.2z"/>
	<linearGradient id="SVGID_9_" gradientUnits="userSpaceOnUse" x1="64.6053" y1="36.936" x2="72.8416" y2="36.936">
		<stop  offset="0" style="stop-color:#D30000"/>
		<stop  offset="1" style="stop-color:#930000"/>
	</linearGradient>
	<path class="st8" d="M64.6,36.9c0,0.3,0.2,0.6,0.4,0.7c0.1,0.1,0.3,0.2,0.5,0.2h6.4c0.5,0,0.9-0.4,0.9-0.9c0-0.5-0.4-0.9-0.9-0.9
		h-6.4c-0.2,0-0.4,0.1-0.5,0.2C64.8,36.4,64.6,36.6,64.6,36.9z"/>
	<linearGradient id="SVGID_10_" gradientUnits="userSpaceOnUse" x1="27.6106" y1="22.6989" x2="39.2184" y2="22.6989">
		<stop  offset="0" style="stop-color:#D30000"/>
		<stop  offset="1" style="stop-color:#930000"/>
	</linearGradient>
	<path class="st9" d="M39.2,22.7c0-0.5-0.4-0.9-0.9-0.9h-9.8c-0.5,0-0.9,0.4-0.9,0.9s0.4,0.9,0.9,0.9h9.8
		C38.8,23.6,39.2,23.2,39.2,22.7z"/>
	<linearGradient id="SVGID_11_" gradientUnits="userSpaceOnUse" x1="27.6106" y1="19.5656" x2="39.2184" y2="19.5656">
		<stop  offset="0" style="stop-color:#D30000"/>
		<stop  offset="1" style="stop-color:#930000"/>
	</linearGradient>
	<path class="st10" d="M28.5,20.5h9.8c0.5,0,0.9-0.4,0.9-0.9c0-0.5-0.4-0.9-0.9-0.9h-9.8c-0.5,0-0.9,0.4-0.9,0.9
		C27.6,20.1,28,20.5,28.5,20.5z"/>
</g>
</svg>
