<?xml version="1.0" encoding="utf-8"?>
<!-- Generator: Adobe Illustrator 24.1.0, SVG Export Plug-In . SVG Version: 6.00 Build 0)  -->
<svg version="1.1" id="Layer_1" xmlns="http://www.w3.org/2000/svg" xmlns:xlink="http://www.w3.org/1999/xlink" x="0px" y="0px"
	 viewBox="0 0 100 125" style="enable-background:new 0 0 100 125;" xml:space="preserve">
<style type="text/css">
	.st0{fill-rule:evenodd;clip-rule:evenodd;fill:url(#SVGID_1_);}
</style>
<g>
	<linearGradient id="SVGID_1_" gradientUnits="userSpaceOnUse" x1="11.5517" y1="47.6551" x2="91.8889" y2="47.6551">
		<stop  offset="0" style="stop-color:#D30000"/>
		<stop  offset="1" style="stop-color:#930000"/>
	</linearGradient>
	<path class="st0" d="M51.7,87.8c-22.2,0-40.2-18-40.2-40.2v-4.9c0-1,0.5-2.2,1.2-2.9L43.9,8.7c0.7-0.7,1.9-1.2,2.9-1.2h4.9
		c22.2,0,40.2,18,40.2,40.2S73.9,87.8,51.7,87.8z M14,43.8v3.8c0,20.8,16.9,37.7,37.7,37.7s37.7-16.9,37.7-37.7S72.6,9.9,51.7,9.9
		h-3.8C46.2,27.8,31.9,42.1,14,43.8z M14.8,41.3c16-2,28.6-14.6,30.6-30.6L14.8,41.3z M53.4,40.6c3.1-3.1,8.1-3.1,11.2,0l0.3,0.3
		c3.1,3.1,3.1,8.1,0,11.2L52.6,64.3c-0.5,0.5-1.2,0.5-1.7,0L38.6,52c-3.1-3.1-3.1-8.1,0-11.2l0.3-0.3c3.1-3.1,8.1-3.1,11.2,0
		l1.7,1.7L53.4,40.6z M63.2,50.3c2.1-2.1,2.1-5.6,0-7.7l-0.3-0.3c-2.1-2.1-5.6-2.1-7.7,0l-2.6,2.6c-0.5,0.5-1.2,0.5-1.7,0l-2.6-2.6
		c-2.1-2.1-5.6-2.1-7.7,0l-0.3,0.3c-2.1,2.1-2.1,5.6,0,7.7l11.4,11.4L63.2,50.3z"/>
</g>
</svg>
