<?xml version="1.0" encoding="utf-8"?>
<!-- Generator: Adobe Illustrator 24.1.0, SVG Export Plug-In . SVG Version: 6.00 Build 0)  -->
<svg version="1.1" id="Layer_1" xmlns="http://www.w3.org/2000/svg" xmlns:xlink="http://www.w3.org/1999/xlink" x="0px" y="0px"
	 viewBox="0 0 100 125" style="enable-background:new 0 0 100 125;" xml:space="preserve">
<style type="text/css">
	.st0{fill:url(#SVGID_1_);}
	.st1{fill:url(#SVGID_2_);}
	.st2{fill:url(#SVGID_3_);}
	.st3{fill:url(#SVGID_4_);}
	.st4{fill:url(#SVGID_5_);}
	.st5{fill:url(#SVGID_6_);}
	.st6{fill:url(#SVGID_7_);}
	.st7{fill:url(#SVGID_8_);}
	.st8{fill:url(#SVGID_9_);}
	.st9{fill:url(#SVGID_10_);}
	.st10{fill:url(#SVGID_11_);}
	.st11{fill:url(#SVGID_12_);}
	.st12{fill:url(#SVGID_13_);}
	.st13{fill:url(#SVGID_14_);}
	.st14{fill:url(#SVGID_15_);}
	.st15{fill:url(#SVGID_16_);}
	.st16{fill:url(#SVGID_17_);}
	.st17{fill:url(#SVGID_18_);}
	.st18{fill:url(#SVGID_19_);}
	.st19{fill:url(#SVGID_20_);}
	.st20{fill:url(#SVGID_21_);}
	.st21{fill:url(#SVGID_22_);}
	.st22{fill:url(#SVGID_23_);}
	.st23{fill:url(#SVGID_24_);}
	.st24{fill:url(#SVGID_25_);}
	.st25{fill:url(#SVGID_26_);}
</style>
<g>
	<linearGradient id="SVGID_1_" gradientUnits="userSpaceOnUse" x1="11.0194" y1="48.0569" x2="71.1919" y2="48.0569">
		<stop  offset="0" style="stop-color:#D30000"/>
		<stop  offset="1" style="stop-color:#930000"/>
	</linearGradient>
	<path class="st0" d="M67.1,70.6h-52c-2.2,0-4.1-1.8-4.1-4.1l0,0v-37c0-2.2,1.8-4.1,4.1-4.1h52c2.2,0,4.1,1.8,4.1,4.1
		c0,0.5-0.4,0.9-0.9,0.9c-0.5,0-0.9-0.4-0.9-0.9c0-1.3-1-2.3-2.3-2.3l0,0h-52c-1.3,0-2.3,1-2.3,2.3l0,0v37c0,1.3,1,2.3,2.3,2.3h52
		c1.3,0,2.3-1,2.3-2.3c0-0.5,0.4-0.9,0.9-0.9c0.5,0,0.9,0.4,0.9,0.9C71.2,68.8,69.4,70.6,67.1,70.6z"/>
	<linearGradient id="SVGID_2_" gradientUnits="userSpaceOnUse" x1="69.4254" y1="48.0569" x2="88.9771" y2="48.0569">
		<stop  offset="0" style="stop-color:#D30000"/>
		<stop  offset="1" style="stop-color:#930000"/>
	</linearGradient>
	<path class="st1" d="M84.9,70.6H73.5c-2.2,0-4.1-1.8-4.1-4.1l0,0c0-0.5,0.4-0.9,0.9-0.9c0.5,0,0.9,0.4,0.9,0.9c0,1.3,1,2.3,2.3,2.3
		l0,0h11.4c1.3,0,2.3-1,2.3-2.3l0,0v-37c0-1.3-1-2.3-2.3-2.3l0,0H73.5c-1.3,0-2.3,1-2.3,2.3l0,0c0,0.5-0.4,0.9-0.9,0.9
		c-0.5,0-0.9-0.4-0.9-0.9c0-2.2,1.8-4.1,4.1-4.1h11.4c2.2,0,4.1,1.8,4.1,4.1v37C89,68.8,87.2,70.6,84.9,70.6
		C84.9,70.6,84.9,70.6,84.9,70.6z"/>
	<linearGradient id="SVGID_3_" gradientUnits="userSpaceOnUse" x1="11.1855" y1="32.9047" x2="88.9612" y2="32.9047">
		<stop  offset="0" style="stop-color:#D30000"/>
		<stop  offset="1" style="stop-color:#930000"/>
	</linearGradient>
	<path class="st2" d="M88.1,33.8h-76c-0.5,0-0.9-0.4-0.9-0.9s0.4-0.9,0.9-0.9h76c0.5,0,0.9,0.4,0.9,0.9S88.6,33.8,88.1,33.8z"/>
	<linearGradient id="SVGID_4_" gradientUnits="userSpaceOnUse" x1="11.1855" y1="63.5306" x2="88.9612" y2="63.5306">
		<stop  offset="0" style="stop-color:#D30000"/>
		<stop  offset="1" style="stop-color:#930000"/>
	</linearGradient>
	<path class="st3" d="M88.1,64.4h-76c-0.5,0-0.9-0.4-0.9-0.9c0-0.5,0.4-0.9,0.9-0.9h76c0.5,0,0.9,0.4,0.9,0.9
		C89,64,88.6,64.4,88.1,64.4z"/>
	<linearGradient id="SVGID_5_" gradientUnits="userSpaceOnUse" x1="42.2207" y1="23.0285" x2="57.0549" y2="23.0285">
		<stop  offset="0" style="stop-color:#D30000"/>
		<stop  offset="1" style="stop-color:#930000"/>
	</linearGradient>
	<path class="st4" d="M43.1,27.2c-0.5,0-0.9-0.4-0.9-0.9c0-0.3,0.1-0.6,0.4-0.7l8.6-6c1.8-1.3,4.4-0.8,5.7,1c0.3,0.4,0.2,1-0.2,1.2
		c-0.4,0.3-1,0.2-1.2-0.2l0,0c-0.7-1-2.1-1.3-3.2-0.6l-8.6,6C43.5,27.1,43.3,27.2,43.1,27.2z"/>
	<linearGradient id="SVGID_6_" gradientUnits="userSpaceOnUse" x1="6.7227" y1="53.8428" x2="12.7196" y2="53.8428">
		<stop  offset="0" style="stop-color:#D30000"/>
		<stop  offset="1" style="stop-color:#930000"/>
	</linearGradient>
	<path class="st5" d="M11.8,60.5c-0.3,0-0.6-0.1-0.7-0.4l-3.7-5.3c-1.3-1.8-0.8-4.4,1-5.6l2.8-1.9c0.4-0.3,1-0.2,1.2,0.3
		c0.3,0.4,0.2,0.9-0.2,1.2l-2.8,1.9c-1,0.7-1.3,2.1-0.6,3.2l3.7,5.3c0.3,0.4,0.2,1-0.2,1.2C12.2,60.5,12,60.5,11.8,60.5z"/>
	<linearGradient id="SVGID_7_" gradientUnits="userSpaceOnUse" x1="17.9844" y1="77.946" x2="57.3199" y2="77.946">
		<stop  offset="0" style="stop-color:#D30000"/>
		<stop  offset="1" style="stop-color:#930000"/>
	</linearGradient>
	<path class="st6" d="M31.8,87c-1.3,0-2.6-0.6-3.3-1.7L18.1,70.3c-0.3-0.4-0.2-1,0.2-1.2c0.4-0.3,1-0.2,1.2,0.2l10.3,14.9
		c0.7,1,2.1,1.3,3.2,0.6L55.9,69c0.4-0.3,1-0.2,1.2,0.2c0.3,0.4,0.2,1-0.2,1.2L34.1,86.3C33.5,86.8,32.7,87,31.8,87z"/>
	<linearGradient id="SVGID_8_" gradientUnits="userSpaceOnUse" x1="87.4151" y1="41.988" x2="93.2773" y2="41.988">
		<stop  offset="0" style="stop-color:#D30000"/>
		<stop  offset="1" style="stop-color:#930000"/>
	</linearGradient>
	<path class="st7" d="M88.3,48.6c-0.5,0-0.9-0.4-0.9-0.9c0-0.3,0.1-0.6,0.4-0.7l2.7-1.9c1-0.7,1.3-2.1,0.6-3.2l-3.5-5.1
		c-0.3-0.4-0.2-1,0.2-1.2c0.4-0.3,1-0.2,1.2,0.2l3.5,5.1c1.3,1.8,0.8,4.4-1,5.6l-2.7,1.9C88.7,48.5,88.5,48.6,88.3,48.6z"/>
	<linearGradient id="SVGID_9_" gradientUnits="userSpaceOnUse" x1="54.7163" y1="17.893" x2="82.1517" y2="17.893">
		<stop  offset="0" style="stop-color:#D30000"/>
		<stop  offset="1" style="stop-color:#930000"/>
	</linearGradient>
	<path class="st8" d="M81.3,27c-0.3,0-0.6-0.1-0.7-0.4L70,11.5c-0.7-1-2.1-1.3-3.2-0.6l-9.4,6.5c-1,0.7-1.3,2.1-0.6,3.2
		c0.3,0.4,0.2,1-0.2,1.2s-1,0.2-1.2-0.2c-1.3-1.8-0.8-4.4,1-5.7l9.4-6.5c1.8-1.3,4.4-0.8,5.6,1L82,25.6c0.3,0.4,0.2,1-0.2,1.2
		C81.6,27,81.4,27,81.3,27z"/>
	<linearGradient id="SVGID_10_" gradientUnits="userSpaceOnUse" x1="69.4254" y1="47.3901" x2="71.1919" y2="47.3901">
		<stop  offset="0" style="stop-color:#D30000"/>
		<stop  offset="1" style="stop-color:#930000"/>
	</linearGradient>
	<path class="st9" d="M70.3,62.8c-0.5,0-0.9-0.4-0.9-0.9v-0.5c0-0.5,0.4-0.9,0.9-0.9c0.5,0,0.9,0.4,0.9,0.9v0.5
		C71.2,62.4,70.8,62.8,70.3,62.8z M70.3,58.7c-0.5,0-0.9-0.4-0.9-0.9v-0.5c0-0.5,0.4-0.9,0.9-0.9c0.5,0,0.9,0.4,0.9,0.9v0.5
		C71.2,58.3,70.8,58.7,70.3,58.7z M70.3,54.6c-0.5,0-0.9-0.4-0.9-0.9v-0.5c0-0.5,0.4-0.9,0.9-0.9c0.5,0,0.9,0.4,0.9,0.9v0.5
		C71.2,54.2,70.8,54.6,70.3,54.6z M70.3,50.6c-0.5,0-0.9-0.4-0.9-0.9v-0.5c0-0.5,0.4-0.9,0.9-0.9c0.5,0,0.9,0.4,0.9,0.9v0.5
		C71.2,50.2,70.8,50.6,70.3,50.6z M70.3,46.5c-0.5,0-0.9-0.4-0.9-0.9v-0.5c0-0.5,0.4-0.9,0.9-0.9c0.5,0,0.9,0.4,0.9,0.9v0.5
		C71.2,46.1,70.8,46.5,70.3,46.5C70.3,46.5,70.3,46.5,70.3,46.5L70.3,46.5z M70.3,42.4c-0.5,0-0.9-0.4-0.9-0.9V41
		c0-0.5,0.4-0.9,0.9-0.9c0.5,0,0.9,0.4,0.9,0.9v0.5C71.2,42,70.8,42.4,70.3,42.4C70.3,42.4,70.3,42.4,70.3,42.4L70.3,42.4z
		 M70.3,38.4c-0.5,0-0.9-0.4-0.9-0.9V37c0-0.5,0.4-0.9,0.9-0.9c0.5,0,0.9,0.4,0.9,0.9v0.5C71.2,38,70.8,38.4,70.3,38.4
		C70.3,38.4,70.3,38.4,70.3,38.4L70.3,38.4z M70.3,34.3c-0.5,0-0.9-0.4-0.9-0.9v-0.5c0-0.5,0.4-0.9,0.9-0.9c0.5,0,0.9,0.4,0.9,0.9
		v0.5C71.2,33.9,70.8,34.3,70.3,34.3C70.3,34.3,70.3,34.3,70.3,34.3L70.3,34.3z"/>
	<linearGradient id="SVGID_11_" gradientUnits="userSpaceOnUse" x1="16.1034" y1="38.1424" x2="45.6412" y2="38.1424">
		<stop  offset="0" style="stop-color:#D30000"/>
		<stop  offset="1" style="stop-color:#930000"/>
	</linearGradient>
	<path class="st10" d="M44.8,39H17c-0.5,0-0.9-0.4-0.9-0.9s0.4-0.9,0.9-0.9h27.8c0.5,0,0.9,0.4,0.9,0.9S45.2,39,44.8,39z"/>
	<linearGradient id="SVGID_12_" gradientUnits="userSpaceOnUse" x1="16.1034" y1="42.0552" x2="40.7214" y2="42.0552">
		<stop  offset="0" style="stop-color:#D30000"/>
		<stop  offset="1" style="stop-color:#930000"/>
	</linearGradient>
	<path class="st11" d="M39.8,42.9H17c-0.5,0-0.9-0.4-0.9-0.9s0.4-0.9,0.9-0.9h22.9c0.5,0,0.9,0.4,0.9,0.9S40.3,42.9,39.8,42.9z"/>
	<linearGradient id="SVGID_13_" gradientUnits="userSpaceOnUse" x1="16.1034" y1="45.7313" x2="35.6427" y2="45.7313">
		<stop  offset="0" style="stop-color:#D30000"/>
		<stop  offset="1" style="stop-color:#930000"/>
	</linearGradient>
	<path class="st12" d="M34.8,46.6H17c-0.5,0-0.9-0.4-0.9-0.9s0.4-0.9,0.9-0.9h17.8c0.5,0,0.9,0.4,0.9,0.9S35.2,46.6,34.8,46.6z"/>
	<linearGradient id="SVGID_14_" gradientUnits="userSpaceOnUse" x1="16.1034" y1="49.4092" x2="45.6412" y2="49.4092">
		<stop  offset="0" style="stop-color:#D30000"/>
		<stop  offset="1" style="stop-color:#930000"/>
	</linearGradient>
	<path class="st13" d="M44.8,50.3H17c-0.5,0-0.9-0.4-0.9-0.9s0.4-0.9,0.9-0.9h27.8c0.5,0,0.9,0.4,0.9,0.9S45.2,50.3,44.8,50.3z"/>
	<linearGradient id="SVGID_15_" gradientUnits="userSpaceOnUse" x1="16.1034" y1="58.9236" x2="40.7214" y2="58.9236">
		<stop  offset="0" style="stop-color:#D30000"/>
		<stop  offset="1" style="stop-color:#930000"/>
	</linearGradient>
	<path class="st14" d="M39.8,59.8H17c-0.5,0-0.9-0.4-0.9-0.9S16.5,58,17,58h22.9c0.5,0,0.9,0.4,0.9,0.9S40.3,59.8,39.8,59.8z"/>
	<linearGradient id="SVGID_16_" gradientUnits="userSpaceOnUse" x1="74.1949" y1="38.1424" x2="83.7341" y2="38.1424">
		<stop  offset="0" style="stop-color:#D30000"/>
		<stop  offset="1" style="stop-color:#930000"/>
	</linearGradient>
	<path class="st15" d="M82.9,39h-7.8c-0.5,0-0.9-0.4-0.9-0.9s0.4-0.9,0.9-0.9h7.8c0.5,0,0.9,0.4,0.9,0.9S83.3,39,82.9,39z"/>
	<linearGradient id="SVGID_17_" gradientUnits="userSpaceOnUse" x1="74.1826" y1="42.0552" x2="82.3474" y2="42.0552">
		<stop  offset="0" style="stop-color:#D30000"/>
		<stop  offset="1" style="stop-color:#930000"/>
	</linearGradient>
	<path class="st16" d="M81.5,42.9h-6.4c-0.5,0-0.9-0.4-0.9-0.9s0.4-0.9,0.9-0.9h6.4c0.5,0,0.9,0.4,0.9,0.9S82,42.9,81.5,42.9z"/>
	<linearGradient id="SVGID_18_" gradientUnits="userSpaceOnUse" x1="74.1826" y1="45.7313" x2="80.9253" y2="45.7313">
		<stop  offset="0" style="stop-color:#D30000"/>
		<stop  offset="1" style="stop-color:#930000"/>
	</linearGradient>
	<path class="st17" d="M80,46.6h-5c-0.5,0-0.9-0.4-0.9-0.9s0.4-0.9,0.9-0.9h5c0.5,0,0.9,0.4,0.9,0.9S80.5,46.6,80,46.6z"/>
	<linearGradient id="SVGID_19_" gradientUnits="userSpaceOnUse" x1="74.1949" y1="49.4092" x2="83.7341" y2="49.4092">
		<stop  offset="0" style="stop-color:#D30000"/>
		<stop  offset="1" style="stop-color:#930000"/>
	</linearGradient>
	<path class="st18" d="M82.9,50.3h-7.8c-0.5,0-0.9-0.4-0.9-0.9s0.4-0.9,0.9-0.9h7.8c0.5,0,0.9,0.4,0.9,0.9S83.3,50.3,82.9,50.3z"/>
	<linearGradient id="SVGID_20_" gradientUnits="userSpaceOnUse" x1="74.1826" y1="58.9236" x2="84.2004" y2="58.9236">
		<stop  offset="0" style="stop-color:#D30000"/>
		<stop  offset="1" style="stop-color:#930000"/>
	</linearGradient>
	<path class="st19" d="M83.3,59.8h-0.1c-0.5,0-0.9-0.4-0.9-0.9s0.4-0.9,0.9-0.9h0.1c0.5,0,0.9,0.4,0.9,0.9S83.8,59.8,83.3,59.8z
		 M79.7,59.8h-0.5c-0.5,0-0.9-0.4-0.9-0.9s0.4-0.9,0.9-0.9h0.5c0.5,0,0.9,0.4,0.9,0.9S80.1,59.8,79.7,59.8z M75.6,59.8h-0.5
		c-0.5,0-0.9-0.4-0.9-0.9s0.4-0.9,0.9-0.9h0.5c0.5,0,0.9,0.4,0.9,0.9S76.1,59.8,75.6,59.8z"/>
	<linearGradient id="SVGID_21_" gradientUnits="userSpaceOnUse" x1="16.1034" y1="54.3307" x2="63.0925" y2="54.3307">
		<stop  offset="0" style="stop-color:#D30000"/>
		<stop  offset="1" style="stop-color:#930000"/>
	</linearGradient>
	<path class="st20" d="M62.2,55.2h-0.5c-0.5,0-0.9-0.4-0.9-0.9c0-0.5,0.4-0.9,0.9-0.9h0.5c0.5,0,0.9,0.4,0.9,0.9
		C63.1,54.8,62.7,55.2,62.2,55.2z M58.1,55.2h-0.5c-0.5,0-0.9-0.4-0.9-0.9c0-0.5,0.4-0.9,0.9-0.9h0.5c0.5,0,0.9,0.4,0.9,0.9
		C59,54.8,58.6,55.2,58.1,55.2z M54.1,55.2h-0.5c-0.5,0-0.9-0.4-0.9-0.9c0-0.5,0.4-0.9,0.9-0.9h0.5c0.5,0,0.9,0.4,0.9,0.9
		C55,54.8,54.6,55.2,54.1,55.2z M50,55.2h-0.5c-0.5,0-0.9-0.4-0.9-0.9c0-0.5,0.4-0.9,0.9-0.9l0,0H50c0.5,0,0.9,0.4,0.9,0.9
		C50.9,54.8,50.5,55.2,50,55.2z M46,55.2h-0.5c-0.5,0-0.9-0.4-0.9-0.9c0-0.5,0.4-0.9,0.9-0.9H46c0.5,0,0.9,0.4,0.9,0.9
		C46.8,54.8,46.4,55.2,46,55.2z M41.9,55.2h-0.5c-0.5,0-0.9-0.4-0.9-0.9c0-0.5,0.4-0.9,0.9-0.9h0.5c0.5,0,0.9,0.4,0.9,0.9
		C42.8,54.8,42.4,55.2,41.9,55.2z M37.8,55.2h-0.5c-0.5,0-0.9-0.4-0.9-0.9c0-0.5,0.4-0.9,0.9-0.9h0.5c0.5,0,0.9,0.4,0.9,0.9
		C38.7,54.8,38.3,55.2,37.8,55.2z M33.8,55.2h-0.5c-0.5,0-0.9-0.4-0.9-0.9c0-0.5,0.4-0.9,0.9-0.9h0.5c0.5,0,0.9,0.4,0.9,0.9
		C34.7,54.8,34.3,55.2,33.8,55.2z M29.7,55.2h-0.5c-0.5,0-0.9-0.4-0.9-0.9c0-0.5,0.4-0.9,0.9-0.9h0.5c0.5,0,0.9,0.4,0.9,0.9
		C30.6,54.8,30.2,55.2,29.7,55.2z M25.6,55.2h-0.5c-0.5,0-0.9-0.4-0.9-0.9c0-0.5,0.4-0.9,0.9-0.9h0.5c0.5,0,0.9,0.4,0.9,0.9
		C26.5,54.8,26.1,55.2,25.6,55.2z M21.6,55.2H21c-0.5,0-0.9-0.4-0.9-0.9c0-0.5,0.4-0.9,0.9-0.9h0.5c0.5,0,0.9,0.4,0.9,0.9
		C22.5,54.8,22.1,55.2,21.6,55.2z M17.5,55.2H17c-0.5,0-0.9-0.4-0.9-0.9c0-0.5,0.4-0.9,0.9-0.9h0.5c0.5,0,0.9,0.4,0.9,0.9
		C18.4,54.8,18,55.2,17.5,55.2z"/>
	<linearGradient id="SVGID_22_" gradientUnits="userSpaceOnUse" x1="53.2371" y1="43.6963" x2="65.6345" y2="43.6963">
		<stop  offset="0" style="stop-color:#D30000"/>
		<stop  offset="1" style="stop-color:#930000"/>
	</linearGradient>
	<path class="st21" d="M64.8,44.6H54.1c-0.5,0-0.9-0.4-0.9-0.9s0.4-0.9,0.9-0.9h10.6c0.5,0,0.9,0.4,0.9,0.9S65.2,44.6,64.8,44.6
		L64.8,44.6z"/>
	<linearGradient id="SVGID_23_" gradientUnits="userSpaceOnUse" x1="56.0924" y1="40.9188" x2="62.78" y2="40.9188">
		<stop  offset="0" style="stop-color:#D30000"/>
		<stop  offset="1" style="stop-color:#930000"/>
	</linearGradient>
	<path class="st22" d="M61.9,44.6c-0.3,0-0.5-0.1-0.7-0.3l-4.9-5.6c-0.3-0.4-0.3-0.9,0.1-1.2c0.4-0.3,0.9-0.3,1.2,0.1l4.9,5.6
		c0.3,0.4,0.3,0.9-0.1,1.2C62.3,44.5,62.1,44.6,61.9,44.6L61.9,44.6z"/>
	<linearGradient id="SVGID_24_" gradientUnits="userSpaceOnUse" x1="56.0916" y1="46.4727" x2="62.7792" y2="46.4727">
		<stop  offset="0" style="stop-color:#D30000"/>
		<stop  offset="1" style="stop-color:#930000"/>
	</linearGradient>
	<path class="st23" d="M57,50.1c-0.5,0-0.9-0.4-0.9-0.9c0-0.2,0.1-0.4,0.2-0.6l4.9-5.6c0.3-0.4,0.9-0.4,1.2-0.1
		c0.4,0.3,0.4,0.9,0.1,1.2l-4.9,5.6C57.5,50,57.2,50.1,57,50.1z"/>
	<linearGradient id="SVGID_25_" gradientUnits="userSpaceOnUse" x1="50.99" y1="42.4316" x2="54.9968" y2="42.4316">
		<stop  offset="0" style="stop-color:#D30000"/>
		<stop  offset="1" style="stop-color:#930000"/>
	</linearGradient>
	<path class="st24" d="M54.1,44.6c-0.3,0-0.5-0.1-0.7-0.3l-2.2-2.5c-0.3-0.4-0.3-0.9,0-1.2c0.4-0.3,0.9-0.3,1.2,0c0,0,0,0,0,0
		l2.2,2.5c0.3,0.4,0.3,0.9-0.1,1.2C54.5,44.5,54.3,44.6,54.1,44.6L54.1,44.6z"/>
	<linearGradient id="SVGID_26_" gradientUnits="userSpaceOnUse" x1="51.0146" y1="44.95" x2="55.003" y2="44.95">
		<stop  offset="0" style="stop-color:#D30000"/>
		<stop  offset="1" style="stop-color:#930000"/>
	</linearGradient>
	<path class="st25" d="M51.9,47.1c-0.5,0-0.9-0.4-0.9-0.9c0-0.2,0.1-0.4,0.2-0.6l2.2-2.5c0.3-0.4,0.9-0.4,1.2-0.1
		c0.4,0.3,0.4,0.9,0.1,1.2l-2.2,2.5C52.4,47,52.2,47.1,51.9,47.1z"/>
</g>
</svg>
