<?xml version="1.0" encoding="utf-8"?>
<!-- Generator: Adobe Illustrator 24.1.0, SVG Export Plug-In . SVG Version: 6.00 Build 0)  -->
<svg version="1.1" id="Layer_1" xmlns="http://www.w3.org/2000/svg" xmlns:xlink="http://www.w3.org/1999/xlink" x="0px" y="0px"
	 viewBox="0 0 100 125" style="enable-background:new 0 0 100 125;" xml:space="preserve">
<style type="text/css">
	.st0{fill:url(#SVGID_1_);}
	.st1{fill:url(#SVGID_2_);}
	.st2{fill:url(#SVGID_3_);}
	.st3{fill:url(#SVGID_4_);}
	.st4{fill:url(#SVGID_5_);}
	.st5{fill:url(#SVGID_6_);}
	.st6{fill:url(#SVGID_7_);}
	.st7{fill:url(#SVGID_8_);}
	.st8{fill:url(#SVGID_9_);}
	.st9{fill:url(#SVGID_10_);}
</style>
<g>
	<g>
		<linearGradient id="SVGID_1_" gradientUnits="userSpaceOnUse" x1="22.6934" y1="62.6383" x2="34.0969" y2="62.6383">
			<stop  offset="0" style="stop-color:#D30000"/>
			<stop  offset="1" style="stop-color:#930000"/>
		</linearGradient>
		<path class="st0" d="M33.1,76.3h-6.4c-2.2,0-4-1.8-4-4V50c0-0.5,0.4-1,1-1c0.5,0,1,0.4,1,1v22.3c0,1.1,1,2.1,2.1,2.1h6.4
			c0.5,0,1,0.4,1,1C34.1,75.8,33.7,76.3,33.1,76.3z"/>
	</g>
	<g>
		<linearGradient id="SVGID_2_" gradientUnits="userSpaceOnUse" x1="63.0847" y1="54.325" x2="65.0108" y2="54.325">
			<stop  offset="0" style="stop-color:#D30000"/>
			<stop  offset="1" style="stop-color:#930000"/>
		</linearGradient>
		<path class="st1" d="M64,59.5c-0.5,0-1-0.4-1-1v-8.5c0-0.5,0.4-1,1-1c0.5,0,1,0.4,1,1v8.5C65.1,59.1,64.7,59.5,64,59.5z"/>
	</g>
	<g>
		<linearGradient id="SVGID_3_" gradientUnits="userSpaceOnUse" x1="5.3704" y1="29.7847" x2="83.4544" y2="29.7847">
			<stop  offset="0" style="stop-color:#D30000"/>
			<stop  offset="1" style="stop-color:#930000"/>
		</linearGradient>
		<path class="st2" d="M71.4,48.1c-2,0-4-0.9-5.2-2.6l-1.7-2.4c-0.3-0.4-0.3-1,0.2-1.4c0.4-0.3,1-0.3,1.4,0.2l1.7,2.4
			c1.4,1.9,4.2,2.4,6.2,1l6.7-4.7l-7.1-10.4c-4.7-7-11.1-12.7-18.5-16.7c-3.4,1.2-7,1.8-10.6,1.8c-3.7,0-7.2-0.6-10.7-1.9
			c-7.4,4-13.8,9.8-18.5,16.7L8.2,40.7l6.7,4.7c2,1.4,4.8,1,6.2-1l1.7-2.4c0.3-0.4,1-0.5,1.4-0.2c0.4,0.3,0.5,1,0.2,1.4l-1.7,2.4
			c-2.1,2.8-6,3.5-8.9,1.5l-8.4-5.8l8.2-11.9c5-7.4,11.8-13.5,19.7-17.7l0.3-0.2l0.6,0.3c3.3,1.2,6.7,1.8,10.3,1.8
			c3.5,0,7-0.6,10.2-1.8l0.6-0.3l0.3,0.2c7.9,4.2,14.7,10.3,19.7,17.6l8.2,11.9l-8.4,5.8C74,47.7,72.7,48.1,71.4,48.1z"/>
	</g>
	<g>
		<linearGradient id="SVGID_4_" gradientUnits="userSpaceOnUse" x1="40.1034" y1="41.7898" x2="49.2437" y2="41.7898">
			<stop  offset="0" style="stop-color:#D30000"/>
			<stop  offset="1" style="stop-color:#930000"/>
		</linearGradient>
		<path class="st3" d="M48.1,46.4L48.1,46.4c-0.5,0-1-0.4-1-1l0.1-6.3l-6.2-0.1c-0.5,0-1-0.4-1-1c0-0.5,0.4-1,1-1l0,0l8.2,0.1
			l-0.1,8.3C49.2,46,48.7,46.4,48.1,46.4z"/>
	</g>
	<g>
		<g>
			<linearGradient id="SVGID_5_" gradientUnits="userSpaceOnUse" x1="51.2458" y1="78.0027" x2="92.1594" y2="78.0027">
				<stop  offset="0" style="stop-color:#D30000"/>
				<stop  offset="1" style="stop-color:#930000"/>
			</linearGradient>
			<path class="st4" d="M92.2,98.5H51.2V57.5h40.9V98.5z M53.2,96.5h37V59.5h-37V96.5z"/>
		</g>
		<g>
			<linearGradient id="SVGID_6_" gradientUnits="userSpaceOnUse" x1="56.3818" y1="78.0027" x2="87.1105" y2="78.0027">
				<stop  offset="0" style="stop-color:#D30000"/>
				<stop  offset="1" style="stop-color:#930000"/>
			</linearGradient>
			<path class="st5" d="M87.1,93.3H56.4V62.7h22.5c0.5,0,1,0.4,1,1s-0.4,1-1,1H58.4v26.8h26.8V70.9c0-0.5,0.4-1,1-1s1,0.4,1,1V93.3z
				"/>
		</g>
		<g>
			<linearGradient id="SVGID_7_" gradientUnits="userSpaceOnUse" x1="63.694" y1="77.9592" x2="79.7983" y2="77.9592">
				<stop  offset="0" style="stop-color:#D30000"/>
				<stop  offset="1" style="stop-color:#930000"/>
			</linearGradient>
			<path class="st6" d="M75.9,86h-8.3c-2.2,0-3.9-1.7-3.9-3.9v-8.3c0-2.2,1.7-3.9,3.9-3.9h8.3c2.2,0,3.9,1.7,3.9,3.9v8.3
				C79.8,84.3,78,86,75.9,86z M67.6,71.9c-1,0-1.9,0.9-1.9,2v8.3c0,1,0.9,1.9,1.9,1.9h8.3c1,0,1.9-0.9,1.9-1.9v-8.3c0-1-0.9-2-1.9-2
				H67.6z"/>
		</g>
		<g>
			<linearGradient id="SVGID_8_" gradientUnits="userSpaceOnUse" x1="81.017" y1="63.1606" x2="92.0835" y2="63.1606">
				<stop  offset="0" style="stop-color:#D30000"/>
				<stop  offset="1" style="stop-color:#930000"/>
			</linearGradient>
			<path class="st7" d="M91.2,68.7H81V58.6c0-0.5,0.4-1,1-1s1,0.4,1,1v8.2h8.2c0.5,0,1,0.4,1,1C92.2,68.3,91.7,68.7,91.2,68.7z"/>
		</g>
	</g>
	<g>
		<linearGradient id="SVGID_9_" gradientUnits="userSpaceOnUse" x1="33.885" y1="59.8527" x2="53.248" y2="59.8527">
			<stop  offset="0" style="stop-color:#D30000"/>
			<stop  offset="1" style="stop-color:#930000"/>
		</linearGradient>
		<path class="st8" d="M52.3,78.7c-0.3,0-0.7,0-1,0c-6.4-0.3-12.1-4-15.1-9.7c-3.2-5.9-3-13,0.4-18.7c1.8-3,4.2-6,7.1-9
			c0.3-0.3,1-0.3,1.4,0c0.3,0.3,0.3,1,0,1.4c-2.9,2.9-5.1,5.7-6.9,8.6c-3.1,5.1-3.2,11.4-0.4,16.8c2.7,5.1,7.8,8.4,13.6,8.7
			c0.3,0,0.6,0,0.9,0c0.5,0,1,0.4,1,1C53.2,78.3,52.8,78.7,52.3,78.7z"/>
	</g>
	<g>
		<linearGradient id="SVGID_10_" gradientUnits="userSpaceOnUse" x1="44.2818" y1="34.3035" x2="60.2991" y2="34.3035">
			<stop  offset="0" style="stop-color:#D30000"/>
			<stop  offset="1" style="stop-color:#930000"/>
		</linearGradient>
		<path class="st9" d="M52.3,42.3c-0.5,0-1-0.4-1-1s0.4-1,1-1c3.4,0,6.1-2.7,6.1-6.1c0-3.4-2.7-6.1-6.1-6.1c-3.4,0-6.1,2.7-6.1,6.1
			c0,0.5-0.4,1-1,1s-1-0.4-1-1c0-4.4,3.6-8,8-8s8,3.6,8,8C60.3,38.7,56.7,42.3,52.3,42.3z"/>
	</g>
</g>
</svg>
