<svg id="Layer_5" enable-background="new 0 0 64 64" height="512" viewBox="0 0 64 64" width="512" xmlns="http://www.w3.org/2000/svg" xmlns:xlink="http://www.w3.org/1999/xlink"><linearGradient id="SVGID_1_" gradientUnits="userSpaceOnUse" x1="32" x2="32" y1="63" y2="1"><stop offset="0" stop-color="#ff2525"/><stop offset="1" stop-color="#a00000"/></linearGradient><path d="m26 12c-4.411 0-8 3.589-8 8s3.589 8 8 8 8-3.589 8-8-3.589-8-8-8zm0 14c-3.309 0-6-2.691-6-6s2.691-6 6-6 6 2.691 6 6-2.691 6-6 6zm0-10c-2.206 0-4 1.794-4 4s1.794 4 4 4 4-1.794 4-4-1.794-4-4-4zm0 6c-1.103 0-2-.897-2-2s.897-2 2-2 2 .897 2 2-.897 2-2 2zm10.978-6.823.836-1.748-5.242-5.244-1.749.836c-.155-.069-.313-.134-.471-.196l-.644-1.825h-7.416l-.644 1.826c-.158.062-.315.127-.471.196l-1.749-.836-5.242 5.244.836 1.748c-.069.157-.135.314-.196.471l-1.826.643v7.415l1.826.645c.062.157.127.314.196.471l-.836 1.748 5.242 5.244 1.749-.836c.155.069.313.134.471.196l.644 1.825h7.416l.644-1.826c.158-.062.315-.127.471-.196l1.749.836 5.242-5.244-.836-1.748c.069-.157.135-.314.196-.471l1.826-.643v-7.415l-1.826-.645c-.062-.157-.127-.314-.196-.471zm.022 7.115-1.393.491-.156.458c-.13.38-.29.765-.477 1.146l-.214.435.639 1.334-3.242 3.242-1.335-.638-.436.214c-.374.184-.76.345-1.146.478l-.457.157-.49 1.391h-4.586l-.49-1.391-.457-.157c-.387-.133-.772-.293-1.146-.478l-.436-.214-1.335.638-3.242-3.242.639-1.334-.214-.435c-.187-.381-.347-.766-.477-1.146l-.156-.458-1.393-.491v-4.585l1.393-.491.156-.458c.13-.38.29-.765.477-1.146l.214-.435-.639-1.334 3.242-3.242 1.335.638.436-.214c.375-.185.761-.345 1.146-.477l.458-.157.49-1.391h4.584l.491 1.392.458.157c.385.132.771.292 1.146.477l.436.214 1.335-.638 3.242 3.242-.639 1.334.214.435c.187.381.347.766.477 1.146l.156.458 1.392.491zm23-19.292h-25.316c-2.519-1.268-5.354-2-8.362-2h-.645c-10.298 0-18.677 8.379-18.677 18.678 0 4.989 1.942 9.679 5.471 13.207l1.287 1.287c1.9 1.9 3.014 4.371 3.203 7.025-1.142.424-1.961 1.515-1.961 2.803 0 .771.301 1.468.78 2-.48.532-.78 1.229-.78 2 0 .352.072.686.184 1h-7.184c-3.859 0-7 3.14-7 7s3.141 7 7 7h46.287l7.396-4.622c.825-.516 1.317-1.405 1.317-2.378s-.492-1.862-1.317-2.378l-7.396-4.622h-17.471c.112-.314.184-.648.184-1 0-.771-.301-1.468-.78-2 .48-.532.78-1.229.78-2 0-1.288-.819-2.379-1.961-2.804.19-2.654 1.303-5.125 3.203-7.025l1.287-1.287c3.214-3.214 5.094-7.395 5.406-11.885h2.065v.779c0 1.777 1.444 3.222 3.221 3.222.729 0 1.443-.251 2.013-.706l4.117-3.294h3.649c1.654 0 3-1.346 3-3v-12c0-1.654-1.346-3-3-3zm-26 40c.552 0 1 .449 1 1s-.448 1-1 1h-16c-.552 0-1-.449-1-1s.448-1 1-1zm-21 16h38.382l1 2h-39.382zm38.586-2h-38.586v-2h38.586l1 1zm-.204-4h-38.382v-2h5 16 18.382zm-48.382 3c0-2.757 2.243-5 5-5h3v10h-3c-2.757 0-5-2.243-5-5zm58 0c0 .279-.142.534-.378.682l-6.219 3.887-1.186-2.372 2.197-2.197-2.197-2.197 1.186-2.372 6.219 3.887c.236.148.378.403.378.682zm-43-7c-.552 0-1-.449-1-1s.448-1 1-1h16c.552 0 1 .449 1 1s-.448 1-1 1zm20.115-17.529-1.287 1.287c-2.231 2.231-3.545 5.129-3.779 8.243h-14.098c-.234-3.114-1.548-6.012-3.779-8.243l-1.287-1.287c-3.151-3.15-4.885-7.339-4.885-11.793 0-9.197 7.481-16.678 16.678-16.678h.645c9.196 0 16.677 7.481 16.677 16.678 0 4.454-1.734 8.643-4.885 11.793zm22.885-13.471c0 .551-.448 1-1 1h-4.351l-4.666 3.732c-.215.173-.486.268-.762.268-.673 0-1.221-.548-1.221-1.221v-2.779h-4.034c-.205-5.677-2.944-10.709-7.131-14h22.165c.552 0 1 .449 1 1zm-18-11h2v2h-2zm4 0h12v2h-12zm0 4h12v2h-12zm0 4h12v2h-12zm6 22h2v2h-2zm4 0h2v2h-2zm-8 0h2v2h-2zm11-4h-12c-1.654 0-3 1.346-3 3v4c0 1.654 1.346 3 3 3h1v1.586c0 1.331 1.083 2.414 2.414 2.414.637 0 1.259-.258 1.707-.707l3.293-3.293h3.586c1.654 0 3-1.346 3-3v-4c0-1.654-1.346-3-3-3zm1 7c0 .551-.448 1-1 1h-4.414l-3.88 3.879c-.235.236-.705.044-.706-.293v-3.586h-3c-.552 0-1-.449-1-1v-4c0-.551.448-1 1-1h12c.552 0 1 .449 1 1z" fill="url(#SVGID_1_)"/></svg>