<svg id="Layer_5" enable-background="new 0 0 64 64" height="512" viewBox="0 0 64 64" width="512" xmlns="http://www.w3.org/2000/svg" xmlns:xlink="http://www.w3.org/1999/xlink"><linearGradient id="SVGID_1_" gradientUnits="userSpaceOnUse" x1="32" x2="32" y1="63" y2="1"><stop offset="0" stop-color="#ff2525"/><stop offset="1" stop-color="#a00000"/></linearGradient><path d="m39 45h2v2h-2zm4 2h2v-2h-2zm4 0h2v-2h-2zm12.015-42.367c2.569 2.474 3.985 5.801 3.985 9.367 0 3.631-1.541 7.122-4.226 9.579-1.144 1.047-1.774 2.403-1.774 3.819v2.602c0 1.902-.765 3.627-2 4.889v11.111c0 2.757-2.243 5-5 5h-11.963c.168 1.595.997 3.041 2.296 4h2.667c1.654 0 3 1.346 3 3v2c0 1.654-1.346 3-3 3h-30c-1.654 0-3-1.346-3-3v-2c0-1.654 1.346-3 3-3h2.666c1.299-.959 2.128-2.405 2.296-4h-11.962c-2.757 0-5-2.243-5-5v-30c0-2.757 2.243-5 5-5h31.371c1.351-5.497 6.311-9.769 12.121-9.99 3.575-.138 6.954 1.15 9.523 3.623zm-16.015 25.367v-2.729c0-.794-.216-1.566-.613-2.271h-35.387v16h42v-4.08c-3.387-.488-6-3.401-6-6.92zm-2.343-7c-1.625-1.685-2.751-3.755-3.286-6h-30.371v6zm2.343 34h-30c-.551 0-1 .448-1 1v2c0 .552.449 1 1 1h30c.551 0 1-.448 1-1v-2c0-.552-.449-1-1-1zm-6.963-6h-16.074c-.114 1.464-.634 2.845-1.492 4h19.059c-.858-1.155-1.378-2.536-1.493-4zm16.963-5v-9.685c-.622.297-1.294.503-2 .605v4.08c0 1.103-.897 2-2 2h-42c-1.103 0-2-.897-2-2v-24c0-1.103.897-2 2-2h30.044c-.034-.432-.051-.867-.041-1.305.005-.234.033-.464.051-.695h-31.054c-1.654 0-3 1.346-3 3v30c0 1.654 1.346 3 3 3h44c1.654 0 3-1.346 3-3zm2-16v-1h-10v1c0 2.757 2.243 5 5 5s5-2.243 5-5zm-8-18c0-.552-.449-1-1-1s-1 .448-1 1 .449 1 1 1h1zm4 3h-2v12h2zm10-1c0-3.018-1.198-5.832-3.373-7.926-2.068-1.992-4.762-3.074-7.624-3.074-.145 0-.289.003-.435.008-5.695.218-10.434 5.032-10.565 10.733-.073 3.2 1.25 6.267 3.631 8.415 1.432 1.292 2.273 3.044 2.351 4.844h2.015v-12h-1c-1.654 0-3-1.346-3-3s1.346-3 3-3 3 1.346 3 3v1h2v-1c0-1.654 1.346-3 3-3s3 1.346 3 3-1.346 3-3 3h-1v12h2.022c.108-1.836.945-3.563 2.402-4.896 2.273-2.08 3.576-5.033 3.576-8.104zm-7-1c.551 0 1-.448 1-1s-.449-1-1-1-1 .448-1 1v1zm-37 6v2h2v-2zm-4 2h2v-2h-2zm-4 0h2v-2h-2zm0 6h16v12h-16zm2 10h12v-8h-12zm18-10h-2v2h2zm2 2h10v-2h-10zm-4 4h14v-2h-14zm0 4h14v-2h-14z" fill="url(#SVGID_1_)"/></svg>