<svg id="Layer_5" enable-background="new 0 0 64 64" height="512" viewBox="0 0 64 64" width="512" xmlns="http://www.w3.org/2000/svg" xmlns:xlink="http://www.w3.org/1999/xlink"><linearGradient id="SVGID_1_" gradientUnits="userSpaceOnUse" x1="32.207" x2="32.207" y1="63.414" y2="1"><stop offset="0" stop-color="#9f2fff"/><stop offset="1" stop-color="#0bb1d3"/></linearGradient><path d="m36 37c-4.962 0-9 4.038-9 9s4.038 9 9 9 9-4.038 9-9-4.038-9-9-9zm-1.589 12c-.17-.61-.297-1.28-.362-2h3.901c-.065.72-.192 1.39-.362 2zm2.408 2c-.28.564-.567 1.032-.818 1.395-.251-.363-.539-.831-.819-1.395zm-2.77-6c.065-.72.192-1.39.362-2h3.177c.17.61.297 1.28.362 2zm1.133-4c.28-.564.567-1.032.818-1.395.251.363.539.831.818 1.395zm-2.203 0h-1.869c.747-.731 1.658-1.293 2.67-1.633-.272.471-.549 1.014-.801 1.633zm-.632 2c-.145.623-.256 1.288-.309 2h-2.958c.102-.706.308-1.378.605-2zm-.309 4c.053.712.164 1.377.309 2h-2.662c-.297-.622-.503-1.294-.605-2zm.941 4c.252.619.529 1.162.801 1.633-1.013-.34-1.923-.902-2.67-1.633zm6.042 0h1.869c-.747.731-1.658 1.293-2.67 1.633.272-.471.549-1.014.801-1.633zm.632-2c.145-.623.256-1.288.309-2h2.958c-.102.706-.308 1.378-.605 2zm.309-4c-.053-.712-.164-1.377-.309-2h2.662c.297.622.503 1.294.605 2zm-.941-4c-.252-.619-.529-1.162-.801-1.633 1.013.34 1.923.902 2.67 1.633zm23.06 8.333-11.081-1.847v-2.486h9c1.654 0 3-1.346 3-3v-38c0-1.654-1.346-3-3-3h-56c-1.654 0-3 1.346-3 3v38c0 1.654 1.346 3 3 3h17v11c0 1.654 1.346 3 3 3h24.82l.513 3.081 3.667-3.667 5 5 5.414-5.414-5-5zm-58.081-46.333h56c.551 0 1 .449 1 1v9h-58v-9c0-.551.449-1 1-1zm0 40c-.551 0-1-.449-1-1v-27h58v27c0 .551-.449 1-1 1h-9v-7c0-1.654-1.346-3-3-3h-24c-1.654 0-3 1.346-3 3v7zm20 14c-.551 0-1-.449-1-1v-20c0-.551.449-1 1-1h24c.551 0 1 .449 1 1v11.153l-2.216-.369 1.702 10.216zm36.586 1-2.586 2.586-5-5-2.333 2.333-1.451-8.703 8.703 1.451-2.333 2.333zm-49.586-53h-6v6h6zm-2 4h-2v-2h2zm10-4h-6v6h6zm-2 4h-2v-2h2zm10-4h-6v6h6zm-2 4h-2v-2h2zm34 8h-26v14h26zm-2 12h-22v-10h22zm-50-10h-2v-2h2zm24 0h-22v-2h22zm0 4h-26v-2h26zm-24 4h-2v-2h2zm2 0v-2h2v2zm4-2h18v2h-18zm16 4h2v2h-2zm-2 2h-22v-2h22zm-22 10h14v-8h-14zm2-6h10v4h-10zm20 4h-2v-2h2zm20 0h-2v-2h2zm-22 14h2v2h-2z" fill="url(#SVGID_1_)"/></svg>