<svg width="279" height="217" viewBox="0 0 279 217" fill="none" xmlns="http://www.w3.org/2000/svg">
<path d="M87.3306 54.6495L19.5937 93.4553C10.1098 98.1899 10.0958 101.034 19.7906 106.654L33.1805 114.325C43.2824 120.445 48.6989 121.046 57.7942 115.34L148.57 63.3357C156.764 57.8658 161.174 56.5193 168.26 61.3052L181.65 68.9761C187.611 72.3297 185.515 74.6435 176.137 79.1288L73.9408 137.676C67.5601 141.23 67.487 143.448 75.7129 147.941L91.6626 157.079C98.7914 161.347 102.467 161.148 108.597 157.53L233.044 86.2357C240.892 81.8363 244.707 82.4192 250.963 86.3485L268.684 96.5012C277.232 100.721 276.773 103.066 269.669 107.218L181.65 157.079" stroke="#FF8E5E" stroke-dasharray="5 5"/>
<rect width="29.9854" height="29.9854" transform="matrix(0.866044 0.499967 -0.866044 0.499967 106.382 0)" fill="#FF8E5E"/>
<path d="M106.383 29.55L80.7495 15.0132L80.7495 44.5904L106.553 59.8947L106.383 29.55Z" fill="#F2723C"/>
<path d="M106.386 29.5513L132.232 15.014L132.232 44.879L106.213 60.3111L106.386 29.5513Z" fill="#DF561C"/>
<rect width="29.9994" height="29.9994" transform="matrix(0.866044 0.499967 -0.866044 0.499967 157.87 149.248)" fill="#515258"/>
<path d="M157.867 178.811L132.222 164.267L132.222 193.858L158.037 209.17L157.867 178.811Z" fill="#313238"/>
<path d="M157.83 178.813L183.689 164.269L183.689 194.148L157.657 209.587L157.83 178.813Z" fill="#17181A"/>
<circle r="4.38039" transform="matrix(0.839206 -0.543814 0.839206 0.543814 259.53 91.519)" fill="#56ADAE"/>
<circle r="8.63912" transform="matrix(0.839206 -0.543814 0.839206 0.543814 259.53 91.5188)" stroke="#84D6D7"/>
<circle r="4.38039" transform="matrix(0.839206 -0.543814 0.839206 0.543814 183.703 73.9036)" fill="#56ADAE"/>
<circle r="8.63912" transform="matrix(0.839206 -0.543814 0.839206 0.543814 183.702 73.9031)" stroke="#84D6D7"/>
<circle r="4.38039" transform="matrix(0.839206 -0.543814 0.839206 0.543814 92.5367 127.574)" fill="#56ADAE"/>
<circle r="8.63912" transform="matrix(0.839206 -0.543814 0.839206 0.543814 92.5365 127.573)" stroke="#84D6D7"/>
<circle r="4.38039" transform="matrix(0.839206 -0.543814 0.839206 0.543814 27.1021 110.664)" fill="#56ADAE"/>
<circle r="8.63912" transform="matrix(0.839206 -0.543814 0.839206 0.543814 27.1029 110.664)" stroke="#84D6D7"/>
</svg>
