<svg width="527" height="537" viewBox="0 0 527 537" fill="none" xmlns="http://www.w3.org/2000/svg">
<path d="M97.8927 426.518C106.728 403.903 95.5576 378.408 72.9429 369.572C50.3282 360.737 24.833 371.908 15.9977 394.522C7.16242 417.137 18.3328 442.632 40.9475 451.467C63.5622 460.303 89.0575 449.132 97.8927 426.518Z" fill="url(#paint0_radial)"/>
<rect width="30.4713" height="30.4713" transform="matrix(0.866044 0.499967 -0.866044 0.499967 468.363 392.022)" fill="#E7E5E3"/>
<path d="M468.357 422.051L442.309 407.278L442.309 437.335L468.53 452.887L468.357 422.051Z" fill="#D6D2CD"/>
<path d="M468.327 422.052L494.592 407.279L494.592 437.628L468.152 453.31L468.327 422.052Z" fill="#C1BDB9"/>
<rect width="77.205" height="77.205" transform="matrix(0.866044 0.499967 -0.866044 0.499967 426.266 0)" fill="#515258"/>
<path d="M426.254 76.083L360.254 38.6541L360.254 114.808L426.692 154.213L426.254 76.083Z" fill="#313238"/>
<path d="M426.17 76.0859L492.718 38.656L492.718 115.551L425.726 155.285L426.17 76.0859Z" fill="#17181A"/>
<path d="M168.824 139.292C177.789 126.508 174.693 108.878 161.909 99.9136C149.125 90.9491 131.495 94.0451 122.531 106.829C113.566 119.612 116.662 137.243 129.446 146.207C142.229 155.172 159.86 152.076 168.824 139.292Z" fill="url(#paint1_radial)"/>
<path d="M343.639 519.501C350.213 510.126 347.943 497.197 338.568 490.623C329.193 484.049 316.264 486.32 309.69 495.695C303.116 505.069 305.387 517.998 314.761 524.572C324.136 531.146 337.065 528.876 343.639 519.501Z" fill="url(#paint2_radial)"/>
<path d="M459.364 128.161H44.5892C39.5322 128.161 35.4326 132.261 35.4326 137.318V398.225C35.4326 403.282 39.5322 407.382 44.5892 407.382H459.364C464.421 407.382 468.521 403.282 468.521 398.225V137.318C468.521 132.261 464.421 128.161 459.364 128.161Z" fill="white"/>
<path d="M442.882 194.089H310.661C309.65 194.089 308.83 194.909 308.83 195.92V381.726C308.83 382.737 309.65 383.557 310.661 383.557H442.882C443.894 383.557 444.714 382.737 444.714 381.726V195.92C444.714 194.909 443.894 194.089 442.882 194.089Z" fill="#E7E5E3"/>
<path d="M335.495 277.651C340.461 277.651 344.486 273.626 344.486 268.66C344.486 263.694 340.461 259.668 335.495 259.668C330.529 259.668 326.503 263.694 326.503 268.66C326.503 273.626 330.529 277.651 335.495 277.651Z" fill="white"/>
<path d="M424.314 271.424H355.658C355.271 271.469 354.878 271.432 354.507 271.314C354.135 271.196 353.792 271.001 353.501 270.742C353.21 270.483 352.977 270.165 352.817 269.809C352.658 269.453 352.575 269.067 352.575 268.677C352.575 268.287 352.658 267.902 352.817 267.546C352.977 267.19 353.21 266.872 353.501 266.613C353.792 266.353 354.135 266.158 354.507 266.041C354.878 265.923 355.271 265.886 355.658 265.93H424.314C424.988 266.008 425.61 266.331 426.061 266.838C426.512 267.344 426.762 267.999 426.762 268.677C426.762 269.356 426.512 270.01 426.061 270.517C425.61 271.023 424.988 271.346 424.314 271.424Z" fill="white"/>
<path d="M335.495 243.407C340.461 243.407 344.486 239.381 344.486 234.415C344.486 229.449 340.461 225.423 335.495 225.423C330.529 225.423 326.503 229.449 326.503 234.415C326.503 239.381 330.529 243.407 335.495 243.407Z" fill="white"/>
<path d="M424.314 237.18H355.658C355.271 237.225 354.878 237.187 354.507 237.07C354.135 236.952 353.792 236.757 353.501 236.498C353.21 236.238 352.977 235.92 352.817 235.565C352.658 235.209 352.575 234.823 352.575 234.433C352.575 234.043 352.658 233.658 352.817 233.302C352.977 232.946 353.21 232.628 353.501 232.369C353.792 232.109 354.135 231.914 354.507 231.797C354.878 231.679 355.271 231.641 355.658 231.686H424.314C424.988 231.764 425.61 232.087 426.061 232.594C426.512 233.1 426.762 233.755 426.762 234.433C426.762 235.112 426.512 235.766 426.061 236.273C425.61 236.779 424.988 237.102 424.314 237.18Z" fill="white"/>
<path d="M335.495 311.898C340.461 311.898 344.486 307.872 344.486 302.905C344.486 297.939 340.461 293.913 335.495 293.913C330.529 293.913 326.503 297.939 326.503 302.905C326.503 307.872 330.529 311.898 335.495 311.898Z" fill="white"/>
<path d="M424.314 305.67H355.658C355.271 305.715 354.878 305.678 354.507 305.56C354.135 305.442 353.792 305.248 353.501 304.988C353.21 304.729 352.977 304.411 352.817 304.055C352.658 303.699 352.575 303.313 352.575 302.923C352.575 302.534 352.658 302.148 352.817 301.792C352.977 301.436 353.21 301.118 353.501 300.859C353.792 300.599 354.135 300.405 354.507 300.287C354.878 300.169 355.271 300.132 355.658 300.177H424.314C424.988 300.254 425.61 300.577 426.061 301.084C426.512 301.59 426.762 302.245 426.762 302.923C426.762 303.602 426.512 304.257 426.061 304.763C425.61 305.27 424.988 305.593 424.314 305.67Z" fill="white"/>
<path d="M335.495 347.974C340.461 347.974 344.486 343.948 344.486 338.982C344.486 334.016 340.461 329.99 335.495 329.99C330.529 329.99 326.503 334.016 326.503 338.982C326.503 343.948 330.529 347.974 335.495 347.974Z" fill="white"/>
<path d="M424.314 341.748H355.658C355.006 341.641 354.414 341.306 353.986 340.803C353.559 340.3 353.324 339.661 353.324 339.001C353.324 338.341 353.559 337.702 353.986 337.199C354.414 336.696 355.006 336.361 355.658 336.254H424.314C424.965 336.361 425.558 336.696 425.985 337.199C426.413 337.702 426.647 338.341 426.647 339.001C426.647 339.661 426.413 340.3 425.985 340.803C425.558 341.306 424.965 341.641 424.314 341.748Z" fill="white"/>
<path d="M291.946 294.608H212.028C211.016 294.608 210.196 295.428 210.196 296.44V381.742C210.196 382.754 211.016 383.574 212.028 383.574H291.946C292.958 383.574 293.778 382.754 293.778 381.742V296.44C293.778 295.428 292.958 294.608 291.946 294.608Z" fill="#84D6D7"/>
<path d="M259.807 355.501L252.005 360.574L244.186 355.501C224.646 342.865 224.646 333.836 224.646 330.448C224.635 327.184 225.734 324.013 227.762 321.455C229.791 318.897 232.629 317.105 235.81 316.373C238.991 315.64 242.327 316.011 245.27 317.424C248.213 318.837 250.588 321.208 252.005 324.149C253.429 321.218 255.804 318.858 258.743 317.452C261.682 316.047 265.01 315.68 268.185 316.411C271.359 317.143 274.192 318.929 276.219 321.479C278.247 324.029 279.349 327.191 279.347 330.448C279.347 333.818 279.347 342.828 259.807 355.501Z" fill="white"/>
<path d="M193.292 192.257H61.0708C59.048 192.257 57.4082 193.897 57.4082 195.919V381.726C57.4082 383.749 59.048 385.388 61.0708 385.388H193.292C195.315 385.388 196.955 383.749 196.955 381.726V195.919C196.955 193.897 195.315 192.257 193.292 192.257Z" fill="white"/>
<path d="M193.292 194.089H61.0706C60.0592 194.089 59.2393 194.909 59.2393 195.92V381.726C59.2393 382.737 60.0592 383.557 61.0706 383.557H193.292C194.303 383.557 195.123 382.737 195.123 381.726V195.92C195.123 194.909 194.303 194.089 193.292 194.089Z" fill="#84D6D7"/>
<path d="M174.466 313.875L151.08 348.67L149.084 345.685L96.6714 267.598L59.2393 323.544V381.744C59.2393 382.229 59.4322 382.695 59.7756 383.039C60.1191 383.382 60.5849 383.575 61.0706 383.575H193.31C193.796 383.575 194.261 383.382 194.605 383.039C194.948 382.695 195.141 382.229 195.141 381.744V344.696L174.466 313.875Z" fill="#D7F890"/>
<path d="M444.713 155.081H61.0708C59.048 155.081 57.4082 156.721 57.4082 158.744V169.915C57.4082 171.938 59.048 173.577 61.0708 173.577H444.713C446.736 173.577 448.376 171.938 448.376 169.915V158.744C448.376 156.721 446.736 155.081 444.713 155.081Z" fill="#D6D2CD"/>
<path d="M214.904 167.058H71.622C70.8934 167.058 70.1947 166.769 69.6796 166.254C69.1644 165.739 68.875 165.04 68.875 164.311C68.875 163.583 69.1644 162.884 69.6796 162.369C70.1947 161.854 70.8934 161.564 71.622 161.564H214.904C215.633 161.564 216.331 161.854 216.847 162.369C217.362 162.884 217.651 163.583 217.651 164.311C217.651 165.04 217.362 165.739 216.847 166.254C216.331 166.769 215.633 167.058 214.904 167.058Z" fill="white"/>
<path d="M294.234 167.058H235.632C234.903 167.058 234.205 166.769 233.689 166.254C233.174 165.739 232.885 165.04 232.885 164.311C232.885 163.583 233.174 162.884 233.689 162.369C234.205 161.854 234.903 161.564 235.632 161.564H294.234C294.962 161.564 295.661 161.854 296.176 162.369C296.691 162.884 296.981 163.583 296.981 164.311C296.981 165.04 296.691 165.739 296.176 166.254C295.661 166.769 294.962 167.058 294.234 167.058Z" fill="white"/>
<path d="M60.7961 145.027C62.6672 145.027 64.1841 143.51 64.1841 141.639C64.1841 139.768 62.6672 138.251 60.7961 138.251C58.925 138.251 57.4082 139.768 57.4082 141.639C57.4082 143.51 58.925 145.027 60.7961 145.027Z" fill="#F2723C"/>
<path d="M74.2952 145.027C76.1663 145.027 77.6831 143.51 77.6831 141.639C77.6831 139.768 76.1663 138.251 74.2952 138.251C72.4241 138.251 70.9072 139.768 70.9072 141.639C70.9072 143.51 72.4241 145.027 74.2952 145.027Z" fill="#AED659"/>
<path d="M87.7913 145.027C89.6624 145.027 91.1792 143.51 91.1792 141.639C91.1792 139.768 89.6624 138.251 87.7913 138.251C85.9202 138.251 84.4033 139.768 84.4033 141.639C84.4033 143.51 85.9202 145.027 87.7913 145.027Z" fill="#56ADAE"/>
<path d="M291.946 194.089H212.028C211.016 194.089 210.196 194.909 210.196 195.92V277.708C210.196 278.719 211.016 279.539 212.028 279.539H291.946C292.958 279.539 293.778 278.719 293.778 277.708V195.92C293.778 194.909 292.958 194.089 291.946 194.089Z" fill="#FF8E5E"/>
<path d="M266.673 231.318V222.564H228.252V249.649H266.673V240.895L278.485 249.649V222.564L266.673 231.318Z" fill="white"/>
<defs>
<radialGradient id="paint0_radial" cx="0" cy="0" r="1" gradientUnits="userSpaceOnUse" gradientTransform="translate(40.1125 392.223) scale(75.4773)">
<stop stop-color="#FF9264"/>
<stop offset="0.06" stop-color="#FF8E5E"/>
<stop offset="0.38" stop-color="#F2723C"/>
<stop offset="0.55" stop-color="#D75B26"/>
<stop offset="0.8" stop-color="#DF561C"/>
<stop offset="1" stop-color="#BE3E08"/>
</radialGradient>
<radialGradient id="paint1_radial" cx="0" cy="0" r="1" gradientUnits="userSpaceOnUse" gradientTransform="translate(132.682 112.066) rotate(-9.15306) scale(54.2263)">
<stop offset="0.0833333" stop-color="#85E6E8"/>
<stop offset="0.32" stop-color="#5BCBCC"/>
<stop offset="0.74" stop-color="#2A7475"/>
<stop offset="0.9" stop-color="#0D5051"/>
</radialGradient>
<radialGradient id="paint2_radial" cx="0" cy="0" r="1" gradientUnits="userSpaceOnUse" gradientTransform="translate(317.135 499.535) rotate(-9.15306) scale(39.766)">
<stop offset="0.0833333" stop-color="#85E6E8"/>
<stop offset="0.32" stop-color="#5BCBCC"/>
<stop offset="0.74" stop-color="#2A7475"/>
<stop offset="0.9" stop-color="#0D5051"/>
</radialGradient>
</defs>
</svg>
