<svg width="246" height="285" viewBox="0 0 246 285" fill="none" xmlns="http://www.w3.org/2000/svg">
<path d="M50.6319 76.8309L86.1041 56.4343M86.1041 56.4343L84.0863 61.0112M86.1041 56.4343L78.3358 57.0644" stroke="#FF8E5E"/>
<path d="M53.253 93.1807L86.4403 113.815M86.4403 113.815L84.6026 109.156M86.4403 113.815L79.116 113.211" stroke="#FF8E5E"/>
<path d="M143.197 215.413L176.964 236.407M176.964 236.407L175.043 231.696M176.964 236.407L169.569 235.759" stroke="#FF8E5E"/>
<path d="M122.442 53.9739L156.208 74.9686M156.208 74.9686L154.287 70.2575M156.208 74.9686L148.813 74.3201" stroke="#FF8E5E"/>
<path d="M100.754 186.351L66.9879 165.356L102.394 145.831M100.754 186.351L99.1695 181.444M100.754 186.351L92.982 185.921" stroke="#FF8E5E"/>
<rect width="31.3535" height="31.3535" transform="matrix(0.866044 0.499967 -0.866044 0.499967 108.187 0)" fill="#FF8E5E"/>
<path d="M108.188 30.8984L81.3856 15.6983L81.3856 46.6251L108.366 62.6277L108.188 30.8984Z" fill="#F2723C"/>
<path d="M108.191 30.8999L135.217 15.6993L135.217 46.927L108.011 63.0632L108.191 30.8999Z" fill="#DF561C"/>
<rect width="31.3535" height="31.3535" transform="matrix(0.866044 0.499967 -0.866044 0.499967 115.874 93.0198)" fill="#FF8E5E"/>
<path d="M115.876 123.918L89.0731 108.718L89.0731 139.645L116.054 155.647L115.876 123.918Z" fill="#F2723C"/>
<path d="M115.879 123.92L142.905 108.719L142.905 139.947L115.699 156.083L115.879 123.92Z" fill="#DF561C"/>
<rect width="31.3682" height="31.3682" transform="matrix(0.866044 0.499967 -0.866044 0.499967 40.5605 39.2068)" fill="#515258"/>
<path d="M40.5566 70.1191L13.7412 54.9118L13.7412 85.8531L40.7347 101.863L40.5566 70.1191Z" fill="#313238"/>
<path d="M40.5176 70.1211L67.556 54.9134L67.556 86.1557L40.3371 102.299L40.5176 70.1211Z" fill="#17181A"/>
<rect width="31.3682" height="31.3682" transform="matrix(0.866044 0.499967 -0.866044 0.499967 128.967 161.439)" fill="#515258"/>
<path d="M128.963 192.352L102.147 177.144L102.147 208.086L129.141 224.096L128.963 192.352Z" fill="#313238"/>
<path d="M128.925 192.353L155.963 177.146L155.963 208.388L128.744 224.532L128.925 192.353Z" fill="#17181A"/>
<rect width="31.3682" height="31.3682" transform="matrix(0.866044 0.499967 -0.866044 0.499967 184.317 53.0442)" fill="#E7E5E3"/>
<path d="M184.313 83.9565L157.498 68.7492L157.498 99.6905L184.491 115.701L184.313 83.9565Z" fill="#D6D2CD"/>
<path d="M184.275 83.9585L211.314 68.7508L211.314 99.9931L184.095 116.137L184.275 83.9585Z" fill="#C1BDB9"/>
<rect width="31.3682" height="31.3682" transform="matrix(0.866044 0.499967 -0.866044 0.499967 205.075 213.715)" fill="#84D6D7"/>
<path d="M205.07 244.627L178.255 229.42L178.255 260.361L205.248 276.371L205.07 244.627Z" fill="#56ADAE"/>
<path d="M205.032 244.629L232.071 229.421L232.071 260.663L204.852 276.807L205.032 244.629Z" fill="#35999A"/>
</svg>
