<svg width="303" height="186" viewBox="0 0 303 186" fill="none" xmlns="http://www.w3.org/2000/svg">
<rect y="0.499967" width="173.538" height="173.538" transform="matrix(0.866044 0.499967 -0.866044 0.499967 151.591 11.6516)" stroke="#FF8E5E" stroke-dasharray="5 5"/>
<path d="M201.544 40.4894L151.158 69.5772L100.772 40.4894" stroke="#FF8E5E" stroke-dasharray="5 5"/>
<path d="M151.158 69.5768L100.772 98.6646L50.3865 69.5768" stroke="#FF8E5E" stroke-dasharray="5 5"/>
<path d="M201.544 98.6649L151.158 127.753L100.772 98.6649" stroke="#FF8E5E" stroke-dasharray="5 5"/>
<path d="M251.93 69.5768L201.544 98.6646L151.158 69.5768" stroke="#FF8E5E" stroke-dasharray="5 5"/>
<path d="M100.772 156.84L151.158 127.752L201.544 156.84" stroke="#FF8E5E" stroke-dasharray="5 5"/>
<path d="M151.158 127.752L201.544 98.6645L251.93 127.752" stroke="#FF8E5E" stroke-dasharray="5 5"/>
<path d="M50.3865 127.752L100.772 98.6645L151.158 127.752" stroke="#FF8E5E" stroke-dasharray="5 5"/>
<rect width="29.0754" height="29.0754" transform="matrix(0.866044 0.499967 -0.866044 0.499967 49.709 24.9397)" fill="#E7E5E3"/>
<path d="M49.7061 53.5925L24.8507 39.4968L24.8507 68.1764L49.8711 83.0163L49.7061 53.5925Z" fill="#D6D2CD"/>
<path d="M49.6709 53.5942L74.7329 39.4982L74.7329 68.4568L49.5036 83.4205L49.6709 53.5942Z" fill="#C1BDB9"/>
<rect width="29.0754" height="29.0754" transform="matrix(0.866044 0.499967 -0.866044 0.499967 197.211 0)" fill="#FF8E5E"/>
<path d="M197.207 28.6531L172.352 14.5574L172.352 43.237L197.372 58.0768L197.207 28.6531Z" fill="#F2723C"/>
<path d="M197.172 28.6543L222.234 14.5582L222.234 43.5168L197.005 58.4806L197.172 28.6543Z" fill="#DF561C"/>
<rect width="29.0754" height="29.0754" transform="matrix(0.866044 0.499967 -0.866044 0.499967 100.302 112.586)" fill="#84D6D7"/>
<path d="M100.297 141.239L75.4415 127.143L75.4415 155.823L100.462 170.663L100.297 141.239Z" fill="#56ADAE"/>
<path d="M100.262 141.24L125.324 127.144L125.324 156.103L100.094 171.066L100.262 141.24Z" fill="#35999A"/>
<rect width="29.0754" height="29.0754" transform="matrix(0.866044 0.499967 -0.866044 0.499967 197.924 113.298)" fill="#515258"/>
<path d="M197.919 141.951L173.064 127.855L173.064 156.535L198.084 171.374L197.919 141.951Z" fill="#313238"/>
<path d="M197.884 141.952L222.946 127.856L222.946 156.815L197.717 171.779L197.884 141.952Z" fill="#17181A"/>
</svg>
