<?xml version="1.0" encoding="utf-8"?>
<!-- Generator: Adobe Illustrator 24.1.0, SVG Export Plug-In . SVG Version: 6.00 Build 0)  -->
<svg version="1.1" id="OBJECTS" xmlns="http://www.w3.org/2000/svg" xmlns:xlink="http://www.w3.org/1999/xlink" x="0px" y="0px"
	 viewBox="0 0 750 500" style="enable-background:new 0 0 750 500;" xml:space="preserve">
<style type="text/css">
	.st0{fill:none;stroke:#C0CCD8;stroke-miterlimit:10;}
	.st1{fill:none;stroke:#C0CCD8;stroke-linejoin:round;stroke-miterlimit:10;}
	.st2{fill:none;stroke:#C0CCD8;stroke-width:3;stroke-miterlimit:10;}
	.st3{fill:#FFFFFF;stroke:#C0CCD8;stroke-linejoin:round;stroke-miterlimit:10;}
	.st4{fill:#D1D1D1;}
	.st5{fill:#C0CCD8;}
	.st6{fill:none;stroke:#C0CCD8;stroke-linecap:round;stroke-linejoin:round;stroke-miterlimit:10;}
	.st7{fill:#C9C9C9;}
	.st8{fill:#9E9E9E;}
	.st9{fill:none;stroke:#544943;stroke-width:1.5;stroke-miterlimit:10;}
	.st10{fill:#717A91;}
	.st11{opacity:0.45;}
	.st12{fill:#8E9DB2;}
	.st13{fill:#8EBCA2;}
	.st14{fill:#A2CCB6;}
	.st15{fill:#597F6E;}
	.st16{fill:#F2F5F9;}
	.st17{fill:#E7EAF2;}
	.st18{fill:#475577;}
	.st19{fill:#E2E2E2;}
	.st20{opacity:0.45;fill:#8E9DB2;}
	.st21{fill:#F2F2F2;}
	.st22{fill:#AFAFAF;}
	.st23{opacity:0.65;}
	.st24{opacity:0.55;}
	.st25{fill:url(#SVGID_1_);}
	.st26{fill:#E8EAEF;}
	.st27{fill:#C6D2E0;}
	.st28{fill:none;stroke:#475577;stroke-width:2;stroke-miterlimit:10;}
</style>
<g>
	<g>
		<path class="st0" d="M369.4,152.3H252.1c-1.8,0-3.2-1.4-3.2-3.2V80.7c0-1.8,1.4-3.2,3.2-3.2h117.3c1.8,0,3.2,1.4,3.2,3.2V149
			C372.6,150.8,371.2,152.3,369.4,152.3z"/>
		<line class="st0" x1="248.9" y1="91" x2="372.6" y2="91"/>
		<circle class="st0" cx="256.9" cy="84.4" r="2"/>
		<path class="st0" d="M267,84.4c0,1.1-0.9,2-2,2c-1.1,0-2-0.9-2-2s0.9-2,2-2C266.1,82.4,267,83.3,267,84.4z"/>
		<path class="st0" d="M275.1,84.4c0,1.1-0.9,2-2,2c-1.1,0-2-0.9-2-2s0.9-2,2-2C274.3,82.4,275.1,83.3,275.1,84.4z"/>
	</g>
	<g>
		<g>
			<g>
				<path class="st1" d="M184,160.1h29.3c2.8,0,5.1-2.3,5.1-5.1v-29.3c0-2.8-2.3-5.1-5.1-5.1H184c-2.8,0-5.1,2.3-5.1,5.1V155
					C178.9,157.8,181.1,160.1,184,160.1z"/>
			</g>
			<g>
				<circle class="st2" cx="198.6" cy="140.3" r="11.3"/>
				<line class="st2" x1="206.2" y1="132.3" x2="190.3" y2="148.3"/>
			</g>
		</g>
	</g>
	<path class="st3" d="M480.2,151.1l-8.2-8.5H346c-5.9,0-10.7-4.8-10.7-10.7V66.4c0-5.9,4.8-10.7,10.7-10.7h126.7
		c5.9,0,10.7,4.8,10.7,10.7v83.5C483.3,151.5,481.3,152.2,480.2,151.1z"/>
	<g>
		<g>
			<path class="st4" d="M386,113.3h-5.4v9.5h-13.1v-9.5h-19.6v-9.8l20.5-30h12.3v29.8h5.4V113.3z M367.4,103.4v-5.7
				c0-1.1,0-2.5,0.1-4.4c0.1-1.8,0.1-2.8,0.2-2.9h-0.4c-0.8,1.7-1.6,3.3-2.6,4.9l-5.5,8.1H367.4z"/>
			<path class="st4" d="M427,98.3c0,8.7-1.5,15.1-4.4,19.2c-2.9,4.1-7.4,6.1-13.4,6.1c-5.9,0-10.3-2.1-13.3-6.4
				c-3-4.2-4.5-10.5-4.5-18.9c0-8.8,1.5-15.2,4.4-19.3c2.9-4.1,7.4-6.1,13.4-6.1c5.9,0,10.3,2.1,13.3,6.4
				C425.5,83.5,427,89.8,427,98.3z M404.7,98.3c0,5.6,0.3,9.4,1,11.5c0.7,2.1,1.9,3.1,3.5,3.1c1.7,0,2.8-1.1,3.5-3.2
				c0.7-2.2,1-6,1-11.4c0-5.5-0.3-9.3-1-11.5c-0.7-2.2-1.9-3.3-3.5-3.3c-1.6,0-2.8,1.1-3.5,3.2C405,88.8,404.7,92.6,404.7,98.3z"/>
			<path class="st4" d="M470.8,113.3h-5.4v9.5h-13.1v-9.5h-19.6v-9.8l20.5-30h12.3v29.8h5.4V113.3z M452.3,103.4v-5.7
				c0-1.1,0-2.5,0.1-4.4c0.1-1.8,0.1-2.8,0.2-2.9h-0.4c-0.8,1.7-1.6,3.3-2.6,4.9l-5.5,8.1H452.3z"/>
		</g>
	</g>
	<g>
		<g>
			<g>
				<path class="st1" d="M599,275.1h29.3c2.8,0,5.1-2.3,5.1-5.1v-29.3c0-2.8-2.3-5.1-5.1-5.1H599c-2.8,0-5.1,2.3-5.1,5.1V270
					C593.9,272.8,596.2,275.1,599,275.1z"/>
			</g>
			<g>
				<g>
					<path class="st5" d="M626.4,266.4c-0.1,0.1-0.3,0.1-0.5,0.1l-24.5,0c-0.5,0-1-0.3-1.2-0.7c-0.3-0.4-0.3-1,0-1.4l12.3-21.2
						c0.3-0.4,0.7-0.7,1.2-0.7c0.5,0,1,0.3,1.2,0.7l12.3,21.2c0.3,0.4,0.3,1,0,1.4C627,266.1,626.7,266.3,626.4,266.4z M602.1,264.7
						l23.2,0l-11.6-20.1L602.1,264.7z"/>
				</g>
				<path class="st5" d="M613.7,260.5L613.7,260.5c-0.5,0-0.8-0.4-0.9-0.8l-0.5-8.4c0-0.8,0.6-1.4,1.4-1.4l0,0
					c0.8,0,1.4,0.6,1.4,1.4l-0.5,8.4C614.5,260.1,614.1,260.5,613.7,260.5z"/>
				<path class="st5" d="M614.6,262.5c0,0.5-0.4,0.9-0.9,0.9c-0.5,0-0.9-0.4-0.9-0.9c0-0.5,0.4-0.9,0.9-0.9
					C614.2,261.6,614.6,262,614.6,262.5z"/>
			</g>
		</g>
	</g>
	<path class="st6" d="M96.4,204.5c0,1.2-1,2.2-2.2,2.2c-1.2,0-2.2-1-2.2-2.2c0-1.2,1-2.2,2.2-2.2C95.4,202.3,96.4,203.3,96.4,204.5z
		"/>
	<path class="st6" d="M470.8,323.3c0,1.2-1,2.2-2.2,2.2c-1.2,0-2.2-1-2.2-2.2c0-1.2,1-2.2,2.2-2.2
		C469.8,321.1,470.8,322.1,470.8,323.3z"/>
	<path class="st6" d="M623.9,140.3c0,1.2-1,2.2-2.2,2.2s-2.2-1-2.2-2.2c0-1.2,1-2.2,2.2-2.2S623.9,139.1,623.9,140.3z"/>
	<path class="st6" d="M503.7,71.4c0,1.2-1,2.2-2.2,2.2c-1.2,0-2.2-1-2.2-2.2c0-1.2,1-2.2,2.2-2.2C502.7,69.2,503.7,70.2,503.7,71.4z
		"/>
	<g>
		<line class="st6" x1="619.5" y1="213.2" x2="619.5" y2="220.1"/>
		<line class="st6" x1="622.9" y1="216.7" x2="616" y2="216.7"/>
	</g>
	<g>
		<line class="st6" x1="439.1" y1="346.1" x2="439.1" y2="353"/>
		<line class="st6" x1="442.6" y1="349.6" x2="435.7" y2="349.6"/>
	</g>
	<g>
		<line class="st6" x1="293.2" y1="58.7" x2="293.2" y2="65.6"/>
		<line class="st6" x1="296.6" y1="62.1" x2="289.7" y2="62.1"/>
	</g>
	<g>
		<line class="st6" x1="138.7" y1="125.4" x2="138.7" y2="132.3"/>
		<line class="st6" x1="142.1" y1="128.8" x2="135.2" y2="128.8"/>
	</g>
	<g>
		<line class="st6" x1="127.5" y1="284.2" x2="127.5" y2="291.1"/>
		<line class="st6" x1="130.9" y1="287.7" x2="124" y2="287.7"/>
	</g>
	<g>
		<line class="st6" x1="518.6" y1="97.7" x2="518.6" y2="104.6"/>
		<line class="st6" x1="522.1" y1="101.2" x2="515.2" y2="101.2"/>
	</g>
	<path class="st0" d="M178.8,245h-69.1c-1.2,0-2.2-1-2.2-2.2l0,0c0-1.2,1-2.2,2.2-2.2h69.1c1.2,0,2.2,1,2.2,2.2l0,0
		C181,244,180,245,178.8,245z"/>
	<path class="st0" d="M585.4,189.8h-69.1c-1.2,0-2.2-1-2.2-2.2l0,0c0-1.2,1-2.2,2.2-2.2h69.1c1.2,0,2.2,1,2.2,2.2l0,0
		C587.6,188.8,586.6,189.8,585.4,189.8z"/>
	<path class="st5" d="M595.5,204.5h-25.5c-0.6,0-1.1-0.5-1.1-1.1l0,0c0-0.6,0.5-1.1,1.1-1.1h25.5c0.6,0,1.1,0.5,1.1,1.1l0,0
		C596.6,204,596.1,204.5,595.5,204.5z"/>
	<path class="st5" d="M527.9,152.5h-25.5c-0.6,0-1.1-0.5-1.1-1.1l0,0c0-0.6,0.5-1.1,1.1-1.1h25.5c0.6,0,1.1,0.5,1.1,1.1l0,0
		C529,152,528.5,152.5,527.9,152.5z"/>
	<path class="st5" d="M153.1,225.7h-19.5c-0.6,0-1.1-0.5-1.1-1.1l0,0c0-0.6,0.5-1.1,1.1-1.1h19.5c0.6,0,1.1,0.5,1.1,1.1l0,0
		C154.2,225.2,153.7,225.7,153.1,225.7z"/>
	<g>
		<path class="st1" d="M547.3,129.3h21.1c2,0,3.7-1.7,3.7-3.7v-21.1c0-2-1.7-3.7-3.7-3.7h-21.1c-2,0-3.7,1.7-3.7,3.7v21.1
			C543.6,127.6,545.2,129.3,547.3,129.3z"/>
		<g>
			<g>
				<path class="st5" d="M561.9,113.8l-0.5,2.5h2.7v2.2H561l-0.8,4.3h-2.3l0.8-4.3h-3l-0.8,4.3h-2.3l0.8-4.3h-2.5v-2.2h2.9l0.5-2.5
					h-2.7v-2.2h3.1l0.8-4.3h2.3l-0.8,4.3h3l0.8-4.3h2.3l-0.8,4.3h2.5v2.2H561.9z M556,116.3h3l0.5-2.5h-3L556,116.3z"/>
			</g>
		</g>
	</g>
</g>
<g>
	<path class="st7" d="M317.5,326.7l-20-131.5h-90.3l21.6,139.3c1.5,9.4,9.3,16.1,19.1,16.1h151.8l1.1-12.8h-70.1
		C323.9,337.9,318.5,333.3,317.5,326.7z"/>
	<path class="st8" d="M232,326.7l-19.3-126.6c-0.4-2.9-2.8-4.9-5.7-4.9h-0.2c-4.1,0-7.5,3.9-6.9,7.8l20.4,131.5
		c1.5,9.4,9.3,16.1,19.1,16.1h97.8l1.1-12.8h-93.1C238.5,337.9,233,333.3,232,326.7z"/>
	<g>
		<g>
			<g>
				<line class="st9" x1="293.2" y1="350.7" x2="293.2" y2="422.4"/>
			</g>
			<g>
				<g>
					<path class="st9" d="M252.9,428.8L252.9,428.8c0-3.5,2.8-6.3,6.3-6.3h67.8c3.5,0,6.3,2.8,6.3,6.3v0"/>
				</g>
				<g>
					<path class="st9" d="M286.2,428.8L286.2,428.8c0-3.5,2.8-6.3,6.3-6.3"/>
				</g>
				<g>
					<g>
						<path class="st10" d="M259.3,435.2c0,3.5-2.9,6.4-6.4,6.4c-3.5,0-6.4-2.9-6.4-6.4c0-3.5,2.9-6.4,6.4-6.4
							C256.5,428.8,259.3,431.6,259.3,435.2z"/>
					</g>
					<g class="st11">
						<path class="st12" d="M255.3,435.2c0,1.3-1.1,2.4-2.4,2.4s-2.4-1.1-2.4-2.4c0-1.3,1.1-2.4,2.4-2.4S255.3,433.9,255.3,435.2z"
							/>
					</g>
				</g>
				<g>
					<path class="st10" d="M292.6,435.2c0,3.5-2.9,6.4-6.4,6.4c-3.5,0-6.4-2.9-6.4-6.4c0-3.5,2.9-6.4,6.4-6.4
						C289.8,428.8,292.6,431.6,292.6,435.2z"/>
				</g>
				<g class="st11">
					<path class="st12" d="M288.6,435.2c0,1.3-1.1,2.4-2.4,2.4c-1.3,0-2.4-1.1-2.4-2.4c0-1.3,1.1-2.4,2.4-2.4
						C287.5,432.8,288.6,433.9,288.6,435.2z"/>
				</g>
				<g>
					<g>
						<path class="st10" d="M339.8,435.2c0,3.5-2.9,6.4-6.4,6.4c-3.5,0-6.4-2.9-6.4-6.4c0-3.5,2.9-6.4,6.4-6.4
							C336.9,428.8,339.8,431.6,339.8,435.2z"/>
					</g>
					<g class="st11">
						<path class="st12" d="M335.8,435.2c0,1.3-1.1,2.4-2.4,2.4c-1.3,0-2.4-1.1-2.4-2.4c0-1.3,1.1-2.4,2.4-2.4
							C334.7,432.8,335.8,433.9,335.8,435.2z"/>
					</g>
				</g>
			</g>
		</g>
	</g>
</g>
<g>
	<g>
		<path class="st13" d="M526.2,332.9c0-8.9,3.8-17.8,10.3-23.9c3.2-3,7-5.3,11.1-6.9c2.3-0.9,13.4-1.7,13.4-1.7s-1.3,8.5-3.5,12.8
			C552.3,323.2,542.1,331.6,526.2,332.9"/>
	</g>
	<g>
		<path class="st14" d="M558.9,358.2c4-4.9,9.8-8.4,16.1-9.5c6.3-1.1,12.9,0,18.4,3.2c0.2,0.1,0.4,0.2,0.4,0.4
			c0.1,0.2-0.1,0.5-0.3,0.7c-5.2,5.8-13.2,8.9-20.9,8.1C569.2,360.8,562.1,359.3,558.9,358.2"/>
	</g>
	<g>
		<path class="st13" d="M567.8,344.7c0-7.8,2.6-14.7,7.1-19.3s11.1-6.7,18-5.9c0.2,0,0.5,0.1,0.7,0.3c0.2,0.2,0.2,0.6,0.2,0.9
			c-0.4,9.3-5.1,17.1-12.2,20.2C578.5,342.3,571.3,344.2,567.8,344.7"/>
	</g>
	<g>
		<path class="st14" d="M579.9,330.8c3.1-5,6.8-9.5,11.1-13.5c1.7-1.6,3.5-3.1,5.6-4.2c6.7-3.6,14.9-2.5,22.1,0
			c-2.9,5.4-6.6,10.8-12.1,13.5c-2.4,1.2-5.1,1.9-7.7,2.5C593.6,330.2,585.2,330.1,579.9,330.8"/>
	</g>
	<g>
		<path class="st13" d="M576.1,317.8c-13.4-7-15.4-21.6-15.7-27c-0.2-3.4,0-7.2,2.8-9.6C579.8,287,584,298.3,576.1,317.8"/>
	</g>
	<g>
		<path class="st13" d="M518.4,315.7c1-7.1,2-14.8-1.2-21.2c-1.2-2.3-2.8-4.3-4.6-6.2c-4.4-4.5-10-8.2-16.3-8.2
			c-1.1,6.7,0.2,13.7,3.7,19.5c3.5,5.8,9.2,10.2,15.6,12.3"/>
	</g>
	<g>
		<path class="st14" d="M557.3,362.3c-7.5-2.5-13.8-8.2-17.1-15.3c-3.3-7.1-3.5-15.7-0.5-22.9c0.1-0.3,0.3-0.7,0.6-0.8
			c0.3-0.1,0.6,0.1,0.9,0.2C552.8,330.1,560.7,349.4,557.3,362.3"/>
	</g>
	<g>
		<path class="st14" d="M525.9,323c-2.2-6.2-2-13.2,0.3-19.4c2.4-6.2,6.9-11.4,12.7-14.6c2.3-1.3,4.9-2.3,7-4
			c0.7,3.1,1.2,6.3,1.4,9.5c0.2,3.2,0.2,6.4-0.6,9.5c-2.2,7.9-9.5,13.3-16.8,17"/>
	</g>
	<g>
		<path class="st14" d="M516.3,321.8c-12,1.5-26.8-3.4-33.2-14.7C503.6,296.6,516.3,312.6,516.3,321.8"/>
	</g>
	<g>
		<path class="st14" d="M523.3,348.6c-2.7-9.2-9.8-16.8-18.3-19.6c-8.5-2.8-18.3-0.6-25.2,5.5c-0.3,0.3-0.6,0.6-0.6,1
			c0,0.2,0.2,0.4,0.3,0.6c4.6,6.6,11.9,10.6,19.4,12.2c7.5,1.7,15.2,1.3,22.9,0.7"/>
	</g>
	<g>
		<g>
			<path class="st15" d="M507.8,299.4c6.2,6.2,10.1,14.1,13,22.4c3,8.5,5.2,17.3,6.9,26.2c3.7,18.7,4.7,37.6,6.8,56.4
				c0,0.3,0.4,0.3,0.4,0c-0.8-19.2-2.9-38.7-6.7-57.5c-1.9-9.2-4.2-18.4-7.6-27.2c-2.9-7.6-6.8-14.8-12.7-20.5
				C507.9,299,507.7,299.2,507.8,299.4L507.8,299.4z"/>
		</g>
	</g>
	<g>
		<g>
			<path class="st15" d="M529.9,356.3c-4.6-7.5-12.3-11.9-20.2-15.1c-8.9-3.6-19-5.9-28.6-5.2c-0.2,0-0.2,0.4,0,0.4
				c17.5,0.8,37.6,5,48.4,20.2C529.7,356.8,530.1,356.6,529.9,356.3L529.9,356.3z"/>
		</g>
	</g>
	<g>
		<g>
			<path class="st15" d="M526.3,338.8c-0.1-7-0.8-14.1,0.6-21.1c1.3-6.5,3.9-12.3,7.7-17.7c0.1-0.2-0.1-0.3-0.3-0.2
				c-9.4,10.6-9.5,25.7-8.3,39C526.1,338.9,526.3,338.9,526.3,338.8L526.3,338.8z"/>
		</g>
	</g>
	<g>
		<g>
			<path class="st15" d="M498.4,310.9c5.1,0.6,9.7,4.1,13.6,7.3c3.9,3.2,7.3,6.8,11.2,10c0.2,0.1,0.4-0.1,0.2-0.2
				c-3.9-3.9-8.1-7.7-12.4-11c-3.7-2.8-7.8-5.7-12.6-6.2C498.3,310.8,498.3,310.9,498.4,310.9L498.4,310.9z"/>
		</g>
	</g>
	<g>
		<g>
			<path class="st15" d="M552.6,379.9c2.8-14.6,8.7-28,18.5-39.4c4.7-5.5,10.1-10.3,16.1-14.4c6.3-4.3,13-7.2,20-9.8
				c0.3-0.1,0.2-0.5-0.1-0.5c-14.2,3.7-27.3,13.5-36.6,24.5c-9.3,11-16.4,25-18.2,39.5C552.2,380.1,552.6,380.1,552.6,379.9
				L552.6,379.9z"/>
		</g>
	</g>
	<g>
		<g>
			<path class="st15" d="M568.9,292.5c7,14.8,9.6,31.6,2.5,46.8c-0.1,0.3,0.3,0.6,0.5,0.3c8.5-14.2,4.4-33.4-2.6-47.3
				C569.1,292.1,568.8,292.3,568.9,292.5L568.9,292.5z"/>
		</g>
	</g>
	<path id="XMLID_547_" class="st16" d="M578,370.2v11.7c0,46.5-12.2,59.7-12.2,59.7h-37.9c0,0-12.2-13.2-12.2-59.7v-11.7H578z"/>
</g>
<g>
	<g>
		<line class="st9" x1="171.4" y1="441.6" x2="203.5" y2="287.6"/>
		<line class="st9" x1="235.6" y1="441.6" x2="203.5" y2="287.6"/>
	</g>
	<g>
		<line class="st9" x1="495.7" y1="441.6" x2="527.8" y2="287.6"/>
		<line class="st9" x1="560" y1="441.6" x2="527.8" y2="287.6"/>
	</g>
	<rect x="172.4" y="278.4" class="st17" width="383.6" height="9.2"/>
	<g>
		<path class="st18" d="M537.5,260.8H402c-2.4,0-4.2-2.2-3.8-4.6l15.6-87.6c0.5-2.8,2.9-4.8,5.7-4.8H555c2.4,0,4.2,2.2,3.8,4.6
			L543.3,256C542.8,258.8,540.3,260.8,537.5,260.8z"/>
		<path class="st19" d="M540.7,260.8H405.1c-2.4,0-4.2-2.2-3.8-4.6l15.6-87.6c0.5-2.8,2.9-4.8,5.7-4.8h135.6c2.4,0,4.2,2.2,3.8,4.6
			L546.4,256C545.9,258.8,543.5,260.8,540.7,260.8z"/>
		<path class="st20" d="M515.7,260.8h-78.3c-1.4,0-2.5-1.3-2.2-2.6l9-50.6c0.3-1.6,1.7-2.8,3.3-2.8h78.3c1.4,0,2.5,1.3,2.2,2.6
			l-9,50.6C518.8,259.6,517.4,260.8,515.7,260.8z"/>
		<path class="st21" d="M517.6,260.8h-78.3c-1.4,0-2.5-1.3-2.2-2.6l9-50.6c0.3-1.6,1.7-2.8,3.3-2.8h78.3c1.4,0,2.5,1.3,2.2,2.6
			l-9,50.6C520.6,259.6,519.2,260.8,517.6,260.8z"/>
		<rect x="468.5" y="231" class="st22" width="31.8" height="29.8"/>
		<path class="st18" d="M498.4,231h-30v8.5l8.2,33.9h31.8L498.4,231z M490.7,264.5c-3.6,0-7.3-4.2-8.4-9.3c-1.1-5.1,0.9-9.3,4.5-9.3
			s7.3,4.2,8.4,9.3C496.3,260.3,494.3,264.5,490.7,264.5z"/>
		<path class="st18" d="M451,273.5h71.2v4.8h-76l0,0C446.1,275.7,448.3,273.5,451,273.5z"/>
		<rect x="465.2" y="273.5" class="st5" width="56.9" height="4.8"/>
		<path class="st19" d="M500.3,231h-31.8l10,42.5h31.8L500.3,231z M492.5,264.5c-3.6,0-7.3-4.2-8.4-9.3c-1.1-5.1,0.9-9.3,4.5-9.3
			c3.6,0,7.3,4.2,8.4,9.3C498,260.3,496,264.5,492.5,264.5z"/>
		<g class="st23">
			<polygon class="st12" points="426,172.5 424.1,183.1 426,183.1 427.9,172.5 			"/>
			<polygon class="st12" points="431.5,172.5 429.6,183.1 431.5,183.1 433.4,172.5 			"/>
			<polygon class="st12" points="436.9,172.5 435,183.1 436.9,183.1 438.8,172.5 			"/>
			<polygon class="st12" points="442.4,172.5 440.5,183.1 442.4,183.1 444.3,172.5 			"/>
			<polygon class="st12" points="447.8,172.5 445.9,183.1 447.8,183.1 449.7,172.5 			"/>
		</g>
		<g class="st23">
			<polygon class="st12" points="497.6,172.5 495.7,183.1 497.6,183.1 499.4,172.5 			"/>
			<polygon class="st12" points="503.3,172.5 501.4,183.1 503.3,183.1 505.2,172.5 			"/>
			<polygon class="st12" points="509,172.5 507.1,183.1 509,183.1 510.9,172.5 			"/>
			<polygon class="st12" points="514.7,172.5 512.8,183.1 514.7,183.1 516.6,172.5 			"/>
			<polygon class="st12" points="520.5,172.5 518.6,183.1 520.5,183.1 522.3,172.5 			"/>
			<polygon class="st12" points="526.2,172.5 524.3,183.1 526.2,183.1 528.1,172.5 			"/>
			<polygon class="st12" points="531.9,172.5 530,183.1 531.9,183.1 533.8,172.5 			"/>
			<polygon class="st12" points="537.6,172.5 535.8,183.1 537.6,183.1 539.5,172.5 			"/>
			<polygon class="st12" points="543.4,172.5 541.5,183.1 543.4,183.1 545.3,172.5 			"/>
			<polygon class="st12" points="549.1,172.5 547.2,183.1 549.1,183.1 551,172.5 			"/>
		</g>
	</g>
	<g>
		<g class="st24">
			<linearGradient id="SVGID_1_" gradientUnits="userSpaceOnUse" x1="293.1257" y1="254.3645" x2="293.1257" y2="226.7599">
				<stop  offset="0" style="stop-color:#FFFFFF;stop-opacity:0.1"/>
				<stop  offset="1" style="stop-color:#FFFFFF;stop-opacity:0.4"/>
			</linearGradient>
			<path class="st25" d="M280.5,254.4c0,0,0.9-0.2,1.2-0.7c0.7-1-0.5-2.1-1.3-2.6c-1-0.7-2.4-0.9-2.9-2.1c-0.6-1.4,0.4-3,1.6-3.8
				c1-0.7,2.1-1,3.3-1.4c1.2-0.5,2.5-1.2,3.2-2.4c0.9-1.4,0.7-3.3,0.8-4.9c0.5-6.4,7-9.5,12.5-9.7c2.7-0.1,6.9,0.9,8.8,3.1
				c0.6,0.7,1.1,1.6,1.3,2.5c0.3,1.4-0.3,2.8-1.2,3.8c-0.9,1.1-2.2,1.7-3.3,2.7c-1.1,1-0.3,2.1-0.6,3.3c-0.3,1.3-1.2,1.9-2.3,2.5
				c-2.4,1.4-5.3,1.7-8,2.4c-0.8,0.2-1.7,0.5-2.3,1c-0.9,0.7-1.4,1.7-2,2.6c-1.2,1.6-3,2.8-5,3.2"/>
		</g>
		<g>
			<g>
				<path class="st26" d="M295.7,270.4h-5.2v-2.5h5.2c1.7,0,3-1.4,3-3v-4.3c0-1.7-1.4-3-3-3h-5.2v-2.5h5.2c3.1,0,5.5,2.5,5.5,5.5
					v4.3C301.3,267.9,298.8,270.4,295.7,270.4z"/>
			</g>
		</g>
		<path class="st26" d="M288.3,277h-8.8c-3.4,0-6.1-2.7-6.1-6.1v-19.3h21v19.3C294.4,274.2,291.7,277,288.3,277z"/>
		<path class="st27" d="M270,273.4c0,0,0.2,4.9,7.9,4.9h12.1c7.7,0,7.9-4.9,7.9-4.9H270z"/>
	</g>
	<g id="XMLID_30_">
		<g id="XMLID_96_">
			<g>
				<rect id="XMLID_143_" x="327.8" y="276.4" class="st18" width="111.3" height="2"/>
				<rect id="XMLID_142_" x="331.6" y="274.8" class="st18" width="8" height="1.6"/>
				<rect id="XMLID_141_" x="343.6" y="274.8" class="st18" width="8" height="1.6"/>
				<rect id="XMLID_140_" x="355.7" y="274.8" class="st18" width="8" height="1.6"/>
				<rect id="XMLID_139_" x="367.8" y="274.8" class="st18" width="8" height="1.6"/>
				<rect id="XMLID_138_" x="379.8" y="274.8" class="st18" width="8" height="1.6"/>
				<rect id="XMLID_137_" x="391.9" y="274.8" class="st18" width="8" height="1.6"/>
				<rect id="XMLID_136_" x="404" y="274.8" class="st18" width="8" height="1.6"/>
				<rect id="XMLID_135_" x="416.1" y="274.8" class="st18" width="8" height="1.6"/>
				<rect id="XMLID_134_" x="428.1" y="274.8" class="st18" width="8" height="1.6"/>
			</g>
		</g>
		<g id="XMLID_51_">
			<g>
				<rect id="XMLID_133_" x="329.2" y="276.4" class="st5" width="111.3" height="2"/>
				<rect id="XMLID_132_" x="333" y="274.8" class="st5" width="8" height="1.6"/>
				<rect id="XMLID_131_" x="345.1" y="274.8" class="st5" width="8" height="1.6"/>
				<rect id="XMLID_129_" x="357.2" y="274.8" class="st5" width="8" height="1.6"/>
				<rect id="XMLID_127_" x="369.2" y="274.8" class="st5" width="8" height="1.6"/>
				<rect id="XMLID_122_" x="381.3" y="274.8" class="st5" width="8" height="1.6"/>
				<rect id="XMLID_121_" x="393.4" y="274.8" class="st5" width="8" height="1.6"/>
				<rect id="XMLID_120_" x="405.4" y="274.8" class="st5" width="8" height="1.6"/>
				<rect id="XMLID_119_" x="417.5" y="274.8" class="st5" width="8" height="1.6"/>
				<rect id="XMLID_118_" x="429.6" y="274.8" class="st5" width="8" height="1.6"/>
			</g>
		</g>
	</g>
</g>
<g>
	<g>
		<path class="st13" d="M170.9,353c1.4-5.5,0.8-11.5-1.7-16.6c-2.5-5.1-6.8-9.3-12-11.6c-2.1-0.9-4.4-1.6-6.3-2.9
			c-0.4,2.7-0.5,5.5-0.5,8.2c0,2.7,0.3,5.5,1.2,8c2.4,6.6,9.1,10.7,15.6,13.3"/>
	</g>
	<g>
		<g>
			<path class="st15" d="M171.7,370.7c0.2-12.8,0.4-27.4-9.7-36.9c-0.2-0.2-0.4,0.1-0.2,0.2c4.5,5.2,7.7,11.6,8.7,18.5
				c0.8,6,0.5,12.1,1,18.2C171.4,370.9,171.7,370.9,171.7,370.7L171.7,370.7z"/>
		</g>
	</g>
	<g>
		<path class="st13" d="M155.3,387.5c-1-7.6-5.2-14.7-11.4-19.2c-3.1-2.2-6.6-3.8-10.2-4.6c-2.1-0.5-11.6,0-11.6,0s2,7.1,4.4,10.5
			C131.9,382.1,141.6,388.2,155.3,387.5"/>
	</g>
	<g>
		<path class="st14" d="M146.9,363.1c-0.2-4.6-1.1-9.2-2.5-13.5c-0.6-1.8-1.2-3.5-2.2-5c-3.2-5-9.1-7.4-14.8-8.4
			c-0.1,4.8,0.5,9.9,3.1,13.9c1.2,1.8,2.7,3.2,4.3,4.6C138,357.5,143.6,360.6,146.9,363.1"/>
	</g>
	<g>
		<path class="st14" d="M179.3,346.3c-0.9-6.1-1.7-12.7,1.1-18.2c1-2,2.4-3.7,4-5.3c3.7-3.8,8.6-7,14-7c1,5.7-0.2,11.8-3.2,16.8
			C192,337.5,184.8,344.6,179.3,346.3"/>
	</g>
	<g>
		<path class="st14" d="M169.4,381.9c5.7,1.2,11.8-0.1,16.6-3.4s8-8.7,8.9-14.4c0-0.3,0.1-0.5-0.1-0.7c-0.2-0.2-0.4-0.2-0.7-0.2
			C184.3,363,172.1,372.4,169.4,381.9"/>
	</g>
	<g>
		<path class="st14" d="M149.2,359.8c8.1-4.6,13.3-13.7,13.5-23.6c-5.8-0.3-10.3,3.3-12.8,6.4C146.3,346.8,146,354.4,149.2,359.8"/>
	</g>
	<g>
		<path class="st14" d="M155.1,375.8c-2.2-5.4-1.5-11.8,1.8-16.6c3.2-4.8,9-7.9,14.8-7.9c0.2,0,0.5,0,0.7,0.2
			c0.1,0.1,0.1,0.3,0.1,0.4c0.2,5-2,9.8-5.1,13.7c-3.1,3.9-7.2,6.9-11.2,9.8"/>
	</g>
	<g>
		<g>
			<path class="st15" d="M188.1,332.1c-10.8,10.3-14.6,26.7-17.4,40.7c-3.3,16.2-5.2,33.1-5.8,49.6c0,0.3,0.4,0.3,0.4,0
				c1.9-16.2,2.7-32.4,5.9-48.5c2.8-14.3,6.5-30.9,17.1-41.7C188.5,332.2,188.3,332,188.1,332.1L188.1,332.1z"/>
		</g>
	</g>
	<g>
		<g>
			<path class="st15" d="M155.1,384.4c-0.2-4.9,0.7-9.2,1.8-13.9c0-0.2-0.2-0.3-0.3-0.1c-2,3.9-2.6,9.8-1.9,14.2
				C154.6,384.7,155.1,384.6,155.1,384.4L155.1,384.4z"/>
		</g>
	</g>
	<g>
		<g>
			<path class="st15" d="M155.7,343c-6.5,5.9-8.1,18.2-5.5,26.1c0.1,0.2,0.4,0.1,0.3-0.1C148.7,360.7,149.3,349.4,155.7,343
				C155.9,343,155.8,343,155.7,343L155.7,343z"/>
		</g>
	</g>
	<g>
		<g>
			<path class="st15" d="M158.1,412.5c0.4-11.3-1.5-23.1-4.6-33.9c-3.1-10.7-8-22.2-16.1-30.1c-0.2-0.2-0.5,0.1-0.3,0.3
				c3.6,4.5,7,8.9,9.7,14.1c2.7,5.3,4.8,10.8,6.4,16.5c3.1,10.9,3.9,21.8,4.6,33C157.7,412.8,158.1,412.8,158.1,412.5L158.1,412.5z"
				/>
		</g>
	</g>
	<path id="XMLID_5_" class="st16" d="M191.2,392.9v8c0,31.7-10.5,40.7-10.5,40.7h-32.5c0,0-10.5-9-10.5-40.7v-8H191.2z"/>
</g>
<line class="st28" x1="119.8" y1="441.6" x2="630.2" y2="441.6"/>
<g>
	<g>
		<path class="st5" d="M260.4,205.3c0.6,0,0.6-1,0-1C259.8,204.3,259.8,205.3,260.4,205.3L260.4,205.3z"/>
	</g>
</g>
</svg>
