

<svg xmlns="http://www.w3.org/2000/svg" xml:space="preserve" width="150.836mm" height="108.472mm" version="1.1" style="shape-rendering:geometricPrecision; text-rendering:geometricPrecision; image-rendering:optimizeQuality; fill-rule:evenodd; clip-rule:evenodd"
viewBox="0 0 14330.75 10305.8"
 xmlns:xlink="http://www.w3.org/1999/xlink"
 xmlns:xodm="http://www.corel.com/coreldraw/odm/2003">
 <defs>
  <style type="text/css">
   <![CDATA[
    .str3 {stroke:#544943;stroke-width:39.9;stroke-miterlimit:22.9256}
    .str4 {stroke:#475577;stroke-width:53.2;stroke-miterlimit:22.9256}
    .str0 {stroke:#C0CCD8;stroke-width:26.6;stroke-miterlimit:22.9256}
    .str1 {stroke:#C0CCD8;stroke-width:26.6;stroke-linejoin:round;stroke-miterlimit:22.9256}
    .str2 {stroke:#C0CCD8;stroke-width:26.6;stroke-linecap:round;stroke-linejoin:round;stroke-miterlimit:22.9256}
    .fil0 {fill:none}
    .fil2 {fill:none;fill-rule:nonzero}
    .fil13 {fill:#475577;fill-rule:nonzero}
    .fil10 {fill:#597F6E;fill-rule:nonzero}
    .fil6 {fill:#717A91;fill-rule:nonzero}
    .fil8 {fill:#8EBCA2;fill-rule:nonzero}
    .fil5 {fill:#9E9E9E;fill-rule:nonzero}
    .fil9 {fill:#A2CCB6;fill-rule:nonzero}
    .fil16 {fill:#AFAFAF;fill-rule:nonzero}
    .fil3 {fill:#C0CCD8;fill-rule:nonzero}
    .fil19 {fill:#C6D2E0;fill-rule:nonzero}
    .fil4 {fill:#C9C9C9;fill-rule:nonzero}
    .fil20 {fill:#D1D1D1;fill-rule:nonzero}
    .fil14 {fill:#E2E2E2;fill-rule:nonzero}
    .fil12 {fill:#E7EAF2;fill-rule:nonzero}
    .fil18 {fill:#E8EAEF;fill-rule:nonzero}
    .fil15 {fill:#F2F2F2;fill-rule:nonzero}
    .fil11 {fill:#F2F5F9;fill-rule:nonzero}
    .fil1 {fill:white;fill-rule:nonzero}
    .fil7 {fill:#8E9DB2;fill-rule:nonzero;fill-opacity:0.450980}
    .fil17 {fill:#8E9DB2;fill-rule:nonzero;fill-opacity:0.650980}
   ]]>
  </style>
 </defs>
 <g id="Layer_x0020_1">
  <metadata id="CorelCorpID_0Corel-Layer"/>
  <g id="_1925592496208">
   <g>
    <path class="fil0 str0" d="M7392.83 2583.1l-3120.47 0c-47.88,0 -85.13,-37.24 -85.13,-85.13l0 -1819.61c0,-47.88 37.24,-85.13 85.13,-85.13l3120.47 0c47.88,0 85.13,37.24 85.13,85.13l0 1816.95c0,47.88 -37.24,87.79 -85.13,87.79z"/>
    <line class="fil0 str0" x1="4187.23" y1="952.37" x2="7477.95" y2= "952.37" />
    <circle class="fil0 str0" cx="4400.05" cy="776.79" r="53.2"/>
    <path class="fil0 str0" d="M4668.73 776.79c0,29.26 -23.94,53.2 -53.2,53.2 -29.26,0 -53.2,-23.94 -53.2,-53.2 0,-29.26 23.94,-53.2 53.2,-53.2 29.26,0 53.2,23.94 53.2,53.2z"/>
    <path class="fil0 str0" d="M4884.21 776.79c0,29.26 -23.94,53.2 -53.2,53.2 -29.26,0 -53.2,-23.94 -53.2,-53.2 0,-29.26 23.94,-53.2 53.2,-53.2 31.92,0 53.2,23.94 53.2,53.2z"/>
   </g>
   <path class="fil1 str1" d="M10340.38 2551.18l-218.14 -226.12 -3351.91 0c-156.95,0 -284.65,-127.69 -284.65,-284.65l0 -1742.46c0,-156.95 127.69,-284.65 284.65,-284.65l3370.53 0c156.95,0 284.65,127.69 284.65,284.65l0 2221.31c-2.66,42.56 -55.87,61.19 -85.13,31.92z"/>
   <path class="fil2 str2" d="M130.35 3971.75c0,31.92 -26.6,58.53 -58.53,58.53 -31.92,0 -58.53,-26.6 -58.53,-58.53 0,-31.92 26.6,-58.53 58.53,-58.53 31.92,0 58.53,26.6 58.53,58.53z"/>
   <path class="fil2 str2" d="M10090.32 7132.12c0,31.92 -26.6,58.53 -58.53,58.53 -31.92,0 -58.53,-26.6 -58.53,-58.53 0,-31.92 26.6,-58.53 58.53,-58.53 31.92,0 58.53,26.6 58.53,58.53z"/>
   <path class="fil2 str2" d="M14163.15 2263.87c0,31.92 -26.6,58.53 -58.53,58.53 -31.92,0 -58.53,-26.6 -58.53,-58.53 0,-31.92 26.6,-58.53 58.53,-58.53 31.92,0 58.53,26.6 58.53,58.53z"/>
   <path class="fil2 str2" d="M10965.54 430.96c0,31.92 -26.6,58.53 -58.53,58.53 -31.92,0 -58.53,-26.6 -58.53,-58.53 0,-31.92 26.6,-58.53 58.53,-58.53 31.92,0 58.53,26.6 58.53,58.53z"/>
   <g>
    <line class="fil2 str2" x1="14046.1" y1="4203.19" x2="14046.1" y2= "4386.75" />
    <line class="fil2 str2" x1="14136.55" y1="4296.3" x2="13953" y2= "4296.3" />
   </g>
   <g>
    <line class="fil2 str2" x1="9247.02" y1="7738.66" x2="9247.02" y2= "7922.22" />
    <line class="fil2 str2" x1="9340.13" y1="7831.77" x2="9156.57" y2= "7831.77" />
   </g>
   <g>
    <line class="fil2 str2" x1="5365.72" y1="93.11" x2="5365.72" y2= "276.67" />
    <line class="fil2 str2" x1="5456.17" y1="183.56" x2="5272.61" y2= "183.56" />
   </g>
   <g>
    <line class="fil2 str2" x1="1255.64" y1="1867.49" x2="1255.64" y2= "2051.05" />
    <line class="fil2 str2" x1="1346.08" y1="1957.94" x2="1162.53" y2= "1957.94" />
   </g>
   <g>
    <line class="fil2 str2" x1="957.69" y1="6091.97" x2="957.69" y2= "6275.52" />
    <line class="fil2 str2" x1="1048.14" y1="6185.07" x2="864.58" y2= "6185.07" />
   </g>
   <g>
    <line class="fil2 str2" x1="11361.91" y1="1130.6" x2="11361.91" y2= "1314.16" />
    <line class="fil2 str2" x1="11455.02" y1="1223.71" x2="11271.47" y2= "1223.71" />
   </g>
   <path class="fil2 str0" d="M2322.4 5049.15l-1838.23 0c-31.92,0 -58.53,-26.6 -58.53,-58.53l0 0c0,-31.92 26.6,-58.53 58.53,-58.53l1838.23 0c31.92,0 58.53,26.6 58.53,58.53l0 0c0,31.92 -26.6,58.53 -58.53,58.53z"/>
   <path class="fil2 str0" d="M13138.96 3580.69l-1838.23 0c-31.92,0 -58.53,-26.6 -58.53,-58.53l0 0c0,-31.92 26.6,-58.53 58.53,-58.53l1838.23 0c31.92,0 58.53,26.6 58.53,58.53l0 0c0,31.92 -26.6,58.53 -58.53,58.53z"/>
   <path class="fil3" d="M13407.64 3971.75l-678.36 0c-15.96,0 -29.26,-13.3 -29.26,-29.26l0 0c0,-15.96 13.3,-29.26 29.26,-29.26l678.36 0c15.96,0 29.26,13.3 29.26,29.26l0 0c0,15.96 -13.3,29.26 -29.26,29.26z"/>
   <path class="fil3" d="M11609.32 2588.42l-678.36 0c-15.96,0 -29.26,-13.3 -29.26,-29.26l0 0c0,-15.96 13.3,-29.26 29.26,-29.26l678.36 0c15.96,0 29.26,13.3 29.26,29.26l0 0c0,15.96 -13.3,29.26 -29.26,29.26z"/>
   <path class="fil3" d="M1638.71 4535.72l-518.75 0c-15.96,0 -29.26,-13.3 -29.26,-29.26l0 0c0,-15.96 13.3,-29.26 29.26,-29.26l518.75 0c15.96,0 29.26,13.3 29.26,29.26l0 0c0,15.96 -13.3,29.26 -29.26,29.26z"/>
   <g>
    <path class="fil2 str1" d="M12125.41 1971.24l561.31 0c53.2,0 98.43,-45.22 98.43,-98.43l0 -561.31c0,-53.2 -45.22,-98.43 -98.43,-98.43l-561.31 0c-53.2,0 -98.43,45.22 -98.43,98.43l0 561.31c0,53.2 42.56,98.43 98.43,98.43z"/>
    <g>
     <g>
      <path class="fil3" d="M12513.8 1558.9l-13.3 66.51 71.83 0 0 58.53 -82.47 0 -21.28 114.39 -61.19 0 21.28 -114.39 -79.81 0 -21.28 114.39 -61.19 0 21.28 -114.39 -66.51 0 0 -58.53 77.15 0 13.3 -66.51 -71.83 0 0 -58.53 82.47 0 21.28 -114.39 61.19 0 -21.28 114.39 79.81 0 21.28 -114.39 61.19 0 -21.28 114.39 66.51 0 0 58.53 -77.15 0zm-156.95 66.51l79.81 0 13.3 -66.51 -79.81 0 -13.3 66.51z"/>
     </g>
    </g>
   </g>
   <g>
    <path class="fil4" d="M6012.16 7222.57l-532.05 -3498.22 -2402.2 0 574.61 3705.72c39.9,250.06 247.4,428.3 508.11,428.3l4038.25 0 29.26 -340.51 -1864.83 0c-180.9,2.66 -324.55,-119.71 -351.15,-295.29z"/>
    <path class="fil5" d="M3737.65 7222.57l-513.43 -3367.87c-10.64,-77.15 -74.49,-130.35 -151.63,-130.35l-5.32 0c-109.07,0 -199.52,103.75 -183.56,207.5l542.69 3498.22c39.9,250.06 247.4,428.3 508.11,428.3l2601.72 0 29.26 -340.51 -2476.69 0c-178.24,2.66 -324.55,-119.71 -351.15,-295.29z"/>
    <g>
     <g>
      <g>
       <line class="fil2 str3" x1="5365.72" y1="7861.03" x2="5365.72" y2= "9768.43" />
      </g>
      <g>
       <g>
        <path class="fil2 str3" d="M4293.64 9938.68l0 0c0,-93.11 74.49,-167.6 167.6,-167.6l1803.65 0c93.11,0 167.6,74.49 167.6,167.6l0 0"/>
       </g>
       <g>
        <path class="fil2 str3" d="M5179.5 9938.68l0 0c0,-93.11 74.49,-167.6 167.6,-167.6"/>
       </g>
       <g>
        <g>
         <path class="fil6" d="M4463.89 10108.94c0,93.11 -77.15,170.26 -170.26,170.26 -93.11,0 -170.26,-77.15 -170.26,-170.26 0,-93.11 77.15,-170.26 170.26,-170.26 95.77,0 170.26,74.49 170.26,170.26z"/>
        </g>
        <g>
         <path class="fil7" d="M4357.48 10108.94c0,34.58 -29.26,63.85 -63.85,63.85 -34.58,0 -63.85,-29.26 -63.85,-63.85 0,-34.58 29.26,-63.85 63.85,-63.85 34.58,0 63.85,29.26 63.85,63.85z"/>
        </g>
       </g>
       <g>
        <path class="fil6" d="M5349.76 10108.94c0,93.11 -77.15,170.26 -170.26,170.26 -93.11,0 -170.26,-77.15 -170.26,-170.26 0,-93.11 77.15,-170.26 170.26,-170.26 95.77,0 170.26,74.49 170.26,170.26z"/>
       </g>
       <g>
        <path class="fil7" d="M5243.35 10108.94c0,34.58 -29.26,63.85 -63.85,63.85 -34.58,0 -63.85,-29.26 -63.85,-63.85 0,-34.58 29.26,-63.85 63.85,-63.85 34.58,0 63.85,29.26 63.85,63.85z"/>
       </g>
       <g>
        <g>
         <path class="fil6" d="M6605.39 10108.94c0,93.11 -77.15,170.26 -170.26,170.26 -93.11,0 -170.26,-77.15 -170.26,-170.26 0,-93.11 77.15,-170.26 170.26,-170.26 93.11,0 170.26,74.49 170.26,170.26z"/>
        </g>
        <g>
         <path class="fil7" d="M6498.98 10108.94c0,34.58 -29.26,63.85 -63.85,63.85 -34.58,0 -63.85,-29.26 -63.85,-63.85 0,-34.58 29.26,-63.85 63.85,-63.85 34.58,0 63.85,29.26 63.85,63.85z"/>
        </g>
       </g>
      </g>
     </g>
    </g>
   </g>
   <g>
    <g>
     <path class="fil8" d="M11564.09 7387.51c0,-236.76 101.09,-473.52 274.01,-635.8 85.13,-79.81 186.22,-140.99 295.29,-183.56 61.19,-23.94 356.47,-45.22 356.47,-45.22 0,0 -34.58,226.12 -93.11,340.51 -138.33,266.02 -409.68,489.49 -832.66,524.07z"/>
    </g>
    <g>
     <path class="fil9" d="M12433.99 8060.55c106.41,-130.35 260.7,-223.46 428.3,-252.72 167.6,-29.26 343.17,0 489.49,85.13 5.32,2.66 10.64,5.32 10.64,10.64 2.66,5.32 -2.66,13.3 -7.98,18.62 -138.33,154.29 -351.15,236.76 -555.99,215.48 -90.45,-7.98 -279.33,-47.88 -364.45,-77.15z"/>
    </g>
    <g>
     <path class="fil8" d="M12670.76 7701.41c0,-207.5 69.17,-391.06 188.88,-513.43 119.71,-122.37 295.29,-178.24 478.84,-156.95 5.32,0 13.3,2.66 18.62,7.98 5.32,5.32 5.32,15.96 5.32,23.94 -10.64,247.4 -135.67,454.9 -324.55,537.37 -82.47,37.24 -274.01,87.79 -367.11,101.09z"/>
    </g>
    <g>
     <path class="fil9" d="M12992.65 7331.64c82.47,-133.01 180.9,-252.72 295.29,-359.13 45.22,-42.56 93.11,-82.47 148.97,-111.73 178.24,-95.77 396.38,-66.51 587.91,0 -77.15,143.65 -175.58,287.31 -321.89,359.13 -63.85,31.92 -135.67,50.54 -204.84,66.51 -140.99,29.26 -364.45,26.6 -505.45,45.22z"/>
    </g>
    <g>
     <path class="fil8" d="M12891.56 6985.81c-356.47,-186.22 -409.68,-574.61 -417.66,-718.27 -5.32,-90.45 0,-191.54 74.49,-255.38 441.6,154.29 553.33,454.9 343.17,973.65z"/>
    </g>
    <g>
     <g>
      <path class="fil8" d="M11356.59 6929.94c26.6,-188.88 53.2,-393.72 -31.92,-563.97 -31.92,-61.19 -74.49,-114.39 -122.37,-164.94 -117.05,-119.71 -266.02,-218.14 -433.62,-218.14 -29.26,178.24 5.32,364.45 98.43,518.75 93.11,154.29 244.74,271.35 415,327.21l74.49 101.09zm0 0l0 0 0 0z"/>
     </g>
    </g>
    <g>
     <path class="fil9" d="M12391.43 8169.62c-199.52,-66.51 -367.11,-218.14 -454.9,-407.02 -87.79,-188.88 -93.11,-417.66 -13.3,-609.2 2.66,-7.98 7.98,-18.62 15.96,-21.28 7.98,-2.66 15.96,2.66 23.94,5.32 308.59,175.58 518.75,689 428.3,1032.18z"/>
    </g>
    <g>
     <g>
      <path class="fil9" d="M11556.11 7124.14c-58.53,-164.94 -53.2,-351.15 7.98,-516.09 63.85,-164.94 183.56,-303.27 337.85,-388.4 61.19,-34.58 130.35,-61.19 186.22,-106.41 18.62,82.47 31.92,167.6 37.24,252.72 5.32,85.13 5.32,170.26 -15.96,252.72 -58.53,210.16 -252.72,353.81 -446.92,452.24l-106.41 53.2zm0 0l0 0 0 0z"/>
     </g>
    </g>
    <g id="_1925592945120">
     <path class="fil9" d="M11300.73 7092.22c-319.23,39.9 -712.95,-90.45 -883.2,-391.06 545.35,-279.33 883.2,146.31 883.2,391.06z"/>
    </g>
    <g id="_1925592946032">
     <g>
      <path class="fil9" d="M11486.95 7805.16c-71.83,-244.74 -260.7,-446.92 -486.83,-521.41 -226.12,-74.49 -486.83,-15.96 -670.38,146.31 -7.98,7.98 -15.96,15.96 -15.96,26.6 0,5.32 5.32,10.64 7.98,15.96 122.37,175.58 316.57,281.99 516.09,324.55 199.52,45.22 404.36,34.58 609.2,18.62l39.9 -10.64zm0 0l0 0 0 0z"/>
     </g>
    </g>
    <g>
     <g id="_1925592945072">
      <path class="fil10" d="M11074.61 6496.32c164.94,164.94 268.68,375.09 345.83,595.9 79.81,226.12 138.33,460.22 183.56,696.98 98.43,497.47 125.03,1000.25 180.9,1500.38 0,7.98 10.64,7.98 10.64,0 -21.28,-510.77 -77.15,-1029.52 -178.24,-1529.64 -50.54,-244.74 -111.73,-489.49 -202.18,-723.59 -77.15,-202.18 -180.9,-393.72 -337.85,-545.35 0,-5.32 -5.32,0 -2.66,5.32l0 0z"/>
     </g>
    </g>
    <g>
     <g id="_1925592945744">
      <path class="fil10" d="M11662.52 8010c-122.37,-199.52 -327.21,-316.57 -537.37,-401.7 -236.76,-95.77 -505.45,-156.95 -760.83,-138.33 -5.32,0 -5.32,10.64 0,10.64 465.54,21.28 1000.25,133.01 1287.56,537.37 5.32,5.32 15.96,0 10.64,-7.98l0 0z"/>
     </g>
    </g>
    <g>
     <g id="_1925592946896">
      <path class="fil10" d="M11566.75 7544.46c-2.66,-186.22 -21.28,-375.09 15.96,-561.31 34.58,-172.92 103.75,-327.21 204.84,-470.86 2.66,-5.32 -2.66,-7.98 -7.98,-5.32 -250.06,281.99 -252.72,683.68 -220.8,1037.5 2.66,2.66 7.98,2.66 7.98,0l0 0z"/>
     </g>
    </g>
    <g>
     <g id="_1925592947040">
      <path class="fil10" d="M10824.54 6802.25c135.67,15.96 258.04,109.07 361.79,194.2 103.75,85.13 194.2,180.9 297.95,266.02 5.32,2.66 10.64,-2.66 5.32,-5.32 -103.75,-103.75 -215.48,-204.84 -329.87,-292.63 -98.43,-74.49 -207.5,-151.63 -335.19,-164.94 -2.66,0 -2.66,2.66 0,2.66l0 0z"/>
     </g>
    </g>
    <g>
     <g id="_1925592945024">
      <path class="fil10" d="M12266.4 8637.82c74.49,-388.4 231.44,-744.87 492.15,-1048.14 125.03,-146.31 268.68,-274.01 428.3,-383.08 167.6,-114.39 345.83,-191.54 532.05,-260.7 7.98,-2.66 5.32,-13.3 -2.66,-13.3 -377.76,98.43 -726.25,359.13 -973.65,651.76 -247.4,292.63 -436.28,665.06 -484.16,1050.8 -2.66,7.98 7.98,7.98 7.98,2.66l0 0z"/>
     </g>
    </g>
    <g>
     <g id="_1925592944448">
      <path class="fil10" d="M12700.02 6312.77c186.22,393.72 255.38,840.64 66.51,1245 -2.66,7.98 7.98,15.96 13.3,7.98 226.12,-377.76 117.05,-888.52 -69.17,-1258.3 -5.32,-5.32 -13.3,0 -10.64,5.32l0 0z"/>
     </g>
    </g>
    <path id="XMLID_547_" class="fil11" d="M12942.1 8379.78l0 311.25c0,1237.01 -324.55,1588.17 -324.55,1588.17l-1008.23 0c0,0 -324.55,-351.15 -324.55,-1588.17l0 -311.25 1657.33 0z"/>
   </g>
   <g>
    <line class="fil2 str3" x1="2125.54" y1="10279.19" x2="2979.48" y2= "6182.41" />
    <line class="fil2 str3" x1="3833.42" y1="10279.19" x2="2979.48" y2= "6182.41" />
   </g>
   <g>
    <line class="fil2 str3" x1="10752.72" y1="10279.19" x2="11606.66" y2= "6182.41" />
    <line class="fil2 str3" x1="12463.26" y1="10279.19" x2="11606.66" y2= "6182.41" />
   </g>
   <rect class="fil12" x="2152.14" y="5937.67" width="10204.71" height="244.74"/>
   <g>
    <path class="fil13" d="M11864.7 5469.47l-3604.63 0c-63.85,0 -111.73,-58.53 -101.09,-122.37l415 -2330.38c13.3,-74.49 77.15,-127.69 151.63,-127.69l3604.63 0c63.85,0 111.73,58.53 101.09,122.37l-412.34 2330.38c-13.3,74.49 -79.81,127.69 -154.29,127.69z"/>
    <path class="fil14" d="M11949.83 5469.47l-3607.29 0c-63.85,0 -111.73,-58.53 -101.09,-122.37l415 -2330.38c13.3,-74.49 77.15,-127.69 151.63,-127.69l3607.29 0c63.85,0 111.73,58.53 101.09,122.37l-415 2330.38c-13.3,74.49 -77.15,127.69 -151.63,127.69z"/>
    <path class="fil7" d="M11284.77 5469.47l-2082.97 0c-37.24,0 -66.51,-34.58 -58.53,-69.17l239.42 -1346.08c7.98,-42.56 45.22,-74.49 87.79,-74.49l2082.97 0c37.24,0 66.51,34.58 58.53,69.17l-239.42 1346.08c-5.32,42.56 -42.56,74.49 -87.79,74.49z"/>
    <path class="fil15" d="M11335.31 5469.47l-2082.97 0c-37.24,0 -66.51,-34.58 -58.53,-69.17l239.42 -1346.08c7.98,-42.56 45.22,-74.49 87.79,-74.49l2082.97 0c37.24,0 66.51,34.58 58.53,69.17l-239.42 1346.08c-7.98,42.56 -45.22,74.49 -87.79,74.49z"/>
    <rect class="fil16" x="10029.13" y="4676.71" width="845.96" height="792.75"/>
    <path class="fil13" d="M10824.54 4676.71l-798.07 0 0 226.12 218.14 901.82 845.96 0 -266.02 -1127.94zm-204.84 891.18c-95.77,0 -194.2,-111.73 -223.46,-247.4 -29.26,-135.67 23.94,-247.4 119.71,-247.4 95.77,0 194.2,111.73 223.46,247.4 29.26,135.67 -23.94,247.4 -119.71,247.4z"/>
    <path class="fil13" d="M9563.59 5807.32l1894.1 0 0 127.69 -2021.79 0 0 0c-2.66,-69.17 55.87,-127.69 127.69,-127.69z"/>
    <rect class="fil3" x="9941.34" y="5807.32" width="1513.68" height="127.69"/>
    <path class="fil14" d="M10875.09 4676.71l-845.96 0 266.02 1130.6 845.96 0 -266.02 -1130.6zm-207.5 891.18c-95.77,0 -194.2,-111.73 -223.46,-247.4 -29.26,-135.67 23.94,-247.4 119.71,-247.4 95.77,0 194.2,111.73 223.46,247.4 26.6,135.67 -26.6,247.4 -119.71,247.4z"/>
    <g>
     <polygon class="fil17" points="8898.53,3120.47 8847.98,3402.46 8898.53,3402.46 8949.07,3120.47 "/>
     <polygon class="fil17" points="9044.84,3120.47 8994.29,3402.46 9044.84,3402.46 9095.38,3120.47 "/>
     <polygon class="fil17" points="9188.49,3120.47 9137.95,3402.46 9188.49,3402.46 9239.04,3120.47 "/>
     <polygon class="fil17" points="9334.81,3120.47 9284.26,3402.46 9334.81,3402.46 9385.35,3120.47 "/>
     <polygon class="fil17" points="9478.46,3120.47 9427.92,3402.46 9478.46,3402.46 9529,3120.47 "/>
    </g>
    <g>
     <polygon class="fil17" points="10803.26,3120.47 10752.72,3402.46 10803.26,3402.46 10851.15,3120.47 "/>
     <polygon class="fil17" points="10954.9,3120.47 10904.35,3402.46 10954.9,3402.46 11005.44,3120.47 "/>
     <polygon class="fil17" points="11106.53,3120.47 11055.99,3402.46 11106.53,3402.46 11157.08,3120.47 "/>
     <polygon class="fil17" points="11258.16,3120.47 11207.62,3402.46 11258.16,3402.46 11308.71,3120.47 "/>
     <polygon class="fil17" points="11412.46,3120.47 11361.91,3402.46 11412.46,3402.46 11460.34,3120.47 "/>
     <polygon class="fil17" points="11564.09,3120.47 11513.55,3402.46 11564.09,3402.46 11614.64,3120.47 "/>
     <polygon class="fil17" points="11715.73,3120.47 11665.18,3402.46 11715.73,3402.46 11766.27,3120.47 "/>
     <polygon class="fil17" points="11867.36,3120.47 11819.48,3402.46 11867.36,3402.46 11917.91,3120.47 "/>
     <polygon class="fil17" points="12021.66,3120.47 11971.11,3402.46 12021.66,3402.46 12072.2,3120.47 "/>
     <polygon class="fil17" points="12173.29,3120.47 12122.75,3402.46 12173.29,3402.46 12223.83,3120.47 "/>
    </g>
   </g>
   <g>
    <g>
     <g id="_1925592480464">
      <image x="4931.02" y="4542.95" width="881.54" height="761.32" xlink:href="approve_Images\approve_ImgID1.png"/>
     </g>
    </g>
    <g>
     <g id="_1925592478880">
      <path class="fil18" d="M5432.22 5724.85l-138.33 0 0 -66.51 138.33 0c45.22,0 79.81,-37.24 79.81,-79.81l0 -114.39c0,-45.22 -37.24,-79.81 -79.81,-79.81l-138.33 0 0 -66.51 138.33 0c82.47,0 146.31,66.51 146.31,146.31l0 114.39c2.66,79.81 -63.85,146.31 -146.31,146.31z"/>
     </g>
    </g>
    <path class="fil18" d="M5235.37 5900.43l-234.1 0c-90.45,0 -162.28,-71.83 -162.28,-162.28l0 -513.43 558.65 0 0 513.43c0,87.79 -71.83,162.28 -162.28,162.28z"/>
    <path class="fil19" d="M4748.54 5804.66c0,0 5.32,130.35 210.16,130.35l321.89 0c204.84,0 210.16,-130.35 210.16,-130.35l-742.21 0z"/>
   </g>
   <g id="XMLID_30_">
    <g id="XMLID_96_">
     <g id="_1925592531056">
      <rect id="XMLID_143_" class="fil13" x="6286.16" y="5884.47" width="2960.85" height="53.2"/>
      <rect id="XMLID_142_" class="fil13" x="6387.25" y="5841.9" width="212.82" height="42.56"/>
      <rect id="XMLID_141_" class="fil13" x="6706.48" y="5841.9" width="212.82" height="42.56"/>
      <rect id="XMLID_140_" class="fil13" x="7028.37" y="5841.9" width="212.82" height="42.56"/>
      <rect id="XMLID_139_" class="fil13" x="7350.26" y="5841.9" width="212.82" height="42.56"/>
      <rect id="XMLID_138_" class="fil13" x="7669.49" y="5841.9" width="212.82" height="42.56"/>
      <rect id="XMLID_137_" class="fil13" x="7991.38" y="5841.9" width="212.82" height="42.56"/>
      <rect id="XMLID_136_" class="fil13" x="8313.27" y="5841.9" width="212.82" height="42.56"/>
      <rect id="XMLID_135_" class="fil13" x="8635.16" y="5841.9" width="212.82" height="42.56"/>
      <rect id="XMLID_134_" class="fil13" x="8954.39" y="5841.9" width="212.82" height="42.56"/>
     </g>
    </g>
    <g id="XMLID_51_">
     <g id="_1925592519584">
      <rect id="XMLID_133_" class="fil3" x="6323.41" y="5884.47" width="2960.85" height="53.2"/>
      <rect id="XMLID_132_" class="fil3" x="6424.5" y="5841.9" width="212.82" height="42.56"/>
      <rect id="XMLID_131_" class="fil3" x="6746.39" y="5841.9" width="212.82" height="42.56"/>
      <rect id="XMLID_129_" class="fil3" x="7068.28" y="5841.9" width="212.82" height="42.56"/>
      <rect id="XMLID_127_" class="fil3" x="7387.51" y="5841.9" width="212.82" height="42.56"/>
      <rect id="XMLID_122_" class="fil3" x="7709.4" y="5841.9" width="212.82" height="42.56"/>
      <rect id="XMLID_121_" class="fil3" x="8031.29" y="5841.9" width="212.82" height="42.56"/>
      <rect id="XMLID_120_" class="fil3" x="8350.52" y="5841.9" width="212.82" height="42.56"/>
      <rect id="XMLID_119_" class="fil3" x="8672.4" y="5841.9" width="212.82" height="42.56"/>
      <rect id="XMLID_118_" class="fil3" x="8994.29" y="5841.9" width="212.82" height="42.56"/>
     </g>
    </g>
   </g>
   <g>
    <g>
     <g>
      <path class="fil8" d="M2112.24 7922.22c37.24,-146.31 21.28,-305.93 -45.22,-441.6 -66.51,-135.67 -180.9,-247.4 -319.23,-308.59 -55.87,-23.94 -117.05,-42.56 -167.6,-77.15 -10.64,71.83 -13.3,146.31 -13.3,218.14 0,71.83 7.98,146.31 31.92,212.82 63.85,175.58 242.08,284.65 415,353.81l98.43 42.56zm0 0l0 0 0 0z"/>
     </g>
    </g>
    <g>
     <g>
      <path class="fil10" d="M2133.52 8393.08c5.32,-340.51 10.64,-728.91 -258.04,-981.63 -5.32,-5.32 -10.64,2.66 -5.32,5.32 119.71,138.33 204.84,308.59 231.44,492.15 21.28,159.61 13.3,321.89 26.6,484.16 -2.66,5.32 5.32,5.32 5.32,0l0 0z"/>
     </g>
    </g>
    <g>
     <path class="fil8" d="M1697.24 8840c-26.6,-202.18 -138.33,-391.06 -303.27,-510.77 -82.47,-58.53 -175.58,-101.09 -271.35,-122.37 -55.87,-13.3 -308.59,0 -308.59,0 0,0 53.2,188.88 117.05,279.33 143.65,210.16 401.7,372.43 766.15,353.81z"/>
    </g>
    <g>
     <path class="fil9" d="M1473.78 8190.9c-5.32,-122.37 -29.26,-244.74 -66.51,-359.13 -15.96,-47.88 -31.92,-93.11 -58.53,-133.01 -85.13,-133.01 -242.08,-196.86 -393.72,-223.46 -2.66,127.69 13.3,263.36 82.47,369.77 31.92,47.88 71.83,85.13 114.39,122.37 85.13,74.49 234.1,156.95 321.89,223.46z"/>
    </g>
    <g>
     <path class="fil9" d="M2335.7 7743.98c-23.94,-162.28 -45.22,-337.85 29.26,-484.16 26.6,-53.2 63.85,-98.43 106.41,-140.99 98.43,-101.09 228.78,-186.22 372.43,-186.22 26.6,151.63 -5.32,313.91 -85.13,446.92 -85.13,130.35 -276.67,319.23 -422.98,364.45z"/>
    </g>
    <g>
     <path class="fil9" d="M2072.33 8691.03c151.63,31.92 313.91,-2.66 441.6,-90.45 127.69,-87.79 212.82,-231.44 236.76,-383.08 0,-7.98 2.66,-13.3 -2.66,-18.62 -5.32,-5.32 -10.64,-5.32 -18.62,-5.32 -260.7,-5.32 -585.25,244.74 -657.08,497.47z"/>
    </g>
    <g>
     <path class="fil9" d="M1534.96 8103.11c215.48,-122.37 353.81,-364.45 359.13,-627.82 -154.29,-7.98 -274.01,87.79 -340.51,170.26 -95.77,111.73 -103.75,313.91 -18.62,457.56z"/>
    </g>
    <g>
     <g>
      <path class="fil9" d="M1691.92 8528.75c-58.53,-143.65 -39.9,-313.91 47.88,-441.6 85.13,-127.69 239.42,-210.16 393.72,-210.16 5.32,0 13.3,0 18.62,5.32 2.66,2.66 2.66,7.98 2.66,10.64 5.32,133.01 -53.2,260.7 -135.67,364.45 -82.47,103.75 -191.54,183.56 -297.95,260.7l-29.26 10.64zm0 0l0 0 0 0z"/>
     </g>
    </g>
    <g>
     <g>
      <path class="fil10" d="M2569.8 7366.22c-287.31,274.01 -388.4,710.29 -462.88,1082.72 -87.79,430.96 -138.33,880.54 -154.29,1319.48 0,7.98 10.64,7.98 10.64,0 50.54,-430.96 71.83,-861.92 156.95,-1290.22 74.49,-380.42 172.92,-822.02 454.9,-1109.32 5.32,0 0,-5.32 -5.32,-2.66l0 0z"/>
     </g>
    </g>
    <g>
     <g>
      <path class="fil10" d="M1691.92 8757.53c-5.32,-130.35 18.62,-244.74 47.88,-369.77 0,-5.32 -5.32,-7.98 -7.98,-2.66 -53.2,103.75 -69.17,260.7 -50.54,377.76 -2.66,2.66 10.64,0 10.64,-5.32l0 0z"/>
     </g>
    </g>
    <g>
     <g>
      <path class="fil10" d="M1707.88 7656.19c-172.92,156.95 -215.48,484.16 -146.31,694.32 2.66,5.32 10.64,2.66 7.98,-2.66 -47.88,-220.8 -31.92,-521.41 138.33,-691.66 5.32,0 2.66,0 0,0l0 0z"/>
     </g>
    </g>
    <g>
     <g>
      <path class="fil10" d="M1771.72 9505.06c10.64,-300.61 -39.9,-614.52 -122.37,-901.82 -82.47,-284.65 -212.82,-590.57 -428.3,-800.73 -5.32,-5.32 -13.3,2.66 -7.98,7.98 95.77,119.71 186.22,236.76 258.04,375.09 71.83,140.99 127.69,287.31 170.26,438.94 82.47,289.97 103.75,579.93 122.37,877.88 -2.66,10.64 7.98,10.64 7.98,2.66l0 0z"/>
     </g>
    </g>
    <path id="XMLID_5_" class="fil11" d="M2652.27 8983.65l0 212.82c0,843.3 -279.33,1082.72 -279.33,1082.72l-864.58 0c0,0 -279.33,-239.42 -279.33,-1082.72l0 -212.82 1423.23 0z"/>
   </g>
   <line class="fil2 str4" x1="752.85" y1="10279.19" x2="14330.75" y2= "10279.19" />
   <g>
    <g>
     <path class="fil3" d="M4493.16 3993.03c15.96,0 15.96,-26.6 0,-26.6 -15.96,0 -15.96,26.6 0,26.6l0 0z"/>
    </g>
   </g>
   <g>
    <path class="fil20" d="M8464.04 161.71l0 0c549.76,0 999.55,449.8 999.55,999.55l0 0c0,549.75 -449.79,999.55 -999.55,999.55l0 0c-549.75,0 -999.55,-449.8 -999.55,-999.55l0 0c0,-549.75 449.8,-999.55 999.55,-999.55l0 0zm0 110.71c-488.86,0 -888.83,399.98 -888.83,888.84l0 0c0,488.86 399.97,888.83 888.83,888.83l0 0c488.86,0 888.84,-399.97 888.84,-888.83l0 0c0,-488.86 -399.98,-888.84 -888.84,-888.84l0 0z"/>
    <path class="fil9" d="M8262.08 1314.5l575.78 -575.77c49.56,-49.57 129.95,-49.57 179.51,0 49.57,49.56 49.57,129.94 0,179.51l-664.88 664.87c-0.22,0.23 -0.43,0.45 -0.65,0.67 -49.57,49.57 -129.96,49.57 -179.53,0l-23.93 -23.93 0 -0.01 -237.67 -237.67c-49.56,-49.57 -49.56,-129.95 0,-179.51 49.57,-49.57 129.95,-49.57 179.51,0l171.86 171.85z"/>
   </g>
  </g>
 </g>
</svg>
