<svg xmlns="http://www.w3.org/2000/svg" xml:space="preserve" width="297mm" height="114mm" version="1.1" style="shape-rendering:geometricPrecision; text-rendering:geometricPrecision; image-rendering:optimizeQuality; fill-rule:evenodd; clip-rule:evenodd"
viewBox="0 0 29700 11400"
 xmlns:xlink="http://www.w3.org/1999/xlink"
 xmlns:xodm="http://www.corel.com/coreldraw/odm/2003">
 <defs>
  <style type="text/css">
   <![CDATA[
    .fil0 {fill:#CCCCCC;fill-rule:nonzero}
    .fil1 {fill:#c5c2c2;fill-rule:nonzero}
    .fil2 {fill:#F0F0F0;fill-rule:nonzero}
   ]]>
  </style>
 </defs>
 <g id="Layer_x0020_1">
  <metadata id="CorelCorpID_0Corel-Layer"/>
  <g id="_2086135708336">
   <path class="fil0" d="M2949.36 34.59c849.44,440.36 1614.2,1322.26 2264.9,2206.25 987.32,1341.29 2016.31,2857.48 3414.73,3170.06 1314.32,293.88 2629.96,-565.96 3962.27,-504.45 1297.1,60.05 2481.16,986.24 3489.32,2062.87 1008.11,1076.4 1911.06,2333.41 3005.22,3252.8 1094.1,919.3 2459.82,1478.04 3697.86,964.6 865.15,-358.87 1601.14,-1210.21 2498.85,-1382.46 703.12,-135.03 1409.77,167.56 2069.99,513.58 660.12,346.11 1321.45,745.15 2029.96,815.71 100.58,10.03 202.71,11.77 304.92,5.1l0 -10989.17 -8827.87 -114.89 -17910.15 0z"/>
   <path class="fil1" d="M4531.17 34.59c738.39,384.06 1394.77,1180.22 1967.26,1895.15 938.54,1172.06 1559.49,2861.91 3444.73,3295.82 1885.24,433.93 2417.57,256.86 3568.1,-27.88 1150.53,-284.75 2557.29,36.01 3515.64,976.71 958.38,940.71 1618.21,1926.51 2658.32,2729.89 1040.11,803.38 2338.39,1291.58 3515.32,842.9 822.44,-313.58 1522.09,-1057.54 2375.51,-1208.06 668.39,-118 1340.14,146.43 1967.77,448.8 627.53,302.46 1256.2,651.16 1929.75,712.8 70.68,6.48 142.16,8.96 213.88,7.49l0 -9616.88 -4948.57 -56.74 -20207.71 0z"/>
   <path class="fil2" d="M3112.98 34.59c777.45,344.01 1469.56,1010.81 2071.99,1639.43 989.57,1032.55 2020.84,2199.77 3422.41,2440.41 1317.27,226.22 2635.88,-435.71 3971.22,-388.35 1300.01,46.23 2486.76,759.24 3497.2,1588.06 1010.4,828.61 1915.35,1796.3 3011.99,2504.07 1096.58,707.71 2465.39,1137.82 3706.23,742.54 867.11,-276.24 1604.74,-931.62 2504.51,-1064.22 704.69,-103.96 1412.93,128.98 2074.64,395.36 661.61,266.44 1324.41,573.64 2034.53,627.94 92.32,7.07 185.94,8.76 279.73,5.06l0 -8490.3 -26574.45 0z"/>
  </g>
 </g>
</svg>
