
<svg xmlns="http://www.w3.org/2000/svg" xml:space="preserve" width="281.577mm" height="115.987mm" version="1.1" style="shape-rendering:geometricPrecision; text-rendering:geometricPrecision; image-rendering:optimizeQuality; fill-rule:evenodd; clip-rule:evenodd"
viewBox="0 0 29693.08 12231.19"
 xmlns:xlink="http://www.w3.org/1999/xlink"
 xmlns:xodm="http://www.corel.com/coreldraw/odm/2003">
 <defs>
  <style type="text/css">
   <![CDATA[
    .fil1 {fill:#D6D6D6;fill-rule:nonzero}
    .fil2 {fill:#F0F0F0;fill-rule:nonzero}
   ]]>
  </style>
 </defs>
 <g id="Layer_x0020_1">
  <metadata id="CorelCorpID_0Corel-Layer"/>
  <g id="_2086135708336">
   <path class="fil1" d="M1584.95 12228.95l699.72 -18.12c1145.83,-29.66 2132.44,-1215.75 2954.89,-2242.83 989.72,-1235.97 1644.53,-3017.97 3632.57,-3475.55 1988.04,-457.59 2549.4,-270.87 3762.67,29.4 1213.27,300.28 2696.74,-37.97 3707.35,-1029.97 1010.64,-992.01 1706.45,-2031.57 2803.28,-2878.75 1096.83,-847.19 2465.91,-1362.01 3707.01,-888.86 867.29,330.68 1605.09,1115.21 2505.05,1273.94 704.84,124.43 1413.22,-154.41 2075.08,-473.27 661.75,-318.95 1324.7,-686.67 2034.98,-751.67 74.53,-6.83 149.91,-9.45 225.54,-7.9l0 10141.3 -28108.13 322.29z"/>
   <path class="fil2" d="M-0 12230.91c366.32,-12.9 710.44,-13.3 1044.74,-75.49 1077.81,-200.52 2017.33,-1036.56 2809.73,-1813.61 1043.53,-1023.27 2131.04,-2180.01 3609.04,-2418.49 1389.1,-224.19 2779.62,431.8 4187.77,384.86 1370.9,-45.82 2622.37,-752.42 3687.91,-1573.79 1065.5,-821.17 2019.8,-1780.17 3176.24,-2481.59 1156.38,-701.36 2599.83,-1127.6 3908.33,-735.87 914.39,273.76 1692.25,923.25 2641.08,1054.67 743.12,103.02 1489.98,-127.83 2187.77,-391.81 697.69,-264.05 1396.63,-568.49 2145.47,-622.3 97.35,-7.01 196.08,-8.69 294.98,-5.02l0 8653.99 -29693.08 24.47z"/>
  </g>
 </g>
</svg>
